<svg width="154" height="55" viewBox="0 0 154 55" fill="none" xmlns="http://www.w3.org/2000/svg">
<g filter="url(#filter0_d_523_339)">
<rect width="150" height="51" rx="20" fill="#CCFFB4" shape-rendering="crispEdges"/>
<path d="M30.1 17.84H32.68L38.84 32H35.32L34.1 29H28.6L27.42 32H23.98L30.1 17.84ZM31.3 21.96L29.58 26.36H33.04L31.3 21.96ZM49.5242 21.52C49.2176 21.1467 48.8376 20.86 48.3842 20.66C47.9442 20.46 47.4309 20.36 46.8442 20.36C46.2576 20.36 45.7109 20.4733 45.2042 20.7C44.7109 20.9267 44.2776 21.2467 43.9042 21.66C43.5442 22.06 43.2576 22.54 43.0442 23.1C42.8442 23.66 42.7442 24.2667 42.7442 24.92C42.7442 25.5867 42.8442 26.2 43.0442 26.76C43.2576 27.3067 43.5442 27.7867 43.9042 28.2C44.2642 28.6 44.6842 28.9133 45.1642 29.14C45.6576 29.3667 46.1842 29.48 46.7442 29.48C47.3842 29.48 47.9509 29.3467 48.4442 29.08C48.9376 28.8133 49.3442 28.44 49.6642 27.96L52.2642 29.9C51.6642 30.74 50.9042 31.36 49.9842 31.76C49.0642 32.16 48.1176 32.36 47.1442 32.36C46.0376 32.36 45.0176 32.1867 44.0842 31.84C43.1509 31.4933 42.3442 31 41.6642 30.36C40.9842 29.7067 40.4509 28.92 40.0642 28C39.6909 27.08 39.5042 26.0533 39.5042 24.92C39.5042 23.7867 39.6909 22.76 40.0642 21.84C40.4509 20.92 40.9842 20.14 41.6642 19.5C42.3442 18.8467 43.1509 18.3467 44.0842 18C45.0176 17.6533 46.0376 17.48 47.1442 17.48C47.5442 17.48 47.9576 17.52 48.3842 17.6C48.8242 17.6667 49.2509 17.78 49.6642 17.94C50.0909 18.1 50.4976 18.3133 50.8842 18.58C51.2709 18.8467 51.6176 19.1733 51.9242 19.56L49.5242 21.52ZM63.2156 21.52C62.909 21.1467 62.529 20.86 62.0756 20.66C61.6356 20.46 61.1223 20.36 60.5356 20.36C59.949 20.36 59.4023 20.4733 58.8956 20.7C58.4023 20.9267 57.969 21.2467 57.5956 21.66C57.2356 22.06 56.949 22.54 56.7356 23.1C56.5356 23.66 56.4356 24.2667 56.4356 24.92C56.4356 25.5867 56.5356 26.2 56.7356 26.76C56.949 27.3067 57.2356 27.7867 57.5956 28.2C57.9556 28.6 58.3756 28.9133 58.8556 29.14C59.349 29.3667 59.8756 29.48 60.4356 29.48C61.0756 29.48 61.6423 29.3467 62.1356 29.08C62.629 28.8133 63.0356 28.44 63.3556 27.96L65.9556 29.9C65.3556 30.74 64.5956 31.36 63.6756 31.76C62.7556 32.16 61.809 32.36 60.8356 32.36C59.729 32.36 58.709 32.1867 57.7756 31.84C56.8423 31.4933 56.0356 31 55.3556 30.36C54.6756 29.7067 54.1423 28.92 53.7556 28C53.3823 27.08 53.1956 26.0533 53.1956 24.92C53.1956 23.7867 53.3823 22.76 53.7556 21.84C54.1423 20.92 54.6756 20.14 55.3556 19.5C56.0356 18.8467 56.8423 18.3467 57.7756 18C58.709 17.6533 59.729 17.48 60.8356 17.48C61.2356 17.48 61.649 17.52 62.0756 17.6C62.5156 17.6667 62.9423 17.78 63.3556 17.94C63.7823 18.1 64.189 18.3133 64.5756 18.58C64.9623 18.8467 65.309 19.1733 65.6156 19.56L63.2156 21.52ZM66.887 24.92C66.887 23.7867 67.0737 22.76 67.447 21.84C67.8337 20.92 68.367 20.14 69.047 19.5C69.727 18.8467 70.5337 18.3467 71.467 18C72.4004 17.6533 73.4204 17.48 74.527 17.48C75.6337 17.48 76.6537 17.6533 77.587 18C78.5204 18.3467 79.327 18.8467 80.007 19.5C80.687 20.14 81.2137 20.92 81.587 21.84C81.9737 22.76 82.167 23.7867 82.167 24.92C82.167 26.0533 81.9737 27.08 81.587 28C81.2137 28.92 80.687 29.7067 80.007 30.36C79.327 31 78.5204 31.4933 77.587 31.84C76.6537 32.1867 75.6337 32.36 74.527 32.36C73.4204 32.36 72.4004 32.1867 71.467 31.84C70.5337 31.4933 69.727 31 69.047 30.36C68.367 29.7067 67.8337 28.92 67.447 28C67.0737 27.08 66.887 26.0533 66.887 24.92ZM70.127 24.92C70.127 25.5867 70.227 26.2 70.427 26.76C70.6404 27.3067 70.9404 27.7867 71.327 28.2C71.7137 28.6 72.1737 28.9133 72.707 29.14C73.2537 29.3667 73.8604 29.48 74.527 29.48C75.1937 29.48 75.7937 29.3667 76.327 29.14C76.8737 28.9133 77.3404 28.6 77.727 28.2C78.1137 27.7867 78.407 27.3067 78.607 26.76C78.8204 26.2 78.927 25.5867 78.927 24.92C78.927 24.2667 78.8204 23.66 78.607 23.1C78.407 22.54 78.1137 22.06 77.727 21.66C77.3404 21.2467 76.8737 20.9267 76.327 20.7C75.7937 20.4733 75.1937 20.36 74.527 20.36C73.8604 20.36 73.2537 20.4733 72.707 20.7C72.1737 20.9267 71.7137 21.2467 71.327 21.66C70.9404 22.06 70.6404 22.54 70.427 23.1C70.227 23.66 70.127 24.2667 70.127 24.92ZM96.2277 26.54C96.2277 27.38 96.101 28.1533 95.8477 28.86C95.5943 29.5667 95.2143 30.18 94.7077 30.7C94.2143 31.22 93.5943 31.6267 92.8477 31.92C92.101 32.2133 91.241 32.36 90.2677 32.36C89.281 32.36 88.4143 32.2133 87.6677 31.92C86.921 31.6267 86.2943 31.22 85.7877 30.7C85.2943 30.18 84.921 29.5667 84.6677 28.86C84.4143 28.1533 84.2877 27.38 84.2877 26.54V17.84H87.4077V26.42C87.4077 26.86 87.4743 27.2667 87.6077 27.64C87.7543 28.0133 87.9543 28.34 88.2077 28.62C88.461 28.8867 88.761 29.1 89.1077 29.26C89.4677 29.4067 89.8543 29.48 90.2677 29.48C90.681 29.48 91.061 29.4067 91.4077 29.26C91.7543 29.1 92.0543 28.8867 92.3077 28.62C92.561 28.34 92.7543 28.0133 92.8877 27.64C93.0343 27.2667 93.1077 26.86 93.1077 26.42V17.84H96.2277V26.54ZM99.1119 17.84H103.352L109.372 27.68H109.412V17.84H112.532V32H108.452L102.272 21.92H102.232V32H99.1119V17.84ZM118.16 20.6H114.12V17.84H125.32V20.6H121.28V32H118.16V20.6Z" fill="#0F4500"/>
</g>
<defs>
<filter id="filter0_d_523_339" x="0" y="0" width="154" height="55" filterUnits="userSpaceOnUse" color-interpolation-filters="sRGB">
<feFlood flood-opacity="0" result="BackgroundImageFix"/>
<feColorMatrix in="SourceAlpha" type="matrix" values="0 0 0 0 0 0 0 0 0 0 0 0 0 0 0 0 0 0 127 0" result="hardAlpha"/>
<feOffset dx="4" dy="4"/>
<feComposite in2="hardAlpha" operator="out"/>
<feColorMatrix type="matrix" values="0 0 0 0 0.615686 0 0 0 0 0.788235 0 0 0 0 0.333333 0 0 0 1 0"/>
<feBlend mode="normal" in2="BackgroundImageFix" result="effect1_dropShadow_523_339"/>
<feBlend mode="normal" in="SourceGraphic" in2="effect1_dropShadow_523_339" result="shape"/>
</filter>
</defs>
</svg>
