<svg width="146" height="38" viewBox="0 0 146 38" fill="none" xmlns="http://www.w3.org/2000/svg">
<rect x="0.5" y="0.5" width="145" height="37" rx="18.5" fill="#006C4D"/>
<path d="M11.088 17.472C11.472 17.0773 11.9253 16.7893 12.448 16.608C12.9813 16.416 13.52 16.32 14.064 16.32C15.1733 16.32 15.9733 16.5813 16.464 17.104C16.9547 17.6267 17.2 18.4213 17.2 19.488V22.704C17.2 22.9173 17.2107 23.1413 17.232 23.376C17.2533 23.6 17.28 23.808 17.312 24H16.112C16.0693 23.8293 16.0427 23.6427 16.032 23.44C16.032 23.2267 16.032 23.04 16.032 22.88H16C15.7547 23.264 15.424 23.5787 15.008 23.824C14.6027 24.0693 14.112 24.192 13.536 24.192C13.152 24.192 12.7893 24.144 12.448 24.048C12.1173 23.952 11.824 23.8133 11.568 23.632C11.3227 23.44 11.1253 23.2053 10.976 22.928C10.8267 22.6507 10.752 22.3307 10.752 21.968C10.752 21.3493 10.912 20.864 11.232 20.512C11.552 20.16 11.9467 19.8987 12.416 19.728C12.896 19.5573 13.408 19.4507 13.952 19.408C14.5067 19.3653 15.0133 19.344 15.472 19.344H15.952V19.12C15.952 18.576 15.7867 18.1653 15.456 17.888C15.136 17.6107 14.6827 17.472 14.096 17.472C13.6907 17.472 13.2907 17.5413 12.896 17.68C12.512 17.808 12.1707 18.0107 11.872 18.288L11.088 17.472ZM14.704 20.4C13.904 20.4 13.2693 20.512 12.8 20.736C12.3307 20.96 12.096 21.328 12.096 21.84C12.096 22.3093 12.2507 22.6453 12.56 22.848C12.88 23.04 13.2747 23.136 13.744 23.136C14.1067 23.136 14.4213 23.0773 14.688 22.96C14.9653 22.832 15.1947 22.6667 15.376 22.464C15.5573 22.2613 15.696 22.0267 15.792 21.76C15.888 21.4827 15.9413 21.1893 15.952 20.88V20.4H14.704ZM25.7049 22.672H25.6729C25.4382 23.0987 25.0649 23.4613 24.5529 23.76C24.0515 24.048 23.4649 24.192 22.7929 24.192C22.2702 24.192 21.7795 24.096 21.3209 23.904C20.8622 23.7013 20.4622 23.424 20.1209 23.072C19.7902 22.72 19.5289 22.304 19.3369 21.824C19.1449 21.344 19.0489 20.8213 19.0489 20.256C19.0489 19.6907 19.1449 19.168 19.3369 18.688C19.5289 18.208 19.7955 17.792 20.1369 17.44C20.4782 17.088 20.8889 16.816 21.3689 16.624C21.8595 16.4213 22.3982 16.32 22.9849 16.32C23.5289 16.32 24.0249 16.432 24.4729 16.656C24.9315 16.88 25.3315 17.1947 25.6729 17.6H25.7049V11.904H26.9529V24H25.7049V22.672ZM25.7049 20.256C25.7049 19.8613 25.6409 19.4987 25.5129 19.168C25.3955 18.8267 25.2195 18.5333 24.9849 18.288C24.7502 18.032 24.4675 17.8347 24.1369 17.696C23.8169 17.5467 23.4542 17.472 23.0489 17.472C22.6435 17.472 22.2755 17.5467 21.9449 17.696C21.6249 17.8347 21.3475 18.032 21.1129 18.288C20.8782 18.5333 20.6969 18.8267 20.5689 19.168C20.4515 19.4987 20.3929 19.8613 20.3929 20.256C20.3929 20.6507 20.4515 21.0187 20.5689 21.36C20.6969 21.6907 20.8782 21.984 21.1129 22.24C21.3475 22.4853 21.6249 22.6827 21.9449 22.832C22.2755 22.9707 22.6435 23.04 23.0489 23.04C23.4542 23.04 23.8169 22.9707 24.1369 22.832C24.4675 22.6827 24.7502 22.4853 24.9849 22.24C25.2195 21.984 25.3955 21.6907 25.5129 21.36C25.6409 21.0187 25.7049 20.6507 25.7049 20.256ZM35.4861 22.672H35.4541C35.2195 23.0987 34.8461 23.4613 34.3341 23.76C33.8328 24.048 33.2461 24.192 32.5741 24.192C32.0515 24.192 31.5608 24.096 31.1021 23.904C30.6435 23.7013 30.2435 23.424 29.9021 23.072C29.5715 22.72 29.3101 22.304 29.1181 21.824C28.9261 21.344 28.8301 20.8213 28.8301 20.256C28.8301 19.6907 28.9261 19.168 29.1181 18.688C29.3101 18.208 29.5768 17.792 29.9181 17.44C30.2595 17.088 30.6701 16.816 31.1501 16.624C31.6408 16.4213 32.1795 16.32 32.7661 16.32C33.3101 16.32 33.8061 16.432 34.2541 16.656C34.7128 16.88 35.1128 17.1947 35.4541 17.6H35.4861V11.904H36.7341V24H35.4861V22.672ZM35.4861 20.256C35.4861 19.8613 35.4221 19.4987 35.2941 19.168C35.1768 18.8267 35.0008 18.5333 34.7661 18.288C34.5315 18.032 34.2488 17.8347 33.9181 17.696C33.5981 17.5467 33.2355 17.472 32.8301 17.472C32.4248 17.472 32.0568 17.5467 31.7261 17.696C31.4061 17.8347 31.1288 18.032 30.8941 18.288C30.6595 18.5333 30.4781 18.8267 30.3501 19.168C30.2328 19.4987 30.1741 19.8613 30.1741 20.256C30.1741 20.6507 30.2328 21.0187 30.3501 21.36C30.4781 21.6907 30.6595 21.984 30.8941 22.24C31.1288 22.4853 31.4061 22.6827 31.7261 22.832C32.0568 22.9707 32.4248 23.04 32.8301 23.04C33.2355 23.04 33.5981 22.9707 33.9181 22.832C34.2488 22.6827 34.5315 22.4853 34.7661 22.24C35.0008 21.984 35.1768 21.6907 35.2941 21.36C35.4221 21.0187 35.4861 20.6507 35.4861 20.256ZM43.4965 18.288C43.4965 17.9467 43.4858 17.6267 43.4645 17.328C43.4432 17.0293 43.4325 16.7573 43.4325 16.512H44.6165C44.6165 16.7147 44.6218 16.9173 44.6325 17.12C44.6432 17.3227 44.6485 17.5307 44.6485 17.744H44.6805C44.7658 17.5627 44.8832 17.3867 45.0325 17.216C45.1925 17.0453 45.3792 16.896 45.5925 16.768C45.8058 16.6293 46.0458 16.5227 46.3125 16.448C46.5792 16.3627 46.8672 16.32 47.1765 16.32C47.5818 16.32 47.9178 16.3733 48.1845 16.48C48.4618 16.576 48.6912 16.6987 48.8725 16.848C49.0538 16.9867 49.1925 17.1413 49.2885 17.312C49.3952 17.472 49.4805 17.616 49.5445 17.744C49.8218 17.296 50.1418 16.9493 50.5045 16.704C50.8672 16.448 51.3365 16.32 51.9125 16.32C52.4458 16.32 52.8938 16.3947 53.2565 16.544C53.6192 16.6827 53.9125 16.8907 54.1365 17.168C54.3605 17.4347 54.5205 17.7653 54.6165 18.16C54.7125 18.544 54.7605 18.976 54.7605 19.456V24H53.5125V19.52C53.5125 19.264 53.4858 19.0133 53.4325 18.768C53.3792 18.5227 53.2832 18.304 53.1445 18.112C53.0058 17.92 52.8192 17.7653 52.5845 17.648C52.3498 17.5307 52.0512 17.472 51.6885 17.472C51.4218 17.472 51.1712 17.5253 50.9365 17.632C50.7018 17.7387 50.4938 17.888 50.3125 18.08C50.1418 18.272 50.0032 18.5067 49.8965 18.784C49.8005 19.0507 49.7525 19.3493 49.7525 19.68V24H48.5045V19.76C48.5045 18.928 48.3925 18.3413 48.1685 18C47.9445 17.648 47.5765 17.472 47.0645 17.472C46.6592 17.472 46.3072 17.5413 46.0085 17.68C45.7205 17.8187 45.4805 18.016 45.2885 18.272C45.1072 18.528 44.9685 18.832 44.8725 19.184C44.7872 19.536 44.7445 19.9253 44.7445 20.352V24H43.4965V18.288ZM57.0255 17.472C57.4095 17.0773 57.8628 16.7893 58.3855 16.608C58.9188 16.416 59.4575 16.32 60.0015 16.32C61.1108 16.32 61.9108 16.5813 62.4015 17.104C62.8922 17.6267 63.1375 18.4213 63.1375 19.488V22.704C63.1375 22.9173 63.1482 23.1413 63.1695 23.376C63.1908 23.6 63.2175 23.808 63.2495 24H62.0495C62.0068 23.8293 61.9802 23.6427 61.9695 23.44C61.9695 23.2267 61.9695 23.04 61.9695 22.88H61.9375C61.6922 23.264 61.3615 23.5787 60.9455 23.824C60.5402 24.0693 60.0495 24.192 59.4735 24.192C59.0895 24.192 58.7268 24.144 58.3855 24.048C58.0548 23.952 57.7615 23.8133 57.5055 23.632C57.2602 23.44 57.0628 23.2053 56.9135 22.928C56.7642 22.6507 56.6895 22.3307 56.6895 21.968C56.6895 21.3493 56.8495 20.864 57.1695 20.512C57.4895 20.16 57.8842 19.8987 58.3535 19.728C58.8335 19.5573 59.3455 19.4507 59.8895 19.408C60.4442 19.3653 60.9508 19.344 61.4095 19.344H61.8895V19.12C61.8895 18.576 61.7242 18.1653 61.3935 17.888C61.0735 17.6107 60.6202 17.472 60.0335 17.472C59.6282 17.472 59.2282 17.5413 58.8335 17.68C58.4495 17.808 58.1082 18.0107 57.8095 18.288L57.0255 17.472ZM60.6415 20.4C59.8415 20.4 59.2068 20.512 58.7375 20.736C58.2682 20.96 58.0335 21.328 58.0335 21.84C58.0335 22.3093 58.1882 22.6453 58.4975 22.848C58.8175 23.04 59.2122 23.136 59.6815 23.136C60.0442 23.136 60.3588 23.0773 60.6255 22.96C60.9028 22.832 61.1322 22.6667 61.3135 22.464C61.4948 22.2613 61.6335 22.0267 61.7295 21.76C61.8255 21.4827 61.8788 21.1893 61.8895 20.88V20.4H60.6415ZM65.4184 18.288C65.4184 17.9467 65.4077 17.6267 65.3864 17.328C65.365 17.0293 65.3544 16.7573 65.3544 16.512H66.5384C66.5384 16.7147 66.5437 16.9173 66.5544 17.12C66.565 17.3227 66.5704 17.5307 66.5704 17.744H66.6024C66.6877 17.5627 66.805 17.3867 66.9544 17.216C67.1144 17.0453 67.301 16.896 67.5144 16.768C67.7277 16.6293 67.9677 16.5227 68.2344 16.448C68.501 16.3627 68.789 16.32 69.0984 16.32C69.589 16.32 70.0104 16.3947 70.3624 16.544C70.725 16.6933 71.0237 16.9013 71.2584 17.168C71.493 17.4347 71.6637 17.76 71.7704 18.144C71.8877 18.5173 71.9464 18.928 71.9464 19.376V24H70.6984V19.504C70.6984 18.8747 70.5597 18.3787 70.2824 18.016C70.005 17.6533 69.573 17.472 68.9864 17.472C68.581 17.472 68.229 17.5413 67.9304 17.68C67.6424 17.8187 67.4024 18.016 67.2104 18.272C67.029 18.528 66.8904 18.832 66.7944 19.184C66.709 19.536 66.6664 19.9253 66.6664 20.352V24H65.4184V18.288ZM80.837 22.224C80.837 22.5653 80.8477 22.8853 80.869 23.184C80.8903 23.4827 80.901 23.7547 80.901 24H79.717C79.717 23.7973 79.7117 23.5947 79.701 23.392C79.6903 23.1893 79.685 22.9813 79.685 22.768H79.653C79.5677 22.9493 79.445 23.1253 79.285 23.296C79.1357 23.4667 78.9543 23.6213 78.741 23.76C78.5277 23.888 78.2877 23.9893 78.021 24.064C77.7543 24.1493 77.4663 24.192 77.157 24.192C76.6663 24.192 76.2397 24.1173 75.877 23.968C75.525 23.8187 75.2317 23.6107 74.997 23.344C74.7623 23.0773 74.5863 22.7573 74.469 22.384C74.3623 22 74.309 21.584 74.309 21.136V16.512H75.557V21.008C75.557 21.6373 75.6957 22.1333 75.973 22.496C76.2503 22.8587 76.6823 23.04 77.269 23.04C77.6743 23.04 78.021 22.9707 78.309 22.832C78.6077 22.6933 78.8477 22.496 79.029 22.24C79.221 21.984 79.3597 21.68 79.445 21.328C79.541 20.976 79.589 20.5867 79.589 20.16V16.512H80.837V22.224ZM83.1036 17.472C83.4876 17.0773 83.941 16.7893 84.4636 16.608C84.997 16.416 85.5356 16.32 86.0796 16.32C87.189 16.32 87.989 16.5813 88.4796 17.104C88.9703 17.6267 89.2156 18.4213 89.2156 19.488V22.704C89.2156 22.9173 89.2263 23.1413 89.2476 23.376C89.269 23.6 89.2956 23.808 89.3276 24H88.1276C88.085 23.8293 88.0583 23.6427 88.0476 23.44C88.0476 23.2267 88.0476 23.04 88.0476 22.88H88.0156C87.7703 23.264 87.4396 23.5787 87.0236 23.824C86.6183 24.0693 86.1276 24.192 85.5516 24.192C85.1676 24.192 84.805 24.144 84.4636 24.048C84.133 23.952 83.8396 23.8133 83.5836 23.632C83.3383 23.44 83.141 23.2053 82.9916 22.928C82.8423 22.6507 82.7676 22.3307 82.7676 21.968C82.7676 21.3493 82.9276 20.864 83.2476 20.512C83.5676 20.16 83.9623 19.8987 84.4316 19.728C84.9116 19.5573 85.4236 19.4507 85.9676 19.408C86.5223 19.3653 87.029 19.344 87.4876 19.344H87.9676V19.12C87.9676 18.576 87.8023 18.1653 87.4716 17.888C87.1516 17.6107 86.6983 17.472 86.1116 17.472C85.7063 17.472 85.3063 17.5413 84.9116 17.68C84.5276 17.808 84.1863 18.0107 83.8876 18.288L83.1036 17.472ZM86.7196 20.4C85.9196 20.4 85.285 20.512 84.8156 20.736C84.3463 20.96 84.1116 21.328 84.1116 21.84C84.1116 22.3093 84.2663 22.6453 84.5756 22.848C84.8956 23.04 85.2903 23.136 85.7596 23.136C86.1223 23.136 86.437 23.0773 86.7036 22.96C86.981 22.832 87.2103 22.6667 87.3916 22.464C87.573 22.2613 87.7116 22.0267 87.8076 21.76C87.9036 21.4827 87.957 21.1893 87.9676 20.88V20.4H86.7196ZM91.6085 11.904H92.8565V24H91.6085V11.904ZM106.481 22.64C106.033 23.216 105.543 23.6213 105.009 23.856C104.476 24.08 103.857 24.192 103.153 24.192C102.567 24.192 102.039 24.0907 101.569 23.888C101.1 23.6747 100.7 23.392 100.369 23.04C100.049 22.688 99.7987 22.272 99.6174 21.792C99.4467 21.312 99.3614 20.8 99.3614 20.256C99.3614 19.68 99.4574 19.152 99.6494 18.672C99.8414 18.1813 100.108 17.7653 100.449 17.424C100.791 17.072 101.196 16.8 101.665 16.608C102.135 16.416 102.647 16.32 103.201 16.32C103.724 16.32 104.204 16.4107 104.641 16.592C105.079 16.7627 105.452 17.0187 105.761 17.36C106.081 17.6907 106.327 18.1013 106.497 18.592C106.668 19.072 106.753 19.6213 106.753 20.24V20.64H100.705C100.727 20.96 100.801 21.2693 100.929 21.568C101.068 21.856 101.244 22.112 101.457 22.336C101.671 22.5493 101.921 22.72 102.209 22.848C102.497 22.976 102.812 23.04 103.153 23.04C103.697 23.04 104.156 22.944 104.529 22.752C104.903 22.56 105.239 22.2773 105.537 21.904L106.481 22.64ZM105.409 19.584C105.388 18.944 105.18 18.432 104.785 18.048C104.391 17.664 103.847 17.472 103.153 17.472C102.46 17.472 101.9 17.664 101.473 18.048C101.047 18.432 100.791 18.944 100.705 19.584H105.409ZM108.684 18.288C108.684 17.9467 108.673 17.6267 108.652 17.328C108.631 17.0293 108.62 16.7573 108.62 16.512H109.804C109.804 16.7147 109.809 16.9173 109.82 17.12C109.831 17.3227 109.836 17.5307 109.836 17.744H109.868C109.953 17.5627 110.071 17.3867 110.22 17.216C110.38 17.0453 110.567 16.896 110.78 16.768C110.993 16.6293 111.233 16.5227 111.5 16.448C111.767 16.3627 112.055 16.32 112.364 16.32C112.855 16.32 113.276 16.3947 113.628 16.544C113.991 16.6933 114.289 16.9013 114.524 17.168C114.759 17.4347 114.929 17.76 115.036 18.144C115.153 18.5173 115.212 18.928 115.212 19.376V24H113.964V19.504C113.964 18.8747 113.825 18.3787 113.548 18.016C113.271 17.6533 112.839 17.472 112.252 17.472C111.847 17.472 111.495 17.5413 111.196 17.68C110.908 17.8187 110.668 18.016 110.476 18.272C110.295 18.528 110.156 18.832 110.06 19.184C109.975 19.536 109.932 19.9253 109.932 20.352V24H108.684V18.288ZM121.671 17.568H119.463V21.312C119.463 21.5573 119.468 21.7867 119.479 22C119.489 22.2027 119.532 22.384 119.607 22.544C119.681 22.6933 119.793 22.816 119.943 22.912C120.092 22.9973 120.305 23.04 120.583 23.04C120.764 23.04 120.951 23.0187 121.143 22.976C121.335 22.9333 121.516 22.8693 121.687 22.784L121.735 23.92C121.521 24.016 121.281 24.0853 121.015 24.128C120.759 24.1707 120.513 24.192 120.279 24.192C119.831 24.192 119.473 24.1333 119.207 24.016C118.94 23.8987 118.732 23.7333 118.583 23.52C118.433 23.3067 118.332 23.0453 118.279 22.736C118.236 22.416 118.215 22.064 118.215 21.68V17.568H116.583V16.512H118.215V14.384H119.463V16.512H121.671V17.568ZM123.2 18.288C123.2 17.9467 123.189 17.6267 123.168 17.328C123.146 17.0293 123.136 16.7573 123.136 16.512H124.32C124.32 16.7147 124.325 16.9173 124.336 17.12C124.346 17.3227 124.352 17.5307 124.352 17.744H124.384C124.469 17.5627 124.586 17.3867 124.736 17.216C124.896 17.0453 125.082 16.896 125.296 16.768C125.509 16.6293 125.749 16.5227 126.016 16.448C126.282 16.3627 126.57 16.32 126.88 16.32C126.965 16.32 127.05 16.3253 127.136 16.336C127.221 16.3467 127.306 16.368 127.392 16.4L127.312 17.664C127.098 17.6 126.874 17.568 126.64 17.568C125.872 17.568 125.312 17.8187 124.96 18.32C124.618 18.8107 124.448 19.488 124.448 20.352V24H123.2V18.288ZM131.577 25.712C131.449 26.032 131.315 26.32 131.177 26.576C131.049 26.8427 130.889 27.0667 130.697 27.248C130.515 27.44 130.291 27.584 130.025 27.68C129.769 27.7867 129.454 27.84 129.081 27.84C128.899 27.84 128.707 27.8293 128.505 27.808C128.313 27.7867 128.131 27.7333 127.961 27.648L128.121 26.56C128.249 26.6133 128.382 26.6453 128.521 26.656C128.659 26.6773 128.819 26.688 129.001 26.688C129.406 26.688 129.705 26.576 129.897 26.352C130.089 26.128 130.254 25.8293 130.393 25.456L130.905 24.048L127.801 16.512H129.257L131.577 22.384H131.609L133.833 16.512H135.193L131.577 25.712Z" fill="#97D77D"/>
<rect x="0.5" y="0.5" width="145" height="37" rx="18.5" stroke="#97D77D"/>
</svg>
