<svg width="84" height="38" viewBox="0 0 84 38" fill="none" xmlns="http://www.w3.org/2000/svg">
<rect x="0.5" y="0.5" width="83" height="37" rx="18.5" fill="white"/>
<path d="M11.088 17.472C11.472 17.0773 11.9253 16.7893 12.448 16.608C12.9813 16.416 13.52 16.32 14.064 16.32C15.1733 16.32 15.9733 16.5813 16.464 17.104C16.9547 17.6267 17.2 18.4213 17.2 19.488V22.704C17.2 22.9173 17.2107 23.1413 17.232 23.376C17.2533 23.6 17.28 23.808 17.312 24H16.112C16.0693 23.8293 16.0427 23.6427 16.032 23.44C16.032 23.2267 16.032 23.04 16.032 22.88H16C15.7547 23.264 15.424 23.5787 15.008 23.824C14.6027 24.0693 14.112 24.192 13.536 24.192C13.152 24.192 12.7893 24.144 12.448 24.048C12.1173 23.952 11.824 23.8133 11.568 23.632C11.3227 23.44 11.1253 23.2053 10.976 22.928C10.8267 22.6507 10.752 22.3307 10.752 21.968C10.752 21.3493 10.912 20.864 11.232 20.512C11.552 20.16 11.9467 19.8987 12.416 19.728C12.896 19.5573 13.408 19.4507 13.952 19.408C14.5067 19.3653 15.0133 19.344 15.472 19.344H15.952V19.12C15.952 18.576 15.7867 18.1653 15.456 17.888C15.136 17.6107 14.6827 17.472 14.096 17.472C13.6907 17.472 13.2907 17.5413 12.896 17.68C12.512 17.808 12.1707 18.0107 11.872 18.288L11.088 17.472ZM14.704 20.4C13.904 20.4 13.2693 20.512 12.8 20.736C12.3307 20.96 12.096 21.328 12.096 21.84C12.096 22.3093 12.2507 22.6453 12.56 22.848C12.88 23.04 13.2747 23.136 13.744 23.136C14.1067 23.136 14.4213 23.0773 14.688 22.96C14.9653 22.832 15.1947 22.6667 15.376 22.464C15.5573 22.2613 15.696 22.0267 15.792 21.76C15.888 21.4827 15.9413 21.1893 15.952 20.88V20.4H14.704ZM25.7049 22.672H25.6729C25.4382 23.0987 25.0649 23.4613 24.5529 23.76C24.0515 24.048 23.4649 24.192 22.7929 24.192C22.2702 24.192 21.7795 24.096 21.3209 23.904C20.8622 23.7013 20.4622 23.424 20.1209 23.072C19.7902 22.72 19.5289 22.304 19.3369 21.824C19.1449 21.344 19.0489 20.8213 19.0489 20.256C19.0489 19.6907 19.1449 19.168 19.3369 18.688C19.5289 18.208 19.7955 17.792 20.1369 17.44C20.4782 17.088 20.8889 16.816 21.3689 16.624C21.8595 16.4213 22.3982 16.32 22.9849 16.32C23.5289 16.32 24.0249 16.432 24.4729 16.656C24.9315 16.88 25.3315 17.1947 25.6729 17.6H25.7049V11.904H26.9529V24H25.7049V22.672ZM25.7049 20.256C25.7049 19.8613 25.6409 19.4987 25.5129 19.168C25.3955 18.8267 25.2195 18.5333 24.9849 18.288C24.7502 18.032 24.4675 17.8347 24.1369 17.696C23.8169 17.5467 23.4542 17.472 23.0489 17.472C22.6435 17.472 22.2755 17.5467 21.9449 17.696C21.6249 17.8347 21.3475 18.032 21.1129 18.288C20.8782 18.5333 20.6969 18.8267 20.5689 19.168C20.4515 19.4987 20.3929 19.8613 20.3929 20.256C20.3929 20.6507 20.4515 21.0187 20.5689 21.36C20.6969 21.6907 20.8782 21.984 21.1129 22.24C21.3475 22.4853 21.6249 22.6827 21.9449 22.832C22.2755 22.9707 22.6435 23.04 23.0489 23.04C23.4542 23.04 23.8169 22.9707 24.1369 22.832C24.4675 22.6827 24.7502 22.4853 24.9849 22.24C25.2195 21.984 25.3955 21.6907 25.5129 21.36C25.6409 21.0187 25.7049 20.6507 25.7049 20.256ZM35.4861 22.672H35.4541C35.2195 23.0987 34.8461 23.4613 34.3341 23.76C33.8328 24.048 33.2461 24.192 32.5741 24.192C32.0515 24.192 31.5608 24.096 31.1021 23.904C30.6435 23.7013 30.2435 23.424 29.9021 23.072C29.5715 22.72 29.3101 22.304 29.1181 21.824C28.9261 21.344 28.8301 20.8213 28.8301 20.256C28.8301 19.6907 28.9261 19.168 29.1181 18.688C29.3101 18.208 29.5768 17.792 29.9181 17.44C30.2595 17.088 30.6701 16.816 31.1501 16.624C31.6408 16.4213 32.1795 16.32 32.7661 16.32C33.3101 16.32 33.8061 16.432 34.2541 16.656C34.7128 16.88 35.1128 17.1947 35.4541 17.6H35.4861V11.904H36.7341V24H35.4861V22.672ZM35.4861 20.256C35.4861 19.8613 35.4221 19.4987 35.2941 19.168C35.1768 18.8267 35.0008 18.5333 34.7661 18.288C34.5315 18.032 34.2488 17.8347 33.9181 17.696C33.5981 17.5467 33.2355 17.472 32.8301 17.472C32.4248 17.472 32.0568 17.5467 31.7261 17.696C31.4061 17.8347 31.1288 18.032 30.8941 18.288C30.6595 18.5333 30.4781 18.8267 30.3501 19.168C30.2328 19.4987 30.1741 19.8613 30.1741 20.256C30.1741 20.6507 30.2328 21.0187 30.3501 21.36C30.4781 21.6907 30.6595 21.984 30.8941 22.24C31.1288 22.4853 31.4061 22.6827 31.7261 22.832C32.0568 22.9707 32.4248 23.04 32.8301 23.04C33.2355 23.04 33.5981 22.9707 33.9181 22.832C34.2488 22.6827 34.5315 22.4853 34.7661 22.24C35.0008 21.984 35.1768 21.6907 35.2941 21.36C35.4221 21.0187 35.4861 20.6507 35.4861 20.256ZM50.9685 23.664C50.9685 25.0293 50.6165 26.064 49.9125 26.768C49.2192 27.4827 48.2112 27.84 46.8885 27.84C46.1525 27.84 45.4858 27.7333 44.8885 27.52C44.3018 27.3067 43.7418 26.9387 43.2085 26.416L44.1045 25.392C44.4992 25.8187 44.9152 26.1387 45.3525 26.352C45.8005 26.576 46.3125 26.688 46.8885 26.688C47.4432 26.688 47.9018 26.6027 48.2645 26.432C48.6378 26.272 48.9312 26.048 49.1445 25.76C49.3578 25.4827 49.5072 25.1627 49.5925 24.8C49.6778 24.4373 49.7205 24.0587 49.7205 23.664V22.704H49.6885C49.3898 23.184 49.0005 23.536 48.5205 23.76C48.0405 23.984 47.5498 24.096 47.0485 24.096C46.4618 24.096 45.9232 24 45.4325 23.808C44.9418 23.616 44.5205 23.3493 44.1685 23.008C43.8165 22.6667 43.5445 22.2613 43.3525 21.792C43.1605 21.3227 43.0645 20.8107 43.0645 20.256C43.0645 19.648 43.1605 19.0987 43.3525 18.608C43.5445 18.1173 43.8112 17.7067 44.1525 17.376C44.5045 17.0347 44.9258 16.7733 45.4165 16.592C45.9072 16.4107 46.4512 16.32 47.0485 16.32C47.3045 16.32 47.5605 16.352 47.8165 16.416C48.0725 16.4693 48.3178 16.56 48.5525 16.688C48.7978 16.8053 49.0165 16.96 49.2085 17.152C49.4005 17.3333 49.5605 17.5467 49.6885 17.792H49.7205V16.512H50.9685V23.664ZM44.4085 20.256C44.4085 20.64 44.4778 20.9973 44.6165 21.328C44.7552 21.648 44.9418 21.9307 45.1765 22.176C45.4218 22.4107 45.7045 22.5973 46.0245 22.736C46.3445 22.8747 46.6858 22.944 47.0485 22.944C47.4752 22.944 47.8538 22.8693 48.1845 22.72C48.5152 22.5707 48.7925 22.3733 49.0165 22.128C49.2512 21.872 49.4272 21.584 49.5445 21.264C49.6618 20.9333 49.7205 20.5867 49.7205 20.224C49.7205 19.8187 49.6565 19.4507 49.5285 19.12C49.4005 18.7787 49.2192 18.4853 48.9845 18.24C48.7498 17.9947 48.4672 17.808 48.1365 17.68C47.8058 17.5413 47.4432 17.472 47.0485 17.472C46.6538 17.472 46.2912 17.5467 45.9605 17.696C45.6405 17.8347 45.3632 18.032 45.1285 18.288C44.9045 18.5333 44.7285 18.8267 44.6005 19.168C44.4725 19.4987 44.4085 19.8613 44.4085 20.256ZM52.8458 20.256C52.8458 19.6693 52.9471 19.136 53.1497 18.656C53.3524 18.176 53.6298 17.7653 53.9818 17.424C54.3338 17.072 54.7551 16.8 55.2458 16.608C55.7364 16.416 56.2698 16.32 56.8458 16.32C57.4218 16.32 57.9551 16.416 58.4458 16.608C58.9364 16.8 59.3578 17.072 59.7098 17.424C60.0618 17.7653 60.3391 18.176 60.5417 18.656C60.7444 19.136 60.8458 19.6693 60.8458 20.256C60.8458 20.8427 60.7444 21.376 60.5417 21.856C60.3391 22.336 60.0618 22.752 59.7098 23.104C59.3578 23.4453 58.9364 23.712 58.4458 23.904C57.9551 24.096 57.4218 24.192 56.8458 24.192C56.2698 24.192 55.7364 24.096 55.2458 23.904C54.7551 23.712 54.3338 23.4453 53.9818 23.104C53.6298 22.752 53.3524 22.336 53.1497 21.856C52.9471 21.376 52.8458 20.8427 52.8458 20.256ZM54.1898 20.256C54.1898 20.6507 54.2484 21.0187 54.3658 21.36C54.4938 21.6907 54.6751 21.984 54.9098 22.24C55.1444 22.4853 55.4218 22.6827 55.7418 22.832C56.0724 22.9707 56.4404 23.04 56.8458 23.04C57.2511 23.04 57.6138 22.9707 57.9338 22.832C58.2644 22.6827 58.5471 22.4853 58.7818 22.24C59.0164 21.984 59.1924 21.6907 59.3098 21.36C59.4378 21.0187 59.5018 20.6507 59.5018 20.256C59.5018 19.8613 59.4378 19.4987 59.3098 19.168C59.1924 18.8267 59.0164 18.5333 58.7818 18.288C58.5471 18.032 58.2644 17.8347 57.9338 17.696C57.6138 17.5467 57.2511 17.472 56.8458 17.472C56.4404 17.472 56.0724 17.5467 55.7418 17.696C55.4218 17.8347 55.1444 18.032 54.9098 18.288C54.6751 18.5333 54.4938 18.8267 54.3658 19.168C54.2484 19.4987 54.1898 19.8613 54.1898 20.256ZM62.6818 17.472C63.0658 17.0773 63.5191 16.7893 64.0418 16.608C64.5751 16.416 65.1138 16.32 65.6578 16.32C66.7671 16.32 67.5671 16.5813 68.0578 17.104C68.5484 17.6267 68.7938 18.4213 68.7938 19.488V22.704C68.7938 22.9173 68.8044 23.1413 68.8258 23.376C68.8471 23.6 68.8738 23.808 68.9058 24H67.7058C67.6631 23.8293 67.6364 23.6427 67.6258 23.44C67.6258 23.2267 67.6258 23.04 67.6258 22.88H67.5938C67.3484 23.264 67.0178 23.5787 66.6018 23.824C66.1964 24.0693 65.7058 24.192 65.1298 24.192C64.7458 24.192 64.3831 24.144 64.0418 24.048C63.7111 23.952 63.4178 23.8133 63.1618 23.632C62.9164 23.44 62.7191 23.2053 62.5698 22.928C62.4204 22.6507 62.3458 22.3307 62.3458 21.968C62.3458 21.3493 62.5058 20.864 62.8258 20.512C63.1458 20.16 63.5404 19.8987 64.0098 19.728C64.4898 19.5573 65.0018 19.4507 65.5458 19.408C66.1004 19.3653 66.6071 19.344 67.0658 19.344H67.5458V19.12C67.5458 18.576 67.3804 18.1653 67.0498 17.888C66.7298 17.6107 66.2764 17.472 65.6898 17.472C65.2844 17.472 64.8844 17.5413 64.4898 17.68C64.1058 17.808 63.7644 18.0107 63.4658 18.288L62.6818 17.472ZM66.2977 20.4C65.4978 20.4 64.8631 20.512 64.3938 20.736C63.9244 20.96 63.6898 21.328 63.6898 21.84C63.6898 22.3093 63.8444 22.6453 64.1538 22.848C64.4738 23.04 64.8684 23.136 65.3378 23.136C65.7004 23.136 66.0151 23.0773 66.2818 22.96C66.5591 22.832 66.7884 22.6667 66.9698 22.464C67.1511 22.2613 67.2898 22.0267 67.3858 21.76C67.4818 21.4827 67.5351 21.1893 67.5458 20.88V20.4H66.2977ZM71.1866 11.904H72.4346V24H71.1866V11.904Z" fill="#97D77D"/>
<rect x="0.5" y="0.5" width="83" height="37" rx="18.5" stroke="#97D77D"/>
</svg>
