<svg width="90" height="38" viewBox="0 0 90 38" fill="none" xmlns="http://www.w3.org/2000/svg">
<rect x="0.5" y="0.5" width="89" height="37" rx="18.5" fill="white"/>
<path d="M17.872 22.64C17.424 23.216 16.9333 23.6213 16.4 23.856C15.8667 24.08 15.248 24.192 14.544 24.192C13.9573 24.192 13.4293 24.0907 12.96 23.888C12.4907 23.6747 12.0907 23.392 11.76 23.04C11.44 22.688 11.1893 22.272 11.008 21.792C10.8373 21.312 10.752 20.8 10.752 20.256C10.752 19.68 10.848 19.152 11.04 18.672C11.232 18.1813 11.4987 17.7653 11.84 17.424C12.1813 17.072 12.5867 16.8 13.056 16.608C13.5253 16.416 14.0373 16.32 14.592 16.32C15.1147 16.32 15.5947 16.4107 16.032 16.592C16.4693 16.7627 16.8427 17.0187 17.152 17.36C17.472 17.6907 17.7173 18.1013 17.888 18.592C18.0587 19.072 18.144 19.6213 18.144 20.24V20.64H12.096C12.1173 20.96 12.192 21.2693 12.32 21.568C12.4587 21.856 12.6347 22.112 12.848 22.336C13.0613 22.5493 13.312 22.72 13.6 22.848C13.888 22.976 14.2027 23.04 14.544 23.04C15.088 23.04 15.5467 22.944 15.92 22.752C16.2933 22.56 16.6293 22.2773 16.928 21.904L17.872 22.64ZM16.8 19.584C16.7787 18.944 16.5707 18.432 16.176 18.048C15.7813 17.664 15.2373 17.472 14.544 17.472C13.8507 17.472 13.2907 17.664 12.864 18.048C12.4373 18.432 12.1813 18.944 12.096 19.584H16.8ZM26.2986 22.672H26.2666C26.032 23.0987 25.6586 23.4613 25.1466 23.76C24.6453 24.048 24.0586 24.192 23.3866 24.192C22.864 24.192 22.3733 24.096 21.9146 23.904C21.456 23.7013 21.056 23.424 20.7146 23.072C20.384 22.72 20.1226 22.304 19.9306 21.824C19.7386 21.344 19.6426 20.8213 19.6426 20.256C19.6426 19.6907 19.7386 19.168 19.9306 18.688C20.1226 18.208 20.3893 17.792 20.7306 17.44C21.072 17.088 21.4826 16.816 21.9626 16.624C22.4533 16.4213 22.992 16.32 23.5786 16.32C24.1226 16.32 24.6186 16.432 25.0666 16.656C25.5253 16.88 25.9253 17.1947 26.2666 17.6H26.2986V11.904H27.5466V24H26.2986V22.672ZM26.2986 20.256C26.2986 19.8613 26.2346 19.4987 26.1066 19.168C25.9893 18.8267 25.8133 18.5333 25.5786 18.288C25.344 18.032 25.0613 17.8347 24.7306 17.696C24.4106 17.5467 24.048 17.472 23.6426 17.472C23.2373 17.472 22.8693 17.5467 22.5386 17.696C22.2186 17.8347 21.9413 18.032 21.7066 18.288C21.472 18.5333 21.2906 18.8267 21.1626 19.168C21.0453 19.4987 20.9866 19.8613 20.9866 20.256C20.9866 20.6507 21.0453 21.0187 21.1626 21.36C21.2906 21.6907 21.472 21.984 21.7066 22.24C21.9413 22.4853 22.2186 22.6827 22.5386 22.832C22.8693 22.9707 23.2373 23.04 23.6426 23.04C24.048 23.04 24.4106 22.9707 24.7306 22.832C25.0613 22.6827 25.344 22.4853 25.5786 22.24C25.8133 21.984 25.9893 21.6907 26.1066 21.36C26.2346 21.0187 26.2986 20.6507 26.2986 20.256ZM29.9835 16.512H31.2315V24H29.9835V16.512ZM29.6955 13.584C29.6955 13.3387 29.7808 13.1253 29.9515 12.944C30.1328 12.7627 30.3515 12.672 30.6075 12.672C30.8635 12.672 31.0768 12.7627 31.2475 12.944C31.4288 13.1253 31.5195 13.3387 31.5195 13.584C31.5195 13.8507 31.4342 14.0693 31.2635 14.24C31.0928 14.4107 30.8742 14.496 30.6075 14.496C30.3408 14.496 30.1222 14.4107 29.9515 14.24C29.7808 14.0693 29.6955 13.8507 29.6955 13.584ZM37.8113 17.568H35.6033V21.312C35.6033 21.5573 35.6086 21.7867 35.6193 22C35.6299 22.2027 35.6726 22.384 35.7473 22.544C35.8219 22.6933 35.9339 22.816 36.0833 22.912C36.2326 22.9973 36.4459 23.04 36.7233 23.04C36.9046 23.04 37.0913 23.0187 37.2833 22.976C37.4753 22.9333 37.6566 22.8693 37.8273 22.784L37.8753 23.92C37.6619 24.016 37.4219 24.0853 37.1553 24.128C36.8993 24.1707 36.6539 24.192 36.4193 24.192C35.9713 24.192 35.6139 24.1333 35.3473 24.016C35.0806 23.8987 34.8726 23.7333 34.7233 23.52C34.5739 23.3067 34.4726 23.0453 34.4193 22.736C34.3766 22.416 34.3553 22.064 34.3553 21.68V17.568H32.7233V16.512H34.3553V14.384H35.6033V16.512H37.8113V17.568ZM50.4814 22.64C50.0334 23.216 49.5427 23.6213 49.0094 23.856C48.476 24.08 47.8574 24.192 47.1534 24.192C46.5667 24.192 46.0387 24.0907 45.5694 23.888C45.1 23.6747 44.7 23.392 44.3694 23.04C44.0494 22.688 43.7987 22.272 43.6174 21.792C43.4467 21.312 43.3614 20.8 43.3614 20.256C43.3614 19.68 43.4574 19.152 43.6494 18.672C43.8414 18.1813 44.108 17.7653 44.4494 17.424C44.7907 17.072 45.196 16.8 45.6654 16.608C46.1347 16.416 46.6467 16.32 47.2014 16.32C47.724 16.32 48.204 16.4107 48.6414 16.592C49.0787 16.7627 49.452 17.0187 49.7614 17.36C50.0814 17.6907 50.3267 18.1013 50.4974 18.592C50.668 19.072 50.7534 19.6213 50.7534 20.24V20.64H44.7054C44.7267 20.96 44.8014 21.2693 44.9294 21.568C45.068 21.856 45.244 22.112 45.4574 22.336C45.6707 22.5493 45.9214 22.72 46.2094 22.848C46.4974 22.976 46.812 23.04 47.1534 23.04C47.6974 23.04 48.156 22.944 48.5294 22.752C48.9027 22.56 49.2387 22.2773 49.5374 21.904L50.4814 22.64ZM49.4094 19.584C49.388 18.944 49.18 18.432 48.7854 18.048C48.3907 17.664 47.8467 17.472 47.1534 17.472C46.46 17.472 45.9 17.664 45.4734 18.048C45.0467 18.432 44.7907 18.944 44.7054 19.584H49.4094ZM52.684 18.288C52.684 17.9467 52.6733 17.6267 52.652 17.328C52.6307 17.0293 52.62 16.7573 52.62 16.512H53.804C53.804 16.7147 53.8093 16.9173 53.82 17.12C53.8307 17.3227 53.836 17.5307 53.836 17.744H53.868C53.9533 17.5627 54.0707 17.3867 54.22 17.216C54.38 17.0453 54.5667 16.896 54.78 16.768C54.9933 16.6293 55.2333 16.5227 55.5 16.448C55.7667 16.3627 56.0547 16.32 56.364 16.32C56.8547 16.32 57.276 16.3947 57.628 16.544C57.9907 16.6933 58.2893 16.9013 58.524 17.168C58.7587 17.4347 58.9293 17.76 59.036 18.144C59.1533 18.5173 59.212 18.928 59.212 19.376V24H57.964V19.504C57.964 18.8747 57.8253 18.3787 57.548 18.016C57.2707 17.6533 56.8387 17.472 56.252 17.472C55.8467 17.472 55.4947 17.5413 55.196 17.68C54.908 17.8187 54.668 18.016 54.476 18.272C54.2947 18.528 54.156 18.832 54.06 19.184C53.9747 19.536 53.932 19.9253 53.932 20.352V24H52.684V18.288ZM65.6706 17.568H63.4626V21.312C63.4626 21.5573 63.468 21.7867 63.4786 22C63.4893 22.2027 63.532 22.384 63.6066 22.544C63.6813 22.6933 63.7933 22.816 63.9426 22.912C64.092 22.9973 64.3053 23.04 64.5826 23.04C64.764 23.04 64.9506 23.0187 65.1426 22.976C65.3346 22.9333 65.516 22.8693 65.6866 22.784L65.7346 23.92C65.5213 24.016 65.2813 24.0853 65.0146 24.128C64.7586 24.1707 64.5133 24.192 64.2786 24.192C63.8306 24.192 63.4733 24.1333 63.2066 24.016C62.94 23.8987 62.732 23.7333 62.5826 23.52C62.4333 23.3067 62.332 23.0453 62.2786 22.736C62.236 22.416 62.2146 22.064 62.2146 21.68V17.568H60.5826V16.512H62.2146V14.384H63.4626V16.512H65.6706V17.568ZM67.1996 18.288C67.1996 17.9467 67.189 17.6267 67.1676 17.328C67.1463 17.0293 67.1356 16.7573 67.1356 16.512H68.3196C68.3196 16.7147 68.325 16.9173 68.3356 17.12C68.3463 17.3227 68.3516 17.5307 68.3516 17.744H68.3836C68.469 17.5627 68.5863 17.3867 68.7356 17.216C68.8956 17.0453 69.0823 16.896 69.2956 16.768C69.509 16.6293 69.749 16.5227 70.0156 16.448C70.2823 16.3627 70.5703 16.32 70.8796 16.32C70.965 16.32 71.0503 16.3253 71.1356 16.336C71.221 16.3467 71.3063 16.368 71.3916 16.4L71.3116 17.664C71.0983 17.6 70.8743 17.568 70.6396 17.568C69.8716 17.568 69.3116 17.8187 68.9596 18.32C68.6183 18.8107 68.4476 19.488 68.4476 20.352V24H67.1996V18.288ZM75.5766 25.712C75.4486 26.032 75.3153 26.32 75.1766 26.576C75.0486 26.8427 74.8886 27.0667 74.6966 27.248C74.5153 27.44 74.2913 27.584 74.0246 27.68C73.7686 27.7867 73.454 27.84 73.0806 27.84C72.8993 27.84 72.7073 27.8293 72.5046 27.808C72.3126 27.7867 72.1313 27.7333 71.9606 27.648L72.1206 26.56C72.2486 26.6133 72.382 26.6453 72.5206 26.656C72.6593 26.6773 72.8193 26.688 73.0006 26.688C73.406 26.688 73.7046 26.576 73.8966 26.352C74.0886 26.128 74.254 25.8293 74.3926 25.456L74.9046 24.048L71.8006 16.512H73.2566L75.5766 22.384H75.6086L77.8326 16.512H79.1926L75.5766 25.712Z" fill="#97D77D"/>
<rect x="0.5" y="0.5" width="89" height="37" rx="18.5" stroke="#97D77D"/>
</svg>
