<svg width="254" height="63" viewBox="0 0 254 63" fill="none" xmlns="http://www.w3.org/2000/svg">
<g filter="url(#filter0_d_389_5970)">
<rect width="250" height="57" rx="20" fill="#CCFFB4" shape-rendering="crispEdges"/>
<path d="M50.668 28.104C50.492 27.848 50.244 27.64 49.924 27.48C49.604 27.304 49.26 27.216 48.892 27.216C47.98 27.216 47.268 27.488 46.756 28.032C46.26 28.576 46.012 29.288 46.012 30.168C46.012 31.048 46.26 31.76 46.756 32.304C47.268 32.848 47.98 33.12 48.892 33.12C49.292 33.12 49.636 33.032 49.924 32.856C50.212 32.68 50.46 32.472 50.668 32.232L53.044 34.728C52.484 35.304 51.82 35.712 51.052 35.952C50.3 36.176 49.58 36.288 48.892 36.288C47.996 36.288 47.148 36.144 46.348 35.856C45.564 35.568 44.876 35.16 44.284 34.632C43.708 34.088 43.252 33.44 42.916 32.688C42.58 31.936 42.412 31.096 42.412 30.168C42.412 29.24 42.58 28.4 42.916 27.648C43.252 26.896 43.708 26.256 44.284 25.728C44.876 25.184 45.564 24.768 46.348 24.48C47.148 24.192 47.996 24.048 48.892 24.048C49.58 24.048 50.3 24.168 51.052 24.408C51.82 24.632 52.484 25.032 53.044 25.608L50.668 28.104ZM54.3501 24.336H57.9501V26.208H57.9981C58.3821 25.488 58.8381 24.952 59.3661 24.6C59.8941 24.232 60.5581 24.048 61.3581 24.048C61.5661 24.048 61.7741 24.056 61.9821 24.072C62.1901 24.088 62.3821 24.12 62.5581 24.168V27.456C62.3021 27.376 62.0461 27.32 61.7901 27.288C61.5501 27.24 61.2941 27.216 61.0221 27.216C60.3341 27.216 59.7901 27.312 59.3901 27.504C58.9901 27.696 58.6781 27.968 58.4541 28.32C58.2461 28.656 58.1101 29.064 58.0461 29.544C57.9821 30.024 57.9501 30.552 57.9501 31.128V36H54.3501V24.336ZM74.7417 33.984C74.1657 34.72 73.4377 35.288 72.5577 35.688C71.6777 36.088 70.7657 36.288 69.8217 36.288C68.9257 36.288 68.0777 36.144 67.2777 35.856C66.4937 35.568 65.8057 35.16 65.2137 34.632C64.6377 34.088 64.1817 33.44 63.8457 32.688C63.5097 31.936 63.3417 31.096 63.3417 30.168C63.3417 29.24 63.5097 28.4 63.8457 27.648C64.1817 26.896 64.6377 26.256 65.2137 25.728C65.8057 25.184 66.4937 24.768 67.2777 24.48C68.0777 24.192 68.9257 24.048 69.8217 24.048C70.6537 24.048 71.4057 24.192 72.0777 24.48C72.7657 24.768 73.3417 25.184 73.8057 25.728C74.2857 26.256 74.6537 26.896 74.9097 27.648C75.1657 28.4 75.2937 29.24 75.2937 30.168V31.296H66.9417C67.0857 31.984 67.3977 32.536 67.8777 32.952C68.3577 33.352 68.9497 33.552 69.6537 33.552C70.2457 33.552 70.7417 33.424 71.1417 33.168C71.5577 32.896 71.9177 32.552 72.2217 32.136L74.7417 33.984ZM71.6937 28.848C71.7097 28.24 71.5097 27.72 71.0937 27.288C70.6777 26.856 70.1417 26.64 69.4857 26.64C69.0857 26.64 68.7337 26.704 68.4297 26.832C68.1257 26.96 67.8617 27.128 67.6377 27.336C67.4297 27.528 67.2617 27.76 67.1337 28.032C67.0217 28.288 66.9577 28.56 66.9417 28.848H71.6937ZM84.8029 34.536H84.7549C84.3549 35.16 83.8189 35.608 83.1469 35.88C82.4909 36.152 81.7949 36.288 81.0589 36.288C80.5149 36.288 79.9869 36.208 79.4749 36.048C78.9789 35.904 78.5389 35.68 78.1549 35.376C77.7709 35.072 77.4669 34.696 77.2429 34.248C77.0189 33.8 76.9069 33.28 76.9069 32.688C76.9069 32.016 77.0269 31.448 77.2669 30.984C77.5229 30.52 77.8589 30.136 78.2749 29.832C78.7069 29.528 79.1949 29.296 79.7389 29.136C80.2829 28.96 80.8429 28.832 81.4189 28.752C82.0109 28.672 82.5949 28.624 83.1709 28.608C83.7629 28.592 84.3069 28.584 84.8029 28.584C84.8029 27.944 84.5709 27.44 84.1069 27.072C83.6589 26.688 83.1229 26.496 82.4989 26.496C81.9069 26.496 81.3629 26.624 80.8669 26.88C80.3869 27.12 79.9549 27.456 79.5709 27.888L77.6509 25.92C78.3229 25.296 79.1069 24.832 80.0029 24.528C80.8989 24.208 81.8269 24.048 82.7869 24.048C83.8429 24.048 84.7069 24.184 85.3789 24.456C86.0669 24.712 86.6109 25.096 87.0109 25.608C87.4269 26.12 87.7149 26.752 87.8749 27.504C88.0349 28.24 88.1149 29.096 88.1149 30.072V36H84.8029V34.536ZM83.9149 30.888C83.6429 30.888 83.2989 30.904 82.8829 30.936C82.4829 30.952 82.0909 31.016 81.7069 31.128C81.3389 31.24 81.0189 31.408 80.7469 31.632C80.4909 31.856 80.3629 32.168 80.3629 32.568C80.3629 33 80.5469 33.32 80.9149 33.528C81.2829 33.736 81.6669 33.84 82.0669 33.84C82.4189 33.84 82.7549 33.792 83.0749 33.696C83.4109 33.6 83.7069 33.464 83.9629 33.288C84.2189 33.112 84.4189 32.888 84.5629 32.616C84.7229 32.344 84.8029 32.024 84.8029 31.656V30.888H83.9149ZM98.3176 27.216H95.1496V31.104C95.1496 31.424 95.1656 31.72 95.1976 31.992C95.2296 32.248 95.3016 32.472 95.4136 32.664C95.5256 32.856 95.6936 33.008 95.9176 33.12C96.1576 33.216 96.4696 33.264 96.8536 33.264C97.0456 33.264 97.2936 33.248 97.5976 33.216C97.9176 33.168 98.1576 33.072 98.3176 32.928V35.928C97.9176 36.072 97.5016 36.168 97.0696 36.216C96.6376 36.264 96.2136 36.288 95.7976 36.288C95.1896 36.288 94.6296 36.224 94.1176 36.096C93.6056 35.968 93.1576 35.768 92.7736 35.496C92.3896 35.208 92.0856 34.84 91.8616 34.392C91.6536 33.944 91.5496 33.4 91.5496 32.76V27.216H89.2456V24.336H91.5496V20.88H95.1496V24.336H98.3176V27.216ZM111.187 33.984C110.611 34.72 109.883 35.288 109.003 35.688C108.123 36.088 107.211 36.288 106.267 36.288C105.371 36.288 104.523 36.144 103.723 35.856C102.939 35.568 102.251 35.16 101.659 34.632C101.083 34.088 100.627 33.44 100.291 32.688C99.955 31.936 99.787 31.096 99.787 30.168C99.787 29.24 99.955 28.4 100.291 27.648C100.627 26.896 101.083 26.256 101.659 25.728C102.251 25.184 102.939 24.768 103.723 24.48C104.523 24.192 105.371 24.048 106.267 24.048C107.099 24.048 107.851 24.192 108.523 24.48C109.211 24.768 109.787 25.184 110.251 25.728C110.731 26.256 111.099 26.896 111.355 27.648C111.611 28.4 111.739 29.24 111.739 30.168V31.296H103.387C103.531 31.984 103.843 32.536 104.323 32.952C104.803 33.352 105.395 33.552 106.099 33.552C106.691 33.552 107.187 33.424 107.587 33.168C108.003 32.896 108.363 32.552 108.667 32.136L111.187 33.984ZM108.139 28.848C108.155 28.24 107.955 27.72 107.539 27.288C107.123 26.856 106.587 26.64 105.931 26.64C105.531 26.64 105.179 26.704 104.875 26.832C104.571 26.96 104.307 27.128 104.083 27.336C103.875 27.528 103.707 27.76 103.579 28.032C103.467 28.288 103.403 28.56 103.387 28.848H108.139ZM128.35 34.536H128.302C127.902 35.16 127.366 35.608 126.694 35.88C126.038 36.152 125.342 36.288 124.606 36.288C124.062 36.288 123.534 36.208 123.022 36.048C122.526 35.904 122.086 35.68 121.702 35.376C121.318 35.072 121.014 34.696 120.79 34.248C120.566 33.8 120.454 33.28 120.454 32.688C120.454 32.016 120.574 31.448 120.814 30.984C121.07 30.52 121.406 30.136 121.822 29.832C122.254 29.528 122.742 29.296 123.286 29.136C123.83 28.96 124.39 28.832 124.966 28.752C125.558 28.672 126.142 28.624 126.718 28.608C127.31 28.592 127.854 28.584 128.35 28.584C128.35 27.944 128.118 27.44 127.654 27.072C127.206 26.688 126.67 26.496 126.046 26.496C125.454 26.496 124.91 26.624 124.414 26.88C123.934 27.12 123.502 27.456 123.118 27.888L121.198 25.92C121.87 25.296 122.654 24.832 123.55 24.528C124.446 24.208 125.374 24.048 126.334 24.048C127.39 24.048 128.254 24.184 128.926 24.456C129.614 24.712 130.158 25.096 130.558 25.608C130.974 26.12 131.262 26.752 131.422 27.504C131.582 28.24 131.662 29.096 131.662 30.072V36H128.35V34.536ZM127.462 30.888C127.19 30.888 126.846 30.904 126.43 30.936C126.03 30.952 125.638 31.016 125.254 31.128C124.886 31.24 124.566 31.408 124.294 31.632C124.038 31.856 123.91 32.168 123.91 32.568C123.91 33 124.094 33.32 124.462 33.528C124.83 33.736 125.214 33.84 125.614 33.84C125.966 33.84 126.302 33.792 126.622 33.696C126.958 33.6 127.254 33.464 127.51 33.288C127.766 33.112 127.966 32.888 128.11 32.616C128.27 32.344 128.35 32.024 128.35 31.656V30.888H127.462ZM141.816 28.104C141.64 27.848 141.392 27.64 141.072 27.48C140.752 27.304 140.408 27.216 140.04 27.216C139.128 27.216 138.416 27.488 137.904 28.032C137.408 28.576 137.16 29.288 137.16 30.168C137.16 31.048 137.408 31.76 137.904 32.304C138.416 32.848 139.128 33.12 140.04 33.12C140.44 33.12 140.784 33.032 141.072 32.856C141.36 32.68 141.608 32.472 141.816 32.232L144.192 34.728C143.632 35.304 142.968 35.712 142.2 35.952C141.448 36.176 140.728 36.288 140.04 36.288C139.144 36.288 138.296 36.144 137.496 35.856C136.712 35.568 136.024 35.16 135.432 34.632C134.856 34.088 134.4 33.44 134.064 32.688C133.728 31.936 133.56 31.096 133.56 30.168C133.56 29.24 133.728 28.4 134.064 27.648C134.4 26.896 134.856 26.256 135.432 25.728C136.024 25.184 136.712 24.768 137.496 24.48C138.296 24.192 139.144 24.048 140.04 24.048C140.728 24.048 141.448 24.168 142.2 24.408C142.968 24.632 143.632 25.032 144.192 25.608L141.816 28.104ZM153.395 28.104C153.219 27.848 152.971 27.64 152.651 27.48C152.331 27.304 151.987 27.216 151.619 27.216C150.707 27.216 149.995 27.488 149.483 28.032C148.987 28.576 148.739 29.288 148.739 30.168C148.739 31.048 148.987 31.76 149.483 32.304C149.995 32.848 150.707 33.12 151.619 33.12C152.019 33.12 152.363 33.032 152.651 32.856C152.939 32.68 153.187 32.472 153.395 32.232L155.771 34.728C155.211 35.304 154.547 35.712 153.779 35.952C153.027 36.176 152.307 36.288 151.619 36.288C150.723 36.288 149.875 36.144 149.075 35.856C148.291 35.568 147.603 35.16 147.011 34.632C146.435 34.088 145.979 33.44 145.643 32.688C145.307 31.936 145.139 31.096 145.139 30.168C145.139 29.24 145.307 28.4 145.643 27.648C145.979 26.896 146.435 26.256 147.011 25.728C147.603 25.184 148.291 24.768 149.075 24.48C149.875 24.192 150.723 24.048 151.619 24.048C152.307 24.048 153.027 24.168 153.779 24.408C154.547 24.632 155.211 25.032 155.771 25.608L153.395 28.104ZM156.645 30.168C156.645 29.24 156.813 28.4 157.149 27.648C157.485 26.896 157.941 26.256 158.517 25.728C159.109 25.184 159.797 24.768 160.581 24.48C161.381 24.192 162.229 24.048 163.125 24.048C164.021 24.048 164.861 24.192 165.645 24.48C166.445 24.768 167.133 25.184 167.709 25.728C168.301 26.256 168.765 26.896 169.101 27.648C169.437 28.4 169.605 29.24 169.605 30.168C169.605 31.096 169.437 31.936 169.101 32.688C168.765 33.44 168.301 34.088 167.709 34.632C167.133 35.16 166.445 35.568 165.645 35.856C164.861 36.144 164.021 36.288 163.125 36.288C162.229 36.288 161.381 36.144 160.581 35.856C159.797 35.568 159.109 35.16 158.517 34.632C157.941 34.088 157.485 33.44 157.149 32.688C156.813 31.936 156.645 31.096 156.645 30.168ZM160.245 30.168C160.245 31.048 160.493 31.76 160.989 32.304C161.501 32.848 162.213 33.12 163.125 33.12C164.037 33.12 164.741 32.848 165.237 32.304C165.749 31.76 166.005 31.048 166.005 30.168C166.005 29.288 165.749 28.576 165.237 28.032C164.741 27.488 164.037 27.216 163.125 27.216C162.213 27.216 161.501 27.488 160.989 28.032C160.493 28.576 160.245 29.288 160.245 30.168ZM182.957 36H179.501V34.416H179.453C179.325 34.64 179.157 34.864 178.949 35.088C178.757 35.312 178.517 35.512 178.229 35.688C177.941 35.864 177.613 36.008 177.245 36.12C176.877 36.232 176.477 36.288 176.045 36.288C175.133 36.288 174.389 36.152 173.813 35.88C173.253 35.592 172.813 35.2 172.493 34.704C172.189 34.208 171.981 33.624 171.869 32.952C171.773 32.28 171.725 31.552 171.725 30.768V24.336H175.325V30.048C175.325 30.384 175.333 30.736 175.349 31.104C175.381 31.456 175.453 31.784 175.565 32.088C175.693 32.392 175.877 32.64 176.117 32.832C176.373 33.024 176.733 33.12 177.197 33.12C177.661 33.12 178.037 33.04 178.325 32.88C178.613 32.704 178.829 32.48 178.973 32.208C179.133 31.92 179.237 31.6 179.285 31.248C179.333 30.896 179.357 30.528 179.357 30.144V24.336H182.957V36ZM185.506 24.336H188.962V25.92H189.01C189.122 25.696 189.282 25.472 189.49 25.248C189.698 25.024 189.946 24.824 190.234 24.648C190.522 24.472 190.85 24.328 191.218 24.216C191.586 24.104 191.986 24.048 192.418 24.048C193.33 24.048 194.066 24.192 194.626 24.48C195.186 24.752 195.618 25.136 195.922 25.632C196.242 26.128 196.458 26.712 196.57 27.384C196.682 28.056 196.738 28.784 196.738 29.568V36H193.138V30.288C193.138 29.952 193.122 29.608 193.09 29.256C193.074 28.888 193.002 28.552 192.874 28.248C192.762 27.944 192.578 27.696 192.322 27.504C192.082 27.312 191.73 27.216 191.266 27.216C190.802 27.216 190.426 27.304 190.138 27.48C189.85 27.64 189.626 27.864 189.466 28.152C189.322 28.424 189.226 28.736 189.178 29.088C189.13 29.44 189.106 29.808 189.106 30.192V36H185.506V24.336ZM207.232 27.216H204.064V31.104C204.064 31.424 204.08 31.72 204.112 31.992C204.144 32.248 204.216 32.472 204.328 32.664C204.44 32.856 204.608 33.008 204.832 33.12C205.072 33.216 205.384 33.264 205.768 33.264C205.96 33.264 206.208 33.248 206.512 33.216C206.832 33.168 207.072 33.072 207.232 32.928V35.928C206.832 36.072 206.416 36.168 205.984 36.216C205.552 36.264 205.128 36.288 204.712 36.288C204.104 36.288 203.544 36.224 203.032 36.096C202.52 35.968 202.072 35.768 201.688 35.496C201.304 35.208 201 34.84 200.776 34.392C200.568 33.944 200.464 33.4 200.464 32.76V27.216H198.16V24.336H200.464V20.88H204.064V24.336H207.232V27.216Z" fill="#326B1F"/>
</g>
<defs>
<filter id="filter0_d_389_5970" x="0" y="0" width="254" height="63" filterUnits="userSpaceOnUse" color-interpolation-filters="sRGB">
<feFlood flood-opacity="0" result="BackgroundImageFix"/>
<feColorMatrix in="SourceAlpha" type="matrix" values="0 0 0 0 0 0 0 0 0 0 0 0 0 0 0 0 0 0 127 0" result="hardAlpha"/>
<feOffset dx="4" dy="6"/>
<feComposite in2="hardAlpha" operator="out"/>
<feColorMatrix type="matrix" values="0 0 0 0 0.592157 0 0 0 0 0.843137 0 0 0 0 0.490196 0 0 0 1 0"/>
<feBlend mode="normal" in2="BackgroundImageFix" result="effect1_dropShadow_389_5970"/>
<feBlend mode="normal" in="SourceGraphic" in2="effect1_dropShadow_389_5970" result="shape"/>
</filter>
</defs>
</svg>
