<svg width="254" height="63" viewBox="0 0 254 63" fill="none" xmlns="http://www.w3.org/2000/svg">
<g filter="url(#filter0_d_135_2899)">
<rect width="250" height="57" rx="20" fill="#CCFFB4" shape-rendering="crispEdges"/>
<path d="M61.612 34.8C60.508 35.376 59.356 35.792 58.156 36.048C56.956 36.304 55.732 36.432 54.484 36.432C53.156 36.432 51.932 36.224 50.812 35.808C49.692 35.392 48.724 34.8 47.908 34.032C47.092 33.248 46.452 32.304 45.988 31.2C45.54 30.096 45.316 28.864 45.316 27.504C45.316 26.144 45.54 24.912 45.988 23.808C46.452 22.704 47.092 21.768 47.908 21C48.724 20.216 49.692 19.616 50.812 19.2C51.932 18.784 53.156 18.576 54.484 18.576C55.844 18.576 57.092 18.744 58.228 19.08C59.38 19.4 60.388 19.96 61.252 20.76L58.612 23.64C58.1 23.112 57.524 22.712 56.884 22.44C56.244 22.168 55.444 22.032 54.484 22.032C53.684 22.032 52.956 22.168 52.3 22.44C51.66 22.712 51.108 23.096 50.644 23.592C50.18 24.072 49.82 24.648 49.564 25.32C49.324 25.992 49.204 26.72 49.204 27.504C49.204 28.304 49.324 29.04 49.564 29.712C49.82 30.368 50.18 30.944 50.644 31.44C51.108 31.92 51.66 32.296 52.3 32.568C52.956 32.84 53.684 32.976 54.484 32.976C55.3 32.976 56.004 32.888 56.596 32.712C57.188 32.52 57.66 32.328 58.012 32.136V29.376H54.964V25.92H61.612V34.8ZM65.0517 19.008H76.5957V22.464H68.7957V25.632H76.1637V29.088H68.7957V32.544H77.0277V36H65.0517V19.008ZM83.3129 22.32H78.4649V19.008H91.9049V22.32H87.0569V36H83.3129V22.32ZM109.308 23.16C109.004 22.776 108.588 22.496 108.06 22.32C107.548 22.128 107.06 22.032 106.596 22.032C106.324 22.032 106.044 22.064 105.756 22.128C105.468 22.192 105.196 22.296 104.94 22.44C104.684 22.568 104.476 22.744 104.316 22.968C104.156 23.192 104.076 23.464 104.076 23.784C104.076 24.296 104.268 24.688 104.652 24.96C105.036 25.232 105.516 25.464 106.092 25.656C106.684 25.848 107.316 26.04 107.988 26.232C108.66 26.424 109.284 26.696 109.86 27.048C110.452 27.4 110.94 27.872 111.324 28.464C111.708 29.056 111.9 29.848 111.9 30.84C111.9 31.784 111.724 32.608 111.372 33.312C111.02 34.016 110.54 34.6 109.932 35.064C109.34 35.528 108.644 35.872 107.844 36.096C107.06 36.32 106.228 36.432 105.348 36.432C104.244 36.432 103.22 36.264 102.276 35.928C101.332 35.592 100.452 35.048 99.6357 34.296L102.3 31.368C102.684 31.88 103.164 32.28 103.74 32.568C104.332 32.84 104.94 32.976 105.564 32.976C105.868 32.976 106.172 32.944 106.476 32.88C106.796 32.8 107.076 32.688 107.316 32.544C107.572 32.4 107.772 32.216 107.916 31.992C108.076 31.768 108.156 31.504 108.156 31.2C108.156 30.688 107.956 30.288 107.556 30C107.172 29.696 106.684 29.44 106.092 29.232C105.5 29.024 104.86 28.816 104.172 28.608C103.484 28.4 102.844 28.12 102.252 27.768C101.66 27.416 101.164 26.952 100.764 26.376C100.38 25.8 100.188 25.04 100.188 24.096C100.188 23.184 100.364 22.384 100.716 21.696C101.084 21.008 101.564 20.432 102.156 19.968C102.764 19.504 103.46 19.16 104.244 18.936C105.028 18.696 105.836 18.576 106.668 18.576C107.628 18.576 108.556 18.712 109.452 18.984C110.348 19.256 111.156 19.712 111.876 20.352L109.308 23.16ZM117.977 22.32H113.129V19.008H126.569V22.32H121.721V36H117.977V22.32ZM131.859 19.008H134.955L142.347 36H138.123L136.659 32.4H130.059L128.643 36H124.515L131.859 19.008ZM133.299 23.952L131.235 29.232H135.387L133.299 23.952ZM144.056 19.008H150.632C151.496 19.008 152.312 19.096 153.08 19.272C153.864 19.432 154.544 19.712 155.12 20.112C155.712 20.496 156.176 21.024 156.512 21.696C156.864 22.352 157.04 23.176 157.04 24.168C157.04 25.368 156.728 26.392 156.104 27.24C155.48 28.072 154.568 28.6 153.368 28.824L157.688 36H153.2L149.648 29.208H147.8V36H144.056V19.008ZM147.8 26.04H150.008C150.344 26.04 150.696 26.032 151.064 26.016C151.448 25.984 151.792 25.912 152.096 25.8C152.4 25.672 152.648 25.48 152.84 25.224C153.048 24.968 153.152 24.608 153.152 24.144C153.152 23.712 153.064 23.368 152.888 23.112C152.712 22.856 152.488 22.664 152.216 22.536C151.944 22.392 151.632 22.296 151.28 22.248C150.928 22.2 150.584 22.176 150.248 22.176H147.8V26.04ZM162.485 22.32H157.637V19.008H171.077V22.32H166.229V36H162.485V22.32ZM173.122 19.008H184.666V22.464H176.866V25.632H184.234V29.088H176.866V32.544H185.098V36H173.122V19.008ZM188.095 19.008H193.711C195.071 19.008 196.359 19.16 197.575 19.464C198.807 19.768 199.879 20.264 200.791 20.952C201.703 21.624 202.423 22.504 202.951 23.592C203.495 24.68 203.767 26 203.767 27.552C203.767 28.928 203.503 30.144 202.975 31.2C202.463 32.24 201.767 33.12 200.887 33.84C200.007 34.544 198.991 35.08 197.839 35.448C196.687 35.816 195.479 36 194.215 36H188.095V19.008ZM191.839 32.544H193.783C194.647 32.544 195.447 32.456 196.183 32.28C196.935 32.104 197.583 31.816 198.127 31.416C198.671 31 199.095 30.464 199.399 29.808C199.719 29.136 199.879 28.32 199.879 27.36C199.879 26.528 199.719 25.808 199.399 25.2C199.095 24.576 198.679 24.064 198.151 23.664C197.623 23.264 196.999 22.968 196.279 22.776C195.575 22.568 194.831 22.464 194.047 22.464H191.839V32.544Z" fill="#326B1F"/>
</g>
<defs>
<filter id="filter0_d_135_2899" x="0" y="0" width="254" height="63" filterUnits="userSpaceOnUse" color-interpolation-filters="sRGB">
<feFlood flood-opacity="0" result="BackgroundImageFix"/>
<feColorMatrix in="SourceAlpha" type="matrix" values="0 0 0 0 0 0 0 0 0 0 0 0 0 0 0 0 0 0 127 0" result="hardAlpha"/>
<feOffset dx="4" dy="6"/>
<feComposite in2="hardAlpha" operator="out"/>
<feColorMatrix type="matrix" values="0 0 0 0 0.592157 0 0 0 0 0.843137 0 0 0 0 0.490196 0 0 0 1 0"/>
<feBlend mode="normal" in2="BackgroundImageFix" result="effect1_dropShadow_135_2899"/>
<feBlend mode="normal" in="SourceGraphic" in2="effect1_dropShadow_135_2899" result="shape"/>
</filter>
</defs>
</svg>
