<svg width="173" height="43" viewBox="0 0 173 43" fill="none" xmlns="http://www.w3.org/2000/svg">
<g filter="url(#filter0_d_19_9463)">
<rect y="0.159912" width="169" height="38" rx="19" fill="#CCFFB4" shape-rendering="crispEdges"/>
<path d="M10.176 16.5759H11.792L13.504 22.2399H13.536L15.344 16.5759H16.864L18.784 22.2399H18.816L20.448 16.5759H21.968L19.52 24.1599H18.064L16.064 18.4959H16.032L14.224 24.1599H12.672L10.176 16.5759ZM23.2286 16.5759H24.6686V17.7439H24.7006C24.7966 17.5412 24.9246 17.3599 25.0846 17.1999C25.2446 17.0292 25.4206 16.8852 25.6126 16.7679C25.8153 16.6506 26.034 16.5599 26.2686 16.4959C26.5033 16.4212 26.738 16.3839 26.9726 16.3839C27.2073 16.3839 27.4206 16.4159 27.6126 16.4799L27.5486 18.0319C27.4313 17.9999 27.314 17.9732 27.1966 17.9519C27.0793 17.9306 26.962 17.9199 26.8446 17.9199C26.1406 17.9199 25.602 18.1172 25.2286 18.5119C24.8553 18.9066 24.6686 19.5199 24.6686 20.3519V24.1599H23.2286V16.5759ZM29.1825 17.5039C29.5878 17.1306 30.0572 16.8532 30.5905 16.6719C31.1238 16.4799 31.6572 16.3839 32.1905 16.3839C32.7452 16.3839 33.2198 16.4532 33.6145 16.5919C34.0198 16.7306 34.3505 16.9172 34.6065 17.1519C34.8625 17.3866 35.0492 17.6586 35.1665 17.9679C35.2945 18.2666 35.3585 18.5812 35.3585 18.9119V22.7839C35.3585 23.0506 35.3638 23.2959 35.3745 23.5199C35.3852 23.7439 35.4012 23.9572 35.4225 24.1599H34.1425C34.1105 23.7759 34.0945 23.3919 34.0945 23.0079H34.0625C33.7425 23.4986 33.3638 23.8452 32.9265 24.0479C32.4892 24.2506 31.9825 24.3519 31.4065 24.3519C31.0545 24.3519 30.7185 24.3039 30.3985 24.2079C30.0785 24.1119 29.7958 23.9679 29.5505 23.7759C29.3158 23.5839 29.1292 23.3492 28.9905 23.0719C28.8518 22.7839 28.7825 22.4532 28.7825 22.0799C28.7825 21.5892 28.8892 21.1786 29.1025 20.8479C29.3265 20.5172 29.6252 20.2506 29.9985 20.0479C30.3825 19.8346 30.8252 19.6852 31.3265 19.5999C31.8385 19.5039 32.3825 19.4559 32.9585 19.4559H34.0145V19.1359C34.0145 18.9439 33.9772 18.7519 33.9025 18.5599C33.8278 18.3679 33.7158 18.1972 33.5665 18.0479C33.4172 17.8879 33.2305 17.7652 33.0065 17.6799C32.7825 17.5839 32.5158 17.5359 32.2065 17.5359C31.9292 17.5359 31.6838 17.5626 31.4705 17.6159C31.2678 17.6692 31.0812 17.7386 30.9105 17.8239C30.7398 17.8986 30.5852 17.9892 30.4465 18.0959C30.3078 18.2026 30.1745 18.3039 30.0465 18.3999L29.1825 17.5039ZM33.2465 20.5119C32.9052 20.5119 32.5532 20.5332 32.1905 20.5759C31.8385 20.6079 31.5132 20.6772 31.2145 20.7839C30.9265 20.8906 30.6865 21.0399 30.4945 21.2319C30.3132 21.4239 30.2225 21.6692 30.2225 21.9679C30.2225 22.4052 30.3665 22.7199 30.6545 22.9119C30.9532 23.1039 31.3532 23.1999 31.8545 23.1999C32.2492 23.1999 32.5852 23.1359 32.8625 23.0079C33.1398 22.8692 33.3638 22.6932 33.5345 22.4799C33.7052 22.2666 33.8278 22.0319 33.9025 21.7759C33.9772 21.5092 34.0145 21.2479 34.0145 20.9919V20.5119H33.2465ZM37.4474 16.5759H38.8874V17.6639H38.9194C39.1967 17.2586 39.5754 16.9439 40.0554 16.7199C40.546 16.4959 41.0474 16.3839 41.5594 16.3839C42.146 16.3839 42.674 16.4852 43.1434 16.6879C43.6234 16.8906 44.0287 17.1732 44.3594 17.5359C44.7007 17.8986 44.962 18.3252 45.1434 18.8159C45.3247 19.2959 45.4154 19.8132 45.4154 20.3679C45.4154 20.9332 45.3247 21.4612 45.1434 21.9519C44.962 22.4319 44.7007 22.8532 44.3594 23.2159C44.0287 23.5679 43.6234 23.8452 43.1434 24.0479C42.674 24.2506 42.146 24.3519 41.5594 24.3519C41.0154 24.3519 40.5034 24.2399 40.0234 24.0159C39.5434 23.7812 39.1754 23.4666 38.9194 23.0719H38.8874V28.6719H37.4474V16.5759ZM41.3834 17.7279C40.9994 17.7279 40.6527 17.7972 40.3434 17.9359C40.034 18.0639 39.7727 18.2452 39.5594 18.4799C39.346 18.7039 39.1807 18.9812 39.0634 19.3119C38.946 19.6319 38.8874 19.9839 38.8874 20.3679C38.8874 20.7519 38.946 21.1092 39.0634 21.4399C39.1807 21.7599 39.346 22.0372 39.5594 22.2719C39.7727 22.4959 40.034 22.6772 40.3434 22.8159C40.6527 22.9439 40.9994 23.0079 41.3834 23.0079C41.7674 23.0079 42.114 22.9439 42.4234 22.8159C42.7327 22.6772 42.994 22.4959 43.2074 22.2719C43.4207 22.0372 43.586 21.7599 43.7034 21.4399C43.8207 21.1092 43.8794 20.7519 43.8794 20.3679C43.8794 19.9839 43.8207 19.6319 43.7034 19.3119C43.586 18.9812 43.4207 18.7039 43.2074 18.4799C42.994 18.2452 42.7327 18.0639 42.4234 17.9359C42.114 17.7972 41.7674 17.7279 41.3834 17.7279ZM58.4018 24.1599H56.9618V22.9919H56.9298C56.7484 23.3972 56.4338 23.7279 55.9858 23.9839C55.5378 24.2292 55.0204 24.3519 54.4338 24.3519C54.0604 24.3519 53.7084 24.2932 53.3778 24.1759C53.0471 24.0692 52.7538 23.8986 52.4978 23.6639C52.2524 23.4292 52.0551 23.1306 51.9058 22.7679C51.7564 22.3946 51.6818 21.9572 51.6818 21.4559V16.5759H53.1218V21.0559C53.1218 21.4079 53.1698 21.7119 53.2658 21.9679C53.3618 22.2132 53.4898 22.4159 53.6498 22.5759C53.8098 22.7252 53.9911 22.8372 54.1938 22.9119C54.4071 22.9759 54.6258 23.0079 54.8498 23.0079C55.1484 23.0079 55.4258 22.9599 55.6818 22.8639C55.9378 22.7679 56.1618 22.6186 56.3538 22.4159C56.5458 22.2026 56.6951 21.9359 56.8018 21.6159C56.9084 21.2959 56.9618 20.9172 56.9618 20.4799V16.5759H58.4018V24.1599ZM60.5724 16.5759H62.0124V17.6639H62.0444C62.3217 17.2586 62.7004 16.9439 63.1804 16.7199C63.671 16.4959 64.1724 16.3839 64.6844 16.3839C65.271 16.3839 65.799 16.4852 66.2684 16.6879C66.7484 16.8906 67.1537 17.1732 67.4844 17.5359C67.8257 17.8986 68.087 18.3252 68.2684 18.8159C68.4497 19.2959 68.5404 19.8132 68.5404 20.3679C68.5404 20.9332 68.4497 21.4612 68.2684 21.9519C68.087 22.4319 67.8257 22.8532 67.4844 23.2159C67.1537 23.5679 66.7484 23.8452 66.2684 24.0479C65.799 24.2506 65.271 24.3519 64.6844 24.3519C64.1404 24.3519 63.6284 24.2399 63.1484 24.0159C62.6684 23.7812 62.3004 23.4666 62.0444 23.0719H62.0124V28.6719H60.5724V16.5759ZM64.5084 17.7279C64.1244 17.7279 63.7777 17.7972 63.4684 17.9359C63.159 18.0639 62.8977 18.2452 62.6844 18.4799C62.471 18.7039 62.3057 18.9812 62.1884 19.3119C62.071 19.6319 62.0124 19.9839 62.0124 20.3679C62.0124 20.7519 62.071 21.1092 62.1884 21.4399C62.3057 21.7599 62.471 22.0372 62.6844 22.2719C62.8977 22.4959 63.159 22.6772 63.4684 22.8159C63.7777 22.9439 64.1244 23.0079 64.5084 23.0079C64.8924 23.0079 65.239 22.9439 65.5484 22.8159C65.8577 22.6772 66.119 22.4959 66.3324 22.2719C66.5457 22.0372 66.711 21.7599 66.8284 21.4399C66.9457 21.1092 67.0044 20.7519 67.0044 20.3679C67.0044 19.9839 66.9457 19.6319 66.8284 19.3119C66.711 18.9812 66.5457 18.7039 66.3324 18.4799C66.119 18.2452 65.8577 18.0639 65.5484 17.9359C65.239 17.7972 64.8924 17.7279 64.5084 17.7279ZM78.8708 17.8239H76.8068V21.2639C76.8068 21.4772 76.8121 21.6906 76.8228 21.9039C76.8334 22.1066 76.8708 22.2932 76.9348 22.4639C77.0094 22.6239 77.1161 22.7572 77.2548 22.8639C77.4041 22.9599 77.6174 23.0079 77.8948 23.0079C78.0654 23.0079 78.2414 22.9919 78.4227 22.9599C78.6041 22.9279 78.7694 22.8692 78.9188 22.7839V24.0959C78.7481 24.1919 78.5241 24.2559 78.2468 24.2879C77.9801 24.3306 77.7721 24.3519 77.6228 24.3519C77.0681 24.3519 76.6361 24.2772 76.3268 24.1279C76.0281 23.9679 75.8041 23.7652 75.6548 23.5199C75.5161 23.2746 75.4308 23.0026 75.3988 22.7039C75.3774 22.3946 75.3668 22.0852 75.3668 21.7759V17.8239H73.7027V16.5759H75.3668V14.4479H76.8068V16.5759H78.8708V17.8239ZM80.7286 12.0639H82.1686V17.7439H82.2006C82.382 17.3386 82.6966 17.0132 83.1446 16.7679C83.5926 16.5119 84.11 16.3839 84.6966 16.3839C85.0593 16.3839 85.406 16.4426 85.7366 16.5599C86.078 16.6666 86.3713 16.8372 86.6166 17.0719C86.8726 17.3066 87.0753 17.6106 87.2246 17.9839C87.374 18.3466 87.4486 18.7786 87.4486 19.2799V24.1599H86.0086V19.6799C86.0086 19.3279 85.9606 19.0292 85.8646 18.7839C85.7686 18.5279 85.6406 18.3252 85.4806 18.1759C85.3206 18.0159 85.134 17.9039 84.9206 17.8399C84.718 17.7652 84.5046 17.7279 84.2806 17.7279C83.982 17.7279 83.7046 17.7759 83.4486 17.8719C83.1926 17.9679 82.9686 18.1226 82.7766 18.3359C82.5846 18.5386 82.4353 18.7999 82.3286 19.1199C82.222 19.4399 82.1686 19.8186 82.1686 20.2559V24.1599H80.7286V12.0639ZM89.7313 16.5759H91.1713V24.1599H89.7313V16.5759ZM89.3953 13.8559C89.3953 13.5679 89.4966 13.3226 89.6993 13.1199C89.9126 12.9066 90.1633 12.7999 90.4513 12.7999C90.7393 12.7999 90.9846 12.9066 91.1873 13.1199C91.4006 13.3226 91.5073 13.5679 91.5073 13.8559C91.5073 14.1439 91.4006 14.3946 91.1873 14.6079C90.9846 14.8106 90.7393 14.9119 90.4513 14.9119C90.1633 14.9119 89.9126 14.8106 89.6993 14.6079C89.4966 14.3946 89.3953 14.1439 89.3953 13.8559ZM97.495 18.4799C97.3243 18.2666 97.111 18.0906 96.855 17.9519C96.6097 17.8026 96.3057 17.7279 95.943 17.7279C95.6017 17.7279 95.303 17.8026 95.047 17.9519C94.8017 18.0906 94.679 18.2986 94.679 18.5759C94.679 18.7999 94.7483 18.9812 94.887 19.1199C95.0363 19.2586 95.207 19.3706 95.399 19.4559C95.6017 19.5412 95.815 19.6052 96.039 19.6479C96.263 19.6906 96.455 19.7279 96.615 19.7599C96.9243 19.8346 97.2123 19.9252 97.479 20.0319C97.7563 20.1386 97.991 20.2772 98.183 20.4479C98.3857 20.6186 98.5403 20.8266 98.647 21.0719C98.7643 21.3172 98.823 21.6159 98.823 21.9679C98.823 22.3946 98.7323 22.7626 98.551 23.0719C98.3697 23.3706 98.135 23.6159 97.847 23.8079C97.559 23.9999 97.2283 24.1386 96.855 24.2239C96.4923 24.3092 96.1243 24.3519 95.751 24.3519C95.1217 24.3519 94.567 24.2559 94.087 24.0639C93.6177 23.8719 93.1963 23.5199 92.823 23.0079L93.911 22.1119C94.1457 22.3466 94.407 22.5546 94.695 22.7359C94.983 22.9172 95.335 23.0079 95.751 23.0079C95.9323 23.0079 96.1137 22.9919 96.295 22.9599C96.487 22.9172 96.6523 22.8586 96.791 22.7839C96.9403 22.6986 97.0577 22.5972 97.143 22.4799C97.239 22.3519 97.287 22.2079 97.287 22.0479C97.287 21.8346 97.2177 21.6586 97.079 21.5199C96.951 21.3812 96.791 21.2746 96.599 21.1999C96.4177 21.1146 96.2203 21.0506 96.007 21.0079C95.8043 20.9546 95.623 20.9119 95.463 20.8799C95.1537 20.8052 94.8603 20.7199 94.583 20.6239C94.3057 20.5279 94.0603 20.3999 93.847 20.2399C93.6337 20.0799 93.463 19.8772 93.335 19.6319C93.207 19.3866 93.143 19.0826 93.143 18.7199C93.143 18.3252 93.223 17.9839 93.383 17.6959C93.5537 17.3972 93.7723 17.1519 94.039 16.9599C94.3163 16.7679 94.6257 16.6239 94.967 16.5279C95.319 16.4319 95.671 16.3839 96.023 16.3839C96.535 16.3839 97.0257 16.4799 97.495 16.6719C97.9643 16.8639 98.3377 17.1839 98.615 17.6319L97.495 18.4799ZM105.026 16.5759H106.37V17.7599H106.402C106.434 17.6532 106.514 17.5199 106.642 17.3599C106.78 17.1999 106.951 17.0506 107.154 16.9119C107.367 16.7626 107.612 16.6399 107.89 16.5439C108.178 16.4372 108.492 16.3839 108.834 16.3839C109.399 16.3839 109.874 16.5012 110.258 16.7359C110.642 16.9706 110.956 17.3226 111.202 17.7919C111.447 17.3226 111.794 16.9706 112.242 16.7359C112.69 16.5012 113.143 16.3839 113.602 16.3839C114.188 16.3839 114.668 16.4799 115.042 16.6719C115.415 16.8639 115.708 17.1199 115.922 17.4399C116.135 17.7492 116.279 18.1066 116.354 18.5119C116.439 18.9066 116.482 19.3172 116.482 19.7439V24.1599H115.042V19.9359C115.042 19.6479 115.02 19.3706 114.978 19.1039C114.946 18.8372 114.871 18.6026 114.754 18.3999C114.636 18.1972 114.471 18.0372 114.258 17.9199C114.044 17.7919 113.762 17.7279 113.41 17.7279C112.716 17.7279 112.22 17.9412 111.922 18.3679C111.623 18.7946 111.474 19.3439 111.474 20.0159V24.1599H110.034V20.1919C110.034 19.8292 110.012 19.4986 109.97 19.1999C109.938 18.9012 109.863 18.6452 109.746 18.4319C109.639 18.2079 109.479 18.0372 109.266 17.9199C109.063 17.7919 108.786 17.7279 108.434 17.7279C108.178 17.7279 107.927 17.7812 107.682 17.8879C107.447 17.9839 107.239 18.1332 107.058 18.3359C106.876 18.5386 106.732 18.7999 106.626 19.1199C106.519 19.4292 106.466 19.7972 106.466 20.2239V24.1599H105.026V16.5759ZM119.819 20.3679C119.819 20.7519 119.877 21.1092 119.995 21.4399C120.112 21.7599 120.277 22.0372 120.491 22.2719C120.704 22.4959 120.965 22.6772 121.275 22.8159C121.584 22.9439 121.931 23.0079 122.315 23.0079C122.699 23.0079 123.045 22.9439 123.355 22.8159C123.664 22.6772 123.925 22.4959 124.139 22.2719C124.352 22.0372 124.517 21.7599 124.635 21.4399C124.752 21.1092 124.811 20.7519 124.811 20.3679C124.811 19.9839 124.752 19.6319 124.635 19.3119C124.517 18.9812 124.352 18.7039 124.139 18.4799C123.925 18.2452 123.664 18.0639 123.355 17.9359C123.045 17.7972 122.699 17.7279 122.315 17.7279C121.931 17.7279 121.584 17.7972 121.275 17.9359C120.965 18.0639 120.704 18.2452 120.491 18.4799C120.277 18.7039 120.112 18.9812 119.995 19.3119C119.877 19.6319 119.819 19.9839 119.819 20.3679ZM118.283 20.3679C118.283 19.8132 118.384 19.2959 118.587 18.8159C118.8 18.3359 119.088 17.9146 119.451 17.5519C119.813 17.1892 120.24 16.9066 120.731 16.7039C121.221 16.4906 121.749 16.3839 122.315 16.3839C122.88 16.3839 123.408 16.4906 123.899 16.7039C124.389 16.9066 124.816 17.1892 125.179 17.5519C125.541 17.9146 125.824 18.3359 126.027 18.8159C126.24 19.2959 126.347 19.8132 126.347 20.3679C126.347 20.9226 126.24 21.4452 126.027 21.9359C125.824 22.4159 125.541 22.8372 125.179 23.1999C124.816 23.5519 124.389 23.8346 123.899 24.0479C123.408 24.2506 122.88 24.3519 122.315 24.3519C121.749 24.3519 121.221 24.2506 120.731 24.0479C120.24 23.8346 119.813 23.5519 119.451 23.1999C119.088 22.8372 118.8 22.4159 118.587 21.9359C118.384 21.4452 118.283 20.9226 118.283 20.3679ZM135.751 24.1599H134.311V23.0719H134.279C134.001 23.4772 133.617 23.7919 133.127 24.0159C132.647 24.2399 132.151 24.3519 131.639 24.3519C131.052 24.3519 130.519 24.2506 130.039 24.0479C129.569 23.8452 129.164 23.5626 128.823 23.1999C128.492 22.8372 128.236 22.4159 128.055 21.9359C127.873 21.4559 127.783 20.9332 127.783 20.3679C127.783 19.8026 127.873 19.2799 128.055 18.7999C128.236 18.3092 128.492 17.8879 128.823 17.5359C129.164 17.1732 129.569 16.8906 130.039 16.6879C130.519 16.4852 131.052 16.3839 131.639 16.3839C132.183 16.3839 132.695 16.5012 133.175 16.7359C133.655 16.9599 134.023 17.2692 134.279 17.6639H134.311V12.0639H135.751V24.1599ZM131.815 23.0079C132.199 23.0079 132.545 22.9439 132.855 22.8159C133.164 22.6772 133.425 22.4959 133.639 22.2719C133.852 22.0372 134.017 21.7599 134.135 21.4399C134.252 21.1092 134.311 20.7519 134.311 20.3679C134.311 19.9839 134.252 19.6319 134.135 19.3119C134.017 18.9812 133.852 18.7039 133.639 18.4799C133.425 18.2452 133.164 18.0639 132.855 17.9359C132.545 17.7972 132.199 17.7279 131.815 17.7279C131.431 17.7279 131.084 17.7972 130.775 17.9359C130.465 18.0639 130.204 18.2452 129.991 18.4799C129.777 18.7039 129.612 18.9812 129.495 19.3119C129.377 19.6319 129.319 19.9839 129.319 20.3679C129.319 20.7519 129.377 21.1092 129.495 21.4399C129.612 21.7599 129.777 22.0372 129.991 22.2719C130.204 22.4959 130.465 22.6772 130.775 22.8159C131.084 22.9439 131.431 23.0079 131.815 23.0079ZM144.652 24.1599H143.212V22.9919H143.18C142.998 23.3972 142.684 23.7279 142.236 23.9839C141.788 24.2292 141.27 24.3519 140.684 24.3519C140.31 24.3519 139.958 24.2932 139.628 24.1759C139.297 24.0692 139.004 23.8986 138.748 23.6639C138.502 23.4292 138.305 23.1306 138.156 22.7679C138.006 22.3946 137.932 21.9572 137.932 21.4559V16.5759H139.372V21.0559C139.372 21.4079 139.42 21.7119 139.516 21.9679C139.612 22.2132 139.74 22.4159 139.9 22.5759C140.06 22.7252 140.241 22.8372 140.444 22.9119C140.657 22.9759 140.876 23.0079 141.1 23.0079C141.398 23.0079 141.676 22.9599 141.932 22.8639C142.188 22.7679 142.412 22.6186 142.604 22.4159C142.796 22.2026 142.945 21.9359 143.052 21.6159C143.158 21.2959 143.212 20.9172 143.212 20.4799V16.5759H144.652V24.1599ZM146.934 12.0639H148.374V24.1599H146.934V12.0639ZM151.754 20.8959C151.754 21.2266 151.823 21.5306 151.962 21.8079C152.111 22.0746 152.303 22.3039 152.538 22.4959C152.773 22.6879 153.045 22.8372 153.354 22.9439C153.663 23.0506 153.983 23.1039 154.314 23.1039C154.762 23.1039 155.151 23.0026 155.482 22.7999C155.813 22.5866 156.117 22.3092 156.394 21.9679L157.482 22.7999C156.682 23.8346 155.562 24.3519 154.122 24.3519C153.525 24.3519 152.981 24.2506 152.49 24.0479C152.01 23.8452 151.599 23.5679 151.258 23.2159C150.927 22.8532 150.671 22.4319 150.49 21.9519C150.309 21.4612 150.218 20.9332 150.218 20.3679C150.218 19.8026 150.314 19.2799 150.506 18.7999C150.709 18.3092 150.981 17.8879 151.322 17.5359C151.674 17.1732 152.09 16.8906 152.57 16.6879C153.05 16.4852 153.573 16.3839 154.138 16.3839C154.81 16.3839 155.375 16.5012 155.834 16.7359C156.303 16.9706 156.687 17.2799 156.986 17.6639C157.285 18.0372 157.498 18.4639 157.626 18.9439C157.765 19.4132 157.834 19.8932 157.834 20.3839V20.8959H151.754ZM156.298 19.7439C156.287 19.4239 156.234 19.1306 156.138 18.8639C156.053 18.5972 155.919 18.3679 155.738 18.1759C155.557 17.9732 155.327 17.8186 155.05 17.7119C154.783 17.5946 154.469 17.5359 154.106 17.5359C153.754 17.5359 153.429 17.6052 153.13 17.7439C152.842 17.8719 152.597 18.0426 152.394 18.2559C152.191 18.4692 152.031 18.7092 151.914 18.9759C151.807 19.2319 151.754 19.4879 151.754 19.7439H156.298Z" fill="#006C4D"/>
</g>
<defs>
<filter id="filter0_d_19_9463" x="0" y="0.159912" width="173" height="42" filterUnits="userSpaceOnUse" color-interpolation-filters="sRGB">
<feFlood flood-opacity="0" result="BackgroundImageFix"/>
<feColorMatrix in="SourceAlpha" type="matrix" values="0 0 0 0 0 0 0 0 0 0 0 0 0 0 0 0 0 0 127 0" result="hardAlpha"/>
<feOffset dx="4" dy="4"/>
<feComposite in2="hardAlpha" operator="out"/>
<feColorMatrix type="matrix" values="0 0 0 0 0.615686 0 0 0 0 0.788235 0 0 0 0 0.333333 0 0 0 1 0"/>
<feBlend mode="normal" in2="BackgroundImageFix" result="effect1_dropShadow_19_9463"/>
<feBlend mode="normal" in="SourceGraphic" in2="effect1_dropShadow_19_9463" result="shape"/>
</filter>
</defs>
</svg>
