<svg width="1004" height="507" viewBox="0 0 1004 507" fill="none" xmlns="http://www.w3.org/2000/svg">
<rect y="24" width="808" height="483" rx="10" fill="#F7FFED"/>
<path d="M756 168C761.2 160.4 830.833 92.1667 865 59L905 99L1000 4M1000 4H957M1000 4V48.5" stroke="url(#paint0_linear_239_2761)" stroke-width="8"/>
<ellipse cx="92" cy="99" rx="92" ry="99" transform="matrix(-1 0 0 1 579 158)" fill="#006C4D"/>
<mask id="mask0_239_2761" style="mask-type:alpha" maskUnits="userSpaceOnUse" x="395" y="158" width="184" height="198">
<ellipse cx="92" cy="99" rx="92" ry="99" transform="matrix(-1 0 0 1 579 158)" fill="#217D5C"/>
</mask>
<g mask="url(#mask0_239_2761)">
<g filter="url(#filter0_f_239_2761)">
<path fill-rule="evenodd" clip-rule="evenodd" d="M514 344C463.19 344 422 299.676 422 245C422 209.323 439.537 178.054 465.841 160.631C425.23 170.916 395 210.159 395 257C395 311.676 436.19 356 487 356C504.656 356 521.15 350.648 535.158 341.369C528.365 343.09 521.281 344 514 344Z" fill="#006C4D"/>
</g>
</g>
<path fill-rule="evenodd" clip-rule="evenodd" d="M495 242C495 237.582 491.418 234 487 234C482.582 234 479 237.582 479 242V302.851L456.256 281.524C454.241 279.635 451.077 279.737 449.188 281.751L447.82 283.21C445.931 285.224 446.033 288.389 448.048 290.278L479 319.301V484C479 488.418 482.582 492 487 492C491.418 492 495 488.418 495 484V288.88C495.497 288.659 495.967 288.351 496.386 287.958L515.353 270.174C517.367 268.285 517.469 265.121 515.58 263.106L514.212 261.647C512.323 259.633 509.159 259.531 507.145 261.42L495 272.808V242Z" fill="#005139"/>
<ellipse cx="92" cy="99" rx="92" ry="99" transform="matrix(-1 0 0 1 895 189)" fill="#006C4D"/>
<mask id="mask1_239_2761" style="mask-type:alpha" maskUnits="userSpaceOnUse" x="711" y="189" width="184" height="198">
<ellipse cx="92" cy="99" rx="92" ry="99" transform="matrix(-1 0 0 1 895 189)" fill="#217D5C"/>
</mask>
<g mask="url(#mask1_239_2761)">
<g filter="url(#filter1_f_239_2761)">
<path fill-rule="evenodd" clip-rule="evenodd" d="M830 375C779.19 375 738 330.676 738 276C738 240.323 755.537 209.054 781.841 191.631C741.23 201.916 711 241.159 711 288C711 342.676 752.19 387 803 387C820.656 387 837.15 381.648 851.158 372.369C844.365 374.09 837.281 375 830 375Z" fill="#006C4D"/>
</g>
</g>
<path fill-rule="evenodd" clip-rule="evenodd" d="M811 273C811 268.582 807.418 265 803 265C798.582 265 795 268.582 795 273V333.851L772.256 312.524C770.241 310.635 767.077 310.737 765.188 312.751L763.82 314.21C761.931 316.224 762.033 319.389 764.048 321.278L795 350.301V484C795 488.418 798.582 492 803 492C807.418 492 811 488.418 811 484V319.88C811.497 319.659 811.967 319.351 812.386 318.958L831.353 301.174C833.367 299.285 833.469 296.121 831.58 294.106L830.212 292.647C828.323 290.633 825.159 290.531 823.145 292.42L811 303.808V273Z" fill="#005139"/>
<ellipse cx="93" cy="107" rx="93" ry="107" transform="matrix(-1 0 0 1 758 67)" fill="#2AA37A"/>
<mask id="mask2_239_2761" style="mask-type:alpha" maskUnits="userSpaceOnUse" x="572" y="67" width="186" height="214">
<ellipse cx="93" cy="107" rx="93" ry="107" transform="matrix(-1 0 0 1 758 67)" fill="#217D5C"/>
</mask>
<g mask="url(#mask2_239_2761)">
<g filter="url(#filter2_f_239_2761)">
<path fill-rule="evenodd" clip-rule="evenodd" d="M692.293 268.03C640.931 268.03 599.293 220.125 599.293 161.03C599.293 122.47 617.021 88.6746 643.611 69.8433C602.559 80.9599 572 123.374 572 174C572 233.094 613.637 281 665 281C682.848 281 699.522 275.215 713.682 265.187C706.815 267.046 699.654 268.03 692.293 268.03Z" fill="#008862"/>
</g>
</g>
<path fill-rule="evenodd" clip-rule="evenodd" d="M656.535 151C656.535 146.582 660.117 143 664.535 143C668.953 143 672.535 146.582 672.535 151V211.788L695.212 190.524C697.226 188.635 700.39 188.737 702.279 190.751L703.647 192.21C705.536 194.224 705.434 197.389 703.42 199.278L672.535 228.238V490C672.535 494.418 668.953 498 664.535 498C660.117 498 656.535 494.418 656.535 490V196.148L635.672 180.833C633.446 179.199 632.966 176.069 634.6 173.843L635.784 172.231C637.418 170.005 640.547 169.525 642.773 171.159L656.535 181.262V151Z" fill="#006C4D"/>
<mask id="mask3_239_2761" style="mask-type:alpha" maskUnits="userSpaceOnUse" x="679" y="38" width="132" height="365">
<path d="M811 342.153H810.881C808.813 375.656 780.108 402.208 745 402.208C709.892 402.208 681.187 375.656 679.119 342.153H679V94.1811H679.48C683.428 62.5279 711.257 38 745 38C778.743 38 806.572 62.5279 810.52 94.1811H811V342.153Z" fill="#DDFAAE"/>
</mask>
<g mask="url(#mask3_239_2761)">
<path d="M811 342.153H810.881C808.813 375.656 780.108 402.208 745 402.208C709.892 402.208 681.187 375.656 679.119 342.153H679V94.1811H679.48C683.428 62.5279 711.257 38 745 38C778.743 38 806.572 62.5279 810.52 94.1811H811V342.153Z" fill="#CCFFB4"/>
<g filter="url(#filter3_f_239_2761)">
<path fill-rule="evenodd" clip-rule="evenodd" d="M758.397 402.468C729.893 396.283 708.285 372.414 706.493 343.373H706.372V92.9218H706.857C710.257 65.6685 731.184 43.645 758.397 37.74C753.688 36.7181 748.79 36.179 743.762 36.179C709.682 36.179 681.575 60.9521 677.587 92.9218H677.102V343.373H677.223C679.311 377.212 708.304 404.029 743.762 404.029C748.79 404.029 753.688 403.49 758.397 402.468Z" fill="#B2F497"/>
</g>
</g>
<path fill-rule="evenodd" clip-rule="evenodd" d="M757 168.733C757 164.315 753.418 160.733 749 160.733C744.582 160.733 741 164.315 741 168.733V320.514L723.325 299.781C721.176 297.259 717.744 297.304 715.661 299.881L713.128 303.015C711.044 305.591 711.098 309.725 713.248 312.247L741 344.801V490C741 494.418 744.582 498 749 498C753.418 498 757 494.418 757 490V235.906C757.537 235.551 758.03 235.075 758.451 234.479L778.537 206.062C780.45 203.357 780.156 199.209 777.881 196.8L775.764 194.556C773.489 192.147 770.095 192.387 768.182 195.093L757 210.913V168.733Z" fill="#97D77D"/>
<mask id="mask4_239_2761" style="mask-type:alpha" maskUnits="userSpaceOnUse" x="487" y="202" width="157" height="223">
<path d="M490.183 313.3C479.015 384.879 495.674 424.6 565.123 424.6C634.571 424.6 653.081 385.103 640.063 313.3C629.552 255.33 589.247 202 565.123 202C540.998 202 499.421 254.094 490.183 313.3Z" fill="#9DC955"/>
</mask>
<g mask="url(#mask4_239_2761)">
<path d="M491.926 313.3C480.884 384.879 488.756 424.6 566.016 424.6C643.276 424.6 652.977 385.103 640.106 313.3C629.715 255.33 589.867 202 566.016 202C542.165 202 501.059 254.094 491.926 313.3Z" fill="#2AA37A"/>
<g filter="url(#filter4_f_239_2761)">
<path fill-rule="evenodd" clip-rule="evenodd" d="M592.048 419.653C520.826 419.653 506.132 379.932 517.275 308.353C524.464 262.175 551.283 220.323 574.158 204.141C570.937 202.74 567.867 202 565.021 202C540.865 202 499.233 254.094 489.983 313.3C478.8 384.879 496.68 424.6 565.021 424.6C579.46 424.6 591.73 422.837 601.979 419.378C598.794 419.561 595.484 419.653 592.048 419.653Z" fill="#008862"/>
</g>
</g>
<path fill-rule="evenodd" clip-rule="evenodd" d="M573.588 297.55C573.588 292.911 569.827 289.15 565.188 289.15C560.549 289.15 556.788 292.911 556.788 297.55V325.256L547.66 309.447C546.21 306.936 543 306.075 540.489 307.525L538.67 308.575C536.159 310.025 535.299 313.236 536.748 315.747L556.788 350.456V483.4C556.788 488.039 560.549 491.8 565.188 491.8C569.827 491.8 573.588 488.039 573.588 483.4V386.48L599.31 349.744C600.973 347.369 600.396 344.096 598.021 342.433L596.3 341.228C593.925 339.565 590.652 340.142 588.989 342.517L573.588 364.512V297.55Z" fill="#006C4D"/>
<mask id="mask5_239_2761" style="mask-type:alpha" maskUnits="userSpaceOnUse" x="319" y="124" width="119" height="278">
<path d="M438 356.16H437.893C436.028 381.733 410.15 402 378.5 402C346.85 402 320.972 381.733 319.107 356.16H319V166.883H319.433C322.992 142.722 348.08 124 378.5 124C408.92 124 434.008 142.722 437.567 166.883H438V356.16Z" fill="#DDFAAE"/>
</mask>
<g mask="url(#mask5_239_2761)">
<path d="M438 356.16H437.893C436.028 381.733 410.15 402 378.5 402C346.85 402 320.972 381.733 319.107 356.16H319V166.883H319.433C322.992 142.722 348.08 124 378.5 124C408.92 124 434.008 142.722 437.567 166.883H438V356.16Z" fill="#CCFFB4"/>
<g filter="url(#filter5_f_239_2761)">
<path fill-rule="evenodd" clip-rule="evenodd" d="M390.578 402.198C364.881 397.477 345.401 379.258 343.785 357.091H343.677V165.922H344.114C347.178 145.119 366.045 128.309 390.578 123.801C386.332 123.021 381.917 122.61 377.384 122.61C346.66 122.61 321.321 141.519 317.726 165.922H317.289V357.091H317.398C319.281 382.92 345.418 403.39 377.384 403.39C381.917 403.39 386.332 402.978 390.578 402.198Z" fill="#B2F497"/>
</g>
</g>
<path fill-rule="evenodd" clip-rule="evenodd" d="M387 243C387 238.582 383.418 235 379 235C374.582 235 371 238.582 371 243V311.517L363.832 304.403C361.48 302.068 357.718 302.118 355.429 304.514L353.641 306.385C351.352 308.781 351.403 312.616 353.755 314.95L371 332.066V484C371 488.418 374.582 492 379 492C383.418 492 387 488.418 387 484V285.527C387.325 285.273 387.629 284.98 387.907 284.649L402.813 266.805C404.937 264.262 404.659 260.407 402.192 258.196L400.772 256.924C398.305 254.712 394.582 254.98 392.458 257.523L387 264.057V243Z" fill="#97D77D"/>
<mask id="mask6_239_2761" style="mask-type:alpha" maskUnits="userSpaceOnUse" x="567" y="197" width="134" height="226">
<path d="M568.741 309.914C559.062 382.53 590.984 422.827 633.691 422.827C679.511 422.827 709.923 382.757 698.64 309.914C689.531 251.103 654.599 197 633.691 197C612.782 197 576.747 249.849 568.741 309.914Z" fill="#9DC955"/>
</mask>
<g mask="url(#mask6_239_2761)">
<path d="M568.741 309.914C559.062 382.53 594.5 407.814 637.5 407.814C683.321 407.814 709.923 382.757 698.64 309.914C689.531 251.103 654.599 197 633.691 197C612.782 197 576.747 249.849 568.741 309.914Z" fill="#639F4D"/>
<g opacity="0.2" filter="url(#filter6_f_239_2761)">
<path fill-rule="evenodd" clip-rule="evenodd" d="M642.5 406.876C599.793 406.876 581.712 377.526 591.391 304.909C597.669 257.816 621.176 215.158 641.113 198.93C638.503 197.666 636.011 197 633.691 197C612.782 197 576.748 249.849 568.741 309.914C559.062 382.53 593 407.501 637.5 407.501C643.608 407.501 649.375 407.061 654.756 406.127C650.73 406.629 646.634 406.876 642.5 406.876Z" fill="#326B1F"/>
</g>
</g>
<path fill-rule="evenodd" clip-rule="evenodd" d="M635.544 295C639.963 295 643.544 298.582 643.544 303V487C643.544 491.418 639.963 495 635.544 495C631.126 495 627.544 491.418 627.544 487V377.991C627.39 377.851 627.243 377.702 627.105 377.542L600.16 346.452C598.351 344.366 598.696 341.358 600.93 339.735L602.758 338.407C604.992 336.784 608.269 337.16 610.078 339.247L627.544 359.4V303C627.544 298.582 631.126 295 635.544 295Z" fill="#326B1F"/>
<mask id="mask7_239_2761" style="mask-type:alpha" maskUnits="userSpaceOnUse" x="668" y="285" width="100" height="164">
<path d="M669.299 366.751C662.076 419.326 685.898 448.502 717.769 448.502C751.964 448.502 774.659 419.491 766.239 366.751C759.441 324.172 733.373 285 717.769 285C702.166 285 675.274 323.263 669.299 366.751Z" fill="#9DC955"/>
</mask>
<g mask="url(#mask7_239_2761)">
<path d="M669.299 366.751C662.076 419.326 688.522 437.632 720.612 437.632C754.806 437.632 774.659 419.491 766.239 366.751C759.441 324.172 733.373 285 717.769 285C702.166 285 675.274 323.263 669.299 366.751Z" fill="#7DBB65"/>
<g opacity="0.2" filter="url(#filter7_f_239_2761)">
<path fill-rule="evenodd" clip-rule="evenodd" d="M724.343 436.953C692.473 436.953 678.979 415.703 686.202 363.128C690.887 329.032 708.429 298.147 723.308 286.397C721.36 285.482 719.5 285 717.769 285C702.166 285 675.274 323.263 669.299 366.751C662.076 419.326 687.403 437.406 720.612 437.406C725.171 437.406 729.474 437.087 733.49 436.411C730.486 436.774 727.429 436.953 724.343 436.953Z" fill="#326B1F"/>
</g>
</g>
<path fill-rule="evenodd" clip-rule="evenodd" d="M718 351.609C721.866 351.609 725 354.743 725 358.609V402.468L732.185 391.652C733.714 389.352 736.817 388.726 739.117 390.254C741.417 391.782 742.043 394.885 740.515 397.186L726.127 418.842C725.812 419.317 725.429 419.721 725 420.049V480C725 483.866 721.866 487 718 487C714.134 487 711 483.866 711 480V391.748C710.496 391.44 710.039 391.037 709.656 390.543L696.18 373.154C694.488 370.971 694.886 367.83 697.069 366.139C699.252 364.447 702.392 364.845 704.084 367.028L711 375.953V358.609C711 354.743 714.134 351.609 718 351.609Z" fill="#326B1F"/>
<mask id="mask8_239_2761" style="mask-type:alpha" maskUnits="userSpaceOnUse" x="371" y="52" width="134" height="361">
<path d="M372.741 232.5C363.062 348.582 394.984 413 437.691 413C483.511 413 513.923 348.945 502.64 232.5C493.531 138.488 458.599 52 437.691 52C416.782 52 380.747 136.482 372.741 232.5Z" fill="#9DC955"/>
</mask>
<g mask="url(#mask8_239_2761)">
<path d="M372.741 232.5C363.062 348.582 398.5 389 441.5 389C487.321 389 513.923 348.945 502.64 232.5C493.531 138.488 458.599 52 437.691 52C416.782 52 380.747 136.482 372.741 232.5Z" fill="#97D77D"/>
<g opacity="0.2" filter="url(#filter8_f_239_2761)">
<path fill-rule="evenodd" clip-rule="evenodd" d="M446.5 387.5C403.793 387.5 385.712 340.582 395.391 224.5C401.668 149.218 425.175 81.0273 445.113 55.0855C442.502 53.0644 440.01 52 437.691 52C416.782 52 380.747 136.482 372.741 232.5C363.062 348.582 397 388.5 441.5 388.5C447.608 388.5 453.375 387.797 458.756 386.303C454.73 387.105 450.634 387.5 446.5 387.5Z" fill="#326B1F"/>
</g>
</g>
<path fill-rule="evenodd" clip-rule="evenodd" d="M449.568 248C449.568 243.582 445.986 240 441.568 240C437.15 240 433.568 243.582 433.568 248V325.368L417.77 307.126C415.963 305.039 413.076 305.077 411.324 307.211L408.681 310.429C406.928 312.563 406.973 315.985 408.781 318.073L433.568 346.695V490C433.568 494.418 437.15 498 441.568 498C445.986 498 449.568 494.418 449.568 490V292.399C449.823 292.172 450.062 291.908 450.277 291.607L466.935 268.409C468.545 266.166 468.302 262.732 466.39 260.739L464.506 258.774C462.595 256.781 459.74 256.984 458.13 259.227L449.568 271.15V248Z" fill="#326B1F"/>
<mask id="mask9_239_2761" style="mask-type:alpha" maskUnits="userSpaceOnUse" x="235" y="175" width="165" height="270">
<path d="M238.332 310C226.642 396.82 244.08 445 316.773 445C389.466 445 408.84 397.092 395.214 310C384.212 239.686 342.024 175 316.773 175C291.521 175 248.001 238.186 238.332 310Z" fill="#9DC955"/>
</mask>
<g mask="url(#mask9_239_2761)">
<path d="M240.156 310C228.599 396.82 236.839 445 317.708 445C398.577 445 408.732 397.092 395.26 310C384.383 239.686 342.673 175 317.708 175C292.743 175 249.716 238.186 240.156 310Z" fill="#97D77D"/>
<g opacity="0.2" filter="url(#filter9_f_239_2761)">
<path fill-rule="evenodd" clip-rule="evenodd" d="M345.144 439C271.949 439 256.849 390.82 268.301 304C275.654 248.254 302.989 197.707 326.424 177.878C323.304 176.322 320.332 175.5 317.577 175.5C292.752 175.5 249.583 240.686 240.077 312.5C228.318 401.329 247.577 444.5 316.077 444.5C330.389 444.5 342.786 442.601 353.318 438.789C350.675 438.93 347.951 439 345.144 439Z" fill="#326B1F"/>
</g>
</g>
<path fill-rule="evenodd" clip-rule="evenodd" d="M326.077 288C326.077 283.582 322.495 280 318.077 280C313.659 280 310.077 283.582 310.077 288V333.053L301.577 318.33C300.196 315.939 297.138 315.119 294.747 316.5L293.015 317.5C290.623 318.881 289.804 321.939 291.185 324.33L310.077 357.053V484C310.077 488.418 313.659 492 318.077 492C322.495 492 326.077 488.418 326.077 484V391.97L350.767 356.709C352.351 354.447 351.801 351.329 349.539 349.745L347.901 348.598C345.639 347.014 342.521 347.564 340.938 349.826L326.077 371.049V288Z" fill="#326B1F"/>
<rect width="601" height="20" rx="10" transform="matrix(-1 0 0 1 847 482)" fill="#946951"/>
<defs>
<filter id="filter0_f_239_2761" x="391" y="156.631" width="148.158" height="203.369" filterUnits="userSpaceOnUse" color-interpolation-filters="sRGB">
<feFlood flood-opacity="0" result="BackgroundImageFix"/>
<feBlend mode="normal" in="SourceGraphic" in2="BackgroundImageFix" result="shape"/>
<feGaussianBlur stdDeviation="2" result="effect1_foregroundBlur_239_2761"/>
</filter>
<filter id="filter1_f_239_2761" x="707" y="187.631" width="148.158" height="203.369" filterUnits="userSpaceOnUse" color-interpolation-filters="sRGB">
<feFlood flood-opacity="0" result="BackgroundImageFix"/>
<feBlend mode="normal" in="SourceGraphic" in2="BackgroundImageFix" result="shape"/>
<feGaussianBlur stdDeviation="2" result="effect1_foregroundBlur_239_2761"/>
</filter>
<filter id="filter2_f_239_2761" x="568" y="65.8433" width="149.682" height="219.157" filterUnits="userSpaceOnUse" color-interpolation-filters="sRGB">
<feFlood flood-opacity="0" result="BackgroundImageFix"/>
<feBlend mode="normal" in="SourceGraphic" in2="BackgroundImageFix" result="shape"/>
<feGaussianBlur stdDeviation="2" result="effect1_foregroundBlur_239_2761"/>
</filter>
<filter id="filter3_f_239_2761" x="673.062" y="32.139" width="89.375" height="375.93" filterUnits="userSpaceOnUse" color-interpolation-filters="sRGB">
<feFlood flood-opacity="0" result="BackgroundImageFix"/>
<feBlend mode="normal" in="SourceGraphic" in2="BackgroundImageFix" result="shape"/>
<feGaussianBlur stdDeviation="2.02" result="effect1_foregroundBlur_239_2761"/>
</filter>
<filter id="filter4_f_239_2761" x="482.694" y="197.8" width="123.485" height="231" filterUnits="userSpaceOnUse" color-interpolation-filters="sRGB">
<feFlood flood-opacity="0" result="BackgroundImageFix"/>
<feBlend mode="normal" in="SourceGraphic" in2="BackgroundImageFix" result="shape"/>
<feGaussianBlur stdDeviation="2.1" result="effect1_foregroundBlur_239_2761"/>
</filter>
<filter id="filter5_f_239_2761" x="313.249" y="118.57" width="81.3687" height="288.86" filterUnits="userSpaceOnUse" color-interpolation-filters="sRGB">
<feFlood flood-opacity="0" result="BackgroundImageFix"/>
<feBlend mode="normal" in="SourceGraphic" in2="BackgroundImageFix" result="shape"/>
<feGaussianBlur stdDeviation="2.02" result="effect1_foregroundBlur_239_2761"/>
</filter>
<filter id="filter6_f_239_2761" x="563.082" y="193" width="95.674" height="218.501" filterUnits="userSpaceOnUse" color-interpolation-filters="sRGB">
<feFlood flood-opacity="0" result="BackgroundImageFix"/>
<feBlend mode="normal" in="SourceGraphic" in2="BackgroundImageFix" result="shape"/>
<feGaussianBlur stdDeviation="2" result="effect1_foregroundBlur_239_2761"/>
</filter>
<filter id="filter7_f_239_2761" x="664.061" y="281" width="73.4287" height="160.406" filterUnits="userSpaceOnUse" color-interpolation-filters="sRGB">
<feFlood flood-opacity="0" result="BackgroundImageFix"/>
<feBlend mode="normal" in="SourceGraphic" in2="BackgroundImageFix" result="shape"/>
<feGaussianBlur stdDeviation="2" result="effect1_foregroundBlur_239_2761"/>
</filter>
<filter id="filter8_f_239_2761" x="367.082" y="48" width="95.6742" height="344.5" filterUnits="userSpaceOnUse" color-interpolation-filters="sRGB">
<feFlood flood-opacity="0" result="BackgroundImageFix"/>
<feBlend mode="normal" in="SourceGraphic" in2="BackgroundImageFix" result="shape"/>
<feGaussianBlur stdDeviation="2" result="effect1_foregroundBlur_239_2761"/>
</filter>
<filter id="filter9_f_239_2761" x="232.849" y="171.5" width="124.47" height="277" filterUnits="userSpaceOnUse" color-interpolation-filters="sRGB">
<feFlood flood-opacity="0" result="BackgroundImageFix"/>
<feBlend mode="normal" in="SourceGraphic" in2="BackgroundImageFix" result="shape"/>
<feGaussianBlur stdDeviation="2" result="effect1_foregroundBlur_239_2761"/>
</filter>
<linearGradient id="paint0_linear_239_2761" x1="878" y1="4" x2="878" y2="168" gradientUnits="userSpaceOnUse">
<stop stop-color="#97D77D"/>
<stop offset="1" stop-color="#F7FFED"/>
</linearGradient>
</defs>
</svg>
