<svg width="660" height="464" viewBox="0 0 660 464" fill="none" xmlns="http://www.w3.org/2000/svg">
<ellipse cx="92" cy="99" rx="92" ry="99" transform="matrix(-1 0 0 1 344 120)" fill="#006C4D"/>
<mask id="mask0_177_2784" style="mask-type:alpha" maskUnits="userSpaceOnUse" x="160" y="120" width="184" height="198">
<ellipse cx="92" cy="99" rx="92" ry="99" transform="matrix(-1 0 0 1 344 120)" fill="#217D5C"/>
</mask>
<g mask="url(#mask0_177_2784)">
<g filter="url(#filter0_f_177_2784)">
<path fill-rule="evenodd" clip-rule="evenodd" d="M279 306C228.19 306 187 261.676 187 207C187 171.323 204.537 140.054 230.842 122.631C190.23 132.916 160 172.159 160 219C160 273.676 201.19 318 252 318C269.656 318 286.15 312.648 300.158 303.369C293.365 305.09 286.281 306 279 306Z" fill="#006C4D"/>
</g>
</g>
<path fill-rule="evenodd" clip-rule="evenodd" d="M260 204C260 199.582 256.418 196 252 196C247.582 196 244 199.582 244 204V264.851L221.256 243.524C219.241 241.635 216.077 241.737 214.188 243.751L212.82 245.21C210.931 247.224 211.033 250.389 213.048 252.278L244 281.301V446C244 450.418 247.582 454 252 454C256.418 454 260 450.418 260 446V250.88C260.497 250.659 260.967 250.351 261.386 249.958L280.353 232.174C282.367 230.285 282.469 227.121 280.58 225.106L279.212 223.647C277.323 221.633 274.159 221.531 272.144 223.42L260 234.808V204Z" fill="#005139"/>
<ellipse cx="92" cy="99" rx="92" ry="99" transform="matrix(-1 0 0 1 660 151)" fill="#006C4D"/>
<mask id="mask1_177_2784" style="mask-type:alpha" maskUnits="userSpaceOnUse" x="476" y="151" width="184" height="198">
<ellipse cx="92" cy="99" rx="92" ry="99" transform="matrix(-1 0 0 1 660 151)" fill="#217D5C"/>
</mask>
<g mask="url(#mask1_177_2784)">
<g filter="url(#filter1_f_177_2784)">
<path fill-rule="evenodd" clip-rule="evenodd" d="M595 337C544.19 337 503 292.676 503 238C503 202.323 520.537 171.054 546.842 153.631C506.23 163.916 476 203.159 476 250C476 304.676 517.19 349 568 349C585.656 349 602.15 343.648 616.159 334.369C609.365 336.09 602.281 337 595 337Z" fill="#006C4D"/>
</g>
</g>
<path fill-rule="evenodd" clip-rule="evenodd" d="M576 235C576 230.582 572.418 227 568 227C563.582 227 560 230.582 560 235V295.851L537.256 274.524C535.241 272.635 532.077 272.737 530.188 274.751L528.82 276.21C526.932 278.224 527.033 281.389 529.048 283.278L560 312.301V446C560 450.418 563.582 454 568 454C572.418 454 576 450.418 576 446V281.88C576.497 281.659 576.967 281.351 577.387 280.958L596.353 263.174C598.367 261.285 598.469 258.121 596.58 256.106L595.212 254.647C593.323 252.633 590.159 252.531 588.145 254.42L576 265.808V235Z" fill="#005139"/>
<ellipse cx="93" cy="107" rx="93" ry="107" transform="matrix(-1 0 0 1 523 29)" fill="#2AA37A"/>
<mask id="mask2_177_2784" style="mask-type:alpha" maskUnits="userSpaceOnUse" x="337" y="29" width="186" height="214">
<ellipse cx="93" cy="107" rx="93" ry="107" transform="matrix(-1 0 0 1 523 29)" fill="#217D5C"/>
</mask>
<g mask="url(#mask2_177_2784)">
<g filter="url(#filter2_f_177_2784)">
<path fill-rule="evenodd" clip-rule="evenodd" d="M457.294 230.03C405.931 230.03 364.294 182.125 364.294 123.03C364.294 84.4706 382.022 50.6748 408.612 31.8434C367.559 42.96 337 85.3741 337 136C337 195.094 378.638 243 430 243C447.848 243 464.522 237.215 478.682 227.187C471.815 229.047 464.654 230.03 457.294 230.03Z" fill="#008862"/>
</g>
</g>
<path fill-rule="evenodd" clip-rule="evenodd" d="M421.535 113C421.535 108.582 425.117 105 429.535 105C433.953 105 437.535 108.582 437.535 113V173.788L460.212 152.524C462.226 150.635 465.391 150.737 467.279 152.751L468.647 154.21C470.536 156.224 470.435 159.389 468.42 161.278L437.535 190.238V452C437.535 456.418 433.953 460 429.535 460C425.117 460 421.535 456.418 421.535 452V158.148L400.672 142.833C398.446 141.199 397.966 138.069 399.6 135.843L400.784 134.231C402.418 132.005 405.547 131.525 407.773 133.159L421.535 143.262V113Z" fill="#006C4D"/>
<mask id="mask3_177_2784" style="mask-type:alpha" maskUnits="userSpaceOnUse" x="444" y="0" width="132" height="365">
<path d="M576 304.153H575.881C573.813 337.656 545.108 364.208 510 364.208C474.892 364.208 446.187 337.656 444.119 304.153H444V56.1811H444.48C448.428 24.5279 476.257 0 510 0C543.743 0 571.572 24.5279 575.52 56.1811H576V304.153Z" fill="#DDFAAE"/>
</mask>
<g mask="url(#mask3_177_2784)">
<path d="M576 304.153H575.881C573.813 337.656 545.108 364.208 510 364.208C474.892 364.208 446.187 337.656 444.119 304.153H444V56.1811H444.48C448.428 24.5279 476.257 0 510 0C543.743 0 571.572 24.5279 575.52 56.1811H576V304.153Z" fill="#CCFFB4"/>
<g filter="url(#filter3_f_177_2784)">
<path fill-rule="evenodd" clip-rule="evenodd" d="M523.398 364.468C494.893 358.283 473.285 334.414 471.493 305.373H471.373V54.9218H471.857C475.257 27.6685 496.184 5.64498 523.398 -0.259985C518.688 -1.28188 513.79 -1.82104 508.763 -1.82104C474.682 -1.82104 446.575 22.9521 442.587 54.9218H442.103V305.373H442.223C444.311 339.212 473.304 366.029 508.763 366.029C513.79 366.029 518.688 365.49 523.398 364.468Z" fill="#B2F497"/>
</g>
</g>
<path fill-rule="evenodd" clip-rule="evenodd" d="M522 130.733C522 126.315 518.418 122.733 514 122.733C509.582 122.733 506 126.315 506 130.733V282.514L488.325 261.781C486.176 259.259 482.744 259.304 480.661 261.881L478.128 265.015C476.044 267.591 476.098 271.725 478.248 274.247L506 306.801V452C506 456.418 509.582 460 514 460C518.418 460 522 456.418 522 452V197.906C522.537 197.551 523.03 197.075 523.451 196.479L543.537 168.062C545.45 165.357 545.156 161.209 542.881 158.8L540.764 156.556C538.489 154.147 535.095 154.387 533.182 157.093L522 172.913V130.733Z" fill="#97D77D"/>
<mask id="mask4_177_2784" style="mask-type:alpha" maskUnits="userSpaceOnUse" x="252" y="164" width="157" height="223">
<path d="M255.183 275.3C244.015 346.879 260.674 386.6 330.123 386.6C399.571 386.6 418.081 347.103 405.063 275.3C394.552 217.33 354.247 164 330.123 164C305.998 164 264.421 216.094 255.183 275.3Z" fill="#9DC955"/>
</mask>
<g mask="url(#mask4_177_2784)">
<path d="M256.926 275.3C245.884 346.879 253.756 386.6 331.016 386.6C408.276 386.6 417.977 347.103 405.106 275.3C394.715 217.33 354.867 164 331.016 164C307.165 164 266.059 216.094 256.926 275.3Z" fill="#2AA37A"/>
<g filter="url(#filter4_f_177_2784)">
<path fill-rule="evenodd" clip-rule="evenodd" d="M357.048 381.653C285.826 381.653 271.132 341.932 282.275 270.353C289.464 224.175 316.283 182.323 339.158 166.141C335.937 164.74 332.867 164 330.021 164C305.865 164 264.233 216.094 254.983 275.3C243.8 346.879 261.68 386.6 330.021 386.6C344.46 386.6 356.73 384.837 366.979 381.378C363.794 381.561 360.484 381.653 357.048 381.653Z" fill="#008862"/>
</g>
</g>
<path fill-rule="evenodd" clip-rule="evenodd" d="M338.588 259.55C338.588 254.911 334.827 251.15 330.188 251.15C325.549 251.15 321.788 254.911 321.788 259.55V287.256L312.66 271.447C311.21 268.936 308 268.075 305.489 269.525L303.67 270.575C301.159 272.025 300.299 275.236 301.748 277.747L321.788 312.456V445.4C321.788 450.039 325.549 453.8 330.188 453.8C334.827 453.8 338.588 450.039 338.588 445.4V348.48L364.31 311.745C365.973 309.369 365.396 306.096 363.021 304.433L361.3 303.228C358.925 301.565 355.652 302.142 353.989 304.517L338.588 326.512V259.55Z" fill="#006C4D"/>
<mask id="mask5_177_2784" style="mask-type:alpha" maskUnits="userSpaceOnUse" x="84" y="86" width="119" height="278">
<path d="M203 318.16H202.893C201.028 343.733 175.15 364 143.5 364C111.85 364 85.9716 343.733 84.1075 318.16H84V128.883H84.4327C87.9923 104.722 113.08 86 143.5 86C173.92 86 199.008 104.722 202.567 128.883H203V318.16Z" fill="#DDFAAE"/>
</mask>
<g mask="url(#mask5_177_2784)">
<path d="M203 318.16H202.893C201.028 343.733 175.15 364 143.5 364C111.85 364 85.9716 343.733 84.1075 318.16H84V128.883H84.4327C87.9923 104.722 113.08 86 143.5 86C173.92 86 199.008 104.722 202.567 128.883H203V318.16Z" fill="#CCFFB4"/>
<g filter="url(#filter5_f_177_2784)">
<path fill-rule="evenodd" clip-rule="evenodd" d="M155.578 364.198C129.881 359.477 110.401 341.258 108.785 319.091H108.677V127.922H109.114C112.178 107.119 131.045 90.3088 155.578 85.8015C151.332 85.0215 146.917 84.61 142.384 84.61C111.66 84.61 86.3215 103.519 82.7263 127.922H82.2893V319.091H82.3979C84.2806 344.92 110.418 365.39 142.384 365.39C146.917 365.39 151.332 364.978 155.578 364.198Z" fill="#B2F497"/>
</g>
</g>
<path fill-rule="evenodd" clip-rule="evenodd" d="M152 205C152 200.582 148.418 197 144 197C139.582 197 136 200.582 136 205V273.517L128.832 266.403C126.48 264.068 122.718 264.118 120.429 266.514L118.641 268.385C116.352 270.781 116.403 274.616 118.755 276.95L136 294.066V446C136 450.418 139.582 454 144 454C148.418 454 152 450.418 152 446V247.527C152.325 247.273 152.629 246.98 152.907 246.649L167.813 228.805C169.937 226.262 169.659 222.407 167.192 220.196L165.772 218.924C163.305 216.712 159.582 216.98 157.458 219.523L152 226.057V205Z" fill="#97D77D"/>
<mask id="mask6_177_2784" style="mask-type:alpha" maskUnits="userSpaceOnUse" x="332" y="159" width="134" height="226">
<path d="M333.741 271.914C324.062 344.53 355.984 384.827 398.691 384.827C444.511 384.827 474.923 344.757 463.64 271.914C454.531 213.103 419.599 159 398.691 159C377.782 159 341.747 211.849 333.741 271.914Z" fill="#9DC955"/>
</mask>
<g mask="url(#mask6_177_2784)">
<path d="M333.741 271.914C324.062 344.53 359.5 369.814 402.5 369.814C448.321 369.814 474.923 344.757 463.64 271.914C454.531 213.103 419.599 159 398.691 159C377.782 159 341.747 211.849 333.741 271.914Z" fill="#639F4D"/>
<g opacity="0.2" filter="url(#filter6_f_177_2784)">
<path fill-rule="evenodd" clip-rule="evenodd" d="M407.5 368.876C364.793 368.876 346.712 339.526 356.391 266.909C362.668 219.816 386.175 177.158 406.113 160.93C403.503 159.666 401.01 159 398.691 159C377.782 159 341.747 211.849 333.741 271.914C324.062 344.53 358 369.501 402.5 369.501C408.608 369.501 414.375 369.061 419.756 368.127C415.73 368.629 411.634 368.876 407.5 368.876Z" fill="#326B1F"/>
</g>
</g>
<path fill-rule="evenodd" clip-rule="evenodd" d="M400.544 257C404.963 257 408.544 260.582 408.544 265V449C408.544 453.418 404.963 457 400.544 457C396.126 457 392.544 453.418 392.544 449V339.991C392.39 339.851 392.243 339.702 392.105 339.542L365.16 308.452C363.351 306.366 363.696 303.358 365.93 301.735L367.758 300.407C369.992 298.784 373.269 299.16 375.078 301.247L392.544 321.4V265C392.544 260.582 396.126 257 400.544 257Z" fill="#326B1F"/>
<mask id="mask7_177_2784" style="mask-type:alpha" maskUnits="userSpaceOnUse" x="433" y="247" width="100" height="164">
<path d="M434.299 328.751C427.076 381.326 450.898 410.502 482.769 410.502C516.964 410.502 539.659 381.491 531.239 328.751C524.441 286.172 498.373 247 482.769 247C467.166 247 440.274 285.263 434.299 328.751Z" fill="#9DC955"/>
</mask>
<g mask="url(#mask7_177_2784)">
<path d="M434.299 328.751C427.076 381.326 453.522 399.632 485.612 399.632C519.806 399.632 539.659 381.491 531.239 328.751C524.441 286.172 498.373 247 482.769 247C467.166 247 440.274 285.263 434.299 328.751Z" fill="#7DBB65"/>
<g opacity="0.2" filter="url(#filter7_f_177_2784)">
<path fill-rule="evenodd" clip-rule="evenodd" d="M489.343 398.953C457.473 398.953 443.979 377.703 451.202 325.128C455.887 291.032 473.429 260.147 488.308 248.397C486.36 247.482 484.5 247 482.769 247C467.166 247 440.274 285.263 434.299 328.751C427.076 381.326 452.403 399.406 485.612 399.406C490.17 399.406 494.474 399.087 498.49 398.411C495.486 398.774 492.429 398.953 489.343 398.953Z" fill="#326B1F"/>
</g>
</g>
<path fill-rule="evenodd" clip-rule="evenodd" d="M483 313.609C486.866 313.609 490 316.743 490 320.609V364.468L497.185 353.652C498.714 351.352 501.817 350.726 504.117 352.254C506.417 353.782 507.043 356.885 505.515 359.186L491.127 380.842C490.812 381.317 490.429 381.721 490 382.049V442C490 445.866 486.866 449 483 449C479.134 449 476 445.866 476 442V353.748C475.496 353.44 475.039 353.037 474.656 352.543L461.18 335.154C459.488 332.971 459.886 329.83 462.069 328.139C464.252 326.447 467.392 326.845 469.084 329.028L476 337.953V320.609C476 316.743 479.134 313.609 483 313.609Z" fill="#326B1F"/>
<mask id="mask8_177_2784" style="mask-type:alpha" maskUnits="userSpaceOnUse" x="136" y="14" width="134" height="361">
<path d="M137.741 194.5C128.062 310.582 159.984 375 202.691 375C248.511 375 278.923 310.945 267.64 194.5C258.531 100.488 223.599 14 202.691 14C181.782 14 145.747 98.4824 137.741 194.5Z" fill="#9DC955"/>
</mask>
<g mask="url(#mask8_177_2784)">
<path d="M137.741 194.5C128.062 310.582 163.5 351 206.5 351C252.321 351 278.923 310.945 267.64 194.5C258.531 100.488 223.599 14 202.691 14C181.782 14 145.747 98.4824 137.741 194.5Z" fill="#97D77D"/>
<g opacity="0.2" filter="url(#filter8_f_177_2784)">
<path fill-rule="evenodd" clip-rule="evenodd" d="M211.5 349.5C168.793 349.5 150.712 302.582 160.391 186.5C166.668 111.218 190.175 43.0273 210.113 17.0855C207.502 15.0644 205.01 14 202.691 14C181.782 14 145.747 98.4824 137.741 194.5C128.062 310.582 162 350.5 206.5 350.5C212.608 350.5 218.375 349.797 223.756 348.303C219.73 349.105 215.634 349.5 211.5 349.5Z" fill="#326B1F"/>
</g>
</g>
<path fill-rule="evenodd" clip-rule="evenodd" d="M214.568 210C214.568 205.582 210.986 202 206.568 202C202.15 202 198.568 205.582 198.568 210V287.369L182.77 269.127C180.963 267.039 178.076 267.077 176.324 269.211L173.681 272.429C171.928 274.563 171.973 277.985 173.781 280.073L198.568 308.695V452C198.568 456.418 202.15 460 206.568 460C210.986 460 214.568 456.418 214.568 452V254.399C214.823 254.172 215.062 253.908 215.277 253.608L231.935 230.409C233.545 228.166 233.302 224.732 231.39 222.739L229.507 220.774C227.595 218.781 224.74 218.984 223.13 221.227L214.568 233.15V210Z" fill="#326B1F"/>
<mask id="mask9_177_2784" style="mask-type:alpha" maskUnits="userSpaceOnUse" x="0" y="137" width="165" height="270">
<path d="M3.33184 272C-8.35815 358.82 9.07963 407 81.7728 407C154.466 407 173.84 359.092 160.214 272C149.212 201.686 107.024 137 81.7728 137C56.5212 137 13.0012 200.186 3.33184 272Z" fill="#9DC955"/>
</mask>
<g mask="url(#mask9_177_2784)">
<path d="M5.15596 272C-6.40154 358.82 1.8385 407 82.7078 407C163.577 407 173.732 359.092 160.26 272C149.383 201.686 107.673 137 82.7078 137C57.7425 137 14.7158 200.186 5.15596 272Z" fill="#97D77D"/>
<g opacity="0.2" filter="url(#filter9_f_177_2784)">
<path fill-rule="evenodd" clip-rule="evenodd" d="M110.144 401C36.9494 401 21.8486 352.82 33.3005 266C40.6537 210.254 67.989 159.707 91.4241 139.878C88.3038 138.322 85.3324 137.5 82.577 137.5C57.7517 137.5 14.5832 202.686 5.07706 274.5C-6.68153 363.329 12.5771 406.5 81.077 406.5C95.3895 406.5 107.786 404.601 118.318 400.789C115.675 400.93 112.951 401 110.144 401Z" fill="#326B1F"/>
</g>
</g>
<path fill-rule="evenodd" clip-rule="evenodd" d="M91.0771 250C91.0771 245.582 87.4954 242 83.0771 242C78.6588 242 75.0771 245.582 75.0771 250V295.053L66.5771 280.33C65.1964 277.939 62.1385 277.119 59.747 278.5L58.0149 279.5C55.6235 280.881 54.8041 283.939 56.1848 286.33L75.0771 319.053V446C75.0771 450.418 78.6588 454 83.0771 454C87.4954 454 91.0771 450.418 91.0771 446V353.97L115.767 318.709C117.351 316.447 116.802 313.329 114.54 311.745L112.901 310.598C110.639 309.014 107.521 309.564 105.938 311.826L91.0771 333.049V250Z" fill="#326B1F"/>
<rect width="601" height="20" rx="10" transform="matrix(-1 0 0 1 612 444)" fill="#946951"/>
<defs>
<filter id="filter0_f_177_2784" x="156" y="118.631" width="148.158" height="203.369" filterUnits="userSpaceOnUse" color-interpolation-filters="sRGB">
<feFlood flood-opacity="0" result="BackgroundImageFix"/>
<feBlend mode="normal" in="SourceGraphic" in2="BackgroundImageFix" result="shape"/>
<feGaussianBlur stdDeviation="2" result="effect1_foregroundBlur_177_2784"/>
</filter>
<filter id="filter1_f_177_2784" x="472" y="149.631" width="148.158" height="203.369" filterUnits="userSpaceOnUse" color-interpolation-filters="sRGB">
<feFlood flood-opacity="0" result="BackgroundImageFix"/>
<feBlend mode="normal" in="SourceGraphic" in2="BackgroundImageFix" result="shape"/>
<feGaussianBlur stdDeviation="2" result="effect1_foregroundBlur_177_2784"/>
</filter>
<filter id="filter2_f_177_2784" x="333" y="27.8434" width="149.682" height="219.157" filterUnits="userSpaceOnUse" color-interpolation-filters="sRGB">
<feFlood flood-opacity="0" result="BackgroundImageFix"/>
<feBlend mode="normal" in="SourceGraphic" in2="BackgroundImageFix" result="shape"/>
<feGaussianBlur stdDeviation="2" result="effect1_foregroundBlur_177_2784"/>
</filter>
<filter id="filter3_f_177_2784" x="438.063" y="-5.86104" width="89.375" height="375.93" filterUnits="userSpaceOnUse" color-interpolation-filters="sRGB">
<feFlood flood-opacity="0" result="BackgroundImageFix"/>
<feBlend mode="normal" in="SourceGraphic" in2="BackgroundImageFix" result="shape"/>
<feGaussianBlur stdDeviation="2.02" result="effect1_foregroundBlur_177_2784"/>
</filter>
<filter id="filter4_f_177_2784" x="247.694" y="159.8" width="123.485" height="231" filterUnits="userSpaceOnUse" color-interpolation-filters="sRGB">
<feFlood flood-opacity="0" result="BackgroundImageFix"/>
<feBlend mode="normal" in="SourceGraphic" in2="BackgroundImageFix" result="shape"/>
<feGaussianBlur stdDeviation="2.1" result="effect1_foregroundBlur_177_2784"/>
</filter>
<filter id="filter5_f_177_2784" x="78.2493" y="80.57" width="81.3687" height="288.86" filterUnits="userSpaceOnUse" color-interpolation-filters="sRGB">
<feFlood flood-opacity="0" result="BackgroundImageFix"/>
<feBlend mode="normal" in="SourceGraphic" in2="BackgroundImageFix" result="shape"/>
<feGaussianBlur stdDeviation="2.02" result="effect1_foregroundBlur_177_2784"/>
</filter>
<filter id="filter6_f_177_2784" x="328.082" y="155" width="95.674" height="218.501" filterUnits="userSpaceOnUse" color-interpolation-filters="sRGB">
<feFlood flood-opacity="0" result="BackgroundImageFix"/>
<feBlend mode="normal" in="SourceGraphic" in2="BackgroundImageFix" result="shape"/>
<feGaussianBlur stdDeviation="2" result="effect1_foregroundBlur_177_2784"/>
</filter>
<filter id="filter7_f_177_2784" x="429.061" y="243" width="73.4288" height="160.406" filterUnits="userSpaceOnUse" color-interpolation-filters="sRGB">
<feFlood flood-opacity="0" result="BackgroundImageFix"/>
<feBlend mode="normal" in="SourceGraphic" in2="BackgroundImageFix" result="shape"/>
<feGaussianBlur stdDeviation="2" result="effect1_foregroundBlur_177_2784"/>
</filter>
<filter id="filter8_f_177_2784" x="132.082" y="10" width="95.6742" height="344.5" filterUnits="userSpaceOnUse" color-interpolation-filters="sRGB">
<feFlood flood-opacity="0" result="BackgroundImageFix"/>
<feBlend mode="normal" in="SourceGraphic" in2="BackgroundImageFix" result="shape"/>
<feGaussianBlur stdDeviation="2" result="effect1_foregroundBlur_177_2784"/>
</filter>
<filter id="filter9_f_177_2784" x="-2.15143" y="133.5" width="124.47" height="277" filterUnits="userSpaceOnUse" color-interpolation-filters="sRGB">
<feFlood flood-opacity="0" result="BackgroundImageFix"/>
<feBlend mode="normal" in="SourceGraphic" in2="BackgroundImageFix" result="shape"/>
<feGaussianBlur stdDeviation="2" result="effect1_foregroundBlur_177_2784"/>
</filter>
</defs>
</svg>
