<svg width="70" height="40" viewBox="0 0 70 40" fill="none" xmlns="http://www.w3.org/2000/svg">
<rect width="70" height="40" rx="20" fill="#EEF3E5"/>
<path d="M15.2061 23.5576V20.9531H12.5811V19.1553H15.2061V16.5508H16.9561V19.1553H19.5879V20.9531H16.9561V23.5576H15.2061ZM25.6855 25H23.7646V17.7607C23.0628 18.417 22.2357 18.9023 21.2832 19.2168V17.4736C21.7845 17.3096 22.3291 16.9997 22.917 16.5439C23.5049 16.0837 23.9082 15.5482 24.127 14.9375H25.6855V25Z" fill="#326B1F"/>
<path d="M39.3031 15.552C36.2318 18.6243 36.2318 23.5985 39.2806 26.6709C40.9343 22.8445 43.8818 19.6484 47.5606 17.7465C44.4443 20.3799 42.2618 24.0599 41.4968 28.2351C44.4218 29.6194 48.0218 29.113 50.4406 26.6934C54.3556 22.777 54.9968 10.9941 54.9968 10.9941C54.9968 10.9941 43.2181 11.6356 39.3031 15.552Z" fill="#326B1F"/>
</svg>
