<svg width="74" height="40" viewBox="0 0 74 40" fill="none" xmlns="http://www.w3.org/2000/svg">
<rect width="74" height="40" rx="20" fill="#EEF3E5"/>
<path d="M15.8418 14.9375C16.8125 14.9375 17.5713 15.2839 18.1182 15.9766C18.7699 16.7969 19.0957 18.1572 19.0957 20.0576C19.0957 21.9535 18.7676 23.3161 18.1113 24.1455C17.569 24.8291 16.8125 25.1709 15.8418 25.1709C14.8665 25.1709 14.0804 24.7972 13.4834 24.0498C12.8864 23.2979 12.5879 21.9603 12.5879 20.0371C12.5879 18.1504 12.916 16.7923 13.5723 15.9629C14.1146 15.2793 14.8711 14.9375 15.8418 14.9375ZM15.8418 16.5303C15.6094 16.5303 15.402 16.6055 15.2197 16.7559C15.0374 16.9017 14.8962 17.166 14.7959 17.5488C14.6637 18.0456 14.5977 18.8818 14.5977 20.0576C14.5977 21.2334 14.6569 22.0423 14.7754 22.4844C14.8939 22.9219 15.042 23.2135 15.2197 23.3594C15.402 23.5052 15.6094 23.5781 15.8418 23.5781C16.0742 23.5781 16.2816 23.5052 16.4639 23.3594C16.6462 23.209 16.7874 22.9424 16.8877 22.5596C17.0199 22.0674 17.0859 21.2334 17.0859 20.0576C17.0859 18.8818 17.0267 18.0752 16.9082 17.6377C16.7897 17.1956 16.6393 16.9017 16.457 16.7559C16.2793 16.6055 16.0742 16.5303 15.8418 16.5303ZM19.7725 25.1709L22.2539 14.8076H23.6963L21.1875 25.1709H19.7725ZM28.0508 25V22.9834H23.9492V21.3018L28.2969 14.9375H29.9102V21.2949H31.1543V22.9834H29.9102V25H28.0508ZM28.0508 21.2949V17.8701L25.7471 21.2949H28.0508Z" fill="#326B1F"/>
<path d="M59 11C58.9729 10.5007 58.9727 10.5007 58.9726 10.5008L58.972 10.5008L58.9701 10.5009L58.9632 10.5013L58.937 10.5028C58.9142 10.5042 58.8806 10.5062 58.8368 10.509C58.7493 10.5147 58.6212 10.5235 58.4572 10.536C58.1293 10.561 57.6576 10.601 57.08 10.661C55.9255 10.7809 54.3444 10.9813 52.6401 11.3033C50.9376 11.6248 49.1011 12.0697 47.44 12.6818C45.7874 13.2906 44.2642 14.0807 43.2276 15.1157C40.0693 18.269 39.3786 22.9922 42.6184 26.2508L43.1386 26.774L43.4318 26.097C44.7641 23.0203 46.9116 20.7419 50.1168 18.9658C47.7045 22.3917 46.4692 24.63 45.7971 28.291L45.7277 28.6692L46.0753 28.8334C49.1994 30.309 52.4037 29.2179 54.8768 26.7487C55.9134 25.7137 56.7048 24.1927 57.3147 22.5426C57.9277 20.884 58.3733 19.0502 58.6954 17.3504C59.0179 15.6487 59.2186 14.07 59.3388 12.9172C59.3989 12.3405 59.4389 11.8696 59.464 11.5421C59.4765 11.3784 59.4853 11.2505 59.4909 11.1631C59.4938 11.1194 59.4958 11.0858 59.4972 11.063L59.4987 11.0369L59.4991 11.0299L59.4992 11.0281L59.4992 11.0275C59.4993 11.0273 59.4993 11.0272 59 11ZM59 11L58.9729 10.5007L59.5296 10.4705L59.4993 11.0272L59 11Z" stroke="#326B1F"/>
</svg>
