<svg width="70" height="40" viewBox="0 0 70 40" fill="none" xmlns="http://www.w3.org/2000/svg">
<rect width="70" height="40" rx="20" fill="#EEF3E5"/>
<path d="M15.2061 23.5576V20.9531H12.5811V19.1553H15.2061V16.5508H16.9561V19.1553H19.5879V20.9531H16.9561V23.5576H15.2061ZM27.2578 23.2158V25H20.5244C20.5973 24.3255 20.8161 23.6875 21.1807 23.0859C21.5452 22.4798 22.2653 21.6777 23.3408 20.6797C24.2067 19.873 24.7376 19.3262 24.9336 19.0391C25.1979 18.6426 25.3301 18.2507 25.3301 17.8633C25.3301 17.4349 25.2139 17.1068 24.9814 16.8789C24.7536 16.6465 24.4368 16.5303 24.0312 16.5303C23.6302 16.5303 23.3112 16.651 23.0742 16.8926C22.8372 17.1341 22.7005 17.5352 22.6641 18.0957L20.75 17.9043C20.8639 16.847 21.2217 16.0882 21.8232 15.6279C22.4248 15.1676 23.1768 14.9375 24.0791 14.9375C25.068 14.9375 25.8451 15.2041 26.4102 15.7373C26.9753 16.2705 27.2578 16.9336 27.2578 17.7266C27.2578 18.1777 27.1758 18.6084 27.0117 19.0186C26.8522 19.4242 26.597 19.8503 26.2461 20.2969C26.0137 20.5931 25.5944 21.0192 24.9883 21.5752C24.3822 22.1312 23.9971 22.5003 23.833 22.6826C23.6735 22.8649 23.5436 23.0426 23.4434 23.2158H27.2578Z" fill="#326B1F"/>
<path d="M54.9999 11C54.9728 10.5007 54.9727 10.5007 54.9725 10.5008L54.972 10.5008L54.9701 10.5009L54.9632 10.5013L54.937 10.5028C54.9141 10.5042 54.8805 10.5062 54.8368 10.509C54.7492 10.5147 54.6211 10.5235 54.4571 10.536C54.1292 10.561 53.6575 10.601 53.0799 10.661C51.9254 10.7809 50.3443 10.9813 48.64 11.3033C46.9375 11.6248 45.101 12.0697 43.4399 12.6818C41.7874 13.2906 40.2641 14.0807 39.2275 15.1157C36.0692 18.269 35.3785 22.9922 38.6183 26.2508L39.1385 26.774L39.4317 26.097C40.764 23.0203 42.9116 20.7419 46.1167 18.9658C43.7044 22.3917 42.4691 24.63 41.797 28.291L41.7276 28.6692L42.0753 28.8334C45.1993 30.309 48.4036 29.2179 50.8767 26.7487C51.9133 25.7137 52.7047 24.1927 53.3146 22.5426C53.9276 20.884 54.3733 19.0502 54.6954 17.3504C55.0178 15.6487 55.2185 14.07 55.3387 12.9172C55.3988 12.3405 55.4389 11.8696 55.4639 11.5421C55.4764 11.3784 55.4852 11.2505 55.4909 11.1631C55.4937 11.1194 55.4958 11.0858 55.4971 11.063L55.4987 11.0369L55.499 11.0299L55.4992 11.0281L55.4992 11.0275C55.4992 11.0273 55.4992 11.0272 54.9999 11ZM54.9999 11L54.9728 10.5007L55.5296 10.4705L55.4992 11.0272L54.9999 11Z" stroke="#326B1F"/>
</svg>
