<svg width="24" height="24" viewBox="0 0 24 24" fill="none" xmlns="http://www.w3.org/2000/svg">
<path d="M21 3C20.9729 2.50074 20.9727 2.50074 20.9726 2.50075L20.972 2.50078L20.9701 2.50089L20.9632 2.50128L20.937 2.5028C20.9142 2.50416 20.8806 2.50621 20.8368 2.50905C20.7493 2.51471 20.6212 2.52347 20.4572 2.53598C20.1293 2.56098 19.6576 2.60095 19.08 2.66097C17.9255 2.78094 16.3444 2.98134 14.6401 3.30326C12.9376 3.62485 11.1011 4.06975 9.43998 4.68177C7.78743 5.29065 6.26418 6.0807 5.22759 7.11565C2.06926 10.269 1.37857 14.9922 4.61838 18.2508L5.13859 18.774L5.43178 18.097C6.7641 15.0203 8.91163 12.7419 12.1168 10.9658C9.70446 14.3917 8.46917 16.63 7.7971 20.291L7.72767 20.6692L8.07534 20.8334C11.1994 22.309 14.4037 21.2179 16.8768 18.7487C17.9134 17.7137 18.7048 16.1927 19.3147 14.5426C19.9277 12.884 20.3733 11.0502 20.6954 9.35036C21.0179 7.64868 21.2186 6.06996 21.3388 4.91723C21.3989 4.34051 21.4389 3.86956 21.464 3.54211C21.4765 3.37837 21.4853 3.25046 21.4909 3.16308C21.4938 3.1194 21.4958 3.08584 21.4972 3.063L21.4987 3.03685L21.4991 3.02995L21.4992 3.02806L21.4992 3.02751C21.4993 3.02734 21.4993 3.02722 21 3ZM21 3L20.9729 2.50074L21.5296 2.47047L21.4993 3.02722L21 3Z" stroke="#326B1F"/>
</svg>
