<svg width="70" height="40" viewBox="0 0 70 40" fill="none" xmlns="http://www.w3.org/2000/svg">
<rect width="70" height="40" rx="20" fill="#EEF3E5"/>
<path d="M15.2061 23.5576V20.9531H12.5811V19.1553H15.2061V16.5508H16.9561V19.1553H19.5879V20.9531H16.9561V23.5576H15.2061ZM27.2578 23.2158V25H20.5244C20.5973 24.3255 20.8161 23.6875 21.1807 23.0859C21.5452 22.4798 22.2653 21.6777 23.3408 20.6797C24.2067 19.873 24.7376 19.3262 24.9336 19.0391C25.1979 18.6426 25.3301 18.2507 25.3301 17.8633C25.3301 17.4349 25.2139 17.1068 24.9814 16.8789C24.7536 16.6465 24.4368 16.5303 24.0312 16.5303C23.6302 16.5303 23.3112 16.651 23.0742 16.8926C22.8372 17.1341 22.7005 17.5352 22.6641 18.0957L20.75 17.9043C20.8639 16.847 21.2217 16.0882 21.8232 15.6279C22.4248 15.1676 23.1768 14.9375 24.0791 14.9375C25.068 14.9375 25.8451 15.2041 26.4102 15.7373C26.9753 16.2705 27.2578 16.9336 27.2578 17.7266C27.2578 18.1777 27.1758 18.6084 27.0117 19.0186C26.8522 19.4242 26.597 19.8503 26.2461 20.2969C26.0137 20.5931 25.5944 21.0192 24.9883 21.5752C24.3822 22.1312 23.9971 22.5003 23.833 22.6826C23.6735 22.8649 23.5436 23.0426 23.4434 23.2158H27.2578Z" fill="#326B1F"/>
<path d="M39.3031 15.552C36.2318 18.6243 36.2318 23.5985 39.2806 26.6709C40.9343 22.8445 43.8818 19.6484 47.5606 17.7465C44.4443 20.3799 42.2618 24.0599 41.4968 28.2351C44.4218 29.6194 48.0218 29.113 50.4406 26.6934C54.3556 22.777 54.9968 10.9941 54.9968 10.9941C54.9968 10.9941 43.2181 11.6356 39.3031 15.552Z" fill="#326B1F"/>
</svg>
