<svg width="70" height="40" viewBox="0 0 70 40" fill="none" xmlns="http://www.w3.org/2000/svg">
<rect width="70" height="40" rx="20" fill="#EEF3E5"/>
<path d="M15.2061 23.5576V20.9531H12.5811V19.1553H15.2061V16.5508H16.9561V19.1553H19.5879V20.9531H16.9561V23.5576H15.2061ZM25.6855 25H23.7646V17.7607C23.0628 18.417 22.2357 18.9023 21.2832 19.2168V17.4736C21.7845 17.3096 22.3291 16.9997 22.917 16.5439C23.5049 16.0837 23.9082 15.5482 24.127 14.9375H25.6855V25Z" fill="#326B1F"/>
<path d="M55 11C54.9729 10.5007 54.9727 10.5007 54.9726 10.5008L54.972 10.5008L54.9701 10.5009L54.9632 10.5013L54.937 10.5028C54.9142 10.5042 54.8806 10.5062 54.8368 10.509C54.7493 10.5147 54.6212 10.5235 54.4572 10.536C54.1293 10.561 53.6576 10.601 53.08 10.661C51.9255 10.7809 50.3444 10.9813 48.6401 11.3033C46.9376 11.6248 45.1011 12.0697 43.44 12.6818C41.7874 13.2906 40.2642 14.0807 39.2276 15.1157C36.0693 18.269 35.3786 22.9922 38.6184 26.2508L39.1386 26.774L39.4318 26.097C40.7641 23.0203 42.9116 20.7419 46.1168 18.9658C43.7045 22.3917 42.4692 24.63 41.7971 28.291L41.7277 28.6692L42.0753 28.8334C45.1994 30.309 48.4037 29.2179 50.8768 26.7487C51.9134 25.7137 52.7048 24.1927 53.3147 22.5426C53.9277 20.884 54.3733 19.0502 54.6954 17.3504C55.0179 15.6487 55.2186 14.07 55.3388 12.9172C55.3989 12.3405 55.4389 11.8696 55.464 11.5421C55.4765 11.3784 55.4853 11.2505 55.4909 11.1631C55.4938 11.1194 55.4958 11.0858 55.4972 11.063L55.4987 11.0369L55.4991 11.0299L55.4992 11.0281L55.4992 11.0275C55.4993 11.0273 55.4993 11.0272 55 11ZM55 11L54.9729 10.5007L55.5296 10.4705L55.4993 11.0272L55 11Z" stroke="#326B1F"/>
</svg>
