<svg width="121" height="55" viewBox="0 0 121 55" fill="none" xmlns="http://www.w3.org/2000/svg">
<g filter="url(#filter0_d_884_11172)">
<rect width="117" height="51" rx="20" fill="#CCFFB4" shape-rendering="crispEdges"/>
<path d="M31.1 16.88H34.1V32H31.1V16.88ZM45.4553 30.32C44.9753 30.9333 44.3686 31.4067 43.6353 31.74C42.902 32.0733 42.142 32.24 41.3553 32.24C40.6086 32.24 39.902 32.12 39.2353 31.88C38.582 31.64 38.0086 31.3 37.5153 30.86C37.0353 30.4067 36.6553 29.8667 36.3753 29.24C36.0953 28.6133 35.9553 27.9133 35.9553 27.14C35.9553 26.3667 36.0953 25.6667 36.3753 25.04C36.6553 24.4133 37.0353 23.88 37.5153 23.44C38.0086 22.9867 38.582 22.64 39.2353 22.4C39.902 22.16 40.6086 22.04 41.3553 22.04C42.0486 22.04 42.6753 22.16 43.2353 22.4C43.8086 22.64 44.2886 22.9867 44.6753 23.44C45.0753 23.88 45.382 24.4133 45.5953 25.04C45.8086 25.6667 45.9153 26.3667 45.9153 27.14V28.08H38.9553C39.0753 28.6533 39.3353 29.1133 39.7353 29.46C40.1353 29.7933 40.6286 29.96 41.2153 29.96C41.7086 29.96 42.122 29.8533 42.4553 29.64C42.802 29.4133 43.102 29.1267 43.3553 28.78L45.4553 30.32ZM42.9153 26.04C42.9286 25.5333 42.762 25.1 42.4153 24.74C42.0686 24.38 41.622 24.2 41.0753 24.2C40.742 24.2 40.4486 24.2533 40.1953 24.36C39.942 24.4667 39.722 24.6067 39.5353 24.78C39.362 24.94 39.222 25.1333 39.1153 25.36C39.022 25.5733 38.9686 25.8 38.9553 26.04H42.9153ZM53.8397 30.78H53.7997C53.4664 31.3 53.0197 31.6733 52.4597 31.9C51.913 32.1267 51.333 32.24 50.7197 32.24C50.2664 32.24 49.8264 32.1733 49.3997 32.04C48.9864 31.92 48.6197 31.7333 48.2997 31.48C47.9797 31.2267 47.7264 30.9133 47.5397 30.54C47.353 30.1667 47.2597 29.7333 47.2597 29.24C47.2597 28.68 47.3597 28.2067 47.5597 27.82C47.773 27.4333 48.053 27.1133 48.3997 26.86C48.7597 26.6067 49.1664 26.4133 49.6197 26.28C50.073 26.1333 50.5397 26.0267 51.0197 25.96C51.513 25.8933 51.9997 25.8533 52.4797 25.84C52.973 25.8267 53.4264 25.82 53.8397 25.82C53.8397 25.2867 53.6464 24.8667 53.2597 24.56C52.8864 24.24 52.4397 24.08 51.9197 24.08C51.4264 24.08 50.973 24.1867 50.5597 24.4C50.1597 24.6 49.7997 24.88 49.4797 25.24L47.8797 23.6C48.4397 23.08 49.093 22.6933 49.8397 22.44C50.5864 22.1733 51.3597 22.04 52.1597 22.04C53.0397 22.04 53.7597 22.1533 54.3197 22.38C54.893 22.5933 55.3464 22.9133 55.6797 23.34C56.0264 23.7667 56.2664 24.2933 56.3997 24.92C56.533 25.5333 56.5997 26.2467 56.5997 27.06V32H53.8397V30.78ZM53.0997 27.74C52.873 27.74 52.5864 27.7533 52.2397 27.78C51.9064 27.7933 51.5797 27.8467 51.2597 27.94C50.953 28.0333 50.6864 28.1733 50.4597 28.36C50.2464 28.5467 50.1397 28.8067 50.1397 29.14C50.1397 29.5 50.293 29.7667 50.5997 29.94C50.9064 30.1133 51.2264 30.2 51.5597 30.2C51.853 30.2 52.133 30.16 52.3997 30.08C52.6797 30 52.9264 29.8867 53.1397 29.74C53.353 29.5933 53.5197 29.4067 53.6397 29.18C53.773 28.9533 53.8397 28.6867 53.8397 28.38V27.74H53.0997ZM58.4819 22.28H61.4819V23.84H61.5219C61.8419 23.24 62.2219 22.7933 62.6619 22.5C63.1019 22.1933 63.6552 22.04 64.3219 22.04C64.4952 22.04 64.6685 22.0467 64.8419 22.06C65.0152 22.0733 65.1752 22.1 65.3219 22.14V24.88C65.1085 24.8133 64.8952 24.7667 64.6819 24.74C64.4819 24.7 64.2685 24.68 64.0419 24.68C63.4685 24.68 63.0152 24.76 62.6819 24.92C62.3485 25.08 62.0885 25.3067 61.9019 25.6C61.7285 25.88 61.6152 26.22 61.5619 26.62C61.5085 27.02 61.4819 27.46 61.4819 27.94V32H58.4819V22.28ZM66.978 22.28H69.858V23.6H69.898C69.9913 23.4133 70.1246 23.2267 70.298 23.04C70.4713 22.8533 70.678 22.6867 70.918 22.54C71.158 22.3933 71.4313 22.2733 71.738 22.18C72.0446 22.0867 72.378 22.04 72.738 22.04C73.498 22.04 74.1113 22.16 74.578 22.4C75.0446 22.6267 75.4046 22.9467 75.658 23.36C75.9246 23.7733 76.1046 24.26 76.198 24.82C76.2913 25.38 76.338 25.9867 76.338 26.64V32H73.338V27.24C73.338 26.96 73.3246 26.6733 73.298 26.38C73.2846 26.0733 73.2246 25.7933 73.118 25.54C73.0246 25.2867 72.8713 25.08 72.658 24.92C72.458 24.76 72.1646 24.68 71.778 24.68C71.3913 24.68 71.078 24.7533 70.838 24.9C70.598 25.0333 70.4113 25.22 70.278 25.46C70.158 25.6867 70.078 25.9467 70.038 26.24C69.998 26.5333 69.978 26.84 69.978 27.16V32H66.978V22.28ZM83.3423 27.32H80.3423V17.84H83.3423V27.32ZM80.0023 30.28C80.0023 30.0267 80.049 29.7867 80.1423 29.56C80.2357 29.3333 80.3623 29.14 80.5223 28.98C80.6957 28.8067 80.8957 28.6733 81.1223 28.58C81.349 28.4867 81.589 28.44 81.8423 28.44C82.0957 28.44 82.3357 28.4867 82.5623 28.58C82.789 28.6733 82.9823 28.8067 83.1423 28.98C83.3157 29.14 83.449 29.3333 83.5423 29.56C83.6357 29.7867 83.6823 30.0267 83.6823 30.28C83.6823 30.5333 83.6357 30.7733 83.5423 31C83.449 31.2267 83.3157 31.4267 83.1423 31.6C82.9823 31.76 82.789 31.8867 82.5623 31.98C82.3357 32.0733 82.0957 32.12 81.8423 32.12C81.589 32.12 81.349 32.0733 81.1223 31.98C80.8957 31.8867 80.6957 31.76 80.5223 31.6C80.3623 31.4267 80.2357 31.2267 80.1423 31C80.049 30.7733 80.0023 30.5333 80.0023 30.28Z" fill="#006C4D"/>
</g>
<defs>
<filter id="filter0_d_884_11172" x="0" y="0" width="121" height="55" filterUnits="userSpaceOnUse" color-interpolation-filters="sRGB">
<feFlood flood-opacity="0" result="BackgroundImageFix"/>
<feColorMatrix in="SourceAlpha" type="matrix" values="0 0 0 0 0 0 0 0 0 0 0 0 0 0 0 0 0 0 127 0" result="hardAlpha"/>
<feOffset dx="4" dy="4"/>
<feComposite in2="hardAlpha" operator="out"/>
<feColorMatrix type="matrix" values="0 0 0 0 0.615686 0 0 0 0 0.788235 0 0 0 0 0.333333 0 0 0 1 0"/>
<feBlend mode="normal" in2="BackgroundImageFix" result="effect1_dropShadow_884_11172"/>
<feBlend mode="normal" in="SourceGraphic" in2="effect1_dropShadow_884_11172" result="shape"/>
</filter>
</defs>
</svg>
