<svg width="480" height="36" viewBox="0 0 480 36" fill="none" xmlns="http://www.w3.org/2000/svg">
<path d="M0.744 1.016H8.232V28.088H22.104V35H0.744V1.016ZM26.5253 1.016H49.6133V7.928H34.0133V14.264H48.7493V21.176H34.0133V28.088H50.4773V35H26.5253V1.016ZM67.6556 1.016H73.8476L88.6316 35H80.1836L77.2556 27.8H64.0556L61.2236 35H52.9676L67.6556 1.016ZM70.5356 10.904L66.4076 21.464H74.7116L70.5356 10.904ZM92.0498 1.016H105.202C106.93 1.016 108.562 1.192 110.098 1.544C111.666 1.864 113.026 2.424 114.178 3.224C115.362 3.992 116.29 5.048 116.962 6.392C117.666 7.704 118.018 9.352 118.018 11.336C118.018 13.736 117.394 15.784 116.146 17.48C114.898 19.144 113.074 20.2 110.674 20.648L119.314 35H110.338L103.234 21.416H99.5378V35H92.0498V1.016ZM99.5378 15.08H103.954C104.626 15.08 105.33 15.064 106.066 15.032C106.834 14.968 107.522 14.824 108.13 14.6C108.738 14.344 109.234 13.96 109.618 13.448C110.034 12.936 110.242 12.216 110.242 11.288C110.242 10.424 110.066 9.736 109.714 9.224C109.362 8.712 108.914 8.328 108.37 8.072C107.826 7.784 107.202 7.592 106.498 7.496C105.794 7.4 105.106 7.352 104.434 7.352H99.5378V15.08ZM123.175 1.016H133.351L147.799 24.632H147.895V1.016H155.383V35H145.591L130.759 10.808H130.663V35H123.175V1.016ZM161.547 30.872C161.547 30.264 161.659 29.688 161.883 29.144C162.107 28.6 162.411 28.136 162.795 27.752C163.211 27.336 163.691 27.016 164.235 26.792C164.779 26.568 165.355 26.456 165.963 26.456C166.571 26.456 167.147 26.568 167.691 26.792C168.235 27.016 168.699 27.336 169.083 27.752C169.499 28.136 169.819 28.6 170.043 29.144C170.267 29.688 170.379 30.264 170.379 30.872C170.379 31.48 170.267 32.056 170.043 32.6C169.819 33.144 169.499 33.624 169.083 34.04C168.699 34.424 168.235 34.728 167.691 34.952C167.147 35.176 166.571 35.288 165.963 35.288C165.355 35.288 164.779 35.176 164.235 34.952C163.691 34.728 163.211 34.424 162.795 34.04C162.411 33.624 162.107 33.144 161.883 32.6C161.659 32.056 161.547 31.48 161.547 30.872ZM201.906 1.016H208.098L222.882 35H214.434L211.506 27.8H198.306L195.474 35H187.218L201.906 1.016ZM204.786 10.904L200.658 21.464H208.962L204.786 10.904ZM248.524 9.848C247.788 8.952 246.876 8.264 245.788 7.784C244.732 7.304 243.5 7.064 242.092 7.064C240.684 7.064 239.372 7.336 238.156 7.88C236.972 8.424 235.932 9.192 235.036 10.184C234.172 11.144 233.484 12.296 232.972 13.64C232.492 14.984 232.252 16.44 232.252 18.008C232.252 19.608 232.492 21.08 232.972 22.424C233.484 23.736 234.172 24.888 235.036 25.88C235.9 26.84 236.908 27.592 238.06 28.136C239.244 28.68 240.508 28.952 241.852 28.952C243.388 28.952 244.748 28.632 245.932 27.992C247.116 27.352 248.092 26.456 248.86 25.304L255.1 29.96C253.66 31.976 251.836 33.464 249.628 34.424C247.42 35.384 245.148 35.864 242.812 35.864C240.156 35.864 237.708 35.448 235.468 34.616C233.228 33.784 231.292 32.6 229.66 31.064C228.028 29.496 226.748 27.608 225.82 25.4C224.924 23.192 224.476 20.728 224.476 18.008C224.476 15.288 224.924 12.824 225.82 10.616C226.748 8.408 228.028 6.536 229.66 5C231.292 3.432 233.228 2.232 235.468 1.4C237.708 0.567999 240.156 0.151999 242.812 0.151999C243.772 0.151999 244.764 0.247999 245.788 0.439999C246.844 0.599998 247.868 0.871999 248.86 1.256C249.884 1.64 250.86 2.152 251.788 2.792C252.716 3.432 253.548 4.216 254.284 5.144L248.524 9.848ZM265.735 7.64H256.039V1.016H282.919V7.64H273.223V35H265.735V7.64ZM280.61 30.872C280.61 30.264 280.722 29.688 280.946 29.144C281.17 28.6 281.474 28.136 281.858 27.752C282.274 27.336 282.754 27.016 283.298 26.792C283.842 26.568 284.418 26.456 285.026 26.456C285.634 26.456 286.21 26.568 286.754 26.792C287.298 27.016 287.762 27.336 288.146 27.752C288.562 28.136 288.882 28.6 289.106 29.144C289.33 29.688 289.442 30.264 289.442 30.872C289.442 31.48 289.33 32.056 289.106 32.6C288.882 33.144 288.562 33.624 288.146 34.04C287.762 34.424 287.298 34.728 286.754 34.952C286.21 35.176 285.634 35.288 285.026 35.288C284.418 35.288 283.842 35.176 283.298 34.952C282.754 34.728 282.274 34.424 281.858 34.04C281.474 33.624 281.17 33.144 280.946 32.6C280.722 32.056 280.61 31.48 280.61 30.872ZM316.36 7.64H306.664V1.016H333.544V7.64H323.848V35H316.36V7.64ZM337.347 1.016H350.499C352.227 1.016 353.859 1.192 355.395 1.544C356.963 1.864 358.323 2.424 359.475 3.224C360.659 3.992 361.587 5.048 362.259 6.392C362.963 7.704 363.315 9.352 363.315 11.336C363.315 13.736 362.691 15.784 361.443 17.48C360.195 19.144 358.371 20.2 355.971 20.648L364.611 35H355.635L348.531 21.416H344.835V35H337.347V1.016ZM344.835 15.08H349.251C349.923 15.08 350.627 15.064 351.363 15.032C352.131 14.968 352.819 14.824 353.427 14.6C354.035 14.344 354.531 13.96 354.915 13.448C355.331 12.936 355.539 12.216 355.539 11.288C355.539 10.424 355.363 9.736 355.011 9.224C354.659 8.712 354.211 8.328 353.667 8.072C353.123 7.784 352.499 7.592 351.795 7.496C351.091 7.4 350.403 7.352 349.731 7.352H344.835V15.08ZM379.656 1.016H385.848L400.632 35H392.184L389.256 27.8H376.056L373.224 35H364.968L379.656 1.016ZM382.536 10.904L378.408 21.464H386.712L382.536 10.904ZM426.274 9.848C425.538 8.952 424.626 8.264 423.538 7.784C422.482 7.304 421.25 7.064 419.842 7.064C418.434 7.064 417.122 7.336 415.906 7.88C414.722 8.424 413.682 9.192 412.786 10.184C411.922 11.144 411.234 12.296 410.722 13.64C410.242 14.984 410.002 16.44 410.002 18.008C410.002 19.608 410.242 21.08 410.722 22.424C411.234 23.736 411.922 24.888 412.786 25.88C413.65 26.84 414.658 27.592 415.81 28.136C416.994 28.68 418.258 28.952 419.602 28.952C421.138 28.952 422.498 28.632 423.682 27.992C424.866 27.352 425.842 26.456 426.61 25.304L432.85 29.96C431.41 31.976 429.586 33.464 427.378 34.424C425.17 35.384 422.898 35.864 420.562 35.864C417.906 35.864 415.458 35.448 413.218 34.616C410.978 33.784 409.042 32.6 407.41 31.064C405.778 29.496 404.498 27.608 403.57 25.4C402.674 23.192 402.226 20.728 402.226 18.008C402.226 15.288 402.674 12.824 403.57 10.616C404.498 8.408 405.778 6.536 407.41 5C409.042 3.432 410.978 2.232 413.218 1.4C415.458 0.567999 417.906 0.151999 420.562 0.151999C421.522 0.151999 422.514 0.247999 423.538 0.439999C424.594 0.599998 425.618 0.871999 426.61 1.256C427.634 1.64 428.61 2.152 429.538 2.792C430.466 3.432 431.298 4.216 432.034 5.144L426.274 9.848ZM437.197 1.016H444.685V15.128L457.885 1.016H467.677L452.557 16.808L468.973 35H458.509L444.685 18.872V35H437.197V1.016ZM470.782 30.872C470.782 30.264 470.894 29.688 471.118 29.144C471.342 28.6 471.646 28.136 472.03 27.752C472.446 27.336 472.926 27.016 473.47 26.792C474.014 26.568 474.59 26.456 475.198 26.456C475.806 26.456 476.382 26.568 476.926 26.792C477.47 27.016 477.934 27.336 478.318 27.752C478.734 28.136 479.054 28.6 479.278 29.144C479.502 29.688 479.614 30.264 479.614 30.872C479.614 31.48 479.502 32.056 479.278 32.6C479.054 33.144 478.734 33.624 478.318 34.04C477.934 34.424 477.47 34.728 476.926 34.952C476.382 35.176 475.806 35.288 475.198 35.288C474.59 35.288 474.014 35.176 473.47 34.952C472.926 34.728 472.446 34.424 472.03 34.04C471.646 33.624 471.342 33.144 471.118 32.6C470.894 32.056 470.782 31.48 470.782 30.872Z" fill="black"/>
</svg>
