<svg width="134" height="55" viewBox="0 0 134 55" fill="none" xmlns="http://www.w3.org/2000/svg">
<g filter="url(#filter0_d_821_10423)">
<rect width="130" height="51" rx="20" fill="#CCFFB4" shape-rendering="crispEdges"/>
<path d="M31.1 16.88H34.1V32H31.1V16.88ZM45.4553 30.32C44.9753 30.9333 44.3686 31.4067 43.6353 31.74C42.902 32.0733 42.142 32.24 41.3553 32.24C40.6086 32.24 39.902 32.12 39.2353 31.88C38.582 31.64 38.0086 31.3 37.5153 30.86C37.0353 30.4067 36.6553 29.8667 36.3753 29.24C36.0953 28.6133 35.9553 27.9133 35.9553 27.14C35.9553 26.3667 36.0953 25.6667 36.3753 25.04C36.6553 24.4133 37.0353 23.88 37.5153 23.44C38.0086 22.9867 38.582 22.64 39.2353 22.4C39.902 22.16 40.6086 22.04 41.3553 22.04C42.0486 22.04 42.6753 22.16 43.2353 22.4C43.8086 22.64 44.2886 22.9867 44.6753 23.44C45.0753 23.88 45.382 24.4133 45.5953 25.04C45.8086 25.6667 45.9153 26.3667 45.9153 27.14V28.08H38.9553C39.0753 28.6533 39.3353 29.1133 39.7353 29.46C40.1353 29.7933 40.6286 29.96 41.2153 29.96C41.7086 29.96 42.122 29.8533 42.4553 29.64C42.802 29.4133 43.102 29.1267 43.3553 28.78L45.4553 30.32ZM42.9153 26.04C42.9286 25.5333 42.762 25.1 42.4153 24.74C42.0686 24.38 41.622 24.2 41.0753 24.2C40.742 24.2 40.4486 24.2533 40.1953 24.36C39.942 24.4667 39.722 24.6067 39.5353 24.78C39.362 24.94 39.222 25.1333 39.1153 25.36C39.022 25.5733 38.9686 25.8 38.9553 26.04H42.9153ZM54.3597 24.68H51.7197V27.92C51.7197 28.1867 51.733 28.4333 51.7597 28.66C51.7864 28.8733 51.8464 29.06 51.9397 29.22C52.033 29.38 52.173 29.5067 52.3597 29.6C52.5597 29.68 52.8197 29.72 53.1397 29.72C53.2997 29.72 53.5064 29.7067 53.7597 29.68C54.0264 29.64 54.2264 29.56 54.3597 29.44V31.94C54.0264 32.06 53.6797 32.14 53.3197 32.18C52.9597 32.22 52.6064 32.24 52.2597 32.24C51.753 32.24 51.2864 32.1867 50.8597 32.08C50.433 31.9733 50.0597 31.8067 49.7397 31.58C49.4197 31.34 49.1664 31.0333 48.9797 30.66C48.8064 30.2867 48.7197 29.8333 48.7197 29.3V24.68H46.7997V22.28H48.7197V19.4H51.7197V22.28H54.3597V24.68ZM58.1642 23.48H55.6042L57.0842 17.84H59.9642L58.1642 23.48ZM65.8178 25.14C65.3778 24.5933 64.7978 24.32 64.0778 24.32C63.8245 24.32 63.5778 24.38 63.3378 24.5C63.0978 24.62 62.9778 24.8267 62.9778 25.12C62.9778 25.36 63.0978 25.54 63.3378 25.66C63.5911 25.7667 63.9045 25.8667 64.2778 25.96C64.6645 26.04 65.0711 26.1333 65.4978 26.24C65.9378 26.3333 66.3445 26.4867 66.7178 26.7C67.1045 26.9133 67.4178 27.2067 67.6578 27.58C67.9111 27.94 68.0378 28.4267 68.0378 29.04C68.0378 29.6667 67.8978 30.1867 67.6178 30.6C67.3511 31 67.0045 31.3267 66.5778 31.58C66.1511 31.82 65.6711 31.9867 65.1378 32.08C64.6045 32.1867 64.0778 32.24 63.5578 32.24C62.8778 32.24 62.1911 32.1467 61.4978 31.96C60.8045 31.76 60.2178 31.4133 59.7378 30.92L61.5578 28.9C61.8378 29.2467 62.1445 29.5133 62.4778 29.7C62.8245 29.8733 63.2245 29.96 63.6778 29.96C64.0245 29.96 64.3378 29.9133 64.6178 29.82C64.8978 29.7133 65.0378 29.5267 65.0378 29.26C65.0378 29.0067 64.9111 28.82 64.6578 28.7C64.4178 28.5667 64.1045 28.46 63.7178 28.38C63.3445 28.2867 62.9378 28.1933 62.4978 28.1C62.0711 27.9933 61.6645 27.84 61.2778 27.64C60.9045 27.44 60.5911 27.16 60.3378 26.8C60.0978 26.4267 59.9778 25.9333 59.9778 25.32C59.9778 24.7467 60.0911 24.2533 60.3178 23.84C60.5578 23.4267 60.8645 23.0867 61.2378 22.82C61.6245 22.5533 62.0645 22.36 62.5578 22.24C63.0511 22.1067 63.5511 22.04 64.0578 22.04C64.6978 22.04 65.3445 22.1333 65.9978 22.32C66.6511 22.5067 67.2045 22.84 67.6578 23.32L65.8178 25.14ZM85.6936 31.18C85.6936 33.02 85.2269 34.4133 84.2936 35.36C83.3736 36.32 81.9669 36.8 80.0736 36.8C79.2069 36.8 78.3536 36.7 77.5136 36.5C76.6736 36.3133 75.9003 35.94 75.1936 35.38L76.8536 32.9C77.3203 33.2867 77.8069 33.5933 78.3136 33.82C78.8336 34.0467 79.4003 34.16 80.0136 34.16C80.9336 34.16 81.6069 33.9333 82.0336 33.48C82.4736 33.04 82.6936 32.4733 82.6936 31.78V30.84H82.6536C82.3069 31.3067 81.8736 31.64 81.3536 31.84C80.8469 32.0267 80.3669 32.12 79.9136 32.12C79.1936 32.12 78.5403 32 77.9536 31.76C77.3669 31.5067 76.8603 31.16 76.4336 30.72C76.0203 30.2667 75.7003 29.7333 75.4736 29.12C75.2469 28.5067 75.1336 27.8333 75.1336 27.1C75.1336 26.46 75.2336 25.8333 75.4336 25.22C75.6469 24.6067 75.9403 24.0667 76.3136 23.6C76.7003 23.1333 77.1669 22.76 77.7136 22.48C78.2603 22.1867 78.8803 22.04 79.5736 22.04C80.0003 22.04 80.3869 22.0867 80.7336 22.18C81.0936 22.2733 81.4136 22.3933 81.6936 22.54C81.9736 22.6867 82.2136 22.8533 82.4136 23.04C82.6136 23.2133 82.7736 23.3867 82.8936 23.56H82.9336V22.28H85.6936V31.18ZM78.1336 27.08C78.1336 27.4 78.1936 27.7067 78.3136 28C78.4336 28.28 78.6003 28.5333 78.8136 28.76C79.0403 28.9733 79.2936 29.1467 79.5736 29.28C79.8669 29.4133 80.1869 29.48 80.5336 29.48C80.8669 29.48 81.1803 29.4133 81.4736 29.28C81.7669 29.1467 82.0203 28.9733 82.2336 28.76C82.4603 28.5333 82.6336 28.28 82.7536 28C82.8736 27.7067 82.9336 27.4 82.9336 27.08C82.9336 26.76 82.8736 26.46 82.7536 26.18C82.6336 25.8867 82.4603 25.6333 82.2336 25.42C82.0203 25.1933 81.7669 25.0133 81.4736 24.88C81.1803 24.7467 80.8669 24.68 80.5336 24.68C80.1869 24.68 79.8669 24.7467 79.5736 24.88C79.2936 25.0133 79.0403 25.1933 78.8136 25.42C78.6003 25.6333 78.4336 25.8867 78.3136 26.18C78.1936 26.46 78.1336 26.76 78.1336 27.08ZM87.7313 27.14C87.7313 26.3667 87.8713 25.6667 88.1513 25.04C88.4313 24.4133 88.8113 23.88 89.2913 23.44C89.7846 22.9867 90.3579 22.64 91.0113 22.4C91.6779 22.16 92.3846 22.04 93.1313 22.04C93.8779 22.04 94.5779 22.16 95.2313 22.4C95.8979 22.64 96.4713 22.9867 96.9513 23.44C97.4446 23.88 97.8313 24.4133 98.1113 25.04C98.3913 25.6667 98.5313 26.3667 98.5313 27.14C98.5313 27.9133 98.3913 28.6133 98.1113 29.24C97.8313 29.8667 97.4446 30.4067 96.9513 30.86C96.4713 31.3 95.8979 31.64 95.2313 31.88C94.5779 32.12 93.8779 32.24 93.1313 32.24C92.3846 32.24 91.6779 32.12 91.0113 31.88C90.3579 31.64 89.7846 31.3 89.2913 30.86C88.8113 30.4067 88.4313 29.8667 88.1513 29.24C87.8713 28.6133 87.7313 27.9133 87.7313 27.14ZM90.7313 27.14C90.7313 27.8733 90.9379 28.4667 91.3513 28.92C91.7779 29.3733 92.3713 29.6 93.1313 29.6C93.8913 29.6 94.4779 29.3733 94.8913 28.92C95.3179 28.4667 95.5313 27.8733 95.5313 27.14C95.5313 26.4067 95.3179 25.8133 94.8913 25.36C94.4779 24.9067 93.8913 24.68 93.1313 24.68C92.3713 24.68 91.7779 24.9067 91.3513 25.36C90.9379 25.8133 90.7313 26.4067 90.7313 27.14Z" fill="#006C4D"/>
</g>
<defs>
<filter id="filter0_d_821_10423" x="0" y="0" width="134" height="55" filterUnits="userSpaceOnUse" color-interpolation-filters="sRGB">
<feFlood flood-opacity="0" result="BackgroundImageFix"/>
<feColorMatrix in="SourceAlpha" type="matrix" values="0 0 0 0 0 0 0 0 0 0 0 0 0 0 0 0 0 0 127 0" result="hardAlpha"/>
<feOffset dx="4" dy="4"/>
<feComposite in2="hardAlpha" operator="out"/>
<feColorMatrix type="matrix" values="0 0 0 0 0.615686 0 0 0 0 0.788235 0 0 0 0 0.333333 0 0 0 1 0"/>
<feBlend mode="normal" in2="BackgroundImageFix" result="effect1_dropShadow_821_10423"/>
<feBlend mode="normal" in="SourceGraphic" in2="effect1_dropShadow_821_10423" result="shape"/>
</filter>
</defs>
</svg>
