<svg width="15" height="20" viewBox="0 0 15 20" fill="none" xmlns="http://www.w3.org/2000/svg">
<path d="M7.50314 0.880005C7.06154 0.880005 6.61035 0.918405 6.15915 1.0144C3.50955 1.52321 1.39754 3.66401 0.898345 6.31361C0.437545 8.81921 1.35914 11.1232 3.02954 12.6112C3.44234 12.976 3.66314 13.4848 3.66314 14.0224V16.24C3.66314 17.296 4.52714 18.16 5.58314 18.16H5.85194C6.18794 18.736 6.79274 19.12 7.50314 19.12C8.21354 19.12 8.82794 18.736 9.15434 18.16H9.42314C10.4791 18.16 11.3431 17.296 11.3431 16.24V14.0224C11.3431 13.4944 11.5543 12.976 11.9575 12.6208C13.3495 11.392 14.2231 9.59681 14.2231 7.60001C14.2231 3.88481 11.2183 0.880005 7.50314 0.880005ZM9.42314 16.24H5.58314V15.28H9.42314V16.24ZM9.42314 14.32H5.58314V13.36H9.42314V14.32ZM7.98314 8.95361V11.44H7.02314V8.95361L5.26634 7.20641L5.94794 6.52481L7.50314 8.08001L9.05834 6.52481L9.73994 7.20641L7.98314 8.95361Z" fill="#326B1F"/>
</svg>
