<svg width="136" height="55" viewBox="0 0 136 55" fill="none" xmlns="http://www.w3.org/2000/svg">
<g filter="url(#filter0_d_135_3457)">
<rect width="132" height="51" rx="20" fill="#CCFFB4" shape-rendering="crispEdges"/>
<path d="M31.56 17.84H34.68V29.12H40.46V32H31.56V17.84ZM41.4222 24.92C41.4222 23.7867 41.6089 22.76 41.9822 21.84C42.3689 20.92 42.9022 20.14 43.5822 19.5C44.2622 18.8467 45.0689 18.3467 46.0022 18C46.9355 17.6533 47.9555 17.48 49.0622 17.48C50.1689 17.48 51.1889 17.6533 52.1222 18C53.0555 18.3467 53.8622 18.8467 54.5422 19.5C55.2222 20.14 55.7489 20.92 56.1222 21.84C56.5089 22.76 56.7022 23.7867 56.7022 24.92C56.7022 26.0533 56.5089 27.08 56.1222 28C55.7489 28.92 55.2222 29.7067 54.5422 30.36C53.8622 31 53.0555 31.4933 52.1222 31.84C51.1889 32.1867 50.1689 32.36 49.0622 32.36C47.9555 32.36 46.9355 32.1867 46.0022 31.84C45.0689 31.4933 44.2622 31 43.5822 30.36C42.9022 29.7067 42.3689 28.92 41.9822 28C41.6089 27.08 41.4222 26.0533 41.4222 24.92ZM44.6622 24.92C44.6622 25.5867 44.7622 26.2 44.9622 26.76C45.1755 27.3067 45.4755 27.7867 45.8622 28.2C46.2489 28.6 46.7089 28.9133 47.2422 29.14C47.7889 29.3667 48.3955 29.48 49.0622 29.48C49.7289 29.48 50.3289 29.3667 50.8622 29.14C51.4089 28.9133 51.8755 28.6 52.2622 28.2C52.6489 27.7867 52.9422 27.3067 53.1422 26.76C53.3555 26.2 53.4622 25.5867 53.4622 24.92C53.4622 24.2667 53.3555 23.66 53.1422 23.1C52.9422 22.54 52.6489 22.06 52.2622 21.66C51.8755 21.2467 51.4089 20.9267 50.8622 20.7C50.3289 20.4733 49.7289 20.36 49.0622 20.36C48.3955 20.36 47.7889 20.4733 47.2422 20.7C46.7089 20.9267 46.2489 21.2467 45.8622 21.66C45.4755 22.06 45.1755 22.54 44.9622 23.1C44.7622 23.66 44.6622 24.2667 44.6622 24.92ZM71.6428 31C70.7228 31.48 69.7628 31.8267 68.7628 32.04C67.7628 32.2533 66.7428 32.36 65.7028 32.36C64.5961 32.36 63.5761 32.1867 62.6428 31.84C61.7095 31.4933 60.9028 31 60.2228 30.36C59.5428 29.7067 59.0095 28.92 58.6228 28C58.2495 27.08 58.0628 26.0533 58.0628 24.92C58.0628 23.7867 58.2495 22.76 58.6228 21.84C59.0095 20.92 59.5428 20.14 60.2228 19.5C60.9028 18.8467 61.7095 18.3467 62.6428 18C63.5761 17.6533 64.5961 17.48 65.7028 17.48C66.8361 17.48 67.8761 17.62 68.8228 17.9C69.7828 18.1667 70.6228 18.6333 71.3428 19.3L69.1428 21.7C68.7161 21.26 68.2361 20.9267 67.7028 20.7C67.1695 20.4733 66.5028 20.36 65.7028 20.36C65.0361 20.36 64.4295 20.4733 63.8828 20.7C63.3495 20.9267 62.8895 21.2467 62.5028 21.66C62.1161 22.06 61.8161 22.54 61.6028 23.1C61.4028 23.66 61.3028 24.2667 61.3028 24.92C61.3028 25.5867 61.4028 26.2 61.6028 26.76C61.8161 27.3067 62.1161 27.7867 62.5028 28.2C62.8895 28.6 63.3495 28.9133 63.8828 29.14C64.4295 29.3667 65.0361 29.48 65.7028 29.48C66.3828 29.48 66.9695 29.4067 67.4628 29.26C67.9561 29.1 68.3495 28.94 68.6428 28.78V26.48H66.1028V23.6H71.6428V31ZM80.2672 17.84H83.3872V32H80.2672V17.84ZM86.2252 17.84H90.4652L96.4852 27.68H96.5252V17.84H99.6452V32H95.5652L89.3852 21.92H89.3452V32H86.2252V17.84Z" fill="#0F4500"/>
</g>
<defs>
<filter id="filter0_d_135_3457" x="0" y="0" width="136" height="55" filterUnits="userSpaceOnUse" color-interpolation-filters="sRGB">
<feFlood flood-opacity="0" result="BackgroundImageFix"/>
<feColorMatrix in="SourceAlpha" type="matrix" values="0 0 0 0 0 0 0 0 0 0 0 0 0 0 0 0 0 0 127 0" result="hardAlpha"/>
<feOffset dx="4" dy="4"/>
<feComposite in2="hardAlpha" operator="out"/>
<feColorMatrix type="matrix" values="0 0 0 0 0.615686 0 0 0 0 0.788235 0 0 0 0 0.333333 0 0 0 1 0"/>
<feBlend mode="normal" in2="BackgroundImageFix" result="effect1_dropShadow_135_3457"/>
<feBlend mode="normal" in="SourceGraphic" in2="effect1_dropShadow_135_3457" result="shape"/>
</filter>
</defs>
</svg>
