<svg width="125" height="52" viewBox="0 0 125 52" fill="none" xmlns="http://www.w3.org/2000/svg">
<g filter="url(#filter0_d_135_3457)">
<rect width="121" height="46" rx="20" fill="#CCFFB4" shape-rendering="crispEdges"/>
<path d="M26.06 15.34H29.18V26.62H34.96V29.5H26.06V15.34ZM35.9222 22.42C35.9222 21.2867 36.1089 20.26 36.4822 19.34C36.8689 18.42 37.4022 17.64 38.0822 17C38.7622 16.3467 39.5689 15.8467 40.5022 15.5C41.4355 15.1533 42.4555 14.98 43.5622 14.98C44.6689 14.98 45.6889 15.1533 46.6222 15.5C47.5555 15.8467 48.3622 16.3467 49.0422 17C49.7222 17.64 50.2489 18.42 50.6222 19.34C51.0089 20.26 51.2022 21.2867 51.2022 22.42C51.2022 23.5533 51.0089 24.58 50.6222 25.5C50.2489 26.42 49.7222 27.2067 49.0422 27.86C48.3622 28.5 47.5555 28.9933 46.6222 29.34C45.6889 29.6867 44.6689 29.86 43.5622 29.86C42.4555 29.86 41.4355 29.6867 40.5022 29.34C39.5689 28.9933 38.7622 28.5 38.0822 27.86C37.4022 27.2067 36.8689 26.42 36.4822 25.5C36.1089 24.58 35.9222 23.5533 35.9222 22.42ZM39.1622 22.42C39.1622 23.0867 39.2622 23.7 39.4622 24.26C39.6755 24.8067 39.9755 25.2867 40.3622 25.7C40.7489 26.1 41.2089 26.4133 41.7422 26.64C42.2889 26.8667 42.8955 26.98 43.5622 26.98C44.2289 26.98 44.8289 26.8667 45.3622 26.64C45.9089 26.4133 46.3755 26.1 46.7622 25.7C47.1489 25.2867 47.4422 24.8067 47.6422 24.26C47.8555 23.7 47.9622 23.0867 47.9622 22.42C47.9622 21.7667 47.8555 21.16 47.6422 20.6C47.4422 20.04 47.1489 19.56 46.7622 19.16C46.3755 18.7467 45.9089 18.4267 45.3622 18.2C44.8289 17.9733 44.2289 17.86 43.5622 17.86C42.8955 17.86 42.2889 17.9733 41.7422 18.2C41.2089 18.4267 40.7489 18.7467 40.3622 19.16C39.9755 19.56 39.6755 20.04 39.4622 20.6C39.2622 21.16 39.1622 21.7667 39.1622 22.42ZM66.1428 28.5C65.2228 28.98 64.2628 29.3267 63.2628 29.54C62.2628 29.7533 61.2428 29.86 60.2028 29.86C59.0961 29.86 58.0761 29.6867 57.1428 29.34C56.2095 28.9933 55.4028 28.5 54.7228 27.86C54.0428 27.2067 53.5095 26.42 53.1228 25.5C52.7495 24.58 52.5628 23.5533 52.5628 22.42C52.5628 21.2867 52.7495 20.26 53.1228 19.34C53.5095 18.42 54.0428 17.64 54.7228 17C55.4028 16.3467 56.2095 15.8467 57.1428 15.5C58.0761 15.1533 59.0961 14.98 60.2028 14.98C61.3361 14.98 62.3761 15.12 63.3228 15.4C64.2828 15.6667 65.1228 16.1333 65.8428 16.8L63.6428 19.2C63.2161 18.76 62.7361 18.4267 62.2028 18.2C61.6695 17.9733 61.0028 17.86 60.2028 17.86C59.5361 17.86 58.9295 17.9733 58.3828 18.2C57.8495 18.4267 57.3895 18.7467 57.0028 19.16C56.6161 19.56 56.3161 20.04 56.1028 20.6C55.9028 21.16 55.8028 21.7667 55.8028 22.42C55.8028 23.0867 55.9028 23.7 56.1028 24.26C56.3161 24.8067 56.6161 25.2867 57.0028 25.7C57.3895 26.1 57.8495 26.4133 58.3828 26.64C58.9295 26.8667 59.5361 26.98 60.2028 26.98C60.8828 26.98 61.4695 26.9067 61.9628 26.76C62.4561 26.6 62.8495 26.44 63.1428 26.28V23.98H60.6028V21.1H66.1428V28.5ZM74.7672 15.34H77.8872V29.5H74.7672V15.34ZM80.7252 15.34H84.9652L90.9852 25.18H91.0252V15.34H94.1452V29.5H90.0652L83.8852 19.42H83.8452V29.5H80.7252V15.34Z" fill="#0F4500"/>
</g>
<defs>
<filter id="filter0_d_135_3457" x="0" y="0" width="125" height="52" filterUnits="userSpaceOnUse" color-interpolation-filters="sRGB">
<feFlood flood-opacity="0" result="BackgroundImageFix"/>
<feColorMatrix in="SourceAlpha" type="matrix" values="0 0 0 0 0 0 0 0 0 0 0 0 0 0 0 0 0 0 127 0" result="hardAlpha"/>
<feOffset dx="4" dy="6"/>
<feComposite in2="hardAlpha" operator="out"/>
<feColorMatrix type="matrix" values="0 0 0 0 0.615686 0 0 0 0 0.788235 0 0 0 0 0.333333 0 0 0 1 0"/>
<feBlend mode="normal" in2="BackgroundImageFix" result="effect1_dropShadow_135_3457"/>
<feBlend mode="normal" in="SourceGraphic" in2="effect1_dropShadow_135_3457" result="shape"/>
</filter>
</defs>
</svg>
