<svg width="107" height="55" viewBox="0 0 107 55" fill="none" xmlns="http://www.w3.org/2000/svg">
<g filter="url(#filter0_d_389_6701)">
<rect width="103" height="51" rx="20" fill="#CCFFB4" shape-rendering="crispEdges"/>
<path d="M31.06 22.28H33.94V23.6H33.98C34.0733 23.4133 34.2067 23.2267 34.38 23.04C34.5533 22.8533 34.76 22.6867 35 22.54C35.24 22.3933 35.5133 22.2733 35.82 22.18C36.1267 22.0867 36.46 22.04 36.82 22.04C37.58 22.04 38.1933 22.16 38.66 22.4C39.1267 22.6267 39.4867 22.9467 39.74 23.36C40.0067 23.7733 40.1867 24.26 40.28 24.82C40.3733 25.38 40.42 25.9867 40.42 26.64V32H37.42V27.24C37.42 26.96 37.4067 26.6733 37.38 26.38C37.3667 26.0733 37.3067 25.7933 37.2 25.54C37.1067 25.2867 36.9533 25.08 36.74 24.92C36.54 24.76 36.2467 24.68 35.86 24.68C35.4733 24.68 35.16 24.7533 34.92 24.9C34.68 25.0333 34.4933 25.22 34.36 25.46C34.24 25.6867 34.16 25.9467 34.12 26.24C34.08 26.5333 34.06 26.84 34.06 27.16V32H31.06V22.28ZM51.7444 30.32C51.2644 30.9333 50.6577 31.4067 49.9244 31.74C49.191 32.0733 48.431 32.24 47.6444 32.24C46.8977 32.24 46.191 32.12 45.5244 31.88C44.871 31.64 44.2977 31.3 43.8044 30.86C43.3244 30.4067 42.9444 29.8667 42.6644 29.24C42.3844 28.6133 42.2444 27.9133 42.2444 27.14C42.2444 26.3667 42.3844 25.6667 42.6644 25.04C42.9444 24.4133 43.3244 23.88 43.8044 23.44C44.2977 22.9867 44.871 22.64 45.5244 22.4C46.191 22.16 46.8977 22.04 47.6444 22.04C48.3377 22.04 48.9644 22.16 49.5244 22.4C50.0977 22.64 50.5777 22.9867 50.9644 23.44C51.3644 23.88 51.671 24.4133 51.8844 25.04C52.0977 25.6667 52.2044 26.3667 52.2044 27.14V28.08H45.2444C45.3644 28.6533 45.6244 29.1133 46.0244 29.46C46.4244 29.7933 46.9177 29.96 47.5044 29.96C47.9977 29.96 48.411 29.8533 48.7444 29.64C49.091 29.4133 49.391 29.1267 49.6444 28.78L51.7444 30.32ZM49.2044 26.04C49.2177 25.5333 49.051 25.1 48.7044 24.74C48.3577 24.38 47.911 24.2 47.3644 24.2C47.031 24.2 46.7377 24.2533 46.4844 24.36C46.231 24.4667 46.011 24.6067 45.8244 24.78C45.651 24.94 45.511 25.1333 45.4044 25.36C45.311 25.5733 45.2577 25.8 45.2444 26.04H49.2044ZM56.6488 26.8L53.4088 22.28H56.9488L58.6688 24.92L60.3288 22.28H63.6688L60.5088 26.8L64.2488 32H60.7088L58.5888 28.76L56.3088 32H52.8087L56.6488 26.8ZM71.762 24.68H69.122V27.92C69.122 28.1867 69.1354 28.4333 69.162 28.66C69.1887 28.8733 69.2487 29.06 69.342 29.22C69.4354 29.38 69.5754 29.5067 69.762 29.6C69.962 29.68 70.222 29.72 70.542 29.72C70.702 29.72 70.9087 29.7067 71.162 29.68C71.4287 29.64 71.6287 29.56 71.762 29.44V31.94C71.4287 32.06 71.082 32.14 70.722 32.18C70.362 32.22 70.0087 32.24 69.662 32.24C69.1554 32.24 68.6887 32.1867 68.262 32.08C67.8354 31.9733 67.462 31.8067 67.142 31.58C66.822 31.34 66.5687 31.0333 66.382 30.66C66.2087 30.2867 66.122 29.8333 66.122 29.3V24.68H64.202V22.28H66.122V19.4H69.122V22.28H71.762V24.68Z" fill="#006C4D"/>
</g>
<defs>
<filter id="filter0_d_389_6701" x="0" y="0" width="107" height="55" filterUnits="userSpaceOnUse" color-interpolation-filters="sRGB">
<feFlood flood-opacity="0" result="BackgroundImageFix"/>
<feColorMatrix in="SourceAlpha" type="matrix" values="0 0 0 0 0 0 0 0 0 0 0 0 0 0 0 0 0 0 127 0" result="hardAlpha"/>
<feOffset dx="4" dy="4"/>
<feComposite in2="hardAlpha" operator="out"/>
<feColorMatrix type="matrix" values="0 0 0 0 0.615686 0 0 0 0 0.788235 0 0 0 0 0.333333 0 0 0 1 0"/>
<feBlend mode="normal" in2="BackgroundImageFix" result="effect1_dropShadow_389_6701"/>
<feBlend mode="normal" in="SourceGraphic" in2="effect1_dropShadow_389_6701" result="shape"/>
</filter>
</defs>
</svg>
