<svg width="99" height="42" viewBox="0 0 99 42" fill="none" xmlns="http://www.w3.org/2000/svg">
<g filter="url(#filter0_d_167_17103)">
<rect width="95" height="38" rx="19" fill="#CCFFB4" shape-rendering="crispEdges"/>
<path d="M15.12 18.32C14.9493 18.1067 14.736 17.9307 14.48 17.792C14.2347 17.6427 13.9307 17.568 13.568 17.568C13.2267 17.568 12.928 17.6427 12.672 17.792C12.4267 17.9307 12.304 18.1387 12.304 18.416C12.304 18.64 12.3733 18.8213 12.512 18.96C12.6613 19.0987 12.832 19.2107 13.024 19.296C13.2267 19.3813 13.44 19.4453 13.664 19.488C13.888 19.5307 14.08 19.568 14.24 19.6C14.5493 19.6747 14.8373 19.7653 15.104 19.872C15.3813 19.9787 15.616 20.1173 15.808 20.288C16.0107 20.4587 16.1653 20.6667 16.272 20.912C16.3893 21.1573 16.448 21.456 16.448 21.808C16.448 22.2347 16.3573 22.6027 16.176 22.912C15.9947 23.2107 15.76 23.456 15.472 23.648C15.184 23.84 14.8533 23.9787 14.48 24.064C14.1173 24.1493 13.7493 24.192 13.376 24.192C12.7467 24.192 12.192 24.096 11.712 23.904C11.2427 23.712 10.8213 23.36 10.448 22.848L11.536 21.952C11.7707 22.1867 12.032 22.3947 12.32 22.576C12.608 22.7573 12.96 22.848 13.376 22.848C13.5573 22.848 13.7387 22.832 13.92 22.8C14.112 22.7573 14.2773 22.6987 14.416 22.624C14.5653 22.5387 14.6827 22.4373 14.768 22.32C14.864 22.192 14.912 22.048 14.912 21.888C14.912 21.6747 14.8427 21.4987 14.704 21.36C14.576 21.2213 14.416 21.1147 14.224 21.04C14.0427 20.9547 13.8453 20.8907 13.632 20.848C13.4293 20.7947 13.248 20.752 13.088 20.72C12.7787 20.6453 12.4853 20.56 12.208 20.464C11.9307 20.368 11.6853 20.24 11.472 20.08C11.2587 19.92 11.088 19.7173 10.96 19.472C10.832 19.2267 10.768 18.9227 10.768 18.56C10.768 18.1653 10.848 17.824 11.008 17.536C11.1787 17.2373 11.3973 16.992 11.664 16.8C11.9413 16.608 12.2507 16.464 12.592 16.368C12.944 16.272 13.296 16.224 13.648 16.224C14.16 16.224 14.6507 16.32 15.12 16.512C15.5893 16.704 15.9627 17.024 16.24 17.472L15.12 18.32ZM18.2294 17.344C18.6347 16.9707 19.104 16.6933 19.6374 16.512C20.1707 16.32 20.704 16.224 21.2374 16.224C21.792 16.224 22.2667 16.2933 22.6614 16.432C23.0667 16.5707 23.3974 16.7573 23.6534 16.992C23.9094 17.2267 24.096 17.4987 24.2134 17.808C24.3414 18.1067 24.4054 18.4213 24.4054 18.752V22.624C24.4054 22.8907 24.4107 23.136 24.4214 23.36C24.432 23.584 24.448 23.7973 24.4694 24H23.1894C23.1574 23.616 23.1414 23.232 23.1414 22.848H23.1094C22.7894 23.3387 22.4107 23.6853 21.9734 23.888C21.536 24.0907 21.0294 24.192 20.4534 24.192C20.1014 24.192 19.7654 24.144 19.4454 24.048C19.1254 23.952 18.8427 23.808 18.5974 23.616C18.3627 23.424 18.176 23.1893 18.0374 22.912C17.8987 22.624 17.8294 22.2933 17.8294 21.92C17.8294 21.4293 17.936 21.0187 18.1494 20.688C18.3734 20.3573 18.672 20.0907 19.0454 19.888C19.4294 19.6747 19.872 19.5253 20.3734 19.44C20.8854 19.344 21.4294 19.296 22.0054 19.296H23.0614V18.976C23.0614 18.784 23.024 18.592 22.9494 18.4C22.8747 18.208 22.7627 18.0373 22.6134 17.888C22.464 17.728 22.2774 17.6053 22.0534 17.52C21.8294 17.424 21.5627 17.376 21.2534 17.376C20.976 17.376 20.7307 17.4027 20.5174 17.456C20.3147 17.5093 20.128 17.5787 19.9574 17.664C19.7867 17.7387 19.632 17.8293 19.4934 17.936C19.3547 18.0427 19.2214 18.144 19.0934 18.24L18.2294 17.344ZM22.2934 20.352C21.952 20.352 21.6 20.3733 21.2374 20.416C20.8854 20.448 20.56 20.5173 20.2614 20.624C19.9734 20.7307 19.7334 20.88 19.5414 21.072C19.36 21.264 19.2694 21.5093 19.2694 21.808C19.2694 22.2453 19.4134 22.56 19.7014 22.752C20 22.944 20.4 23.04 20.9014 23.04C21.296 23.04 21.632 22.976 21.9094 22.848C22.1867 22.7093 22.4107 22.5333 22.5814 22.32C22.752 22.1067 22.8747 21.872 22.9494 21.616C23.024 21.3493 23.0614 21.088 23.0614 20.832V20.352H22.2934ZM25.5823 16.416H27.2463L29.5182 22.224L31.6943 16.416H33.2303L30.2543 24H28.6703L25.5823 16.416ZM35.5823 20.736C35.5823 21.0667 35.6516 21.3707 35.7903 21.648C35.9396 21.9147 36.1316 22.144 36.3663 22.336C36.6009 22.528 36.8729 22.6773 37.1823 22.784C37.4916 22.8907 37.8116 22.944 38.1423 22.944C38.5903 22.944 38.9796 22.8427 39.3103 22.64C39.6409 22.4267 39.9449 22.1493 40.2223 21.808L41.3103 22.64C40.5103 23.6747 39.3903 24.192 37.9503 24.192C37.3529 24.192 36.8089 24.0907 36.3183 23.888C35.8383 23.6853 35.4276 23.408 35.0863 23.056C34.7556 22.6933 34.4996 22.272 34.3183 21.792C34.1369 21.3013 34.0463 20.7733 34.0463 20.208C34.0463 19.6427 34.1423 19.12 34.3343 18.64C34.5369 18.1493 34.8089 17.728 35.1503 17.376C35.5023 17.0133 35.9183 16.7307 36.3983 16.528C36.8783 16.3253 37.4009 16.224 37.9663 16.224C38.6383 16.224 39.2036 16.3413 39.6623 16.576C40.1316 16.8107 40.5156 17.12 40.8143 17.504C41.1129 17.8773 41.3263 18.304 41.4543 18.784C41.5929 19.2533 41.6623 19.7333 41.6623 20.224V20.736H35.5823ZM40.1263 19.584C40.1156 19.264 40.0623 18.9707 39.9663 18.704C39.8809 18.4373 39.7476 18.208 39.5663 18.016C39.3849 17.8133 39.1556 17.6587 38.8783 17.552C38.6116 17.4347 38.2969 17.376 37.9343 17.376C37.5823 17.376 37.2569 17.4453 36.9583 17.584C36.6703 17.712 36.4249 17.8827 36.2223 18.096C36.0196 18.3093 35.8596 18.5493 35.7423 18.816C35.6356 19.072 35.5823 19.328 35.5823 19.584H40.1263ZM48.926 20.736C48.926 21.0667 48.9953 21.3707 49.134 21.648C49.2833 21.9147 49.4753 22.144 49.71 22.336C49.9447 22.528 50.2167 22.6773 50.526 22.784C50.8353 22.8907 51.1553 22.944 51.486 22.944C51.934 22.944 52.3233 22.8427 52.654 22.64C52.9847 22.4267 53.2887 22.1493 53.566 21.808L54.654 22.64C53.854 23.6747 52.734 24.192 51.294 24.192C50.6967 24.192 50.1527 24.0907 49.662 23.888C49.182 23.6853 48.7713 23.408 48.43 23.056C48.0993 22.6933 47.8433 22.272 47.662 21.792C47.4807 21.3013 47.39 20.7733 47.39 20.208C47.39 19.6427 47.486 19.12 47.678 18.64C47.8807 18.1493 48.1527 17.728 48.494 17.376C48.846 17.0133 49.262 16.7307 49.742 16.528C50.222 16.3253 50.7447 16.224 51.31 16.224C51.982 16.224 52.5473 16.3413 53.006 16.576C53.4753 16.8107 53.8593 17.12 54.158 17.504C54.4567 17.8773 54.67 18.304 54.798 18.784C54.9367 19.2533 55.006 19.7333 55.006 20.224V20.736H48.926ZM53.47 19.584C53.4593 19.264 53.406 18.9707 53.31 18.704C53.2247 18.4373 53.0913 18.208 52.91 18.016C52.7287 17.8133 52.4993 17.6587 52.222 17.552C51.9553 17.4347 51.6407 17.376 51.278 17.376C50.926 17.376 50.6007 17.4453 50.302 17.584C50.014 17.712 49.7687 17.8827 49.566 18.096C49.3633 18.3093 49.2033 18.5493 49.086 18.816C48.9793 19.072 48.926 19.328 48.926 19.584H53.47ZM56.7286 16.416H58.1686V17.584H58.2006C58.382 17.1787 58.6966 16.8533 59.1446 16.608C59.5926 16.352 60.11 16.224 60.6966 16.224C61.0593 16.224 61.406 16.2827 61.7366 16.4C62.078 16.5067 62.3713 16.6773 62.6166 16.912C62.8726 17.1467 63.0753 17.4507 63.2246 17.824C63.374 18.1867 63.4486 18.6187 63.4486 19.12V24H62.0086V19.52C62.0086 19.168 61.9606 18.8693 61.8646 18.624C61.7686 18.368 61.6406 18.1653 61.4806 18.016C61.3206 17.856 61.134 17.744 60.9206 17.68C60.718 17.6053 60.5046 17.568 60.2806 17.568C59.982 17.568 59.7046 17.616 59.4486 17.712C59.1926 17.808 58.9686 17.9627 58.7766 18.176C58.5846 18.3787 58.4353 18.64 58.3286 18.96C58.222 19.28 58.1686 19.6587 58.1686 20.096V24H56.7286V16.416ZM69.6833 17.664H67.6193V21.104C67.6193 21.3173 67.6246 21.5307 67.6353 21.744C67.6459 21.9467 67.6833 22.1333 67.7473 22.304C67.8219 22.464 67.9286 22.5973 68.0673 22.704C68.2166 22.8 68.4299 22.848 68.7073 22.848C68.8779 22.848 69.0539 22.832 69.2352 22.8C69.4166 22.768 69.5819 22.7093 69.7313 22.624V23.936C69.5606 24.032 69.3366 24.096 69.0593 24.128C68.7926 24.1707 68.5846 24.192 68.4353 24.192C67.8806 24.192 67.4486 24.1173 67.1393 23.968C66.8406 23.808 66.6166 23.6053 66.4673 23.36C66.3286 23.1147 66.2433 22.8427 66.2113 22.544C66.1899 22.2347 66.1793 21.9253 66.1793 21.616V17.664H64.5152V16.416H66.1793V14.288H67.6193V16.416H69.6833V17.664ZM71.5411 16.416H72.9811V17.584H73.0131C73.1091 17.3813 73.2371 17.2 73.3971 17.04C73.5571 16.8693 73.7331 16.7253 73.9251 16.608C74.1278 16.4907 74.3465 16.4 74.5811 16.336C74.8158 16.2613 75.0505 16.224 75.2851 16.224C75.5198 16.224 75.7331 16.256 75.9251 16.32L75.8611 17.872C75.7438 17.84 75.6265 17.8133 75.5091 17.792C75.3918 17.7707 75.2745 17.76 75.1571 17.76C74.4531 17.76 73.9145 17.9573 73.5411 18.352C73.1678 18.7467 72.9811 19.36 72.9811 20.192V24H71.5411V16.416ZM76.551 16.416H78.215L80.471 22.336H80.503L82.647 16.416H84.199L80.599 25.632C80.471 25.9627 80.3377 26.2613 80.199 26.528C80.0603 26.8053 79.895 27.04 79.703 27.232C79.511 27.424 79.2763 27.5733 78.999 27.68C78.7323 27.7867 78.4017 27.84 78.007 27.84C77.7937 27.84 77.575 27.824 77.351 27.792C77.1377 27.7707 76.9297 27.7173 76.727 27.632L76.903 26.32C77.191 26.4373 77.479 26.496 77.767 26.496C77.991 26.496 78.1777 26.464 78.327 26.4C78.487 26.3467 78.6203 26.2613 78.727 26.144C78.8443 26.0373 78.9403 25.9093 79.015 25.76C79.0897 25.6107 79.1643 25.44 79.239 25.248L79.703 24.048L76.551 16.416Z" fill="#006C4D"/>
</g>
<defs>
<filter id="filter0_d_167_17103" x="0" y="0" width="99" height="42" filterUnits="userSpaceOnUse" color-interpolation-filters="sRGB">
<feFlood flood-opacity="0" result="BackgroundImageFix"/>
<feColorMatrix in="SourceAlpha" type="matrix" values="0 0 0 0 0 0 0 0 0 0 0 0 0 0 0 0 0 0 127 0" result="hardAlpha"/>
<feOffset dx="4" dy="4"/>
<feComposite in2="hardAlpha" operator="out"/>
<feColorMatrix type="matrix" values="0 0 0 0 0.615686 0 0 0 0 0.788235 0 0 0 0 0.333333 0 0 0 1 0"/>
<feBlend mode="normal" in2="BackgroundImageFix" result="effect1_dropShadow_167_17103"/>
<feBlend mode="normal" in="SourceGraphic" in2="effect1_dropShadow_167_17103" result="shape"/>
</filter>
</defs>
</svg>
