<svg width="93" height="42" viewBox="0 0 93 42" fill="none" xmlns="http://www.w3.org/2000/svg">
<g filter="url(#filter0_d_167_16558)">
<rect width="89" height="38" rx="19" fill="#CCFFB4" shape-rendering="crispEdges"/>
<path d="M15.12 18.32C14.9493 18.1067 14.736 17.9307 14.48 17.792C14.2347 17.6427 13.9307 17.568 13.568 17.568C13.2267 17.568 12.928 17.6427 12.672 17.792C12.4267 17.9307 12.304 18.1387 12.304 18.416C12.304 18.64 12.3733 18.8213 12.512 18.96C12.6613 19.0987 12.832 19.2107 13.024 19.296C13.2267 19.3813 13.44 19.4453 13.664 19.488C13.888 19.5307 14.08 19.568 14.24 19.6C14.5493 19.6747 14.8373 19.7653 15.104 19.872C15.3813 19.9787 15.616 20.1173 15.808 20.288C16.0107 20.4587 16.1653 20.6667 16.272 20.912C16.3893 21.1573 16.448 21.456 16.448 21.808C16.448 22.2347 16.3573 22.6027 16.176 22.912C15.9947 23.2107 15.76 23.456 15.472 23.648C15.184 23.84 14.8533 23.9787 14.48 24.064C14.1173 24.1493 13.7493 24.192 13.376 24.192C12.7467 24.192 12.192 24.096 11.712 23.904C11.2427 23.712 10.8213 23.36 10.448 22.848L11.536 21.952C11.7707 22.1867 12.032 22.3947 12.32 22.576C12.608 22.7573 12.96 22.848 13.376 22.848C13.5573 22.848 13.7387 22.832 13.92 22.8C14.112 22.7573 14.2773 22.6987 14.416 22.624C14.5653 22.5387 14.6827 22.4373 14.768 22.32C14.864 22.192 14.912 22.048 14.912 21.888C14.912 21.6747 14.8427 21.4987 14.704 21.36C14.576 21.2213 14.416 21.1147 14.224 21.04C14.0427 20.9547 13.8453 20.8907 13.632 20.848C13.4293 20.7947 13.248 20.752 13.088 20.72C12.7787 20.6453 12.4853 20.56 12.208 20.464C11.9307 20.368 11.6853 20.24 11.472 20.08C11.2587 19.92 11.088 19.7173 10.96 19.472C10.832 19.2267 10.768 18.9227 10.768 18.56C10.768 18.1653 10.848 17.824 11.008 17.536C11.1787 17.2373 11.3973 16.992 11.664 16.8C11.9413 16.608 12.2507 16.464 12.592 16.368C12.944 16.272 13.296 16.224 13.648 16.224C14.16 16.224 14.6507 16.32 15.12 16.512C15.5893 16.704 15.9627 17.024 16.24 17.472L15.12 18.32ZM18.2294 17.344C18.6347 16.9707 19.104 16.6933 19.6374 16.512C20.1707 16.32 20.704 16.224 21.2374 16.224C21.792 16.224 22.2667 16.2933 22.6614 16.432C23.0667 16.5707 23.3974 16.7573 23.6534 16.992C23.9094 17.2267 24.096 17.4987 24.2134 17.808C24.3414 18.1067 24.4054 18.4213 24.4054 18.752V22.624C24.4054 22.8907 24.4107 23.136 24.4214 23.36C24.432 23.584 24.448 23.7973 24.4694 24H23.1894C23.1574 23.616 23.1414 23.232 23.1414 22.848H23.1094C22.7894 23.3387 22.4107 23.6853 21.9734 23.888C21.536 24.0907 21.0294 24.192 20.4534 24.192C20.1014 24.192 19.7654 24.144 19.4454 24.048C19.1254 23.952 18.8427 23.808 18.5974 23.616C18.3627 23.424 18.176 23.1893 18.0374 22.912C17.8987 22.624 17.8294 22.2933 17.8294 21.92C17.8294 21.4293 17.936 21.0187 18.1494 20.688C18.3734 20.3573 18.672 20.0907 19.0454 19.888C19.4294 19.6747 19.872 19.5253 20.3734 19.44C20.8854 19.344 21.4294 19.296 22.0054 19.296H23.0614V18.976C23.0614 18.784 23.024 18.592 22.9494 18.4C22.8747 18.208 22.7627 18.0373 22.6134 17.888C22.464 17.728 22.2774 17.6053 22.0534 17.52C21.8294 17.424 21.5627 17.376 21.2534 17.376C20.976 17.376 20.7307 17.4027 20.5174 17.456C20.3147 17.5093 20.128 17.5787 19.9574 17.664C19.7867 17.7387 19.632 17.8293 19.4934 17.936C19.3547 18.0427 19.2214 18.144 19.0934 18.24L18.2294 17.344ZM22.2934 20.352C21.952 20.352 21.6 20.3733 21.2374 20.416C20.8854 20.448 20.56 20.5173 20.2614 20.624C19.9734 20.7307 19.7334 20.88 19.5414 21.072C19.36 21.264 19.2694 21.5093 19.2694 21.808C19.2694 22.2453 19.4134 22.56 19.7014 22.752C20 22.944 20.4 23.04 20.9014 23.04C21.296 23.04 21.632 22.976 21.9094 22.848C22.1867 22.7093 22.4107 22.5333 22.5814 22.32C22.752 22.1067 22.8747 21.872 22.9494 21.616C23.024 21.3493 23.0614 21.088 23.0614 20.832V20.352H22.2934ZM25.5823 16.416H27.2463L29.5182 22.224L31.6943 16.416H33.2303L30.2543 24H28.6703L25.5823 16.416ZM35.5823 20.736C35.5823 21.0667 35.6516 21.3707 35.7903 21.648C35.9396 21.9147 36.1316 22.144 36.3663 22.336C36.6009 22.528 36.8729 22.6773 37.1823 22.784C37.4916 22.8907 37.8116 22.944 38.1423 22.944C38.5903 22.944 38.9796 22.8427 39.3103 22.64C39.6409 22.4267 39.9449 22.1493 40.2223 21.808L41.3103 22.64C40.5103 23.6747 39.3903 24.192 37.9503 24.192C37.3529 24.192 36.8089 24.0907 36.3183 23.888C35.8383 23.6853 35.4276 23.408 35.0863 23.056C34.7556 22.6933 34.4996 22.272 34.3183 21.792C34.1369 21.3013 34.0463 20.7733 34.0463 20.208C34.0463 19.6427 34.1423 19.12 34.3343 18.64C34.5369 18.1493 34.8089 17.728 35.1503 17.376C35.5023 17.0133 35.9183 16.7307 36.3983 16.528C36.8783 16.3253 37.4009 16.224 37.9663 16.224C38.6383 16.224 39.2036 16.3413 39.6623 16.576C40.1316 16.8107 40.5156 17.12 40.8143 17.504C41.1129 17.8773 41.3263 18.304 41.4543 18.784C41.5929 19.2533 41.6623 19.7333 41.6623 20.224V20.736H35.5823ZM40.1263 19.584C40.1156 19.264 40.0623 18.9707 39.9663 18.704C39.8809 18.4373 39.7476 18.208 39.5663 18.016C39.3849 17.8133 39.1556 17.6587 38.8783 17.552C38.6116 17.4347 38.2969 17.376 37.9343 17.376C37.5823 17.376 37.2569 17.4453 36.9583 17.584C36.6703 17.712 36.4249 17.8827 36.2223 18.096C36.0196 18.3093 35.8596 18.5493 35.7423 18.816C35.6356 19.072 35.5823 19.328 35.5823 19.584H40.1263ZM55.438 23.936C55.438 24.512 55.3367 25.0347 55.134 25.504C54.942 25.984 54.6647 26.3947 54.302 26.736C53.9393 27.088 53.502 27.36 52.99 27.552C52.478 27.744 51.9127 27.84 51.294 27.84C50.5687 27.84 49.902 27.7387 49.294 27.536C48.6967 27.3333 48.126 26.9813 47.582 26.48L48.558 25.264C48.9313 25.6693 49.3367 25.9733 49.774 26.176C50.2113 26.3893 50.7073 26.496 51.262 26.496C51.7953 26.496 52.238 26.416 52.59 26.256C52.942 26.1067 53.2193 25.9093 53.422 25.664C53.6353 25.4187 53.7847 25.136 53.87 24.816C53.9553 24.5067 53.998 24.192 53.998 23.872V22.752H53.95C53.6727 23.2107 53.294 23.552 52.814 23.776C52.3447 23.9893 51.8487 24.096 51.326 24.096C50.7713 24.096 50.254 24 49.774 23.808C49.3047 23.6053 48.8993 23.3333 48.558 22.992C48.2167 22.64 47.95 22.2293 47.758 21.76C47.566 21.28 47.47 20.7627 47.47 20.208C47.47 19.6533 47.5607 19.136 47.742 18.656C47.9233 18.1653 48.1793 17.7387 48.51 17.376C48.8513 17.0133 49.2567 16.7307 49.726 16.528C50.206 16.3253 50.7393 16.224 51.326 16.224C51.838 16.224 52.334 16.336 52.814 16.56C53.3047 16.784 53.6887 17.0987 53.966 17.504H53.998V16.416H55.438V23.936ZM51.502 17.568C51.118 17.568 50.7713 17.6373 50.462 17.776C50.1527 17.904 49.8913 18.0853 49.678 18.32C49.4647 18.544 49.2993 18.8213 49.182 19.152C49.0647 19.472 49.006 19.824 49.006 20.208C49.006 20.976 49.23 21.5947 49.678 22.064C50.126 22.5227 50.734 22.752 51.502 22.752C52.27 22.752 52.878 22.5227 53.326 22.064C53.774 21.5947 53.998 20.976 53.998 20.208C53.998 19.824 53.9393 19.472 53.822 19.152C53.7047 18.8213 53.5393 18.544 53.326 18.32C53.1127 18.0853 52.8513 17.904 52.542 17.776C52.2327 17.6373 51.886 17.568 51.502 17.568ZM58.7873 20.208C58.7873 20.592 58.8459 20.9493 58.9633 21.28C59.0806 21.6 59.2459 21.8773 59.4593 22.112C59.6726 22.336 59.9339 22.5173 60.2433 22.656C60.5526 22.784 60.8993 22.848 61.2833 22.848C61.6673 22.848 62.0139 22.784 62.3233 22.656C62.6326 22.5173 62.8939 22.336 63.1073 22.112C63.3206 21.8773 63.4859 21.6 63.6033 21.28C63.7206 20.9493 63.7793 20.592 63.7793 20.208C63.7793 19.824 63.7206 19.472 63.6033 19.152C63.4859 18.8213 63.3206 18.544 63.1073 18.32C62.8939 18.0853 62.6326 17.904 62.3233 17.776C62.0139 17.6373 61.6673 17.568 61.2833 17.568C60.8993 17.568 60.5526 17.6373 60.2433 17.776C59.9339 17.904 59.6726 18.0853 59.4593 18.32C59.2459 18.544 59.0806 18.8213 58.9633 19.152C58.8459 19.472 58.7873 19.824 58.7873 20.208ZM57.2513 20.208C57.2513 19.6533 57.3526 19.136 57.5553 18.656C57.7686 18.176 58.0566 17.7547 58.4193 17.392C58.7819 17.0293 59.2086 16.7467 59.6993 16.544C60.1899 16.3307 60.7179 16.224 61.2833 16.224C61.8486 16.224 62.3766 16.3307 62.8673 16.544C63.3579 16.7467 63.7846 17.0293 64.1473 17.392C64.5099 17.7547 64.7926 18.176 64.9953 18.656C65.2086 19.136 65.3153 19.6533 65.3153 20.208C65.3153 20.7627 65.2086 21.2853 64.9953 21.776C64.7926 22.256 64.5099 22.6773 64.1473 23.04C63.7846 23.392 63.3579 23.6747 62.8673 23.888C62.3766 24.0907 61.8486 24.192 61.2833 24.192C60.7179 24.192 60.1899 24.0907 59.6993 23.888C59.2086 23.6747 58.7819 23.392 58.4193 23.04C58.0566 22.6773 57.7686 22.256 57.5553 21.776C57.3526 21.2853 57.2513 20.7627 57.2513 20.208ZM67.1513 17.344C67.5566 16.9707 68.0259 16.6933 68.5593 16.512C69.0926 16.32 69.6259 16.224 70.1593 16.224C70.7139 16.224 71.1886 16.2933 71.5833 16.432C71.9886 16.5707 72.3193 16.7573 72.5753 16.992C72.8313 17.2267 73.0179 17.4987 73.1353 17.808C73.2633 18.1067 73.3273 18.4213 73.3273 18.752V22.624C73.3273 22.8907 73.3326 23.136 73.3433 23.36C73.3539 23.584 73.3699 23.7973 73.3913 24H72.1113C72.0793 23.616 72.0633 23.232 72.0633 22.848H72.0313C71.7113 23.3387 71.3326 23.6853 70.8953 23.888C70.4579 24.0907 69.9513 24.192 69.3753 24.192C69.0233 24.192 68.6873 24.144 68.3673 24.048C68.0473 23.952 67.7646 23.808 67.5193 23.616C67.2846 23.424 67.0979 23.1893 66.9593 22.912C66.8206 22.624 66.7513 22.2933 66.7513 21.92C66.7513 21.4293 66.8579 21.0187 67.0713 20.688C67.2953 20.3573 67.5939 20.0907 67.9673 19.888C68.3513 19.6747 68.7939 19.5253 69.2953 19.44C69.8073 19.344 70.3513 19.296 70.9273 19.296H71.9833V18.976C71.9833 18.784 71.9459 18.592 71.8713 18.4C71.7966 18.208 71.6846 18.0373 71.5353 17.888C71.3859 17.728 71.1993 17.6053 70.9753 17.52C70.7513 17.424 70.4846 17.376 70.1753 17.376C69.8979 17.376 69.6526 17.4027 69.4393 17.456C69.2366 17.5093 69.0499 17.5787 68.8793 17.664C68.7086 17.7387 68.5539 17.8293 68.4153 17.936C68.2766 18.0427 68.1433 18.144 68.0153 18.24L67.1513 17.344ZM71.2153 20.352C70.8739 20.352 70.5219 20.3733 70.1593 20.416C69.8073 20.448 69.4819 20.5173 69.1833 20.624C68.8953 20.7307 68.6553 20.88 68.4633 21.072C68.2819 21.264 68.1913 21.5093 68.1913 21.808C68.1913 22.2453 68.3353 22.56 68.6233 22.752C68.9219 22.944 69.3219 23.04 69.8233 23.04C70.2179 23.04 70.5539 22.976 70.8313 22.848C71.1086 22.7093 71.3326 22.5333 71.5033 22.32C71.6739 22.1067 71.7966 21.872 71.8713 21.616C71.9459 21.3493 71.9833 21.088 71.9833 20.832V20.352H71.2153ZM75.5281 11.904H76.9681V24H75.5281V11.904Z" fill="#006C4D"/>
</g>
<defs>
<filter id="filter0_d_167_16558" x="0" y="0" width="93" height="42" filterUnits="userSpaceOnUse" color-interpolation-filters="sRGB">
<feFlood flood-opacity="0" result="BackgroundImageFix"/>
<feColorMatrix in="SourceAlpha" type="matrix" values="0 0 0 0 0 0 0 0 0 0 0 0 0 0 0 0 0 0 127 0" result="hardAlpha"/>
<feOffset dx="4" dy="4"/>
<feComposite in2="hardAlpha" operator="out"/>
<feColorMatrix type="matrix" values="0 0 0 0 0.615686 0 0 0 0 0.788235 0 0 0 0 0.333333 0 0 0 1 0"/>
<feBlend mode="normal" in2="BackgroundImageFix" result="effect1_dropShadow_167_16558"/>
<feBlend mode="normal" in="SourceGraphic" in2="effect1_dropShadow_167_16558" result="shape"/>
</filter>
</defs>
</svg>
