<svg width="125" height="52" viewBox="0 0 125 52" fill="none" xmlns="http://www.w3.org/2000/svg">
<g filter="url(#filter0_d_135_3589)">
<rect width="121" height="46" rx="20" fill="#CCFFB4" shape-rendering="crispEdges"/>
<path d="M27.44 18.8C27.1867 18.48 26.84 18.2467 26.4 18.1C25.9733 17.94 25.5667 17.86 25.18 17.86C24.9533 17.86 24.72 17.8867 24.48 17.94C24.24 17.9933 24.0133 18.08 23.8 18.2C23.5867 18.3067 23.4133 18.4533 23.28 18.64C23.1467 18.8267 23.08 19.0533 23.08 19.32C23.08 19.7467 23.24 20.0733 23.56 20.3C23.88 20.5267 24.28 20.72 24.76 20.88C25.2533 21.04 25.78 21.2 26.34 21.36C26.9 21.52 27.42 21.7467 27.9 22.04C28.3933 22.3333 28.8 22.7267 29.12 23.22C29.44 23.7133 29.6 24.3733 29.6 25.2C29.6 25.9867 29.4533 26.6733 29.16 27.26C28.8667 27.8467 28.4667 28.3333 27.96 28.72C27.4667 29.1067 26.8867 29.3933 26.22 29.58C25.5667 29.7667 24.8733 29.86 24.14 29.86C23.22 29.86 22.3667 29.72 21.58 29.44C20.7933 29.16 20.06 28.7067 19.38 28.08L21.6 25.64C21.92 26.0667 22.32 26.4 22.8 26.64C23.2933 26.8667 23.8 26.98 24.32 26.98C24.5733 26.98 24.8267 26.9533 25.08 26.9C25.3467 26.8333 25.58 26.74 25.78 26.62C25.9933 26.5 26.16 26.3467 26.28 26.16C26.4133 25.9733 26.48 25.7533 26.48 25.5C26.48 25.0733 26.3133 24.74 25.98 24.5C25.66 24.2467 25.2533 24.0333 24.76 23.86C24.2667 23.6867 23.7333 23.5133 23.16 23.34C22.5867 23.1667 22.0533 22.9333 21.56 22.64C21.0667 22.3467 20.6533 21.96 20.32 21.48C20 21 19.84 20.3667 19.84 19.58C19.84 18.82 19.9867 18.1533 20.28 17.58C20.5867 17.0067 20.9867 16.5267 21.48 16.14C21.9867 15.7533 22.5667 15.4667 23.22 15.28C23.8733 15.08 24.5467 14.98 25.24 14.98C26.04 14.98 26.8133 15.0933 27.56 15.32C28.3067 15.5467 28.98 15.9267 29.58 16.46L27.44 18.8ZM31.8844 15.34H35.0044V29.5H31.8844V15.34ZM50.6623 28.5C49.7423 28.98 48.7823 29.3267 47.7823 29.54C46.7823 29.7533 45.7623 29.86 44.7223 29.86C43.6157 29.86 42.5957 29.6867 41.6623 29.34C40.729 28.9933 39.9223 28.5 39.2423 27.86C38.5623 27.2067 38.029 26.42 37.6423 25.5C37.269 24.58 37.0823 23.5533 37.0823 22.42C37.0823 21.2867 37.269 20.26 37.6423 19.34C38.029 18.42 38.5623 17.64 39.2423 17C39.9223 16.3467 40.729 15.8467 41.6623 15.5C42.5957 15.1533 43.6157 14.98 44.7223 14.98C45.8557 14.98 46.8957 15.12 47.8423 15.4C48.8023 15.6667 49.6423 16.1333 50.3623 16.8L48.1623 19.2C47.7357 18.76 47.2557 18.4267 46.7223 18.2C46.189 17.9733 45.5223 17.86 44.7223 17.86C44.0557 17.86 43.449 17.9733 42.9023 18.2C42.369 18.4267 41.909 18.7467 41.5223 19.16C41.1357 19.56 40.8357 20.04 40.6223 20.6C40.4223 21.16 40.3223 21.7667 40.3223 22.42C40.3223 23.0867 40.4223 23.7 40.6223 24.26C40.8357 24.8067 41.1357 25.2867 41.5223 25.7C41.909 26.1 42.369 26.4133 42.9023 26.64C43.449 26.8667 44.0557 26.98 44.7223 26.98C45.4023 26.98 45.989 26.9067 46.4823 26.76C46.9757 26.6 47.369 26.44 47.6623 26.28V23.98H45.1223V21.1H50.6623V28.5ZM53.4088 15.34H57.6488L63.6688 25.18H63.7088V15.34H66.8288V29.5H62.7488L56.5688 19.42H56.5288V29.5H53.4088V15.34ZM87.5753 24.04C87.5753 24.88 87.4486 25.6533 87.1953 26.36C86.942 27.0667 86.562 27.68 86.0553 28.2C85.562 28.72 84.942 29.1267 84.1953 29.42C83.4486 29.7133 82.5886 29.86 81.6153 29.86C80.6286 29.86 79.762 29.7133 79.0153 29.42C78.2686 29.1267 77.642 28.72 77.1353 28.2C76.642 27.68 76.2686 27.0667 76.0153 26.36C75.762 25.6533 75.6353 24.88 75.6353 24.04V15.34H78.7553V23.92C78.7553 24.36 78.822 24.7667 78.9553 25.14C79.102 25.5133 79.302 25.84 79.5553 26.12C79.8086 26.3867 80.1086 26.6 80.4553 26.76C80.8153 26.9067 81.202 26.98 81.6153 26.98C82.0286 26.98 82.4086 26.9067 82.7553 26.76C83.102 26.6 83.402 26.3867 83.6553 26.12C83.9086 25.84 84.102 25.5133 84.2353 25.14C84.382 24.7667 84.4553 24.36 84.4553 23.92V15.34H87.5753V24.04ZM90.4595 15.34H95.7195C96.4529 15.34 97.1462 15.4067 97.7995 15.54C98.4529 15.6733 99.0195 15.9067 99.4995 16.24C99.9929 16.56 100.38 17 100.66 17.56C100.953 18.1067 101.1 18.8 101.1 19.64C101.1 20.4667 100.966 21.16 100.7 21.72C100.433 22.28 100.066 22.7267 99.5995 23.06C99.1329 23.3933 98.5795 23.6333 97.9395 23.78C97.2995 23.9133 96.6062 23.98 95.8595 23.98H93.5795V29.5H90.4595V15.34ZM93.5795 21.34H95.6595C95.9395 21.34 96.2062 21.3133 96.4595 21.26C96.7262 21.2067 96.9595 21.12 97.1595 21C97.3729 20.8667 97.5395 20.6933 97.6595 20.48C97.7929 20.2533 97.8595 19.9733 97.8595 19.64C97.8595 19.28 97.7729 18.9933 97.5995 18.78C97.4395 18.5533 97.2262 18.38 96.9595 18.26C96.7062 18.14 96.4195 18.0667 96.0995 18.04C95.7795 18 95.4729 17.98 95.1795 17.98H93.5795V21.34Z" fill="#0F4500"/>
</g>
<defs>
<filter id="filter0_d_135_3589" x="0" y="0" width="125" height="52" filterUnits="userSpaceOnUse" color-interpolation-filters="sRGB">
<feFlood flood-opacity="0" result="BackgroundImageFix"/>
<feColorMatrix in="SourceAlpha" type="matrix" values="0 0 0 0 0 0 0 0 0 0 0 0 0 0 0 0 0 0 127 0" result="hardAlpha"/>
<feOffset dx="4" dy="6"/>
<feComposite in2="hardAlpha" operator="out"/>
<feColorMatrix type="matrix" values="0 0 0 0 0.615686 0 0 0 0 0.788235 0 0 0 0 0.333333 0 0 0 1 0"/>
<feBlend mode="normal" in2="BackgroundImageFix" result="effect1_dropShadow_135_3589"/>
<feBlend mode="normal" in="SourceGraphic" in2="effect1_dropShadow_135_3589" result="shape"/>
</filter>
</defs>
</svg>
