<svg width="349" height="517" viewBox="0 0 349 517" fill="none" xmlns="http://www.w3.org/2000/svg">
<mask id="mask0_403_6349" style="mask-type:alpha" maskUnits="userSpaceOnUse" x="61" y="0" width="134" height="361">
<path d="M62.741 180.5C53.0616 296.582 84.9839 361 127.691 361C173.511 361 203.923 296.945 192.64 180.5C183.531 86.488 148.599 -3.33339e-05 127.691 0C106.782 3.33339e-05 70.7474 84.4824 62.741 180.5Z" fill="#9DC955"/>
</mask>
<g mask="url(#mask0_403_6349)">
<path d="M62.7412 180.5C53.0618 296.582 88.5002 337 131.5 337C177.321 337 203.923 296.945 192.641 180.5C183.531 86.488 148.599 -3.33339e-05 127.691 0C106.782 3.33339e-05 70.7476 84.4824 62.7412 180.5Z" fill="#97D77D"/>
<g opacity="0.2" filter="url(#filter0_f_403_6349)">
<path fill-rule="evenodd" clip-rule="evenodd" d="M136.5 335.5C93.7931 335.5 75.7115 288.582 85.3909 172.5C91.6682 97.2182 115.175 29.0273 135.113 3.08554C132.502 1.06445 130.01 -3.69775e-06 127.691 0C106.782 3.33365e-05 70.7473 84.4824 62.7409 180.5C53.0615 296.582 86.9999 336.5 131.5 336.5C137.608 336.5 143.375 335.797 148.756 334.303C144.73 335.105 140.634 335.5 136.5 335.5Z" fill="#326B1F"/>
</g>
</g>
<path fill-rule="evenodd" clip-rule="evenodd" d="M139.568 196C139.568 191.582 135.986 188 131.568 188C127.15 188 123.568 191.582 123.568 196V276.016L107.713 257.14C105.937 255.025 103.102 255.062 101.382 257.222L98.6228 260.686C96.9023 262.846 96.9474 266.311 98.7235 268.425L123.568 298.003V446C123.568 450.418 127.15 454 131.568 454C135.986 454 139.568 450.418 139.568 446V242.05C139.801 241.83 140.02 241.578 140.219 241.292L156.993 217.206C158.572 214.94 158.326 211.464 156.446 209.442L154.451 207.297C152.57 205.275 149.766 205.473 148.188 207.739L139.568 220.116V196Z" fill="#326B1F"/>
<ellipse cx="92" cy="99" rx="92" ry="99" transform="matrix(-1 0 0 1 257 214)" fill="#006C4D"/>
<mask id="mask1_403_6349" style="mask-type:alpha" maskUnits="userSpaceOnUse" x="73" y="214" width="184" height="198">
<ellipse cx="92" cy="99" rx="92" ry="99" transform="matrix(-1 0 0 1 257 214)" fill="#217D5C"/>
</mask>
<g mask="url(#mask1_403_6349)">
<g filter="url(#filter1_f_403_6349)">
<path fill-rule="evenodd" clip-rule="evenodd" d="M192 400C141.19 400 100 355.676 100 301C100 265.323 117.538 234.054 143.842 216.631C103.23 226.916 73.0002 266.159 73.0002 313C73.0002 367.676 114.19 412 165 412C182.656 412 199.151 406.648 213.159 397.369C206.365 399.09 199.282 400 192 400Z" fill="#005139"/>
</g>
</g>
<path fill-rule="evenodd" clip-rule="evenodd" d="M173 298C173 293.582 169.418 290 165 290C160.582 290 157 293.582 157 298V358.851L134.256 337.524C132.241 335.635 129.077 335.737 127.188 337.751L125.82 339.21C123.931 341.224 124.033 344.389 126.048 346.278L157 375.301V509C157 513.418 160.582 517 165 517C169.418 517 173 513.418 173 509V344.88C173.497 344.659 173.967 344.351 174.386 343.958L193.353 326.174C195.367 324.285 195.469 321.121 193.58 319.106L192.212 317.647C190.323 315.633 187.159 315.531 185.145 317.42L173 328.808V298Z" fill="#005139"/>
<mask id="mask2_403_6349" style="mask-type:alpha" maskUnits="userSpaceOnUse" x="0" y="86" width="119" height="278">
<path d="M119 318.16H118.893C117.028 343.733 91.1501 364 59.5 364C27.8499 364 1.97157 343.733 0.107491 318.16H0V128.883H0.432655C3.99225 104.722 29.0802 86 59.5 86C89.9198 86 115.008 104.722 118.567 128.883H119V318.16Z" fill="#DDFAAE"/>
</mask>
<g mask="url(#mask2_403_6349)">
<path d="M119 318.16H118.893C117.028 343.733 91.1501 364 59.5 364C27.8499 364 1.97157 343.733 0.107491 318.16H0V128.883H0.432655C3.99225 104.722 29.0802 86 59.5 86C89.9198 86 115.008 104.722 118.567 128.883H119V318.16Z" fill="#CCFFB4"/>
<g filter="url(#filter2_f_403_6349)">
<path fill-rule="evenodd" clip-rule="evenodd" d="M71.5781 364.198C45.8807 359.477 26.4011 341.258 24.7854 319.091H24.6768V127.922H25.1138C28.1786 107.119 47.0447 90.3087 71.5781 85.8014C67.3324 85.0214 62.917 84.6099 58.3844 84.6099C27.6605 84.6099 2.32161 103.519 -1.27358 127.922H-1.71056V319.091H-1.602C0.280724 344.92 26.4178 365.39 58.3844 365.39C62.917 365.39 67.3324 364.978 71.5781 364.198Z" fill="#B2F497"/>
</g>
</g>
<path fill-rule="evenodd" clip-rule="evenodd" d="M68 205C68 200.582 64.4183 197 60 197C55.5818 197 52 200.582 52 205V273.517L44.8322 266.403C42.4803 264.068 38.7179 264.118 36.4287 266.514L34.6412 268.385C32.352 270.781 32.4029 274.616 34.7548 276.95L52 294.066V446C52 450.418 55.5818 454 60 454C64.4183 454 68 450.418 68 446V247.527C68.3252 247.273 68.6295 246.98 68.9066 246.649L83.8128 228.805C85.9373 226.262 85.6592 222.407 83.1916 220.196L81.7725 218.924C79.3049 216.712 75.5824 216.98 73.4579 219.523L68 226.057V205Z" fill="#97D77D"/>
<path d="M197 474C199.909 467.242 236.51 410.081 257.97 376.885C259.954 373.817 264.446 373.853 266.391 376.946L281.923 401.638C283.884 404.755 288.427 404.755 290.388 401.638L343 318M343 318H317.27M343 318V360.329" stroke="url(#paint0_linear_403_6349)" stroke-width="12" stroke-linecap="round" stroke-linejoin="round"/>
<defs>
<filter id="filter0_f_403_6349" x="57.0815" y="-4" width="95.6743" height="344.5" filterUnits="userSpaceOnUse" color-interpolation-filters="sRGB">
<feFlood flood-opacity="0" result="BackgroundImageFix"/>
<feBlend mode="normal" in="SourceGraphic" in2="BackgroundImageFix" result="shape"/>
<feGaussianBlur stdDeviation="2" result="effect1_foregroundBlur_403_6349"/>
</filter>
<filter id="filter1_f_403_6349" x="69" y="212.631" width="148.159" height="203.369" filterUnits="userSpaceOnUse" color-interpolation-filters="sRGB">
<feFlood flood-opacity="0" result="BackgroundImageFix"/>
<feBlend mode="normal" in="SourceGraphic" in2="BackgroundImageFix" result="shape"/>
<feGaussianBlur stdDeviation="2" result="effect1_foregroundBlur_403_6349"/>
</filter>
<filter id="filter2_f_403_6349" x="-5.75045" y="80.5699" width="81.3686" height="288.86" filterUnits="userSpaceOnUse" color-interpolation-filters="sRGB">
<feFlood flood-opacity="0" result="BackgroundImageFix"/>
<feBlend mode="normal" in="SourceGraphic" in2="BackgroundImageFix" result="shape"/>
<feGaussianBlur stdDeviation="2.02" result="effect1_foregroundBlur_403_6349"/>
</filter>
<linearGradient id="paint0_linear_403_6349" x1="270" y1="318" x2="270" y2="474" gradientUnits="userSpaceOnUse">
<stop stop-color="#97D77D"/>
<stop offset="1" stop-color="#F7FFED"/>
</linearGradient>
</defs>
</svg>
