<svg width="195" height="54" viewBox="0 0 195 54" fill="none" xmlns="http://www.w3.org/2000/svg">
<path d="M8.87447 24.0345C7.60164 24.0345 6.56452 24.3409 5.7631 24.9537C4.96169 25.5666 4.56098 26.4269 4.56098 27.5348C4.56098 28.8076 5.09133 29.9508 6.15203 30.9643C6.9063 31.695 7.87271 32.4729 9.05126 33.2979C10.2534 34.0993 11.0784 34.6768 11.5262 35.0303C11.9741 35.3839 12.5162 35.8671 13.1526 36.48C14.3076 37.6349 14.8851 38.9667 14.8851 40.4752C14.8851 42.4316 14.2251 43.9166 12.9051 44.9302C11.6087 45.9201 9.78196 46.4151 7.42486 46.4151C5.09133 46.4151 3.13494 45.8023 1.55568 44.5766L2.40424 43.3391C4.00707 44.4234 5.70418 44.9655 7.49557 44.9655C9.28697 44.9655 10.6777 44.5884 11.6676 43.8341C12.6812 43.0798 13.188 42.0191 13.188 40.652C13.188 39.4735 12.6812 38.3892 11.6676 37.3992C10.9605 36.6921 10.0059 35.926 8.80376 35.1011C7.62521 34.2761 6.80023 33.6868 6.32881 33.3332C5.85739 32.9561 5.30347 32.4611 4.66705 31.8483C3.46493 30.6461 2.86387 29.2555 2.86387 27.6762C2.86387 26.0969 3.41779 24.8595 4.52563 23.9638C5.65703 23.0681 7.21272 22.6202 9.19268 22.6202C11.1726 22.6202 12.9523 23.0091 14.5315 23.787L13.9304 25.0952C12.469 24.388 10.7837 24.0345 8.87447 24.0345ZM37.7378 43.622C36.1821 45.4369 33.8132 46.3444 30.6311 46.3444C27.449 46.3444 25.0802 45.4369 23.5245 43.622C21.9688 41.807 21.191 39.2967 21.191 36.091V23.0445H22.8173V36.091C22.8173 41.9602 25.4219 44.8948 30.6311 44.8948C35.8403 44.8948 38.4449 41.9602 38.4449 36.091V23.0445H40.0713V36.091C40.0713 39.2967 39.2935 41.807 37.7378 43.622ZM52.9665 24.0345C51.6936 24.0345 50.6565 24.3409 49.8551 24.9537C49.0537 25.5666 48.653 26.4269 48.653 27.5348C48.653 28.8076 49.1833 29.9508 50.244 30.9643C50.9983 31.695 51.9647 32.4729 53.1433 33.2979C54.3454 34.0993 55.1704 34.6768 55.6182 35.0303C56.0661 35.3839 56.6082 35.8671 57.2446 36.48C58.3996 37.6349 58.9771 38.9667 58.9771 40.4752C58.9771 42.4316 58.3171 43.9166 56.9971 44.9302C55.7007 45.9201 53.874 46.4151 51.5169 46.4151C49.1833 46.4151 47.2269 45.8023 45.6477 44.5766L46.4962 43.3391C48.0991 44.4234 49.7962 44.9655 51.5876 44.9655C53.379 44.9655 54.7696 44.5884 55.7596 43.8341C56.7732 43.0798 57.28 42.0191 57.28 40.652C57.28 39.4735 56.7732 38.3892 55.7596 37.3992C55.0525 36.6921 54.0979 35.926 52.8958 35.1011C51.7172 34.2761 50.8922 33.6868 50.4208 33.3332C49.9494 32.9561 49.3955 32.4611 48.759 31.8483C47.5569 30.6461 46.9559 29.2555 46.9559 27.6762C46.9559 26.0969 47.5098 24.8595 48.6176 23.9638C49.749 23.0681 51.3047 22.6202 53.2847 22.6202C55.2646 22.6202 57.0442 23.0091 58.6235 23.787L58.0224 25.0952C56.561 24.388 54.8757 24.0345 52.9665 24.0345ZM69.5964 24.4941H61.818V23.0445H78.9659V24.4941H71.1875V45.9908H69.5964V24.4941ZM82.7165 38.0356L79.4283 45.9908H77.7665L87.3835 22.9031H88.3381L98.0258 45.9908H96.2226L92.8991 38.0356H82.7165ZM87.7724 25.5194C87.4189 26.5801 87.1007 27.4641 86.8178 28.1712L83.2822 36.6567H92.3334L88.8331 28.2065C88.291 26.8866 87.9374 25.9909 87.7724 25.5194ZM102.682 45.9908V23.0445H104.308V45.9908H102.682ZM112.798 45.9908V22.9031H113.576L128.638 40.2277C129.18 40.8406 129.675 41.4534 130.123 42.0663C130.594 42.6556 130.842 42.962 130.865 42.9855C130.818 42.4198 130.795 41.312 130.795 39.662V23.0445H132.421V46.1323H131.643L116.298 28.5248L114.354 26.1559C114.401 26.6273 114.425 27.7351 114.425 29.4794V45.9908H112.798ZM140.904 45.9908V23.0445H142.53V45.9908H140.904ZM151.02 45.9908V23.0445H162.794V24.4588H152.647V32.8029H161.91V34.1818H152.647V45.9908H151.02ZM175.513 45.9908H173.922V37.7881L165.26 23.0445H167.205L173.887 34.4293C174.406 35.4664 174.7 36.0203 174.771 36.091C174.912 35.7846 175.207 35.2425 175.655 34.4646L182.337 23.0445H184.176L175.513 37.8589V45.9908Z" fill="#538E3E"/>
<mask id="path-2-outside-1_107_14" maskUnits="userSpaceOnUse" x="0.767822" y="21.2745" width="185" height="26" fill="black">
<rect fill="white" x="0.767822" y="21.2745" width="185" height="26"/>
<path d="M9.08661 23.6888C7.81378 23.6888 6.77665 23.9952 5.97524 24.6081C5.17383 25.2209 4.77312 26.0812 4.77312 27.1891C4.77312 28.4619 5.30347 29.6051 6.36416 30.6187C7.11843 31.3494 8.08484 32.1272 9.26339 32.9522C10.4655 33.7536 11.2905 34.3311 11.7383 34.6847C12.1862 35.0382 12.7283 35.5214 13.3647 36.1343C14.5197 37.2892 15.0972 38.621 15.0972 40.1296C15.0972 42.0859 14.4372 43.5709 13.1172 44.5845C11.8208 45.5744 9.99409 46.0694 7.63699 46.0694C5.30347 46.0694 3.34708 45.4566 1.76782 44.2309L2.61638 42.9934C4.2192 44.0777 5.91631 44.6198 7.70771 44.6198C9.4991 44.6198 10.8898 44.2427 11.8798 43.4884C12.8933 42.7341 13.4001 41.6735 13.4001 40.3063C13.4001 39.1278 12.8933 38.0435 11.8798 37.0535C11.1726 36.3464 10.218 35.5804 9.0159 34.7554C7.83735 33.9304 7.01236 33.3411 6.54094 32.9875C6.06952 32.6104 5.51561 32.1154 4.87919 31.5026C3.67707 30.3005 3.07601 28.9098 3.07601 27.3305C3.07601 25.7513 3.62993 24.5138 4.73776 23.6181C5.86917 22.7224 7.42486 22.2745 9.40482 22.2745C11.3848 22.2745 13.1644 22.6635 14.7436 23.4413L14.1426 24.7495C12.6812 24.0424 10.9959 23.6888 9.08661 23.6888Z"/>
<path d="M37.9499 43.2763C36.3942 45.0912 34.0253 45.9987 30.8433 45.9987C27.6612 45.9987 25.2923 45.0912 23.7366 43.2763C22.1809 41.4613 21.4031 38.951 21.4031 35.7453V22.6988H23.0295V35.7453C23.0295 41.6145 25.6341 44.5491 30.8433 44.5491C36.0524 44.5491 38.657 41.6145 38.657 35.7453V22.6988H40.2834V35.7453C40.2834 38.951 39.5056 41.4613 37.9499 43.2763Z"/>
<path d="M53.1786 23.6888C51.9058 23.6888 50.8686 23.9952 50.0672 24.6081C49.2658 25.2209 48.8651 26.0812 48.8651 27.1891C48.8651 28.4619 49.3955 29.6051 50.4562 30.6187C51.2104 31.3494 52.1768 32.1272 53.3554 32.9522C54.5575 33.7536 55.3825 34.3311 55.8303 34.6847C56.2782 35.0382 56.8203 35.5214 57.4567 36.1343C58.6117 37.2892 59.1892 38.621 59.1892 40.1296C59.1892 42.0859 58.5292 43.5709 57.2092 44.5845C55.9128 45.5744 54.0861 46.0694 51.729 46.0694C49.3955 46.0694 47.4391 45.4566 45.8598 44.2309L46.7084 42.9934C48.3112 44.0777 50.0083 44.6198 51.7997 44.6198C53.5911 44.6198 54.9818 44.2427 55.9718 43.4884C56.9853 42.7341 57.4921 41.6735 57.4921 40.3063C57.4921 39.1278 56.9853 38.0435 55.9718 37.0535C55.2646 36.3464 54.31 35.5804 53.1079 34.7554C51.9293 33.9304 51.1044 33.3411 50.6329 32.9875C50.1615 32.6104 49.6076 32.1154 48.9712 31.5026C47.7691 30.3005 47.168 28.9098 47.168 27.3305C47.168 25.7513 47.7219 24.5138 48.8298 23.6181C49.9612 22.7224 51.5168 22.2745 53.4968 22.2745C55.4768 22.2745 57.2564 22.6635 58.8356 23.4413L58.2346 24.7495C56.7732 24.0424 55.0878 23.6888 53.1786 23.6888Z"/>
<path d="M69.8086 24.1484H62.0301V22.6988H79.178V24.1484H71.3996V45.6452H69.8086V24.1484Z"/>
<path d="M82.9286 37.69L79.6404 45.6452H77.9787L87.5956 22.5574H88.5502L98.2379 45.6452H96.4347L93.1112 37.69H82.9286ZM87.9845 25.1738C87.631 26.2345 87.3128 27.1184 87.0299 27.8255L83.4943 36.3111H92.5455L89.0452 27.8609C88.5031 26.5409 88.1495 25.6452 87.9845 25.1738Z"/>
<path d="M102.894 45.6452V22.6988H104.52V45.6452H102.894Z"/>
<path d="M113.01 45.6452V22.5574H113.788L128.85 39.8821C129.392 40.4949 129.887 41.1077 130.335 41.7206C130.806 42.3099 131.054 42.6163 131.077 42.6399C131.03 42.0742 131.007 40.9663 131.007 39.3164V22.6988H132.633V45.7866H131.855L116.511 28.1791L114.566 25.8102C114.613 26.2816 114.637 27.3894 114.637 29.1337V45.6452H113.01Z"/>
<path d="M141.116 45.6452V22.6988H142.742V45.6452H141.116Z"/>
<path d="M151.233 45.6452V22.6988H163.006V24.1131H152.859V32.4572H162.122V33.8361H152.859V45.6452H151.233Z"/>
<path d="M175.725 45.6452H174.134V37.4425L165.472 22.6988H167.417L174.099 34.0836C174.618 35.1207 174.912 35.6746 174.983 35.7453C175.124 35.4389 175.419 34.8968 175.867 34.119L182.549 22.6988H184.388L175.725 37.5132V45.6452Z"/>
</mask>
<path d="M9.08661 23.6888C7.81378 23.6888 6.77665 23.9952 5.97524 24.6081C5.17383 25.2209 4.77312 26.0812 4.77312 27.1891C4.77312 28.4619 5.30347 29.6051 6.36416 30.6187C7.11843 31.3494 8.08484 32.1272 9.26339 32.9522C10.4655 33.7536 11.2905 34.3311 11.7383 34.6847C12.1862 35.0382 12.7283 35.5214 13.3647 36.1343C14.5197 37.2892 15.0972 38.621 15.0972 40.1296C15.0972 42.0859 14.4372 43.5709 13.1172 44.5845C11.8208 45.5744 9.99409 46.0694 7.63699 46.0694C5.30347 46.0694 3.34708 45.4566 1.76782 44.2309L2.61638 42.9934C4.2192 44.0777 5.91631 44.6198 7.70771 44.6198C9.4991 44.6198 10.8898 44.2427 11.8798 43.4884C12.8933 42.7341 13.4001 41.6735 13.4001 40.3063C13.4001 39.1278 12.8933 38.0435 11.8798 37.0535C11.1726 36.3464 10.218 35.5804 9.0159 34.7554C7.83735 33.9304 7.01236 33.3411 6.54094 32.9875C6.06952 32.6104 5.51561 32.1154 4.87919 31.5026C3.67707 30.3005 3.07601 28.9098 3.07601 27.3305C3.07601 25.7513 3.62993 24.5138 4.73776 23.6181C5.86917 22.7224 7.42486 22.2745 9.40482 22.2745C11.3848 22.2745 13.1644 22.6635 14.7436 23.4413L14.1426 24.7495C12.6812 24.0424 10.9959 23.6888 9.08661 23.6888Z" fill="#538E3E"/>
<path d="M37.9499 43.2763C36.3942 45.0912 34.0253 45.9987 30.8433 45.9987C27.6612 45.9987 25.2923 45.0912 23.7366 43.2763C22.1809 41.4613 21.4031 38.951 21.4031 35.7453V22.6988H23.0295V35.7453C23.0295 41.6145 25.6341 44.5491 30.8433 44.5491C36.0524 44.5491 38.657 41.6145 38.657 35.7453V22.6988H40.2834V35.7453C40.2834 38.951 39.5056 41.4613 37.9499 43.2763Z" fill="#538E3E"/>
<path d="M53.1786 23.6888C51.9058 23.6888 50.8686 23.9952 50.0672 24.6081C49.2658 25.2209 48.8651 26.0812 48.8651 27.1891C48.8651 28.4619 49.3955 29.6051 50.4562 30.6187C51.2104 31.3494 52.1768 32.1272 53.3554 32.9522C54.5575 33.7536 55.3825 34.3311 55.8303 34.6847C56.2782 35.0382 56.8203 35.5214 57.4567 36.1343C58.6117 37.2892 59.1892 38.621 59.1892 40.1296C59.1892 42.0859 58.5292 43.5709 57.2092 44.5845C55.9128 45.5744 54.0861 46.0694 51.729 46.0694C49.3955 46.0694 47.4391 45.4566 45.8598 44.2309L46.7084 42.9934C48.3112 44.0777 50.0083 44.6198 51.7997 44.6198C53.5911 44.6198 54.9818 44.2427 55.9718 43.4884C56.9853 42.7341 57.4921 41.6735 57.4921 40.3063C57.4921 39.1278 56.9853 38.0435 55.9718 37.0535C55.2646 36.3464 54.31 35.5804 53.1079 34.7554C51.9293 33.9304 51.1044 33.3411 50.6329 32.9875C50.1615 32.6104 49.6076 32.1154 48.9712 31.5026C47.7691 30.3005 47.168 28.9098 47.168 27.3305C47.168 25.7513 47.7219 24.5138 48.8298 23.6181C49.9612 22.7224 51.5168 22.2745 53.4968 22.2745C55.4768 22.2745 57.2564 22.6635 58.8356 23.4413L58.2346 24.7495C56.7732 24.0424 55.0878 23.6888 53.1786 23.6888Z" fill="#538E3E"/>
<path d="M69.8086 24.1484H62.0301V22.6988H79.178V24.1484H71.3996V45.6452H69.8086V24.1484Z" fill="#538E3E"/>
<path d="M82.9286 37.69L79.6404 45.6452H77.9787L87.5956 22.5574H88.5502L98.2379 45.6452H96.4347L93.1112 37.69H82.9286ZM87.9845 25.1738C87.631 26.2345 87.3128 27.1184 87.0299 27.8255L83.4943 36.3111H92.5455L89.0452 27.8609C88.5031 26.5409 88.1495 25.6452 87.9845 25.1738Z" fill="#538E3E"/>
<path d="M102.894 45.6452V22.6988H104.52V45.6452H102.894Z" fill="#538E3E"/>
<path d="M113.01 45.6452V22.5574H113.788L128.85 39.8821C129.392 40.4949 129.887 41.1077 130.335 41.7206C130.806 42.3099 131.054 42.6163 131.077 42.6399C131.03 42.0742 131.007 40.9663 131.007 39.3164V22.6988H132.633V45.7866H131.855L116.511 28.1791L114.566 25.8102C114.613 26.2816 114.637 27.3894 114.637 29.1337V45.6452H113.01Z" fill="#538E3E"/>
<path d="M141.116 45.6452V22.6988H142.742V45.6452H141.116Z" fill="#538E3E"/>
<path d="M151.233 45.6452V22.6988H163.006V24.1131H152.859V32.4572H162.122V33.8361H152.859V45.6452H151.233Z" fill="#538E3E"/>
<path d="M175.725 45.6452H174.134V37.4425L165.472 22.6988H167.417L174.099 34.0836C174.618 35.1207 174.912 35.6746 174.983 35.7453C175.124 35.4389 175.419 34.8968 175.867 34.119L182.549 22.6988H184.388L175.725 37.5132V45.6452Z" fill="#538E3E"/>
<path d="M9.08661 23.6888C7.81378 23.6888 6.77665 23.9952 5.97524 24.6081C5.17383 25.2209 4.77312 26.0812 4.77312 27.1891C4.77312 28.4619 5.30347 29.6051 6.36416 30.6187C7.11843 31.3494 8.08484 32.1272 9.26339 32.9522C10.4655 33.7536 11.2905 34.3311 11.7383 34.6847C12.1862 35.0382 12.7283 35.5214 13.3647 36.1343C14.5197 37.2892 15.0972 38.621 15.0972 40.1296C15.0972 42.0859 14.4372 43.5709 13.1172 44.5845C11.8208 45.5744 9.99409 46.0694 7.63699 46.0694C5.30347 46.0694 3.34708 45.4566 1.76782 44.2309L2.61638 42.9934C4.2192 44.0777 5.91631 44.6198 7.70771 44.6198C9.4991 44.6198 10.8898 44.2427 11.8798 43.4884C12.8933 42.7341 13.4001 41.6735 13.4001 40.3063C13.4001 39.1278 12.8933 38.0435 11.8798 37.0535C11.1726 36.3464 10.218 35.5804 9.0159 34.7554C7.83735 33.9304 7.01236 33.3411 6.54094 32.9875C6.06952 32.6104 5.51561 32.1154 4.87919 31.5026C3.67707 30.3005 3.07601 28.9098 3.07601 27.3305C3.07601 25.7513 3.62993 24.5138 4.73776 23.6181C5.86917 22.7224 7.42486 22.2745 9.40482 22.2745C11.3848 22.2745 13.1644 22.6635 14.7436 23.4413L14.1426 24.7495C12.6812 24.0424 10.9959 23.6888 9.08661 23.6888Z" stroke="#538E3E" stroke-width="0.707129" mask="url(#path-2-outside-1_107_14)"/>
<path d="M37.9499 43.2763C36.3942 45.0912 34.0253 45.9987 30.8433 45.9987C27.6612 45.9987 25.2923 45.0912 23.7366 43.2763C22.1809 41.4613 21.4031 38.951 21.4031 35.7453V22.6988H23.0295V35.7453C23.0295 41.6145 25.6341 44.5491 30.8433 44.5491C36.0524 44.5491 38.657 41.6145 38.657 35.7453V22.6988H40.2834V35.7453C40.2834 38.951 39.5056 41.4613 37.9499 43.2763Z" stroke="#538E3E" stroke-width="0.707129" mask="url(#path-2-outside-1_107_14)"/>
<path d="M53.1786 23.6888C51.9058 23.6888 50.8686 23.9952 50.0672 24.6081C49.2658 25.2209 48.8651 26.0812 48.8651 27.1891C48.8651 28.4619 49.3955 29.6051 50.4562 30.6187C51.2104 31.3494 52.1768 32.1272 53.3554 32.9522C54.5575 33.7536 55.3825 34.3311 55.8303 34.6847C56.2782 35.0382 56.8203 35.5214 57.4567 36.1343C58.6117 37.2892 59.1892 38.621 59.1892 40.1296C59.1892 42.0859 58.5292 43.5709 57.2092 44.5845C55.9128 45.5744 54.0861 46.0694 51.729 46.0694C49.3955 46.0694 47.4391 45.4566 45.8598 44.2309L46.7084 42.9934C48.3112 44.0777 50.0083 44.6198 51.7997 44.6198C53.5911 44.6198 54.9818 44.2427 55.9718 43.4884C56.9853 42.7341 57.4921 41.6735 57.4921 40.3063C57.4921 39.1278 56.9853 38.0435 55.9718 37.0535C55.2646 36.3464 54.31 35.5804 53.1079 34.7554C51.9293 33.9304 51.1044 33.3411 50.6329 32.9875C50.1615 32.6104 49.6076 32.1154 48.9712 31.5026C47.7691 30.3005 47.168 28.9098 47.168 27.3305C47.168 25.7513 47.7219 24.5138 48.8298 23.6181C49.9612 22.7224 51.5168 22.2745 53.4968 22.2745C55.4768 22.2745 57.2564 22.6635 58.8356 23.4413L58.2346 24.7495C56.7732 24.0424 55.0878 23.6888 53.1786 23.6888Z" stroke="#538E3E" stroke-width="0.707129" mask="url(#path-2-outside-1_107_14)"/>
<path d="M69.8086 24.1484H62.0301V22.6988H79.178V24.1484H71.3996V45.6452H69.8086V24.1484Z" stroke="#538E3E" stroke-width="0.707129" mask="url(#path-2-outside-1_107_14)"/>
<path d="M82.9286 37.69L79.6404 45.6452H77.9787L87.5956 22.5574H88.5502L98.2379 45.6452H96.4347L93.1112 37.69H82.9286ZM87.9845 25.1738C87.631 26.2345 87.3128 27.1184 87.0299 27.8255L83.4943 36.3111H92.5455L89.0452 27.8609C88.5031 26.5409 88.1495 25.6452 87.9845 25.1738Z" stroke="#538E3E" stroke-width="0.707129" mask="url(#path-2-outside-1_107_14)"/>
<path d="M102.894 45.6452V22.6988H104.52V45.6452H102.894Z" stroke="#538E3E" stroke-width="0.707129" mask="url(#path-2-outside-1_107_14)"/>
<path d="M113.01 45.6452V22.5574H113.788L128.85 39.8821C129.392 40.4949 129.887 41.1077 130.335 41.7206C130.806 42.3099 131.054 42.6163 131.077 42.6399C131.03 42.0742 131.007 40.9663 131.007 39.3164V22.6988H132.633V45.7866H131.855L116.511 28.1791L114.566 25.8102C114.613 26.2816 114.637 27.3894 114.637 29.1337V45.6452H113.01Z" stroke="#538E3E" stroke-width="0.707129" mask="url(#path-2-outside-1_107_14)"/>
<path d="M141.116 45.6452V22.6988H142.742V45.6452H141.116Z" stroke="#538E3E" stroke-width="0.707129" mask="url(#path-2-outside-1_107_14)"/>
<path d="M151.233 45.6452V22.6988H163.006V24.1131H152.859V32.4572H162.122V33.8361H152.859V45.6452H151.233Z" stroke="#538E3E" stroke-width="0.707129" mask="url(#path-2-outside-1_107_14)"/>
<path d="M175.725 45.6452H174.134V37.4425L165.472 22.6988H167.417L174.099 34.0836C174.618 35.1207 174.912 35.6746 174.983 35.7453C175.124 35.4389 175.419 34.8968 175.867 34.119L182.549 22.6988H184.388L175.725 37.5132V45.6452Z" stroke="#538E3E" stroke-width="0.707129" mask="url(#path-2-outside-1_107_14)"/>
<path d="M192.578 0.0182728C195.437 14.6621 192.97 22.0697 177.313 31.0781C181.909 22.0622 186.835 16.6784 191.463 5.70073C182.933 20.219 181.359 19.0986 176.411 29.19C168.918 15.7514 190.348 9.45936 192.578 0.0182728Z" fill="url(#paint0_linear_107_14)"/>
<defs>
<linearGradient id="paint0_linear_107_14" x1="183.872" y1="0.206451" x2="184.536" y2="30.922" gradientUnits="userSpaceOnUse">
<stop stop-color="#9DC955"/>
<stop offset="0.765625" stop-color="#538E3E"/>
</linearGradient>
</defs>
</svg>
