<svg width="520" height="191" viewBox="0 0 520 191" fill="none" xmlns="http://www.w3.org/2000/svg">
<path d="M37.2027 17.85C36.0627 16.41 34.5027 15.36 32.5227 14.7C30.6027 13.98 28.7727 13.62 27.0327 13.62C26.0127 13.62 24.9627 13.74 23.8827 13.98C22.8027 14.22 21.7827 14.61 20.8227 15.15C19.8627 15.63 19.0827 16.29 18.4827 17.13C17.8827 17.97 17.5827 18.99 17.5827 20.19C17.5827 22.11 18.3027 23.58 19.7427 24.6C21.1827 25.62 22.9827 26.49 25.1427 27.21C27.3627 27.93 29.7327 28.65 32.2527 29.37C34.7727 30.09 37.1127 31.11 39.2727 32.43C41.4927 33.75 43.3227 35.52 44.7627 37.74C46.2027 39.96 46.9227 42.93 46.9227 46.65C46.9227 50.19 46.2627 53.28 44.9427 55.92C43.6227 58.56 41.8227 60.75 39.5427 62.49C37.3227 64.23 34.7127 65.52 31.7127 66.36C28.7727 67.2 25.6527 67.62 22.3527 67.62C18.2127 67.62 14.3727 66.99 10.8327 65.73C7.29266 64.47 3.99266 62.43 0.932656 59.61L10.9227 48.63C12.3627 50.55 14.1627 52.05 16.3227 53.13C18.5427 54.15 20.8227 54.66 23.1627 54.66C24.3027 54.66 25.4427 54.54 26.5827 54.3C27.7827 54 28.8327 53.58 29.7327 53.04C30.6927 52.5 31.4427 51.81 31.9827 50.97C32.5827 50.13 32.8827 49.14 32.8827 48C32.8827 46.08 32.1327 44.58 30.6327 43.5C29.1927 42.36 27.3627 41.4 25.1427 40.62C22.9227 39.84 20.5227 39.06 17.9427 38.28C15.3627 37.5 12.9627 36.45 10.7427 35.13C8.52266 33.81 6.66266 32.07 5.16266 29.91C3.72266 27.75 3.00266 24.9 3.00266 21.36C3.00266 17.94 3.66266 14.94 4.98266 12.36C6.36266 9.78 8.16266 7.62 10.3827 5.88C12.6627 4.14 15.2727 2.85 18.2127 2.01C21.1527 1.11 24.1827 0.659999 27.3027 0.659999C30.9027 0.659999 34.3827 1.17 37.7427 2.19C41.1027 3.21 44.1327 4.92 46.8327 7.32L37.2027 17.85ZM111.112 41.43C111.112 45.21 110.542 48.69 109.402 51.87C108.262 55.05 106.552 57.81 104.272 60.15C102.052 62.49 99.2623 64.32 95.9023 65.64C92.5423 66.96 88.6723 67.62 84.2923 67.62C79.8523 67.62 75.9523 66.96 72.5923 65.64C69.2323 64.32 66.4123 62.49 64.1323 60.15C61.9123 57.81 60.2323 55.05 59.0923 51.87C57.9523 48.69 57.3823 45.21 57.3823 41.43V2.28H71.4223V40.89C71.4223 42.87 71.7223 44.7 72.3223 46.38C72.9823 48.06 73.8823 49.53 75.0223 50.79C76.1623 51.99 77.5123 52.95 79.0723 53.67C80.6923 54.33 82.4323 54.66 84.2923 54.66C86.1523 54.66 87.8623 54.33 89.4223 53.67C90.9823 52.95 92.3323 51.99 93.4723 50.79C94.6123 49.53 95.4823 48.06 96.0823 46.38C96.7423 44.7 97.0723 42.87 97.0723 40.89V2.28H111.112V41.43ZM155.591 17.85C154.451 16.41 152.891 15.36 150.911 14.7C148.991 13.98 147.161 13.62 145.421 13.62C144.401 13.62 143.351 13.74 142.271 13.98C141.191 14.22 140.171 14.61 139.211 15.15C138.251 15.63 137.471 16.29 136.871 17.13C136.271 17.97 135.971 18.99 135.971 20.19C135.971 22.11 136.691 23.58 138.131 24.6C139.571 25.62 141.371 26.49 143.531 27.21C145.751 27.93 148.121 28.65 150.641 29.37C153.161 30.09 155.501 31.11 157.661 32.43C159.881 33.75 161.711 35.52 163.151 37.74C164.591 39.96 165.311 42.93 165.311 46.65C165.311 50.19 164.651 53.28 163.331 55.92C162.011 58.56 160.211 60.75 157.931 62.49C155.711 64.23 153.101 65.52 150.101 66.36C147.161 67.2 144.041 67.62 140.741 67.62C136.601 67.62 132.761 66.99 129.221 65.73C125.681 64.47 122.381 62.43 119.321 59.61L129.311 48.63C130.751 50.55 132.551 52.05 134.711 53.13C136.931 54.15 139.211 54.66 141.551 54.66C142.691 54.66 143.831 54.54 144.971 54.3C146.171 54 147.221 53.58 148.121 53.04C149.081 52.5 149.831 51.81 150.371 50.97C150.971 50.13 151.271 49.14 151.271 48C151.271 46.08 150.521 44.58 149.021 43.5C147.581 42.36 145.751 41.4 143.531 40.62C141.311 39.84 138.911 39.06 136.331 38.28C133.751 37.5 131.351 36.45 129.131 35.13C126.911 33.81 125.051 32.07 123.551 29.91C122.111 27.75 121.391 24.9 121.391 21.36C121.391 17.94 122.051 14.94 123.371 12.36C124.751 9.78 126.551 7.62 128.771 5.88C131.051 4.14 133.661 2.85 136.601 2.01C139.541 1.11 142.571 0.659999 145.691 0.659999C149.291 0.659999 152.771 1.17 156.131 2.19C159.491 3.21 162.521 4.92 165.221 7.32L155.591 17.85ZM188.101 14.7H169.921V2.28H220.321V14.7H202.141V66H188.101V14.7ZM240.159 2.28H251.769L279.489 66H263.649L258.159 52.5H233.409L228.099 66H212.619L240.159 2.28ZM245.559 20.82L237.819 40.62H253.389L245.559 20.82ZM285.718 2.28H299.758V66H285.718V2.28ZM312.529 2.28H331.609L358.699 46.56H358.879V2.28H372.919V66H354.559L326.749 20.64H326.569V66H312.529V2.28Z" fill="#538E3E"/>
<path d="M385.738 2.28H399.778V66H385.738V2.28ZM413.088 2.28H455.838V15.24H427.128V28.2H453.678V41.16H427.128V66H413.088V2.28ZM481.558 38.82L457.618 2.28H475.078L488.578 26.13L502.888 2.28H519.538L495.598 38.82V66H481.558V38.82ZM32.349 161.82L8.40898 125.28H25.869L39.369 149.13L53.679 125.28H70.329L46.389 161.82V189H32.349V161.82ZM71.6284 157.14C71.6284 152.04 72.4684 147.42 74.1484 143.28C75.8884 139.14 78.2884 135.63 81.3484 132.75C84.4084 129.81 88.0384 127.56 92.2384 126C96.4384 124.44 101.028 123.66 106.008 123.66C110.988 123.66 115.578 124.44 119.778 126C123.978 127.56 127.608 129.81 130.668 132.75C133.728 135.63 136.098 139.14 137.778 143.28C139.518 147.42 140.388 152.04 140.388 157.14C140.388 162.24 139.518 166.86 137.778 171C136.098 175.14 133.728 178.68 130.668 181.62C127.608 184.5 123.978 186.72 119.778 188.28C115.578 189.84 110.988 190.62 106.008 190.62C101.028 190.62 96.4384 189.84 92.2384 188.28C88.0384 186.72 84.4084 184.5 81.3484 181.62C78.2884 178.68 75.8884 175.14 74.1484 171C72.4684 166.86 71.6284 162.24 71.6284 157.14ZM86.2084 157.14C86.2084 160.14 86.6584 162.9 87.5584 165.42C88.5184 167.88 89.8684 170.04 91.6084 171.9C93.3484 173.7 95.4184 175.11 97.8184 176.13C100.278 177.15 103.008 177.66 106.008 177.66C109.008 177.66 111.708 177.15 114.108 176.13C116.568 175.11 118.668 173.7 120.408 171.9C122.148 170.04 123.468 167.88 124.368 165.42C125.328 162.9 125.808 160.14 125.808 157.14C125.808 154.2 125.328 151.47 124.368 148.95C123.468 146.43 122.148 144.27 120.408 142.47C118.668 140.61 116.568 139.17 114.108 138.15C111.708 137.13 109.008 136.62 106.008 136.62C103.008 136.62 100.278 137.13 97.8184 138.15C95.4184 139.17 93.3484 140.61 91.6084 142.47C89.8684 144.27 88.5184 146.43 87.5584 148.95C86.6584 151.47 86.2084 154.2 86.2084 157.14ZM203.661 164.43C203.661 168.21 203.091 171.69 201.951 174.87C200.811 178.05 199.101 180.81 196.821 183.15C194.601 185.49 191.811 187.32 188.451 188.64C185.091 189.96 181.221 190.62 176.841 190.62C172.401 190.62 168.501 189.96 165.141 188.64C161.781 187.32 158.961 185.49 156.681 183.15C154.461 180.81 152.781 178.05 151.641 174.87C150.501 171.69 149.931 168.21 149.931 164.43V125.28H163.971V163.89C163.971 165.87 164.271 167.7 164.871 169.38C165.531 171.06 166.431 172.53 167.571 173.79C168.711 174.99 170.061 175.95 171.621 176.67C173.241 177.33 174.981 177.66 176.841 177.66C178.701 177.66 180.411 177.33 181.971 176.67C183.531 175.95 184.881 174.99 186.021 173.79C187.161 172.53 188.031 171.06 188.631 169.38C189.291 167.7 189.621 165.87 189.621 163.89V125.28H203.661V164.43ZM216.64 125.28H241.3C244.54 125.28 247.6 125.61 250.48 126.27C253.42 126.87 255.97 127.92 258.13 129.42C260.35 130.86 262.09 132.84 263.35 135.36C264.67 137.82 265.33 140.91 265.33 144.63C265.33 149.13 264.16 152.97 261.82 156.15C259.48 159.27 256.06 161.25 251.56 162.09L267.76 189H250.93L237.61 163.53H230.68V189H216.64V125.28ZM230.68 151.65H238.96C240.22 151.65 241.54 151.62 242.92 151.56C244.36 151.44 245.65 151.17 246.79 150.75C247.93 150.27 248.86 149.55 249.58 148.59C250.36 147.63 250.75 146.28 250.75 144.54C250.75 142.92 250.42 141.63 249.76 140.67C249.1 139.71 248.26 138.99 247.24 138.51C246.22 137.97 245.05 137.61 243.73 137.43C242.41 137.25 241.12 137.16 239.86 137.16H230.68V151.65ZM302.17 125.28H316.21V176.04H342.22V189H302.17V125.28ZM349.79 125.28H363.83V189H349.79V125.28ZM377.141 125.28H419.891V138.24H391.181V151.2H417.731V164.16H391.181V189H377.141V125.28ZM430.491 125.28H473.781V138.24H444.531V150.12H472.161V163.08H444.531V176.04H475.401V189H430.491V125.28ZM485.2 181.26C485.2 180.12 485.41 179.04 485.83 178.02C486.25 177 486.82 176.13 487.54 175.41C488.32 174.63 489.22 174.03 490.24 173.61C491.26 173.19 492.34 172.98 493.48 172.98C494.62 172.98 495.7 173.19 496.72 173.61C497.74 174.03 498.61 174.63 499.33 175.41C500.11 176.13 500.71 177 501.13 178.02C501.55 179.04 501.76 180.12 501.76 181.26C501.76 182.4 501.55 183.48 501.13 184.5C500.71 185.52 500.11 186.42 499.33 187.2C498.61 187.92 497.74 188.49 496.72 188.91C495.7 189.33 494.62 189.54 493.48 189.54C492.34 189.54 491.26 189.33 490.24 188.91C489.22 188.49 488.32 187.92 487.54 187.2C486.82 186.42 486.25 185.52 485.83 184.5C485.41 183.48 485.2 182.4 485.2 181.26Z" fill="#195C44"/>
</svg>
