<svg width="150" height="51" viewBox="0 0 150 51" fill="none" xmlns="http://www.w3.org/2000/svg">
<mask id="path-1-inside-1_78_1376" fill="white">
<path d="M0 10C0 4.47715 4.47715 0 10 0H140C145.523 0 150 4.47715 150 10V51H0V10Z"/>
</mask>
<path d="M0 10C0 4.47715 4.47715 0 10 0H140C145.523 0 150 4.47715 150 10V51H0V10Z" fill="#CCFFB4"/>
<path d="M40.0646 19.172H41.3286L46.1446 30.5H44.5766L43.4246 27.716H37.7606L36.5926 30.5H35.0726L40.0646 19.172ZM40.6726 20.9H40.6406L38.2886 26.468H42.9126L40.6726 20.9ZM55.5862 21.508C55.2449 21.0493 54.8235 20.708 54.3222 20.484C53.8209 20.2493 53.2982 20.132 52.7542 20.132C52.1249 20.132 51.5435 20.26 51.0102 20.516C50.4875 20.772 50.0342 21.1187 49.6502 21.556C49.2662 21.9827 48.9675 22.484 48.7542 23.06C48.5409 23.6253 48.4342 24.2173 48.4342 24.836C48.4342 25.4973 48.5409 26.116 48.7542 26.692C48.9675 27.2573 49.2609 27.7533 49.6342 28.18C50.0182 28.596 50.4715 28.9267 50.9942 29.172C51.5275 29.4173 52.1142 29.54 52.7542 29.54C53.4475 29.54 54.0662 29.4067 54.6102 29.14C55.1542 28.8627 55.6289 28.468 56.0342 27.956L57.0422 28.804C56.5302 29.4867 55.9115 29.988 55.1862 30.308C54.4715 30.628 53.6609 30.788 52.7542 30.788C51.9435 30.788 51.1862 30.6387 50.4822 30.34C49.7782 30.0413 49.1649 29.6307 48.6422 29.108C48.1302 28.5747 47.7249 27.9453 47.4262 27.22C47.1382 26.4947 46.9942 25.7 46.9942 24.836C46.9942 24.004 47.1329 23.2253 47.4102 22.5C47.6982 21.7747 48.0982 21.1453 48.6102 20.612C49.1222 20.0787 49.7302 19.6573 50.4342 19.348C51.1382 19.0387 51.9115 18.884 52.7542 18.884C53.5222 18.884 54.2582 19.0227 54.9622 19.3C55.6769 19.5773 56.2742 20.0307 56.7542 20.66L55.5862 21.508ZM66.8518 21.508C66.5105 21.0493 66.0891 20.708 65.5878 20.484C65.0865 20.2493 64.5638 20.132 64.0198 20.132C63.3905 20.132 62.8091 20.26 62.2758 20.516C61.7531 20.772 61.2998 21.1187 60.9158 21.556C60.5318 21.9827 60.2331 22.484 60.0198 23.06C59.8065 23.6253 59.6998 24.2173 59.6998 24.836C59.6998 25.4973 59.8065 26.116 60.0198 26.692C60.2331 27.2573 60.5265 27.7533 60.8998 28.18C61.2838 28.596 61.7371 28.9267 62.2598 29.172C62.7931 29.4173 63.3798 29.54 64.0198 29.54C64.7131 29.54 65.3318 29.4067 65.8758 29.14C66.4198 28.8627 66.8945 28.468 67.2998 27.956L68.3078 28.804C67.7958 29.4867 67.1771 29.988 66.4518 30.308C65.7371 30.628 64.9265 30.788 64.0198 30.788C63.2091 30.788 62.4518 30.6387 61.7478 30.34C61.0438 30.0413 60.4305 29.6307 59.9078 29.108C59.3958 28.5747 58.9905 27.9453 58.6918 27.22C58.4038 26.4947 58.2598 25.7 58.2598 24.836C58.2598 24.004 58.3985 23.2253 58.6758 22.5C58.9638 21.7747 59.3638 21.1453 59.8758 20.612C60.3878 20.0787 60.9958 19.6573 61.6998 19.348C62.4038 19.0387 63.1771 18.884 64.0198 18.884C64.7878 18.884 65.5238 19.0227 66.2278 19.3C66.9425 19.5773 67.5398 20.0307 68.0198 20.66L66.8518 21.508ZM75.4454 30.788C74.5814 30.788 73.7868 30.6387 73.0614 30.34C72.3468 30.0413 71.7228 29.6307 71.1894 29.108C70.6668 28.5747 70.2561 27.9453 69.9574 27.22C69.6694 26.484 69.5254 25.6893 69.5254 24.836C69.5254 23.9827 69.6694 23.1933 69.9574 22.468C70.2561 21.732 70.6668 21.1027 71.1894 20.58C71.7228 20.0467 72.3468 19.6307 73.0614 19.332C73.7868 19.0333 74.5814 18.884 75.4454 18.884C76.3094 18.884 77.0988 19.0333 77.8134 19.332C78.5388 19.6307 79.1628 20.0467 79.6854 20.58C80.2188 21.1027 80.6294 21.732 80.9174 22.468C81.2161 23.1933 81.3654 23.9827 81.3654 24.836C81.3654 25.6893 81.2161 26.484 80.9174 27.22C80.6294 27.9453 80.2188 28.5747 79.6854 29.108C79.1628 29.6307 78.5388 30.0413 77.8134 30.34C77.0988 30.6387 76.3094 30.788 75.4454 30.788ZM75.4454 29.54C76.1068 29.54 76.7094 29.4173 77.2534 29.172C77.8081 28.9267 78.2828 28.5907 78.6774 28.164C79.0721 27.7373 79.3761 27.2413 79.5894 26.676C79.8134 26.1 79.9254 25.4867 79.9254 24.836C79.9254 24.1853 79.8134 23.5773 79.5894 23.012C79.3761 22.436 79.0721 21.9347 78.6774 21.508C78.2828 21.0813 77.8081 20.7453 77.2534 20.5C76.7094 20.2547 76.1068 20.132 75.4454 20.132C74.7841 20.132 74.1761 20.2547 73.6214 20.5C73.0774 20.7453 72.6081 21.0813 72.2134 21.508C71.8188 21.9347 71.5094 22.436 71.2854 23.012C71.0721 23.5773 70.9654 24.1853 70.9654 24.836C70.9654 25.4867 71.0721 26.1 71.2854 26.676C71.5094 27.2413 71.8188 27.7373 72.2134 28.164C72.6081 28.5907 73.0774 28.9267 73.6214 29.172C74.1761 29.4173 74.7841 29.54 75.4454 29.54ZM92.0212 26.18C92.0212 26.7987 91.9412 27.3853 91.7812 27.94C91.6319 28.4947 91.3865 28.9853 91.0452 29.412C90.7145 29.828 90.2772 30.164 89.7332 30.42C89.1892 30.6653 88.5279 30.788 87.7492 30.788C86.9705 30.788 86.3092 30.6653 85.7652 30.42C85.2212 30.164 84.7785 29.828 84.4372 29.412C84.1065 28.9853 83.8612 28.4947 83.7012 27.94C83.5519 27.3853 83.4772 26.7987 83.4772 26.18V19.172H84.8212V25.988C84.8212 26.4467 84.8692 26.8893 84.9652 27.316C85.0612 27.7427 85.2212 28.1213 85.4452 28.452C85.6692 28.7827 85.9679 29.0493 86.3412 29.252C86.7145 29.444 87.1839 29.54 87.7492 29.54C88.3145 29.54 88.7839 29.444 89.1572 29.252C89.5305 29.0493 89.8292 28.7827 90.0532 28.452C90.2772 28.1213 90.4372 27.7427 90.5332 27.316C90.6292 26.8893 90.6772 26.4467 90.6772 25.988V19.172H92.0212V26.18ZM94.7908 19.172H96.4868L103.047 28.58H103.079V19.172H104.423V30.5H102.727L96.1668 21.092H96.1348V30.5H94.7908V19.172ZM114.844 20.42H111.1V30.5H109.756V20.42H106.012V19.172H114.844V20.42Z" fill="black"/>
<path d="M0 0H150H0ZM150 53H0V49H150V53ZM0 51V0V51ZM150 0V51V0Z" fill="#FDFDF6" mask="url(#path-1-inside-1_78_1376)"/>
</svg>
