<svg width="594" height="528" viewBox="0 0 594 528" fill="none" xmlns="http://www.w3.org/2000/svg">
<g filter="url(#filter0_d_389_5923)">
<rect width="586" height="520" rx="10" fill="white" shape-rendering="crispEdges"/>
<path d="M39.112 44.8C38.008 45.376 36.856 45.792 35.656 46.048C34.456 46.304 33.232 46.432 31.984 46.432C30.656 46.432 29.432 46.224 28.312 45.808C27.192 45.392 26.224 44.8 25.408 44.032C24.592 43.248 23.952 42.304 23.488 41.2C23.04 40.096 22.816 38.864 22.816 37.504C22.816 36.144 23.04 34.912 23.488 33.808C23.952 32.704 24.592 31.768 25.408 31C26.224 30.216 27.192 29.616 28.312 29.2C29.432 28.784 30.656 28.576 31.984 28.576C33.344 28.576 34.592 28.744 35.728 29.08C36.88 29.4 37.888 29.96 38.752 30.76L36.112 33.64C35.6 33.112 35.024 32.712 34.384 32.44C33.744 32.168 32.944 32.032 31.984 32.032C31.184 32.032 30.456 32.168 29.8 32.44C29.16 32.712 28.608 33.096 28.144 33.592C27.68 34.072 27.32 34.648 27.064 35.32C26.824 35.992 26.704 36.72 26.704 37.504C26.704 38.304 26.824 39.04 27.064 39.712C27.32 40.368 27.68 40.944 28.144 41.44C28.608 41.92 29.16 42.296 29.8 42.568C30.456 42.84 31.184 42.976 31.984 42.976C32.8 42.976 33.504 42.888 34.096 42.712C34.688 42.52 35.16 42.328 35.512 42.136V39.376H32.464V35.92H39.112V44.8ZM52.9917 43.984C52.4157 44.72 51.6877 45.288 50.8077 45.688C49.9277 46.088 49.0157 46.288 48.0717 46.288C47.1757 46.288 46.3277 46.144 45.5277 45.856C44.7437 45.568 44.0557 45.16 43.4637 44.632C42.8877 44.088 42.4317 43.44 42.0957 42.688C41.7597 41.936 41.5917 41.096 41.5917 40.168C41.5917 39.24 41.7597 38.4 42.0957 37.648C42.4317 36.896 42.8877 36.256 43.4637 35.728C44.0557 35.184 44.7437 34.768 45.5277 34.48C46.3277 34.192 47.1757 34.048 48.0717 34.048C48.9037 34.048 49.6557 34.192 50.3277 34.48C51.0157 34.768 51.5917 35.184 52.0557 35.728C52.5357 36.256 52.9037 36.896 53.1597 37.648C53.4157 38.4 53.5437 39.24 53.5437 40.168V41.296H45.1917C45.3357 41.984 45.6477 42.536 46.1277 42.952C46.6077 43.352 47.1997 43.552 47.9037 43.552C48.4957 43.552 48.9917 43.424 49.3917 43.168C49.8077 42.896 50.1677 42.552 50.4717 42.136L52.9917 43.984ZM49.9437 38.848C49.9597 38.24 49.7597 37.72 49.3437 37.288C48.9277 36.856 48.3917 36.64 47.7357 36.64C47.3357 36.64 46.9837 36.704 46.6797 36.832C46.3757 36.96 46.1117 37.128 45.8877 37.336C45.6797 37.528 45.5117 37.76 45.3837 38.032C45.2717 38.288 45.2077 38.56 45.1917 38.848H49.9437ZM63.6769 37.216H60.5089V41.104C60.5089 41.424 60.5249 41.72 60.5569 41.992C60.5889 42.248 60.6609 42.472 60.7729 42.664C60.8849 42.856 61.0529 43.008 61.2769 43.12C61.5169 43.216 61.8289 43.264 62.2129 43.264C62.4049 43.264 62.6529 43.248 62.9569 43.216C63.2769 43.168 63.5169 43.072 63.6769 42.928V45.928C63.2769 46.072 62.8609 46.168 62.4289 46.216C61.9969 46.264 61.5729 46.288 61.1569 46.288C60.5489 46.288 59.9889 46.224 59.4769 46.096C58.9649 45.968 58.5169 45.768 58.1329 45.496C57.7489 45.208 57.4449 44.84 57.2209 44.392C57.0129 43.944 56.9089 43.4 56.9089 42.76V37.216H54.6049V34.336H56.9089V30.88H60.5089V34.336H63.6769V37.216ZM79.2079 37.768C78.6799 37.112 77.9839 36.784 77.1199 36.784C76.8159 36.784 76.5199 36.856 76.2319 37C75.9439 37.144 75.7999 37.392 75.7999 37.744C75.7999 38.032 75.9439 38.248 76.2319 38.392C76.5359 38.52 76.9119 38.64 77.3599 38.752C77.8239 38.848 78.3119 38.96 78.8239 39.088C79.3519 39.2 79.8399 39.384 80.2879 39.64C80.7519 39.896 81.1279 40.248 81.4159 40.696C81.7199 41.128 81.8719 41.712 81.8719 42.448C81.8719 43.2 81.7039 43.824 81.3679 44.32C81.0479 44.8 80.6319 45.192 80.1199 45.496C79.6079 45.784 79.0319 45.984 78.3919 46.096C77.7519 46.224 77.1199 46.288 76.4959 46.288C75.6799 46.288 74.8559 46.176 74.0239 45.952C73.1919 45.712 72.4879 45.296 71.9119 44.704L74.0959 42.28C74.4319 42.696 74.7999 43.016 75.1999 43.24C75.6159 43.448 76.0959 43.552 76.6399 43.552C77.0559 43.552 77.4319 43.496 77.7679 43.384C78.1039 43.256 78.2719 43.032 78.2719 42.712C78.2719 42.408 78.1199 42.184 77.8159 42.04C77.5279 41.88 77.1519 41.752 76.6879 41.656C76.2399 41.544 75.7519 41.432 75.2239 41.32C74.7119 41.192 74.2239 41.008 73.7599 40.768C73.3119 40.528 72.9359 40.192 72.6319 39.76C72.3439 39.312 72.1999 38.72 72.1999 37.984C72.1999 37.296 72.3359 36.704 72.6079 36.208C72.8959 35.712 73.2639 35.304 73.7119 34.984C74.1759 34.664 74.7039 34.432 75.2959 34.288C75.8879 34.128 76.4879 34.048 77.0959 34.048C77.8639 34.048 78.6399 34.16 79.4239 34.384C80.2079 34.608 80.8719 35.008 81.4159 35.584L79.2079 37.768ZM91.6613 37.216H88.4933V41.104C88.4933 41.424 88.5093 41.72 88.5413 41.992C88.5733 42.248 88.6453 42.472 88.7573 42.664C88.8693 42.856 89.0373 43.008 89.2613 43.12C89.5013 43.216 89.8133 43.264 90.1973 43.264C90.3893 43.264 90.6373 43.248 90.9413 43.216C91.2613 43.168 91.5013 43.072 91.6613 42.928V45.928C91.2613 46.072 90.8453 46.168 90.4133 46.216C89.9813 46.264 89.5573 46.288 89.1413 46.288C88.5333 46.288 87.9733 46.224 87.4613 46.096C86.9493 45.968 86.5013 45.768 86.1173 45.496C85.7333 45.208 85.4293 44.84 85.2053 44.392C84.9973 43.944 84.8933 43.4 84.8933 42.76V37.216H82.5893V34.336H84.8933V30.88H88.4933V34.336H91.6613V37.216ZM100.811 44.536H100.763C100.363 45.16 99.8268 45.608 99.1548 45.88C98.4988 46.152 97.8028 46.288 97.0668 46.288C96.5228 46.288 95.9948 46.208 95.4828 46.048C94.9868 45.904 94.5468 45.68 94.1628 45.376C93.7788 45.072 93.4748 44.696 93.2508 44.248C93.0268 43.8 92.9148 43.28 92.9148 42.688C92.9148 42.016 93.0348 41.448 93.2748 40.984C93.5308 40.52 93.8668 40.136 94.2828 39.832C94.7148 39.528 95.2028 39.296 95.7467 39.136C96.2908 38.96 96.8508 38.832 97.4268 38.752C98.0188 38.672 98.6028 38.624 99.1788 38.608C99.7708 38.592 100.315 38.584 100.811 38.584C100.811 37.944 100.579 37.44 100.115 37.072C99.6668 36.688 99.1308 36.496 98.5068 36.496C97.9148 36.496 97.3708 36.624 96.8748 36.88C96.3948 37.12 95.9628 37.456 95.5788 37.888L93.6588 35.92C94.3308 35.296 95.1148 34.832 96.0108 34.528C96.9068 34.208 97.8348 34.048 98.7948 34.048C99.8508 34.048 100.715 34.184 101.387 34.456C102.075 34.712 102.619 35.096 103.019 35.608C103.435 36.12 103.723 36.752 103.883 37.504C104.043 38.24 104.123 39.096 104.123 40.072V46H100.811V44.536ZM99.9228 40.888C99.6508 40.888 99.3068 40.904 98.8908 40.936C98.4908 40.952 98.0988 41.016 97.7148 41.128C97.3468 41.24 97.0268 41.408 96.7548 41.632C96.4988 41.856 96.3708 42.168 96.3708 42.568C96.3708 43 96.5548 43.32 96.9228 43.528C97.2908 43.736 97.6748 43.84 98.0748 43.84C98.4268 43.84 98.7628 43.792 99.0828 43.696C99.4188 43.6 99.7148 43.464 99.9708 43.288C100.227 43.112 100.427 42.888 100.571 42.616C100.731 42.344 100.811 42.024 100.811 41.656V40.888H99.9228ZM106.381 34.336H109.981V36.208H110.029C110.413 35.488 110.869 34.952 111.397 34.6C111.925 34.232 112.589 34.048 113.389 34.048C113.597 34.048 113.805 34.056 114.013 34.072C114.221 34.088 114.413 34.12 114.589 34.168V37.456C114.333 37.376 114.077 37.32 113.821 37.288C113.581 37.24 113.325 37.216 113.053 37.216C112.365 37.216 111.821 37.312 111.421 37.504C111.021 37.696 110.709 37.968 110.485 38.32C110.277 38.656 110.141 39.064 110.077 39.544C110.013 40.024 109.981 40.552 109.981 41.128V46H106.381V34.336ZM124.099 37.216H120.931V41.104C120.931 41.424 120.947 41.72 120.979 41.992C121.011 42.248 121.083 42.472 121.195 42.664C121.307 42.856 121.475 43.008 121.699 43.12C121.939 43.216 122.251 43.264 122.635 43.264C122.827 43.264 123.075 43.248 123.379 43.216C123.699 43.168 123.939 43.072 124.099 42.928V45.928C123.699 46.072 123.283 46.168 122.851 46.216C122.419 46.264 121.995 46.288 121.579 46.288C120.971 46.288 120.411 46.224 119.899 46.096C119.387 45.968 118.939 45.768 118.555 45.496C118.171 45.208 117.867 44.84 117.643 44.392C117.435 43.944 117.331 43.4 117.331 42.76V37.216H115.027V34.336H117.331V30.88H120.931V34.336H124.099V37.216ZM136.968 43.984C136.392 44.72 135.664 45.288 134.784 45.688C133.904 46.088 132.992 46.288 132.048 46.288C131.152 46.288 130.304 46.144 129.504 45.856C128.72 45.568 128.032 45.16 127.44 44.632C126.864 44.088 126.408 43.44 126.072 42.688C125.736 41.936 125.568 41.096 125.568 40.168C125.568 39.24 125.736 38.4 126.072 37.648C126.408 36.896 126.864 36.256 127.44 35.728C128.032 35.184 128.72 34.768 129.504 34.48C130.304 34.192 131.152 34.048 132.048 34.048C132.88 34.048 133.632 34.192 134.304 34.48C134.992 34.768 135.568 35.184 136.032 35.728C136.512 36.256 136.88 36.896 137.136 37.648C137.392 38.4 137.52 39.24 137.52 40.168V41.296H129.168C129.312 41.984 129.624 42.536 130.104 42.952C130.584 43.352 131.176 43.552 131.88 43.552C132.472 43.552 132.968 43.424 133.368 43.168C133.784 42.896 134.144 42.552 134.448 42.136L136.968 43.984ZM133.92 38.848C133.936 38.24 133.736 37.72 133.32 37.288C132.904 36.856 132.368 36.64 131.712 36.64C131.312 36.64 130.96 36.704 130.656 36.832C130.352 36.96 130.088 37.128 129.864 37.336C129.656 37.528 129.488 37.76 129.36 38.032C129.248 38.288 129.184 38.56 129.168 38.848H133.92ZM151.95 46H148.638V44.464H148.59C148.446 44.672 148.254 44.888 148.014 45.112C147.79 45.32 147.518 45.512 147.198 45.688C146.894 45.864 146.55 46.008 146.166 46.12C145.798 46.232 145.414 46.288 145.014 46.288C144.15 46.288 143.366 46.144 142.662 45.856C141.958 45.552 141.35 45.136 140.838 44.608C140.342 44.064 139.958 43.424 139.686 42.688C139.414 41.952 139.278 41.144 139.278 40.264C139.278 39.448 139.398 38.672 139.638 37.936C139.894 37.184 140.246 36.52 140.694 35.944C141.158 35.368 141.718 34.912 142.374 34.576C143.03 34.224 143.774 34.048 144.605 34.048C145.358 34.048 146.054 34.168 146.694 34.408C147.35 34.632 147.886 35.024 148.302 35.584H148.35V27.856H151.95V46ZM148.638 40.168C148.638 39.288 148.382 38.576 147.87 38.032C147.374 37.488 146.67 37.216 145.758 37.216C144.846 37.216 144.134 37.488 143.622 38.032C143.126 38.576 142.878 39.288 142.878 40.168C142.878 41.048 143.126 41.76 143.622 42.304C144.134 42.848 144.846 43.12 145.758 43.12C146.67 43.12 147.374 42.848 147.87 42.304C148.382 41.76 148.638 41.048 148.638 40.168ZM23.94 85.84H32.42V87.04H25.26V92.08H31.92V93.28H25.26V100H23.94V85.84ZM34.9133 90.76H36.1133V100H34.9133V90.76ZM34.6133 87.1C34.6133 86.8467 34.6999 86.6333 34.8733 86.46C35.0466 86.2867 35.2599 86.2 35.5133 86.2C35.7666 86.2 35.9799 86.2867 36.1533 86.46C36.3266 86.6333 36.4133 86.8467 36.4133 87.1C36.4133 87.3533 36.3266 87.5667 36.1533 87.74C35.9799 87.9133 35.7666 88 35.5133 88C35.2599 88 35.0466 87.9133 34.8733 87.74C34.6999 87.5667 34.6133 87.3533 34.6133 87.1ZM39.718 84.88H40.918V100H39.718V84.88ZM44.5422 84.88H45.7422V100H44.5422V84.88ZM53.8222 95.38C53.8222 94.6733 53.9422 94.0267 54.1822 93.44C54.4222 92.84 54.7555 92.3267 55.1822 91.9C55.6089 91.46 56.1222 91.12 56.7222 90.88C57.3222 90.64 57.9755 90.52 58.6822 90.52C59.3889 90.52 60.0355 90.64 60.6222 90.88C61.2222 91.12 61.7355 91.46 62.1622 91.9C62.6022 92.3267 62.9422 92.84 63.1822 93.44C63.4222 94.0267 63.5422 94.6733 63.5422 95.38C63.5422 96.0867 63.4222 96.74 63.1822 97.34C62.9422 97.9267 62.6022 98.44 62.1622 98.88C61.7355 99.3067 61.2222 99.64 60.6222 99.88C60.0355 100.12 59.3889 100.24 58.6822 100.24C57.9755 100.24 57.3222 100.12 56.7222 99.88C56.1222 99.64 55.6089 99.3067 55.1822 98.88C54.7555 98.44 54.4222 97.9267 54.1822 97.34C53.9422 96.74 53.8222 96.0867 53.8222 95.38ZM55.0222 95.38C55.0222 95.9 55.1022 96.3933 55.2622 96.86C55.4355 97.3133 55.6822 97.7133 56.0022 98.06C56.3222 98.3933 56.7089 98.66 57.1622 98.86C57.6155 99.06 58.1222 99.16 58.6822 99.16C59.2422 99.16 59.7489 99.06 60.2022 98.86C60.6555 98.66 61.0422 98.3933 61.3622 98.06C61.6822 97.7133 61.9222 97.3133 62.0822 96.86C62.2555 96.3933 62.3422 95.9 62.3422 95.38C62.3422 94.86 62.2555 94.3733 62.0822 93.92C61.9222 93.4533 61.6822 93.0533 61.3622 92.72C61.0422 92.3733 60.6555 92.1 60.2022 91.9C59.7489 91.7 59.2422 91.6 58.6822 91.6C58.1222 91.6 57.6155 91.7 57.1622 91.9C56.7089 92.1 56.3222 92.3733 56.0022 92.72C55.6822 93.0533 55.4355 93.4533 55.2622 93.92C55.1022 94.3733 55.0222 94.86 55.0222 95.38ZM74.0372 97.4C74.0372 97.5733 74.0439 97.7867 74.0572 98.04C74.0705 98.28 74.0772 98.5267 74.0772 98.78C74.0905 99.0333 74.1039 99.2733 74.1172 99.5C74.1305 99.7133 74.1372 99.88 74.1372 100H72.9372C72.9239 99.6533 72.9105 99.32 72.8972 99C72.8972 98.68 72.8839 98.4733 72.8572 98.38H72.7972C72.5572 98.8867 72.1572 99.3267 71.5972 99.7C71.0372 100.06 70.3839 100.24 69.6372 100.24C68.9172 100.24 68.3239 100.127 67.8572 99.9C67.4039 99.6733 67.0439 99.38 66.7772 99.02C66.5239 98.6467 66.3505 98.22 66.2572 97.74C66.1639 97.26 66.1172 96.7667 66.1172 96.26V90.76H67.3172V96.2C67.3172 96.5733 67.3505 96.94 67.4172 97.3C67.4839 97.6467 67.5972 97.96 67.7572 98.24C67.9305 98.52 68.1639 98.7467 68.4572 98.92C68.7639 99.08 69.1572 99.16 69.6372 99.16C70.0772 99.16 70.4905 99.0867 70.8772 98.94C71.2772 98.78 71.6172 98.5467 71.8972 98.24C72.1905 97.92 72.4172 97.5267 72.5772 97.06C72.7505 96.58 72.8372 96.02 72.8372 95.38V90.76H74.0372V97.4ZM81.8505 91.84H79.2105V97.86C79.2105 98.2733 79.3238 98.5933 79.5505 98.82C79.7771 99.0467 80.0905 99.16 80.4905 99.16C80.7171 99.16 80.9438 99.1333 81.1705 99.08C81.4105 99.0133 81.6371 98.9333 81.8505 98.84L81.9505 99.92C81.7238 100 81.4638 100.073 81.1705 100.14C80.8771 100.207 80.6171 100.24 80.3905 100.24C79.9638 100.24 79.5971 100.173 79.2905 100.04C78.9838 99.92 78.7371 99.7533 78.5505 99.54C78.3638 99.3267 78.2238 99.08 78.1305 98.8C78.0505 98.5067 78.0105 98.1933 78.0105 97.86V91.84H76.0105V90.76H78.0105V88.1H79.2105V90.76H81.8505V91.84ZM96.3659 96.12C96.3659 96.5733 96.3659 96.98 96.3659 97.34C96.3793 97.7 96.3926 98.0333 96.4059 98.34C96.4193 98.6467 96.4326 98.9333 96.4459 99.2C96.4726 99.4667 96.5059 99.7333 96.5459 100H95.4259C95.3459 99.5467 95.3059 99.0467 95.3059 98.5H95.2659C94.9193 99.1 94.4859 99.54 93.9659 99.82C93.4593 100.1 92.8126 100.24 92.0259 100.24C91.6259 100.24 91.2326 100.187 90.8459 100.08C90.4593 99.9867 90.1126 99.8333 89.8059 99.62C89.4993 99.3933 89.2459 99.1067 89.0459 98.76C88.8593 98.4133 88.7659 97.9933 88.7659 97.5C88.7659 96.7933 88.9459 96.2333 89.3059 95.82C89.6659 95.4067 90.1059 95.1 90.6259 94.9C91.1593 94.6867 91.7193 94.5533 92.3059 94.5C92.9059 94.4333 93.4326 94.4 93.8859 94.4H95.2859V93.84C95.2859 93.04 95.0393 92.4667 94.5459 92.12C94.0526 91.7733 93.4326 91.6 92.6859 91.6C91.6193 91.6 90.6793 91.9467 89.8659 92.64L89.1659 91.82C89.6059 91.3933 90.1526 91.0733 90.8059 90.86C91.4593 90.6333 92.0859 90.52 92.6859 90.52C93.8059 90.52 94.6993 90.7867 95.3659 91.32C96.0326 91.84 96.3659 92.6867 96.3659 93.86V96.12ZM93.9659 95.36C93.4593 95.36 92.9659 95.3933 92.4859 95.46C92.0193 95.5267 91.5926 95.64 91.2059 95.8C90.8326 95.96 90.5326 96.1733 90.3059 96.44C90.0793 96.7067 89.9659 97.04 89.9659 97.44C89.9659 97.72 90.0259 97.9733 90.1459 98.2C90.2793 98.4133 90.4459 98.5933 90.6459 98.74C90.8459 98.8733 91.0659 98.98 91.3059 99.06C91.5593 99.1267 91.8126 99.16 92.0659 99.16C92.7059 99.16 93.2326 99.0667 93.6459 98.88C94.0593 98.6933 94.3859 98.4533 94.6259 98.16C94.8793 97.8533 95.0526 97.5133 95.1459 97.14C95.2393 96.7533 95.2859 96.3667 95.2859 95.98V95.36H93.9659ZM105.432 91.84H103.512V90.76H105.432V87.74C105.432 87.14 105.519 86.6467 105.692 86.26C105.879 85.86 106.106 85.54 106.372 85.3C106.639 85.06 106.932 84.8933 107.252 84.8C107.586 84.6933 107.899 84.64 108.192 84.64C108.752 84.64 109.212 84.72 109.572 84.88L109.332 85.92C109.066 85.7867 108.706 85.72 108.252 85.72C107.172 85.72 106.632 86.54 106.632 88.18V90.76H108.792V91.84H106.632V100H105.432V91.84ZM118.83 98.26C118.364 98.9667 117.784 99.4733 117.09 99.78C116.41 100.087 115.657 100.24 114.83 100.24C114.124 100.24 113.484 100.12 112.91 99.88C112.337 99.64 111.844 99.3067 111.43 98.88C111.017 98.44 110.697 97.9267 110.47 97.34C110.257 96.74 110.15 96.08 110.15 95.36C110.15 94.6667 110.264 94.0267 110.49 93.44C110.717 92.8533 111.037 92.3467 111.45 91.92C111.864 91.48 112.35 91.14 112.91 90.9C113.47 90.6467 114.09 90.52 114.77 90.52C115.477 90.52 116.097 90.6467 116.63 90.9C117.177 91.14 117.63 91.4667 117.99 91.88C118.364 92.28 118.644 92.74 118.83 93.26C119.017 93.78 119.11 94.3067 119.11 94.84V95.68H111.35C111.35 95.9333 111.397 96.26 111.49 96.66C111.597 97.0467 111.784 97.4267 112.05 97.8C112.317 98.1733 112.67 98.4933 113.11 98.76C113.564 99.0267 114.144 99.16 114.85 99.16C115.464 99.16 116.057 99.0133 116.63 98.72C117.204 98.4267 117.644 98.0267 117.95 97.52L118.83 98.26ZM117.91 94.6C117.91 94.1867 117.824 93.8 117.65 93.44C117.49 93.08 117.264 92.7667 116.97 92.5C116.69 92.22 116.35 92 115.95 91.84C115.564 91.68 115.15 91.6 114.71 91.6C114.057 91.6 113.51 91.7333 113.07 92C112.644 92.2667 112.304 92.5733 112.05 92.92C111.797 93.2667 111.617 93.6067 111.51 93.94C111.404 94.26 111.35 94.48 111.35 94.6H117.91ZM120.484 90.76H121.804L124.044 98.5H124.084L126.664 90.76H127.804L130.544 98.5H130.584L132.764 90.76H133.964L131.244 100H130.004L127.244 92.44H127.204L124.624 100H123.384L120.484 90.76ZM141.741 91.84H139.821V90.76H141.741V87.74C141.741 87.14 141.828 86.6467 142.001 86.26C142.188 85.86 142.414 85.54 142.681 85.3C142.948 85.06 143.241 84.8933 143.561 84.8C143.894 84.6933 144.208 84.64 144.501 84.64C145.061 84.64 145.521 84.72 145.881 84.88L145.641 85.92C145.374 85.7867 145.014 85.72 144.561 85.72C143.481 85.72 142.941 86.54 142.941 88.18V90.76H145.101V91.84H142.941V100H141.741V91.84ZM147.179 90.76H148.379V100H147.179V90.76ZM146.879 87.1C146.879 86.8467 146.966 86.6333 147.139 86.46C147.312 86.2867 147.526 86.2 147.779 86.2C148.032 86.2 148.246 86.2867 148.419 86.46C148.592 86.6333 148.679 86.8467 148.679 87.1C148.679 87.3533 148.592 87.5667 148.419 87.74C148.246 87.9133 148.032 88 147.779 88C147.526 88 147.312 87.9133 147.139 87.74C146.966 87.5667 146.879 87.3533 146.879 87.1ZM159.944 98.26C159.477 98.9667 158.897 99.4733 158.204 99.78C157.524 100.087 156.77 100.24 155.944 100.24C155.237 100.24 154.597 100.12 154.024 99.88C153.45 99.64 152.957 99.3067 152.544 98.88C152.13 98.44 151.81 97.9267 151.584 97.34C151.37 96.74 151.264 96.08 151.264 95.36C151.264 94.6667 151.377 94.0267 151.604 93.44C151.83 92.8533 152.15 92.3467 152.564 91.92C152.977 91.48 153.464 91.14 154.024 90.9C154.584 90.6467 155.204 90.52 155.884 90.52C156.59 90.52 157.21 90.6467 157.744 90.9C158.29 91.14 158.744 91.4667 159.104 91.88C159.477 92.28 159.757 92.74 159.944 93.26C160.13 93.78 160.224 94.3067 160.224 94.84V95.68H152.464C152.464 95.9333 152.51 96.26 152.604 96.66C152.71 97.0467 152.897 97.4267 153.164 97.8C153.43 98.1733 153.784 98.4933 154.224 98.76C154.677 99.0267 155.257 99.16 155.964 99.16C156.577 99.16 157.17 99.0133 157.744 98.72C158.317 98.4267 158.757 98.0267 159.064 97.52L159.944 98.26ZM159.024 94.6C159.024 94.1867 158.937 93.8 158.764 93.44C158.604 93.08 158.377 92.7667 158.084 92.5C157.804 92.22 157.464 92 157.064 91.84C156.677 91.68 156.264 91.6 155.824 91.6C155.17 91.6 154.624 91.7333 154.184 92C153.757 92.2667 153.417 92.5733 153.164 92.92C152.91 93.2667 152.73 93.6067 152.624 93.94C152.517 94.26 152.464 94.48 152.464 94.6H159.024ZM163.097 84.88H164.297V100H163.097V84.88ZM175.782 98.38H175.742C175.555 98.7 175.322 98.98 175.042 99.22C174.762 99.4467 174.455 99.64 174.122 99.8C173.802 99.9467 173.462 100.053 173.102 100.12C172.742 100.2 172.388 100.24 172.042 100.24C171.335 100.24 170.682 100.12 170.082 99.88C169.482 99.64 168.968 99.3067 168.542 98.88C168.115 98.44 167.782 97.9267 167.542 97.34C167.302 96.74 167.182 96.0867 167.182 95.38C167.182 94.6733 167.302 94.0267 167.542 93.44C167.782 92.84 168.115 92.3267 168.542 91.9C168.968 91.46 169.482 91.12 170.082 90.88C170.682 90.64 171.335 90.52 172.042 90.52C172.388 90.52 172.742 90.56 173.102 90.64C173.462 90.7067 173.802 90.82 174.122 90.98C174.455 91.1267 174.762 91.32 175.042 91.56C175.322 91.7867 175.555 92.06 175.742 92.38H175.782V84.88H176.982V100H175.782V98.38ZM175.902 95.38C175.902 94.86 175.802 94.3733 175.602 93.92C175.402 93.4533 175.128 93.0533 174.782 92.72C174.435 92.3733 174.028 92.1 173.562 91.9C173.095 91.7 172.588 91.6 172.042 91.6C171.482 91.6 170.975 91.7 170.522 91.9C170.068 92.1 169.682 92.3733 169.362 92.72C169.042 93.0533 168.795 93.4533 168.622 93.92C168.462 94.3733 168.382 94.86 168.382 95.38C168.382 95.9 168.462 96.3933 168.622 96.86C168.795 97.3133 169.042 97.7133 169.362 98.06C169.682 98.3933 170.068 98.66 170.522 98.86C170.975 99.06 171.482 99.16 172.042 99.16C172.588 99.16 173.095 99.06 173.562 98.86C174.028 98.66 174.435 98.3933 174.782 98.06C175.128 97.7133 175.402 97.3133 175.602 96.86C175.802 96.3933 175.902 95.9 175.902 95.38ZM179.948 97.64C180.201 98.1333 180.575 98.5133 181.068 98.78C181.561 99.0333 182.081 99.16 182.628 99.16C182.881 99.16 183.135 99.12 183.388 99.04C183.641 98.96 183.868 98.8467 184.068 98.7C184.268 98.5533 184.428 98.38 184.548 98.18C184.681 97.9667 184.748 97.7267 184.748 97.46C184.748 97.0333 184.608 96.7133 184.328 96.5C184.061 96.2867 183.728 96.12 183.328 96C182.928 95.88 182.488 95.78 182.008 95.7C181.528 95.6067 181.088 95.4733 180.688 95.3C180.288 95.1133 179.948 94.86 179.668 94.54C179.401 94.22 179.268 93.7667 179.268 93.18C179.268 92.7267 179.361 92.3333 179.548 92C179.735 91.6667 179.975 91.3933 180.268 91.18C180.575 90.9533 180.915 90.7867 181.288 90.68C181.661 90.5733 182.041 90.52 182.428 90.52C183.188 90.52 183.841 90.66 184.388 90.94C184.948 91.22 185.381 91.66 185.688 92.26L184.608 92.9C184.381 92.4733 184.095 92.1533 183.748 91.94C183.415 91.7133 182.975 91.6 182.428 91.6C182.215 91.6 181.988 91.6333 181.748 91.7C181.521 91.7667 181.315 91.86 181.128 91.98C180.941 92.1 180.781 92.2533 180.648 92.44C180.528 92.6267 180.468 92.84 180.468 93.08C180.468 93.4933 180.601 93.8 180.868 94C181.148 94.2 181.488 94.36 181.888 94.48C182.288 94.5867 182.728 94.68 183.208 94.76C183.688 94.84 184.128 94.9733 184.528 95.16C184.928 95.3333 185.261 95.5933 185.528 95.94C185.808 96.2733 185.948 96.7533 185.948 97.38C185.948 97.86 185.855 98.28 185.668 98.64C185.495 98.9867 185.248 99.28 184.928 99.52C184.621 99.76 184.268 99.94 183.868 100.06C183.468 100.18 183.048 100.24 182.608 100.24C181.808 100.24 181.075 100.087 180.408 99.78C179.755 99.4733 179.248 99 178.888 98.36L179.948 97.64ZM198.159 91.84H195.519V97.86C195.519 98.2733 195.632 98.5933 195.859 98.82C196.086 99.0467 196.399 99.16 196.799 99.16C197.026 99.16 197.252 99.1333 197.479 99.08C197.719 99.0133 197.946 98.9333 198.159 98.84L198.259 99.92C198.032 100 197.772 100.073 197.479 100.14C197.186 100.207 196.926 100.24 196.699 100.24C196.272 100.24 195.906 100.173 195.599 100.04C195.292 99.92 195.046 99.7533 194.859 99.54C194.672 99.3267 194.532 99.08 194.439 98.8C194.359 98.5067 194.319 98.1933 194.319 97.86V91.84H192.319V90.76H194.319V88.1H195.519V90.76H198.159V91.84ZM199.779 95.38C199.779 94.6733 199.899 94.0267 200.139 93.44C200.379 92.84 200.713 92.3267 201.139 91.9C201.566 91.46 202.079 91.12 202.679 90.88C203.279 90.64 203.933 90.52 204.639 90.52C205.346 90.52 205.993 90.64 206.579 90.88C207.179 91.12 207.693 91.46 208.119 91.9C208.559 92.3267 208.899 92.84 209.139 93.44C209.379 94.0267 209.499 94.6733 209.499 95.38C209.499 96.0867 209.379 96.74 209.139 97.34C208.899 97.9267 208.559 98.44 208.119 98.88C207.693 99.3067 207.179 99.64 206.579 99.88C205.993 100.12 205.346 100.24 204.639 100.24C203.933 100.24 203.279 100.12 202.679 99.88C202.079 99.64 201.566 99.3067 201.139 98.88C200.713 98.44 200.379 97.9267 200.139 97.34C199.899 96.74 199.779 96.0867 199.779 95.38ZM200.979 95.38C200.979 95.9 201.059 96.3933 201.219 96.86C201.393 97.3133 201.639 97.7133 201.959 98.06C202.279 98.3933 202.666 98.66 203.119 98.86C203.573 99.06 204.079 99.16 204.639 99.16C205.199 99.16 205.706 99.06 206.159 98.86C206.613 98.66 206.999 98.3933 207.319 98.06C207.639 97.7133 207.879 97.3133 208.039 96.86C208.213 96.3933 208.299 95.9 208.299 95.38C208.299 94.86 208.213 94.3733 208.039 93.92C207.879 93.4533 207.639 93.0533 207.319 92.72C206.999 92.3733 206.613 92.1 206.159 91.9C205.706 91.7 205.199 91.6 204.639 91.6C204.079 91.6 203.573 91.7 203.119 91.9C202.666 92.1 202.279 92.3733 201.959 92.72C201.639 93.0533 201.393 93.4533 201.219 93.92C201.059 94.3733 200.979 94.86 200.979 95.38ZM225.11 98.64C224.656 99.1867 224.143 99.5933 223.57 99.86C222.996 100.113 222.376 100.24 221.71 100.24C221.003 100.24 220.35 100.12 219.75 99.88C219.15 99.64 218.636 99.3067 218.21 98.88C217.783 98.44 217.45 97.9267 217.21 97.34C216.97 96.74 216.85 96.0867 216.85 95.38C216.85 94.6733 216.97 94.0267 217.21 93.44C217.45 92.84 217.783 92.3267 218.21 91.9C218.636 91.46 219.15 91.12 219.75 90.88C220.35 90.64 221.003 90.52 221.71 90.52C222.39 90.52 223.016 90.66 223.59 90.94C224.176 91.22 224.696 91.6133 225.15 92.12L224.19 92.84C223.843 92.4533 223.463 92.1533 223.05 91.94C222.636 91.7133 222.19 91.6 221.71 91.6C221.15 91.6 220.643 91.7 220.19 91.9C219.736 92.1 219.35 92.3733 219.03 92.72C218.71 93.0533 218.463 93.4533 218.29 93.92C218.13 94.3733 218.05 94.86 218.05 95.38C218.05 95.9 218.13 96.3933 218.29 96.86C218.463 97.3133 218.71 97.7133 219.03 98.06C219.35 98.3933 219.736 98.66 220.19 98.86C220.643 99.06 221.15 99.16 221.71 99.16C222.216 99.16 222.676 99.0467 223.09 98.82C223.516 98.58 223.883 98.2667 224.19 97.88L225.11 98.64ZM226.998 93.36C226.998 93.1867 226.992 92.98 226.978 92.74C226.965 92.4867 226.952 92.2333 226.938 91.98C226.938 91.7267 226.932 91.4933 226.918 91.28C226.905 91.0533 226.898 90.88 226.898 90.76H228.098C228.112 91.1067 228.118 91.44 228.118 91.76C228.132 92.08 228.152 92.2867 228.178 92.38C228.485 91.8333 228.878 91.3867 229.358 91.04C229.838 90.6933 230.425 90.52 231.118 90.52C231.238 90.52 231.352 90.5333 231.458 90.56C231.578 90.5733 231.698 90.5933 231.818 90.62L231.678 91.8C231.518 91.7467 231.365 91.72 231.218 91.72C230.698 91.72 230.245 91.8067 229.858 91.98C229.485 92.14 229.172 92.3667 228.918 92.66C228.678 92.9533 228.498 93.3 228.378 93.7C228.258 94.0867 228.198 94.5067 228.198 94.96V100H226.998V93.36ZM241.467 98.26C241 98.9667 240.42 99.4733 239.727 99.78C239.047 100.087 238.294 100.24 237.467 100.24C236.76 100.24 236.12 100.12 235.547 99.88C234.974 99.64 234.48 99.3067 234.067 98.88C233.654 98.44 233.334 97.9267 233.107 97.34C232.894 96.74 232.787 96.08 232.787 95.36C232.787 94.6667 232.9 94.0267 233.127 93.44C233.354 92.8533 233.674 92.3467 234.087 91.92C234.5 91.48 234.987 91.14 235.547 90.9C236.107 90.6467 236.727 90.52 237.407 90.52C238.114 90.52 238.734 90.6467 239.267 90.9C239.814 91.14 240.267 91.4667 240.627 91.88C241 92.28 241.28 92.74 241.467 93.26C241.654 93.78 241.747 94.3067 241.747 94.84V95.68H233.987C233.987 95.9333 234.034 96.26 234.127 96.66C234.234 97.0467 234.42 97.4267 234.687 97.8C234.954 98.1733 235.307 98.4933 235.747 98.76C236.2 99.0267 236.78 99.16 237.487 99.16C238.1 99.16 238.694 99.0133 239.267 98.72C239.84 98.4267 240.28 98.0267 240.587 97.52L241.467 98.26ZM240.547 94.6C240.547 94.1867 240.46 93.8 240.287 93.44C240.127 93.08 239.9 92.7667 239.607 92.5C239.327 92.22 238.987 92 238.587 91.84C238.2 91.68 237.787 91.6 237.347 91.6C236.694 91.6 236.147 91.7333 235.707 92C235.28 92.2667 234.94 92.5733 234.687 92.92C234.434 93.2667 234.254 93.6067 234.147 93.94C234.04 94.26 233.987 94.48 233.987 94.6H240.547ZM251.6 96.12C251.6 96.5733 251.6 96.98 251.6 97.34C251.614 97.7 251.627 98.0333 251.64 98.34C251.654 98.6467 251.667 98.9333 251.68 99.2C251.707 99.4667 251.74 99.7333 251.78 100H250.66C250.58 99.5467 250.54 99.0467 250.54 98.5H250.5C250.154 99.1 249.72 99.54 249.2 99.82C248.694 100.1 248.047 100.24 247.26 100.24C246.86 100.24 246.467 100.187 246.08 100.08C245.694 99.9867 245.347 99.8333 245.04 99.62C244.734 99.3933 244.48 99.1067 244.28 98.76C244.094 98.4133 244 97.9933 244 97.5C244 96.7933 244.18 96.2333 244.54 95.82C244.9 95.4067 245.34 95.1 245.86 94.9C246.394 94.6867 246.954 94.5533 247.54 94.5C248.14 94.4333 248.667 94.4 249.12 94.4H250.52V93.84C250.52 93.04 250.274 92.4667 249.78 92.12C249.287 91.7733 248.667 91.6 247.92 91.6C246.854 91.6 245.914 91.9467 245.1 92.64L244.4 91.82C244.84 91.3933 245.387 91.0733 246.04 90.86C246.694 90.6333 247.32 90.52 247.92 90.52C249.04 90.52 249.934 90.7867 250.6 91.32C251.267 91.84 251.6 92.6867 251.6 93.86V96.12ZM249.2 95.36C248.694 95.36 248.2 95.3933 247.72 95.46C247.254 95.5267 246.827 95.64 246.44 95.8C246.067 95.96 245.767 96.1733 245.54 96.44C245.314 96.7067 245.2 97.04 245.2 97.44C245.2 97.72 245.26 97.9733 245.38 98.2C245.514 98.4133 245.68 98.5933 245.88 98.74C246.08 98.8733 246.3 98.98 246.54 99.06C246.794 99.1267 247.047 99.16 247.3 99.16C247.94 99.16 248.467 99.0667 248.88 98.88C249.294 98.6933 249.62 98.4533 249.86 98.16C250.114 97.8533 250.287 97.5133 250.38 97.14C250.474 96.7533 250.52 96.3667 250.52 95.98V95.36H249.2ZM259.311 91.84H256.671V97.86C256.671 98.2733 256.785 98.5933 257.011 98.82C257.238 99.0467 257.551 99.16 257.951 99.16C258.178 99.16 258.405 99.1333 258.631 99.08C258.871 99.0133 259.098 98.9333 259.311 98.84L259.411 99.92C259.185 100 258.925 100.073 258.631 100.14C258.338 100.207 258.078 100.24 257.851 100.24C257.425 100.24 257.058 100.173 256.751 100.04C256.445 99.92 256.198 99.7533 256.011 99.54C255.825 99.3267 255.685 99.08 255.591 98.8C255.511 98.5067 255.471 98.1933 255.471 97.86V91.84H253.471V90.76H255.471V88.1H256.671V90.76H259.311V91.84ZM269.612 98.26C269.145 98.9667 268.565 99.4733 267.872 99.78C267.192 100.087 266.438 100.24 265.612 100.24C264.905 100.24 264.265 100.12 263.692 99.88C263.118 99.64 262.625 99.3067 262.212 98.88C261.798 98.44 261.478 97.9267 261.252 97.34C261.038 96.74 260.932 96.08 260.932 95.36C260.932 94.6667 261.045 94.0267 261.272 93.44C261.498 92.8533 261.818 92.3467 262.232 91.92C262.645 91.48 263.132 91.14 263.692 90.9C264.252 90.6467 264.872 90.52 265.552 90.52C266.258 90.52 266.878 90.6467 267.412 90.9C267.958 91.14 268.412 91.4667 268.772 91.88C269.145 92.28 269.425 92.74 269.612 93.26C269.798 93.78 269.892 94.3067 269.892 94.84V95.68H262.132C262.132 95.9333 262.178 96.26 262.272 96.66C262.378 97.0467 262.565 97.4267 262.832 97.8C263.098 98.1733 263.452 98.4933 263.892 98.76C264.345 99.0267 264.925 99.16 265.632 99.16C266.245 99.16 266.838 99.0133 267.412 98.72C267.985 98.4267 268.425 98.0267 268.732 97.52L269.612 98.26ZM268.692 94.6C268.692 94.1867 268.605 93.8 268.432 93.44C268.272 93.08 268.045 92.7667 267.752 92.5C267.472 92.22 267.132 92 266.732 91.84C266.345 91.68 265.932 91.6 265.492 91.6C264.838 91.6 264.292 91.7333 263.852 92C263.425 92.2667 263.085 92.5733 262.832 92.92C262.578 93.2667 262.398 93.6067 262.292 93.94C262.185 94.26 262.132 94.48 262.132 94.6H268.692ZM280.36 102.86C280.133 103.46 279.82 103.933 279.42 104.28C279.02 104.627 278.487 104.8 277.82 104.8C277.62 104.8 277.42 104.78 277.22 104.74C277.02 104.713 276.827 104.673 276.64 104.62L276.76 103.5C276.933 103.553 277.107 103.6 277.28 103.64C277.467 103.693 277.653 103.72 277.84 103.72C278.053 103.72 278.24 103.673 278.4 103.58C278.573 103.487 278.72 103.367 278.84 103.22C278.96 103.073 279.06 102.907 279.14 102.72C279.233 102.547 279.313 102.367 279.38 102.18L280.22 100.04L276.46 90.76H277.8L280.86 98.54L283.84 90.76H285.12L280.36 102.86ZM286.498 95.38C286.498 94.6733 286.618 94.0267 286.858 93.44C287.098 92.84 287.431 92.3267 287.858 91.9C288.285 91.46 288.798 91.12 289.398 90.88C289.998 90.64 290.651 90.52 291.358 90.52C292.065 90.52 292.711 90.64 293.298 90.88C293.898 91.12 294.411 91.46 294.838 91.9C295.278 92.3267 295.618 92.84 295.858 93.44C296.098 94.0267 296.218 94.6733 296.218 95.38C296.218 96.0867 296.098 96.74 295.858 97.34C295.618 97.9267 295.278 98.44 294.838 98.88C294.411 99.3067 293.898 99.64 293.298 99.88C292.711 100.12 292.065 100.24 291.358 100.24C290.651 100.24 289.998 100.12 289.398 99.88C288.798 99.64 288.285 99.3067 287.858 98.88C287.431 98.44 287.098 97.9267 286.858 97.34C286.618 96.74 286.498 96.0867 286.498 95.38ZM287.698 95.38C287.698 95.9 287.778 96.3933 287.938 96.86C288.111 97.3133 288.358 97.7133 288.678 98.06C288.998 98.3933 289.385 98.66 289.838 98.86C290.291 99.06 290.798 99.16 291.358 99.16C291.918 99.16 292.425 99.06 292.878 98.86C293.331 98.66 293.718 98.3933 294.038 98.06C294.358 97.7133 294.598 97.3133 294.758 96.86C294.931 96.3933 295.018 95.9 295.018 95.38C295.018 94.86 294.931 94.3733 294.758 93.92C294.598 93.4533 294.358 93.0533 294.038 92.72C293.718 92.3733 293.331 92.1 292.878 91.9C292.425 91.7 291.918 91.6 291.358 91.6C290.798 91.6 290.291 91.7 289.838 91.9C289.385 92.1 288.998 92.3733 288.678 92.72C288.358 93.0533 288.111 93.4533 287.938 93.92C287.778 94.3733 287.698 94.86 287.698 95.38ZM306.713 97.4C306.713 97.5733 306.72 97.7867 306.733 98.04C306.746 98.28 306.753 98.5267 306.753 98.78C306.766 99.0333 306.78 99.2733 306.793 99.5C306.806 99.7133 306.813 99.88 306.813 100H305.613C305.6 99.6533 305.586 99.32 305.573 99C305.573 98.68 305.56 98.4733 305.533 98.38H305.473C305.233 98.8867 304.833 99.3267 304.273 99.7C303.713 100.06 303.06 100.24 302.313 100.24C301.593 100.24 301 100.127 300.533 99.9C300.08 99.6733 299.72 99.38 299.453 99.02C299.2 98.6467 299.026 98.22 298.933 97.74C298.84 97.26 298.793 96.7667 298.793 96.26V90.76H299.993V96.2C299.993 96.5733 300.026 96.94 300.093 97.3C300.16 97.6467 300.273 97.96 300.433 98.24C300.606 98.52 300.84 98.7467 301.133 98.92C301.44 99.08 301.833 99.16 302.313 99.16C302.753 99.16 303.166 99.0867 303.553 98.94C303.953 98.78 304.293 98.5467 304.573 98.24C304.866 97.92 305.093 97.5267 305.253 97.06C305.426 96.58 305.513 96.02 305.513 95.38V90.76H306.713V97.4ZM310.006 93.36C310.006 93.1867 310 92.98 309.986 92.74C309.973 92.4867 309.96 92.2333 309.946 91.98C309.946 91.7267 309.94 91.4933 309.926 91.28C309.913 91.0533 309.906 90.88 309.906 90.76H311.106C311.12 91.1067 311.126 91.44 311.126 91.76C311.14 92.08 311.16 92.2867 311.186 92.38C311.493 91.8333 311.886 91.3867 312.366 91.04C312.846 90.6933 313.433 90.52 314.126 90.52C314.246 90.52 314.36 90.5333 314.466 90.56C314.586 90.5733 314.706 90.5933 314.826 90.62L314.686 91.8C314.526 91.7467 314.373 91.72 314.226 91.72C313.706 91.72 313.253 91.8067 312.866 91.98C312.493 92.14 312.18 92.3667 311.926 92.66C311.686 92.9533 311.506 93.3 311.386 93.7C311.266 94.0867 311.206 94.5067 311.206 94.96V100H310.006V93.36ZM329.042 96.12C329.042 96.5733 329.042 96.98 329.042 97.34C329.055 97.7 329.068 98.0333 329.082 98.34C329.095 98.6467 329.108 98.9333 329.122 99.2C329.148 99.4667 329.182 99.7333 329.222 100H328.102C328.022 99.5467 327.982 99.0467 327.982 98.5H327.942C327.595 99.1 327.162 99.54 326.642 99.82C326.135 100.1 325.488 100.24 324.702 100.24C324.302 100.24 323.908 100.187 323.522 100.08C323.135 99.9867 322.788 99.8333 322.482 99.62C322.175 99.3933 321.922 99.1067 321.722 98.76C321.535 98.4133 321.442 97.9933 321.442 97.5C321.442 96.7933 321.622 96.2333 321.982 95.82C322.342 95.4067 322.782 95.1 323.302 94.9C323.835 94.6867 324.395 94.5533 324.982 94.5C325.582 94.4333 326.108 94.4 326.562 94.4H327.962V93.84C327.962 93.04 327.715 92.4667 327.222 92.12C326.728 91.7733 326.108 91.6 325.362 91.6C324.295 91.6 323.355 91.9467 322.542 92.64L321.842 91.82C322.282 91.3933 322.828 91.0733 323.482 90.86C324.135 90.6333 324.762 90.52 325.362 90.52C326.482 90.52 327.375 90.7867 328.042 91.32C328.708 91.84 329.042 92.6867 329.042 93.86V96.12ZM326.642 95.36C326.135 95.36 325.642 95.3933 325.162 95.46C324.695 95.5267 324.268 95.64 323.882 95.8C323.508 95.96 323.208 96.1733 322.982 96.44C322.755 96.7067 322.642 97.04 322.642 97.44C322.642 97.72 322.702 97.9733 322.822 98.2C322.955 98.4133 323.122 98.5933 323.322 98.74C323.522 98.8733 323.742 98.98 323.982 99.06C324.235 99.1267 324.488 99.16 324.742 99.16C325.382 99.16 325.908 99.0667 326.322 98.88C326.735 98.6933 327.062 98.4533 327.302 98.16C327.555 97.8533 327.728 97.5133 327.822 97.14C327.915 96.7533 327.962 96.3667 327.962 95.98V95.36H326.642ZM339.973 98.64C339.519 99.1867 339.006 99.5933 338.433 99.86C337.859 100.113 337.239 100.24 336.573 100.24C335.866 100.24 335.213 100.12 334.613 99.88C334.013 99.64 333.499 99.3067 333.073 98.88C332.646 98.44 332.313 97.9267 332.073 97.34C331.833 96.74 331.713 96.0867 331.713 95.38C331.713 94.6733 331.833 94.0267 332.073 93.44C332.313 92.84 332.646 92.3267 333.073 91.9C333.499 91.46 334.013 91.12 334.613 90.88C335.213 90.64 335.866 90.52 336.573 90.52C337.253 90.52 337.879 90.66 338.453 90.94C339.039 91.22 339.559 91.6133 340.013 92.12L339.053 92.84C338.706 92.4533 338.326 92.1533 337.913 91.94C337.499 91.7133 337.053 91.6 336.573 91.6C336.013 91.6 335.506 91.7 335.053 91.9C334.599 92.1 334.213 92.3733 333.893 92.72C333.573 93.0533 333.326 93.4533 333.153 93.92C332.993 94.3733 332.913 94.86 332.913 95.38C332.913 95.9 332.993 96.3933 333.153 96.86C333.326 97.3133 333.573 97.7133 333.893 98.06C334.213 98.3933 334.599 98.66 335.053 98.86C335.506 99.06 336.013 99.16 336.573 99.16C337.079 99.16 337.539 99.0467 337.953 98.82C338.379 98.58 338.746 98.2667 339.053 97.88L339.973 98.64ZM349.602 98.64C349.148 99.1867 348.635 99.5933 348.062 99.86C347.488 100.113 346.868 100.24 346.202 100.24C345.495 100.24 344.842 100.12 344.242 99.88C343.642 99.64 343.128 99.3067 342.702 98.88C342.275 98.44 341.942 97.9267 341.702 97.34C341.462 96.74 341.342 96.0867 341.342 95.38C341.342 94.6733 341.462 94.0267 341.702 93.44C341.942 92.84 342.275 92.3267 342.702 91.9C343.128 91.46 343.642 91.12 344.242 90.88C344.842 90.64 345.495 90.52 346.202 90.52C346.882 90.52 347.508 90.66 348.082 90.94C348.668 91.22 349.188 91.6133 349.642 92.12L348.682 92.84C348.335 92.4533 347.955 92.1533 347.542 91.94C347.128 91.7133 346.682 91.6 346.202 91.6C345.642 91.6 345.135 91.7 344.682 91.9C344.228 92.1 343.842 92.3733 343.522 92.72C343.202 93.0533 342.955 93.4533 342.782 93.92C342.622 94.3733 342.542 94.86 342.542 95.38C342.542 95.9 342.622 96.3933 342.782 96.86C342.955 97.3133 343.202 97.7133 343.522 98.06C343.842 98.3933 344.228 98.66 344.682 98.86C345.135 99.06 345.642 99.16 346.202 99.16C346.708 99.16 347.168 99.0467 347.582 98.82C348.008 98.58 348.375 98.2667 348.682 97.88L349.602 98.64ZM350.971 95.38C350.971 94.6733 351.091 94.0267 351.331 93.44C351.571 92.84 351.904 92.3267 352.331 91.9C352.757 91.46 353.271 91.12 353.871 90.88C354.471 90.64 355.124 90.52 355.831 90.52C356.537 90.52 357.184 90.64 357.771 90.88C358.371 91.12 358.884 91.46 359.311 91.9C359.751 92.3267 360.091 92.84 360.331 93.44C360.571 94.0267 360.691 94.6733 360.691 95.38C360.691 96.0867 360.571 96.74 360.331 97.34C360.091 97.9267 359.751 98.44 359.311 98.88C358.884 99.3067 358.371 99.64 357.771 99.88C357.184 100.12 356.537 100.24 355.831 100.24C355.124 100.24 354.471 100.12 353.871 99.88C353.271 99.64 352.757 99.3067 352.331 98.88C351.904 98.44 351.571 97.9267 351.331 97.34C351.091 96.74 350.971 96.0867 350.971 95.38ZM352.171 95.38C352.171 95.9 352.251 96.3933 352.411 96.86C352.584 97.3133 352.831 97.7133 353.151 98.06C353.471 98.3933 353.857 98.66 354.311 98.86C354.764 99.06 355.271 99.16 355.831 99.16C356.391 99.16 356.897 99.06 357.351 98.86C357.804 98.66 358.191 98.3933 358.511 98.06C358.831 97.7133 359.071 97.3133 359.231 96.86C359.404 96.3933 359.491 95.9 359.491 95.38C359.491 94.86 359.404 94.3733 359.231 93.92C359.071 93.4533 358.831 93.0533 358.511 92.72C358.191 92.3733 357.804 92.1 357.351 91.9C356.897 91.7 356.391 91.6 355.831 91.6C355.271 91.6 354.764 91.7 354.311 91.9C353.857 92.1 353.471 92.3733 353.151 92.72C352.831 93.0533 352.584 93.4533 352.411 93.92C352.251 94.3733 352.171 94.86 352.171 95.38ZM371.186 97.4C371.186 97.5733 371.192 97.7867 371.206 98.04C371.219 98.28 371.226 98.5267 371.226 98.78C371.239 99.0333 371.252 99.2733 371.266 99.5C371.279 99.7133 371.286 99.88 371.286 100H370.086C370.072 99.6533 370.059 99.32 370.046 99C370.046 98.68 370.032 98.4733 370.006 98.38H369.946C369.706 98.8867 369.306 99.3267 368.746 99.7C368.186 100.06 367.532 100.24 366.786 100.24C366.066 100.24 365.472 100.127 365.006 99.9C364.552 99.6733 364.192 99.38 363.926 99.02C363.672 98.6467 363.499 98.22 363.406 97.74C363.312 97.26 363.266 96.7667 363.266 96.26V90.76H364.466V96.2C364.466 96.5733 364.499 96.94 364.566 97.3C364.632 97.6467 364.746 97.96 364.906 98.24C365.079 98.52 365.312 98.7467 365.606 98.92C365.912 99.08 366.306 99.16 366.786 99.16C367.226 99.16 367.639 99.0867 368.026 98.94C368.426 98.78 368.766 98.5467 369.046 98.24C369.339 97.92 369.566 97.5267 369.726 97.06C369.899 96.58 369.986 96.02 369.986 95.38V90.76H371.186V97.4ZM374.479 93.36C374.479 93.1867 374.472 92.98 374.459 92.74C374.446 92.4867 374.432 92.2333 374.419 91.98C374.419 91.7267 374.412 91.4933 374.399 91.28C374.386 91.0533 374.379 90.88 374.379 90.76H375.579C375.592 91.1067 375.599 91.44 375.599 91.76C375.612 92.08 375.632 92.2867 375.659 92.38H375.719C375.959 91.8733 376.359 91.44 376.919 91.08C377.479 90.7067 378.132 90.52 378.879 90.52C379.599 90.52 380.186 90.6333 380.639 90.86C381.092 91.0867 381.446 91.3867 381.699 91.76C381.966 92.12 382.146 92.54 382.239 93.02C382.346 93.5 382.399 93.9933 382.399 94.5V100H381.199V94.56C381.199 94.1867 381.166 93.8267 381.099 93.48C381.032 93.12 380.912 92.8 380.739 92.52C380.579 92.24 380.346 92.02 380.039 91.86C379.746 91.6867 379.359 91.6 378.879 91.6C378.439 91.6 378.019 91.68 377.619 91.84C377.232 91.9867 376.892 92.22 376.599 92.54C376.319 92.8467 376.092 93.24 375.919 93.72C375.759 94.1867 375.679 94.74 375.679 95.38V100H374.479V93.36ZM390.112 91.84H387.472V97.86C387.472 98.2733 387.586 98.5933 387.812 98.82C388.039 99.0467 388.352 99.16 388.752 99.16C388.979 99.16 389.206 99.1333 389.432 99.08C389.672 99.0133 389.899 98.9333 390.112 98.84L390.212 99.92C389.986 100 389.726 100.073 389.432 100.14C389.139 100.207 388.879 100.24 388.652 100.24C388.226 100.24 387.859 100.173 387.552 100.04C387.246 99.92 386.999 99.7533 386.812 99.54C386.626 99.3267 386.486 99.08 386.392 98.8C386.312 98.5067 386.272 98.1933 386.272 97.86V91.84H384.272V90.76H386.272V88.1H387.472V90.76H390.112V91.84ZM392.292 91.6C392.292 91.3333 392.386 91.1067 392.572 90.92C392.759 90.7333 392.986 90.64 393.252 90.64C393.519 90.64 393.746 90.7333 393.932 90.92C394.119 91.1067 394.212 91.3333 394.212 91.6C394.212 91.8667 394.119 92.0933 393.932 92.28C393.746 92.4667 393.519 92.56 393.252 92.56C392.986 92.56 392.759 92.4667 392.572 92.28C392.386 92.0933 392.292 91.8667 392.292 91.6ZM392.292 99.16C392.292 98.8933 392.386 98.6667 392.572 98.48C392.759 98.2933 392.986 98.2 393.252 98.2C393.519 98.2 393.746 98.2933 393.932 98.48C394.119 98.6667 394.212 98.8933 394.212 99.16C394.212 99.4267 394.119 99.6533 393.932 99.84C393.746 100.027 393.519 100.12 393.252 100.12C392.986 100.12 392.759 100.027 392.572 99.84C392.386 99.6533 392.292 99.4267 392.292 99.16Z" fill="black"/>
<rect x="0.5" y="0.5" width="585" height="519" rx="9.5" stroke="#DFE4D7" shape-rendering="crispEdges"/>
</g>
<defs>
<filter id="filter0_d_389_5923" x="0" y="0" width="594" height="528" filterUnits="userSpaceOnUse" color-interpolation-filters="sRGB">
<feFlood flood-opacity="0" result="BackgroundImageFix"/>
<feColorMatrix in="SourceAlpha" type="matrix" values="0 0 0 0 0 0 0 0 0 0 0 0 0 0 0 0 0 0 127 0" result="hardAlpha"/>
<feOffset dx="4" dy="4"/>
<feGaussianBlur stdDeviation="2"/>
<feComposite in2="hardAlpha" operator="out"/>
<feColorMatrix type="matrix" values="0 0 0 0 0.592157 0 0 0 0 0.843137 0 0 0 0 0.490196 0 0 0 1 0"/>
<feBlend mode="normal" in2="BackgroundImageFix" result="effect1_dropShadow_389_5923"/>
<feBlend mode="normal" in="SourceGraphic" in2="effect1_dropShadow_389_5923" result="shape"/>
</filter>
</defs>
</svg>
