<svg width="29" height="38" viewBox="0 0 29 38" fill="none" xmlns="http://www.w3.org/2000/svg">
<path d="M14.0065 0C13.0865 0 12.1465 0.0800002 11.2065 0.28C5.68649 1.34 1.28649 5.8 0.246491 11.32C-0.713509 16.54 1.20649 21.34 4.68649 24.44C5.54649 25.2 6.00649 26.26 6.00649 27.38V32C6.00649 34.2 7.80649 36 10.0065 36H10.5665C11.2665 37.2 12.5265 38 14.0065 38C15.4865 38 16.7665 37.2 17.4465 36H18.0065C20.2065 36 22.0065 34.2 22.0065 32V27.38C22.0065 26.28 22.4465 25.2 23.2865 24.46C26.1865 21.9 28.0065 18.16 28.0065 14C28.0065 6.26 21.7465 0 14.0065 0ZM18.0065 32H10.0065V30H18.0065V32ZM18.0065 28H10.0065V26H18.0065V28ZM15.0065 16.82V22H13.0065V16.82L9.34649 13.18L10.7665 11.76L14.0065 15L17.2465 11.76L18.6665 13.18L15.0065 16.82Z" fill="#326B1F"/>
</svg>
