<svg width="14" height="20" viewBox="0 0 14 20" fill="none" xmlns="http://www.w3.org/2000/svg">
<path d="M7.00314 0.879883C6.56154 0.879883 6.11035 0.918283 5.65915 1.01428C3.00955 1.52308 0.897545 3.66388 0.398345 6.31348C-0.0624552 8.81908 0.859145 11.1231 2.52954 12.6111C2.94234 12.9759 3.16314 13.4847 3.16314 14.0223V16.2399C3.16314 17.2959 4.02714 18.1599 5.08314 18.1599H5.35194C5.68794 18.7359 6.29274 19.1199 7.00314 19.1199C7.71354 19.1199 8.32794 18.7359 8.65434 18.1599H8.92314C9.97914 18.1599 10.8431 17.2959 10.8431 16.2399V14.0223C10.8431 13.4943 11.0543 12.9759 11.4575 12.6207C12.8495 11.3919 13.7231 9.59668 13.7231 7.59988C13.7231 3.88468 10.7183 0.879883 7.00314 0.879883ZM8.92314 16.2399H5.08314V15.2799H8.92314V16.2399ZM8.92314 14.3199H5.08314V13.3599H8.92314V14.3199ZM7.48314 8.95348V11.4399H6.52314V8.95348L4.76634 7.20628L5.44794 6.52468L7.00314 8.07988L8.55834 6.52468L9.23994 7.20628L7.48314 8.95348Z" fill="#326B1F"/>
</svg>
