<svg width="97" height="42" viewBox="0 0 97 42" fill="none" xmlns="http://www.w3.org/2000/svg">
<g filter="url(#filter0_d_139_7521)">
<rect width="93" height="38" rx="19" fill="#FDFDF6" shape-rendering="crispEdges"/>
<path d="M15.12 18.288C14.96 17.9787 14.7467 17.7333 14.48 17.552C14.2133 17.3707 13.888 17.28 13.504 17.28C13.3227 17.28 13.136 17.3013 12.944 17.344C12.7627 17.3867 12.5973 17.456 12.448 17.552C12.2987 17.6373 12.176 17.7493 12.08 17.888C11.9947 18.0267 11.952 18.1973 11.952 18.4C11.952 18.752 12.0747 19.008 12.32 19.168C12.5653 19.328 12.9333 19.4667 13.424 19.584L14.496 19.84C15.0187 19.9573 15.4507 20.1973 15.792 20.56C16.144 20.912 16.32 21.3547 16.32 21.888C16.32 22.2933 16.2347 22.6453 16.064 22.944C15.904 23.232 15.6853 23.472 15.408 23.664C15.1413 23.8453 14.832 23.9787 14.48 24.064C14.128 24.1493 13.7707 24.192 13.408 24.192C12.832 24.192 12.2933 24.0853 11.792 23.872C11.3013 23.648 10.88 23.2693 10.528 22.736L11.44 22.112C11.6533 22.4533 11.92 22.7253 12.24 22.928C12.5707 23.1307 12.96 23.232 13.408 23.232C13.6213 23.232 13.8347 23.2107 14.048 23.168C14.2613 23.1147 14.448 23.04 14.608 22.944C14.7787 22.8373 14.912 22.704 15.008 22.544C15.1147 22.384 15.168 22.1973 15.168 21.984C15.168 21.6107 15.0293 21.344 14.752 21.184C14.4747 21.0133 14.1387 20.88 13.744 20.784L12.72 20.544C12.592 20.512 12.416 20.4587 12.192 20.384C11.9787 20.3093 11.7653 20.1973 11.552 20.048C11.3493 19.8987 11.1733 19.7067 11.024 19.472C10.8747 19.2267 10.8 18.928 10.8 18.576C10.8 18.192 10.8747 17.856 11.024 17.568C11.184 17.28 11.392 17.0453 11.648 16.864C11.9147 16.6827 12.2133 16.5493 12.544 16.464C12.8747 16.368 13.216 16.32 13.568 16.32C14.0907 16.32 14.576 16.4213 15.024 16.624C15.472 16.8267 15.8187 17.1733 16.064 17.664L15.12 18.288ZM22.2205 20.272C21.9538 20.272 21.6178 20.288 21.2125 20.32C20.8178 20.3413 20.4338 20.4053 20.0605 20.512C19.6978 20.608 19.3832 20.7627 19.1165 20.976C18.8605 21.1893 18.7325 21.4827 18.7325 21.856C18.7325 22.1013 18.7805 22.3147 18.8765 22.496C18.9832 22.6667 19.1218 22.8107 19.2925 22.928C19.4632 23.0347 19.6498 23.1147 19.8525 23.168C20.0658 23.2107 20.2792 23.232 20.4925 23.232C20.8765 23.232 21.2072 23.168 21.4845 23.04C21.7725 22.912 22.0125 22.7413 22.2045 22.528C22.3965 22.304 22.5352 22.048 22.6205 21.76C22.7165 21.4613 22.7645 21.1467 22.7645 20.816V20.272H22.2205ZM22.7645 19.408V19.216C22.7645 17.9253 22.1245 17.28 20.8445 17.28C19.9698 17.28 19.2072 17.5733 18.5565 18.16L17.9165 17.408C18.6205 16.6827 19.6765 16.32 21.0845 16.32C21.4472 16.32 21.7938 16.3733 22.1245 16.48C22.4658 16.5867 22.7592 16.752 23.0045 16.976C23.2498 17.1893 23.4472 17.4613 23.5965 17.792C23.7458 18.1227 23.8205 18.5173 23.8205 18.976V22.32C23.8205 22.608 23.8312 22.912 23.8525 23.232C23.8845 23.5413 23.9165 23.7973 23.9485 24H22.9245C22.8925 23.8187 22.8658 23.6213 22.8445 23.408C22.8338 23.1947 22.8285 22.9867 22.8285 22.784H22.7965C22.4872 23.2853 22.1192 23.648 21.6925 23.872C21.2765 24.0853 20.7645 24.192 20.1565 24.192C19.8258 24.192 19.5058 24.144 19.1965 24.048C18.8872 23.9627 18.6098 23.8293 18.3645 23.648C18.1298 23.456 17.9378 23.2267 17.7885 22.96C17.6498 22.6827 17.5805 22.3627 17.5805 22C17.5805 21.392 17.7352 20.9173 18.0445 20.576C18.3645 20.224 18.7592 19.9627 19.2285 19.792C19.7085 19.6213 20.2152 19.5147 20.7485 19.472C21.2925 19.4293 21.7885 19.408 22.2365 19.408H22.7645ZM29.5574 24H28.3734L25.3334 16.512H26.5974L28.9814 22.816H29.0134L31.3974 16.512H32.5974L29.5574 24ZM39.8041 19.68C39.8041 18.9653 39.5908 18.3893 39.1641 17.952C38.7375 17.504 38.1401 17.28 37.3721 17.28C37.0308 17.28 36.7001 17.3493 36.3801 17.488C36.0601 17.616 35.7775 17.792 35.5321 18.016C35.2975 18.24 35.1055 18.496 34.9561 18.784C34.8175 19.072 34.7481 19.3707 34.7481 19.68H39.8041ZM34.7161 20.544C34.7481 20.9173 34.8388 21.2693 34.9881 21.6C35.1375 21.9307 35.3348 22.2187 35.5801 22.464C35.8255 22.6987 36.1081 22.8853 36.4281 23.024C36.7481 23.1627 37.0948 23.232 37.4681 23.232C38.0335 23.232 38.5188 23.104 38.9241 22.848C39.3401 22.5813 39.6548 22.2773 39.8681 21.936L40.6841 22.608C40.2361 23.1733 39.7401 23.5787 39.1961 23.824C38.6628 24.0693 38.0868 24.192 37.4681 24.192C36.9135 24.192 36.3961 24.096 35.9161 23.904C35.4468 23.7013 35.0415 23.424 34.7001 23.072C34.3588 22.72 34.0868 22.304 33.8841 21.824C33.6921 21.344 33.5961 20.8213 33.5961 20.256C33.5961 19.6907 33.6921 19.168 33.8841 18.688C34.0761 18.208 34.3428 17.792 34.6841 17.44C35.0255 17.088 35.4255 16.816 35.8841 16.624C36.3428 16.4213 36.8388 16.32 37.3721 16.32C37.9375 16.32 38.4441 16.4213 38.8921 16.624C39.3401 16.8267 39.7135 17.0987 40.0121 17.44C40.3215 17.7707 40.5561 18.1653 40.7161 18.624C40.8761 19.072 40.9561 19.552 40.9561 20.064V20.544H34.7161ZM53.1479 19.68C53.1479 18.9653 52.9345 18.3893 52.5079 17.952C52.0812 17.504 51.4839 17.28 50.7159 17.28C50.3745 17.28 50.0439 17.3493 49.7239 17.488C49.4039 17.616 49.1212 17.792 48.8759 18.016C48.6412 18.24 48.4492 18.496 48.2999 18.784C48.1612 19.072 48.0919 19.3707 48.0919 19.68H53.1479ZM48.0599 20.544C48.0919 20.9173 48.1825 21.2693 48.3319 21.6C48.4812 21.9307 48.6785 22.2187 48.9239 22.464C49.1692 22.6987 49.4519 22.8853 49.7719 23.024C50.0919 23.1627 50.4385 23.232 50.8119 23.232C51.3772 23.232 51.8625 23.104 52.2679 22.848C52.6839 22.5813 52.9985 22.2773 53.2119 21.936L54.0279 22.608C53.5799 23.1733 53.0839 23.5787 52.5399 23.824C52.0065 24.0693 51.4305 24.192 50.8119 24.192C50.2572 24.192 49.7399 24.096 49.2599 23.904C48.7905 23.7013 48.3852 23.424 48.0439 23.072C47.7025 22.72 47.4305 22.304 47.2279 21.824C47.0359 21.344 46.9399 20.8213 46.9399 20.256C46.9399 19.6907 47.0359 19.168 47.2279 18.688C47.4199 18.208 47.6865 17.792 48.0279 17.44C48.3692 17.088 48.7692 16.816 49.2279 16.624C49.6865 16.4213 50.1825 16.32 50.7159 16.32C51.2812 16.32 51.7879 16.4213 52.2359 16.624C52.6839 16.8267 53.0572 17.0987 53.3559 17.44C53.6652 17.7707 53.8999 18.1653 54.0599 18.624C54.2199 19.072 54.2999 19.552 54.2999 20.064V20.544H48.0599ZM57.2225 16.512C57.2438 16.7147 57.2545 16.9173 57.2545 17.12C57.2652 17.312 57.2705 17.5093 57.2705 17.712H57.3025C57.4198 17.5093 57.5692 17.3227 57.7505 17.152C57.9318 16.9813 58.1345 16.8373 58.3585 16.72C58.5825 16.592 58.8172 16.496 59.0625 16.432C59.3185 16.3573 59.5692 16.32 59.8145 16.32C60.7745 16.32 61.4838 16.576 61.9425 17.088C62.4012 17.5893 62.6305 18.3093 62.6305 19.248V24H61.5745V19.856C61.5745 19.024 61.4305 18.3893 61.1425 17.952C60.8545 17.504 60.3212 17.28 59.5425 17.28C59.4892 17.28 59.3398 17.3013 59.0945 17.344C58.8492 17.3867 58.5878 17.504 58.3105 17.696C58.0438 17.888 57.8038 18.176 57.5905 18.56C57.3772 18.944 57.2705 19.4773 57.2705 20.16V24H56.2145V18.16C56.2145 17.9573 56.2038 17.7013 56.1825 17.392C56.1718 17.0827 56.1558 16.7893 56.1345 16.512H57.2225ZM68.9771 17.472H66.8171V21.888C66.8171 22.1653 66.8438 22.3947 66.8971 22.576C66.9505 22.7467 67.0251 22.88 67.1211 22.976C67.2171 23.072 67.3291 23.1413 67.4571 23.184C67.5958 23.216 67.7451 23.232 67.9051 23.232C68.0865 23.232 68.2731 23.2053 68.4651 23.152C68.6571 23.0987 68.8331 23.0293 68.9931 22.944L69.0411 23.92C68.6465 24.1013 68.1718 24.192 67.6171 24.192C67.4145 24.192 67.2011 24.1653 66.9771 24.112C66.7638 24.0587 66.5665 23.9573 66.3851 23.808C66.2038 23.6587 66.0545 23.456 65.9371 23.2C65.8198 22.944 65.7611 22.608 65.7611 22.192V17.472H64.1771V16.512H65.7611V14.4H66.8171V16.512H68.9771V17.472ZM70.5296 18.848C70.5296 18.5173 70.519 18.1813 70.4976 17.84C70.487 17.4987 70.4763 17.056 70.4656 16.512H71.5056V17.904H71.5376C71.6123 17.7013 71.719 17.5093 71.8576 17.328C71.9963 17.136 72.1616 16.9653 72.3536 16.816C72.5563 16.6667 72.7856 16.5493 73.0416 16.464C73.3083 16.368 73.607 16.32 73.9376 16.32C74.2363 16.32 74.4976 16.352 74.7216 16.416L74.5136 17.456C74.375 17.4027 74.1723 17.376 73.9056 17.376C73.5003 17.376 73.1536 17.456 72.8656 17.616C72.5776 17.7653 72.3376 17.9627 72.1456 18.208C71.9536 18.4427 71.8096 18.6987 71.7136 18.976C71.6283 19.2533 71.5856 19.52 71.5856 19.776V24H70.5296V18.848ZM78.5141 22.704L80.8021 16.512H82.0821L78.3381 25.952C78.1141 26.528 77.8261 26.9867 77.4741 27.328C77.1328 27.6693 76.6368 27.84 75.9861 27.84C75.8261 27.84 75.6608 27.8347 75.4901 27.824C75.3301 27.8133 75.1701 27.7813 75.0101 27.728L75.1221 26.704C75.3461 26.8213 75.6128 26.88 75.9221 26.88C76.2955 26.88 76.5888 26.7627 76.8021 26.528C77.0155 26.2933 77.2021 25.9627 77.3621 25.536L77.9061 24.096L74.8341 16.512H76.1621L78.5141 22.704Z" fill="#DFE4D7"/>
</g>
<defs>
<filter id="filter0_d_139_7521" x="0" y="0" width="97" height="42" filterUnits="userSpaceOnUse" color-interpolation-filters="sRGB">
<feFlood flood-opacity="0" result="BackgroundImageFix"/>
<feColorMatrix in="SourceAlpha" type="matrix" values="0 0 0 0 0 0 0 0 0 0 0 0 0 0 0 0 0 0 127 0" result="hardAlpha"/>
<feOffset dx="4" dy="4"/>
<feComposite in2="hardAlpha" operator="out"/>
<feColorMatrix type="matrix" values="0 0 0 0 0.764706 0 0 0 0 0.784314 0 0 0 0 0.733333 0 0 0 1 0"/>
<feBlend mode="normal" in2="BackgroundImageFix" result="effect1_dropShadow_139_7521"/>
<feBlend mode="normal" in="SourceGraphic" in2="effect1_dropShadow_139_7521" result="shape"/>
</filter>
</defs>
</svg>
