<svg width="171" height="43" viewBox="0 0 171 43" fill="none" xmlns="http://www.w3.org/2000/svg">
<g filter="url(#filter0_d_19_9454)">
<rect y="0.159912" width="167" height="38" rx="19" fill="#FDFDF6" shape-rendering="crispEdges"/>
<path d="M11.472 16.6719L13.2 22.7519H13.232L15.232 16.6719H16.32L18.32 22.7519H18.352L20.08 16.6719H21.328L18.96 24.1599H17.776L15.792 18.0159H15.76L13.776 24.1599H12.592L10.224 16.6719H11.472ZM22.8109 19.0079C22.8109 18.6772 22.8002 18.3412 22.7789 17.9999C22.7682 17.6586 22.7575 17.2159 22.7469 16.6719H23.7869V18.0639H23.8189C23.8935 17.8612 24.0002 17.6692 24.1389 17.4879C24.2775 17.2959 24.4429 17.1252 24.6349 16.9759C24.8375 16.8266 25.0669 16.7092 25.3229 16.6239C25.5895 16.5279 25.8882 16.4799 26.2189 16.4799C26.5175 16.4799 26.7789 16.5119 27.0029 16.5759L26.7949 17.6159C26.6562 17.5626 26.4535 17.5359 26.1869 17.5359C25.7815 17.5359 25.4349 17.6159 25.1469 17.7759C24.8589 17.9252 24.6189 18.1226 24.4269 18.3679C24.2349 18.6026 24.0909 18.8586 23.9949 19.1359C23.9095 19.4132 23.8669 19.6799 23.8669 19.9359V24.1599H22.8109V19.0079ZM32.2674 20.4319C32.0007 20.4319 31.6647 20.4479 31.2594 20.4799C30.8647 20.5012 30.4807 20.5652 30.1074 20.6719C29.7447 20.7679 29.43 20.9226 29.1634 21.1359C28.9074 21.3492 28.7794 21.6426 28.7794 22.0159C28.7794 22.2612 28.8274 22.4746 28.9234 22.6559C29.03 22.8266 29.1687 22.9706 29.3394 23.0879C29.51 23.1946 29.6967 23.2746 29.8994 23.3279C30.1127 23.3706 30.326 23.3919 30.5394 23.3919C30.9234 23.3919 31.254 23.3279 31.5314 23.1999C31.8194 23.0719 32.0594 22.9012 32.2514 22.6879C32.4434 22.4639 32.582 22.2079 32.6674 21.9199C32.7634 21.6212 32.8114 21.3066 32.8114 20.9759V20.4319H32.2674ZM32.8114 19.5679V19.3759C32.8114 18.0852 32.1714 17.4399 30.8914 17.4399C30.0167 17.4399 29.254 17.7332 28.6034 18.3199L27.9634 17.5679C28.6674 16.8426 29.7234 16.4799 31.1314 16.4799C31.494 16.4799 31.8407 16.5332 32.1714 16.6399C32.5127 16.7466 32.806 16.9119 33.0514 17.1359C33.2967 17.3492 33.494 17.6212 33.6434 17.9519C33.7927 18.2826 33.8674 18.6772 33.8674 19.1359V22.4799C33.8674 22.7679 33.878 23.0719 33.8994 23.3919C33.9314 23.7012 33.9634 23.9572 33.9954 24.1599H32.9714C32.9394 23.9786 32.9127 23.7812 32.8914 23.5679C32.8807 23.3546 32.8754 23.1466 32.8754 22.9439H32.8434C32.534 23.4452 32.166 23.8079 31.7394 24.0319C31.3234 24.2452 30.8114 24.3519 30.2034 24.3519C29.8727 24.3519 29.5527 24.3039 29.2434 24.2079C28.934 24.1226 28.6567 23.9892 28.4114 23.8079C28.1767 23.6159 27.9847 23.3866 27.8354 23.1199C27.6967 22.8426 27.6274 22.5226 27.6274 22.1599C27.6274 21.5519 27.782 21.0772 28.0914 20.7359C28.4114 20.3839 28.806 20.1226 29.2754 19.9519C29.7554 19.7812 30.262 19.6746 30.7954 19.6319C31.3394 19.5892 31.8354 19.5679 32.2834 19.5679H32.8114ZM43.1403 20.4159C43.1403 19.9999 43.0709 19.6106 42.9323 19.2479C42.8043 18.8852 42.6176 18.5706 42.3723 18.3039C42.1269 18.0372 41.8283 17.8292 41.4763 17.6799C41.1349 17.5199 40.7456 17.4399 40.3083 17.4399C39.8709 17.4399 39.4709 17.5199 39.1083 17.6799C38.7456 17.8292 38.4309 18.0372 38.1643 18.3039C37.8976 18.5706 37.6896 18.8852 37.5403 19.2479C37.3909 19.6106 37.3163 19.9999 37.3163 20.4159C37.3163 20.8319 37.3909 21.2212 37.5403 21.5839C37.6896 21.9466 37.8976 22.2612 38.1643 22.5279C38.4309 22.7946 38.7456 23.0079 39.1083 23.1679C39.4709 23.3172 39.8709 23.3919 40.3083 23.3919C40.7456 23.3919 41.1349 23.3172 41.4763 23.1679C41.8283 23.0079 42.1269 22.7946 42.3723 22.5279C42.6176 22.2612 42.8043 21.9466 42.9323 21.5839C43.0709 21.2212 43.1403 20.8319 43.1403 20.4159ZM36.3083 16.6719H37.3643V17.9199H37.3963C37.5669 17.6639 37.7696 17.4452 38.0043 17.2639C38.2389 17.0826 38.4843 16.9332 38.7403 16.8159C38.9963 16.6986 39.2576 16.6132 39.5243 16.5599C39.8016 16.5066 40.0629 16.4799 40.3083 16.4799C40.8949 16.4799 41.4283 16.5812 41.9083 16.7839C42.3989 16.9759 42.8203 17.2479 43.1723 17.5999C43.5243 17.9519 43.7963 18.3679 43.9883 18.8479C44.1909 19.3279 44.2923 19.8506 44.2923 20.4159C44.2923 20.9812 44.1909 21.5039 43.9883 21.9839C43.7963 22.4639 43.5243 22.8799 43.1723 23.2319C42.8203 23.5839 42.3989 23.8612 41.9083 24.0639C41.4283 24.2559 40.8949 24.3519 40.3083 24.3519C40.0629 24.3519 39.8016 24.3252 39.5243 24.2719C39.2576 24.2186 38.9963 24.1332 38.7403 24.0159C38.4843 23.8986 38.2389 23.7492 38.0043 23.5679C37.7696 23.3866 37.5669 23.1679 37.3963 22.9119H37.3643V28.7679H36.3083V16.6719ZM55.9506 24.1599C55.9293 23.9572 55.9133 23.7599 55.9026 23.5679C55.9026 23.3652 55.9026 23.1626 55.9026 22.9599H55.8706C55.7533 23.1626 55.604 23.3492 55.4226 23.5199C55.2413 23.6906 55.0386 23.8399 54.8146 23.9679C54.5906 24.0852 54.3506 24.1759 54.0946 24.2399C53.8493 24.3146 53.604 24.3519 53.3586 24.3519C52.3986 24.3519 51.6893 24.1012 51.2306 23.5999C50.772 23.0879 50.5426 22.3626 50.5426 21.4239V16.6719H51.5986V20.8159C51.5986 21.2319 51.6306 21.5999 51.6946 21.9199C51.7586 22.2399 51.8653 22.5119 52.0146 22.7359C52.1746 22.9492 52.3826 23.1146 52.6386 23.2319C52.9053 23.3386 53.236 23.3919 53.6306 23.3919C53.684 23.3919 53.8333 23.3706 54.0786 23.3279C54.324 23.2852 54.58 23.1679 54.8466 22.9759C55.124 22.7839 55.3693 22.4959 55.5826 22.1119C55.796 21.7279 55.9026 21.1946 55.9026 20.5119V16.6719H56.9586V22.5119C56.9586 22.7146 56.964 22.9706 56.9746 23.2799C56.996 23.5892 57.0173 23.8826 57.0386 24.1599H55.9506ZM66.2653 20.4159C66.2653 19.9999 66.1959 19.6106 66.0573 19.2479C65.9293 18.8852 65.7426 18.5706 65.4973 18.3039C65.2519 18.0372 64.9533 17.8292 64.6013 17.6799C64.2599 17.5199 63.8706 17.4399 63.4333 17.4399C62.9959 17.4399 62.5959 17.5199 62.2333 17.6799C61.8706 17.8292 61.5559 18.0372 61.2893 18.3039C61.0226 18.5706 60.8146 18.8852 60.6653 19.2479C60.5159 19.6106 60.4413 19.9999 60.4413 20.4159C60.4413 20.8319 60.5159 21.2212 60.6653 21.5839C60.8146 21.9466 61.0226 22.2612 61.2893 22.5279C61.5559 22.7946 61.8706 23.0079 62.2333 23.1679C62.5959 23.3172 62.9959 23.3919 63.4333 23.3919C63.8706 23.3919 64.2599 23.3172 64.6013 23.1679C64.9533 23.0079 65.2519 22.7946 65.4973 22.5279C65.7426 22.2612 65.9293 21.9466 66.0573 21.5839C66.1959 21.2212 66.2653 20.8319 66.2653 20.4159ZM59.4333 16.6719H60.4893V17.9199H60.5213C60.6919 17.6639 60.8946 17.4452 61.1293 17.2639C61.3639 17.0826 61.6093 16.9332 61.8653 16.8159C62.1213 16.6986 62.3826 16.6132 62.6493 16.5599C62.9266 16.5066 63.1879 16.4799 63.4333 16.4799C64.0199 16.4799 64.5533 16.5812 65.0333 16.7839C65.5239 16.9759 65.9453 17.2479 66.2973 17.5999C66.6493 17.9519 66.9213 18.3679 67.1133 18.8479C67.3159 19.3279 67.4173 19.8506 67.4173 20.4159C67.4173 20.9812 67.3159 21.5039 67.1133 21.9839C66.9213 22.4639 66.6493 22.8799 66.2973 23.2319C65.9453 23.5839 65.5239 23.8612 65.0333 24.0639C64.5533 24.2559 64.0199 24.3519 63.4333 24.3519C63.1879 24.3519 62.9266 24.3252 62.6493 24.2719C62.3826 24.2186 62.1213 24.1332 61.8653 24.0159C61.6093 23.8986 61.3639 23.7492 61.1293 23.5679C60.8946 23.3866 60.6919 23.1679 60.5213 22.9119H60.4893V28.7679H59.4333V16.6719ZM77.5396 17.6319H75.3796V22.0479C75.3796 22.3252 75.4063 22.5546 75.4596 22.7359C75.513 22.9066 75.5876 23.0399 75.6836 23.1359C75.7796 23.2319 75.8916 23.3012 76.0196 23.3439C76.1583 23.3759 76.3076 23.3919 76.4676 23.3919C76.649 23.3919 76.8356 23.3652 77.0276 23.3119C77.2196 23.2586 77.3956 23.1892 77.5556 23.1039L77.6036 24.0799C77.209 24.2612 76.7343 24.3519 76.1796 24.3519C75.977 24.3519 75.7636 24.3252 75.5396 24.2719C75.3263 24.2186 75.129 24.1172 74.9476 23.9679C74.7663 23.8186 74.617 23.6159 74.4996 23.3599C74.3823 23.1039 74.3236 22.7679 74.3236 22.3519V17.6319H72.7396V16.6719H74.3236V14.5599H75.3796V16.6719H77.5396V17.6319ZM78.9801 12.0639H80.0361V17.8719H80.0681C80.1855 17.6692 80.3348 17.4826 80.5161 17.3119C80.6975 17.1412 80.9001 16.9972 81.1241 16.8799C81.3481 16.7519 81.5828 16.6559 81.8281 16.5919C82.0841 16.5172 82.3348 16.4799 82.5801 16.4799C83.5401 16.4799 84.2495 16.7359 84.7081 17.2479C85.1668 17.7492 85.3961 18.4692 85.3961 19.4079V24.1599H84.3401V20.0159C84.3401 19.1839 84.1961 18.5492 83.9081 18.1119C83.6201 17.6639 83.0868 17.4399 82.3081 17.4399C82.2548 17.4399 82.1055 17.4612 81.8601 17.5039C81.6148 17.5466 81.3535 17.6639 81.0761 17.8559C80.8095 18.0479 80.5695 18.3359 80.3561 18.7199C80.1428 19.1039 80.0361 19.6372 80.0361 20.3199V24.1599H78.9801V12.0639ZM89.4068 13.7919C89.4068 14.0159 89.3268 14.2026 89.1668 14.3519C89.0068 14.4906 88.8308 14.5599 88.6388 14.5599C88.4468 14.5599 88.2708 14.4906 88.1108 14.3519C87.9508 14.2026 87.8708 14.0159 87.8708 13.7919C87.8708 13.5679 87.9508 13.3866 88.1108 13.2479C88.2708 13.0986 88.4468 13.0239 88.6388 13.0239C88.8308 13.0239 89.0068 13.0986 89.1668 13.2479C89.3268 13.3866 89.4068 13.5679 89.4068 13.7919ZM89.1668 24.1599H88.1108V16.6719H89.1668V24.1599ZM95.6825 18.4479C95.5225 18.1386 95.3092 17.8932 95.0425 17.7119C94.7758 17.5306 94.4505 17.4399 94.0665 17.4399C93.8852 17.4399 93.6985 17.4612 93.5065 17.5039C93.3252 17.5466 93.1598 17.6159 93.0105 17.7119C92.8612 17.7972 92.7385 17.9092 92.6425 18.0479C92.5572 18.1866 92.5145 18.3572 92.5145 18.5599C92.5145 18.9119 92.6372 19.1679 92.8825 19.3279C93.1278 19.4879 93.4958 19.6266 93.9865 19.7439L95.0585 19.9999C95.5812 20.1172 96.0132 20.3572 96.3545 20.7199C96.7065 21.0719 96.8825 21.5146 96.8825 22.0479C96.8825 22.4532 96.7972 22.8052 96.6265 23.1039C96.4665 23.3919 96.2478 23.6319 95.9705 23.8239C95.7038 24.0052 95.3945 24.1386 95.0425 24.2239C94.6905 24.3092 94.3332 24.3519 93.9705 24.3519C93.3945 24.3519 92.8558 24.2452 92.3545 24.0319C91.8638 23.8079 91.4425 23.4292 91.0905 22.8959L92.0025 22.2719C92.2158 22.6132 92.4825 22.8852 92.8025 23.0879C93.1332 23.2906 93.5225 23.3919 93.9705 23.3919C94.1838 23.3919 94.3972 23.3706 94.6105 23.3279C94.8238 23.2746 95.0105 23.1999 95.1705 23.1039C95.3412 22.9972 95.4745 22.8639 95.5705 22.7039C95.6772 22.5439 95.7305 22.3572 95.7305 22.1439C95.7305 21.7706 95.5918 21.5039 95.3145 21.3439C95.0372 21.1732 94.7012 21.0399 94.3065 20.9439L93.2825 20.7039C93.1545 20.6719 92.9785 20.6186 92.7545 20.5439C92.5412 20.4692 92.3278 20.3572 92.1145 20.2079C91.9118 20.0586 91.7358 19.8666 91.5865 19.6319C91.4372 19.3866 91.3625 19.0879 91.3625 18.7359C91.3625 18.3519 91.4372 18.0159 91.5865 17.7279C91.7465 17.4399 91.9545 17.2052 92.2105 17.0239C92.4772 16.8426 92.7758 16.7092 93.1065 16.6239C93.4372 16.5279 93.7785 16.4799 94.1305 16.4799C94.6532 16.4799 95.1385 16.5812 95.5865 16.7839C96.0345 16.9866 96.3812 17.3332 96.6265 17.8239L95.6825 18.4479ZM102.98 18.3359C102.98 18.0586 102.969 17.7812 102.948 17.5039C102.937 17.2266 102.921 16.9492 102.9 16.6719H104.036V17.8079H104.068C104.324 17.3706 104.676 17.0399 105.124 16.8159C105.583 16.5919 106.036 16.4799 106.484 16.4799C106.687 16.4799 106.9 16.5012 107.124 16.5439C107.359 16.5866 107.583 16.6666 107.796 16.7839C108.009 16.8906 108.207 17.0452 108.388 17.2479C108.58 17.4506 108.74 17.7119 108.868 18.0319C109.081 17.5519 109.417 17.1732 109.876 16.8959C110.345 16.6186 110.831 16.4799 111.332 16.4799C112.292 16.4799 113.001 16.7359 113.46 17.2479C113.919 17.7492 114.148 18.4692 114.148 19.4079V24.1599H113.092V19.7919C113.092 19.0346 112.959 18.4532 112.692 18.0479C112.425 17.6426 111.929 17.4399 111.204 17.4399C110.809 17.4399 110.479 17.5199 110.212 17.6799C109.945 17.8292 109.727 18.0319 109.556 18.2879C109.396 18.5439 109.279 18.8372 109.204 19.1679C109.129 19.4879 109.092 19.8239 109.092 20.1759V24.1599H108.036V19.7919C108.036 19.0346 107.903 18.4532 107.636 18.0479C107.369 17.6426 106.873 17.4399 106.148 17.4399C106.084 17.4399 105.935 17.4612 105.7 17.5039C105.476 17.5466 105.241 17.6639 104.996 17.8559C104.751 18.0479 104.527 18.3359 104.324 18.7199C104.132 19.1039 104.036 19.6372 104.036 20.3199V24.1599H102.98V18.3359ZM123.021 20.4159C123.021 19.9999 122.952 19.6106 122.813 19.2479C122.685 18.8852 122.498 18.5706 122.253 18.3039C122.008 18.0372 121.709 17.8292 121.357 17.6799C121.016 17.5199 120.626 17.4399 120.189 17.4399C119.752 17.4399 119.357 17.5199 119.005 17.6799C118.664 17.8292 118.37 18.0372 118.125 18.3039C117.89 18.5706 117.704 18.8852 117.565 19.2479C117.437 19.6106 117.373 19.9999 117.373 20.4159C117.373 20.8319 117.437 21.2212 117.565 21.5839C117.704 21.9466 117.89 22.2612 118.125 22.5279C118.37 22.7946 118.664 23.0079 119.005 23.1679C119.357 23.3172 119.752 23.3919 120.189 23.3919C120.626 23.3919 121.016 23.3172 121.357 23.1679C121.709 23.0079 122.008 22.7946 122.253 22.5279C122.498 22.2612 122.685 21.9466 122.813 21.5839C122.952 21.2212 123.021 20.8319 123.021 20.4159ZM124.173 20.4159C124.173 20.9812 124.072 21.5039 123.869 21.9839C123.677 22.4639 123.405 22.8799 123.053 23.2319C122.701 23.5839 122.28 23.8612 121.789 24.0639C121.309 24.2559 120.776 24.3519 120.189 24.3519C119.613 24.3519 119.08 24.2559 118.589 24.0639C118.109 23.8612 117.693 23.5839 117.341 23.2319C116.989 22.8799 116.712 22.4639 116.509 21.9839C116.317 21.5039 116.221 20.9812 116.221 20.4159C116.221 19.8506 116.317 19.3279 116.509 18.8479C116.712 18.3679 116.989 17.9519 117.341 17.5999C117.693 17.2479 118.109 16.9759 118.589 16.7839C119.08 16.5812 119.613 16.4799 120.189 16.4799C120.776 16.4799 121.309 16.5812 121.789 16.7839C122.28 16.9759 122.701 17.2479 123.053 17.5999C123.405 17.9519 123.677 18.3679 123.869 18.8479C124.072 19.3279 124.173 19.8506 124.173 20.4159ZM126.73 20.4159C126.73 20.8319 126.794 21.2212 126.922 21.5839C127.06 21.9466 127.252 22.2612 127.498 22.5279C127.743 22.7946 128.036 23.0079 128.378 23.1679C128.73 23.3172 129.124 23.3919 129.562 23.3919C129.988 23.3919 130.383 23.3172 130.746 23.1679C131.119 23.0079 131.439 22.7946 131.706 22.5279C131.972 22.2612 132.18 21.9466 132.33 21.5839C132.479 21.2212 132.554 20.8319 132.554 20.4159C132.554 19.9999 132.479 19.6106 132.33 19.2479C132.18 18.8852 131.972 18.5706 131.706 18.3039C131.439 18.0372 131.119 17.8292 130.746 17.6799C130.383 17.5199 129.988 17.4399 129.562 17.4399C129.124 17.4399 128.73 17.5199 128.378 17.6799C128.036 17.8292 127.743 18.0372 127.498 18.3039C127.252 18.5706 127.06 18.8852 126.922 19.2479C126.794 19.6106 126.73 19.9999 126.73 20.4159ZM133.562 24.1599H132.506V22.9119H132.474C132.303 23.1679 132.1 23.3866 131.866 23.5679C131.631 23.7492 131.386 23.8986 131.13 24.0159C130.874 24.1332 130.607 24.2186 130.33 24.2719C130.063 24.3252 129.807 24.3519 129.562 24.3519C128.975 24.3519 128.436 24.2559 127.946 24.0639C127.466 23.8612 127.05 23.5839 126.698 23.2319C126.346 22.8799 126.068 22.4639 125.866 21.9839C125.674 21.5039 125.578 20.9812 125.578 20.4159C125.578 19.8506 125.674 19.3279 125.866 18.8479C126.068 18.3679 126.346 17.9519 126.698 17.5999C127.05 17.2479 127.466 16.9759 127.946 16.7839C128.436 16.5812 128.975 16.4799 129.562 16.4799C129.807 16.4799 130.063 16.5066 130.33 16.5599C130.607 16.6132 130.874 16.6986 131.13 16.8159C131.386 16.9332 131.631 17.0826 131.866 17.2639C132.1 17.4452 132.303 17.6639 132.474 17.9199H132.506V12.0639H133.562V24.1599ZM141.279 24.1599C141.257 23.9572 141.241 23.7599 141.231 23.5679C141.231 23.3652 141.231 23.1626 141.231 22.9599H141.199C141.081 23.1626 140.932 23.3492 140.751 23.5199C140.569 23.6906 140.367 23.8399 140.143 23.9679C139.919 24.0852 139.679 24.1759 139.423 24.2399C139.177 24.3146 138.932 24.3519 138.687 24.3519C137.727 24.3519 137.017 24.1012 136.559 23.5999C136.1 23.0879 135.871 22.3626 135.871 21.4239V16.6719H136.927V20.8159C136.927 21.2319 136.959 21.5999 137.023 21.9199C137.087 22.2399 137.193 22.5119 137.343 22.7359C137.503 22.9492 137.711 23.1146 137.967 23.2319C138.233 23.3386 138.564 23.3919 138.959 23.3919C139.012 23.3919 139.161 23.3706 139.407 23.3279C139.652 23.2852 139.908 23.1679 140.175 22.9759C140.452 22.7839 140.697 22.4959 140.911 22.1119C141.124 21.7279 141.231 21.1946 141.231 20.5119V16.6719H142.287V22.5119C142.287 22.7146 142.292 22.9706 142.303 23.2799C142.324 23.5892 142.345 23.8826 142.367 24.1599H141.279ZM146.057 24.1599H145.001V12.0639H146.057V24.1599ZM154.429 19.8399C154.429 19.1252 154.216 18.5492 153.789 18.1119C153.362 17.6639 152.765 17.4399 151.997 17.4399C151.656 17.4399 151.325 17.5092 151.005 17.6479C150.685 17.7759 150.402 17.9519 150.157 18.1759C149.922 18.3999 149.73 18.6559 149.581 18.9439C149.442 19.2319 149.373 19.5306 149.373 19.8399H154.429ZM149.341 20.7039C149.373 21.0772 149.464 21.4292 149.613 21.7599C149.762 22.0906 149.96 22.3786 150.205 22.6239C150.45 22.8586 150.733 23.0452 151.053 23.1839C151.373 23.3226 151.72 23.3919 152.093 23.3919C152.658 23.3919 153.144 23.2639 153.549 23.0079C153.965 22.7412 154.28 22.4372 154.493 22.0959L155.309 22.7679C154.861 23.3332 154.365 23.7386 153.821 23.9839C153.288 24.2292 152.712 24.3519 152.093 24.3519C151.538 24.3519 151.021 24.2559 150.541 24.0639C150.072 23.8612 149.666 23.5839 149.325 23.2319C148.984 22.8799 148.712 22.4639 148.509 21.9839C148.317 21.5039 148.221 20.9812 148.221 20.4159C148.221 19.8506 148.317 19.3279 148.509 18.8479C148.701 18.3679 148.968 17.9519 149.309 17.5999C149.65 17.2479 150.05 16.9759 150.509 16.7839C150.968 16.5812 151.464 16.4799 151.997 16.4799C152.562 16.4799 153.069 16.5812 153.517 16.7839C153.965 16.9866 154.338 17.2586 154.637 17.5999C154.946 17.9306 155.181 18.3252 155.341 18.7839C155.501 19.2319 155.581 19.7119 155.581 20.2239V20.7039H149.341Z" fill="#DFE4D7"/>
</g>
<defs>
<filter id="filter0_d_19_9454" x="0" y="0.159912" width="171" height="42" filterUnits="userSpaceOnUse" color-interpolation-filters="sRGB">
<feFlood flood-opacity="0" result="BackgroundImageFix"/>
<feColorMatrix in="SourceAlpha" type="matrix" values="0 0 0 0 0 0 0 0 0 0 0 0 0 0 0 0 0 0 127 0" result="hardAlpha"/>
<feOffset dx="4" dy="4"/>
<feComposite in2="hardAlpha" operator="out"/>
<feColorMatrix type="matrix" values="0 0 0 0 0.764706 0 0 0 0 0.784314 0 0 0 0 0.733333 0 0 0 1 0"/>
<feBlend mode="normal" in2="BackgroundImageFix" result="effect1_dropShadow_19_9454"/>
<feBlend mode="normal" in="SourceGraphic" in2="effect1_dropShadow_19_9454" result="shape"/>
</filter>
</defs>
</svg>
