<svg width="148" height="44" viewBox="0 0 148 44" fill="none" xmlns="http://www.w3.org/2000/svg">
<g filter="url(#filter0_d_167_16523)">
<rect width="144" height="40" rx="20" fill="#CCFFB4" shape-rendering="crispEdges"/>
<path d="M15.12 19.32C14.9493 19.1067 14.736 18.9307 14.48 18.792C14.2347 18.6427 13.9307 18.568 13.568 18.568C13.2267 18.568 12.928 18.6427 12.672 18.792C12.4267 18.9307 12.304 19.1387 12.304 19.416C12.304 19.64 12.3733 19.8213 12.512 19.96C12.6613 20.0987 12.832 20.2107 13.024 20.296C13.2267 20.3813 13.44 20.4453 13.664 20.488C13.888 20.5307 14.08 20.568 14.24 20.6C14.5493 20.6747 14.8373 20.7653 15.104 20.872C15.3813 20.9787 15.616 21.1173 15.808 21.288C16.0107 21.4587 16.1653 21.6667 16.272 21.912C16.3893 22.1573 16.448 22.456 16.448 22.808C16.448 23.2347 16.3573 23.6027 16.176 23.912C15.9947 24.2107 15.76 24.456 15.472 24.648C15.184 24.84 14.8533 24.9787 14.48 25.064C14.1173 25.1493 13.7493 25.192 13.376 25.192C12.7467 25.192 12.192 25.096 11.712 24.904C11.2427 24.712 10.8213 24.36 10.448 23.848L11.536 22.952C11.7707 23.1867 12.032 23.3947 12.32 23.576C12.608 23.7573 12.96 23.848 13.376 23.848C13.5573 23.848 13.7387 23.832 13.92 23.8C14.112 23.7573 14.2773 23.6987 14.416 23.624C14.5653 23.5387 14.6827 23.4373 14.768 23.32C14.864 23.192 14.912 23.048 14.912 22.888C14.912 22.6747 14.8427 22.4987 14.704 22.36C14.576 22.2213 14.416 22.1147 14.224 22.04C14.0427 21.9547 13.8453 21.8907 13.632 21.848C13.4293 21.7947 13.248 21.752 13.088 21.72C12.7787 21.6453 12.4853 21.56 12.208 21.464C11.9307 21.368 11.6853 21.24 11.472 21.08C11.2587 20.92 11.088 20.7173 10.96 20.472C10.832 20.2267 10.768 19.9227 10.768 19.56C10.768 19.1653 10.848 18.824 11.008 18.536C11.1787 18.2373 11.3973 17.992 11.664 17.8C11.9413 17.608 12.2507 17.464 12.592 17.368C12.944 17.272 13.296 17.224 13.648 17.224C14.16 17.224 14.6507 17.32 15.12 17.512C15.5893 17.704 15.9627 18.024 16.24 18.472L15.12 19.32ZM18.1974 12.904H19.6374V18.584H19.6694C19.8507 18.1787 20.1654 17.8533 20.6134 17.608C21.0614 17.352 21.5787 17.224 22.1654 17.224C22.528 17.224 22.8747 17.2827 23.2054 17.4C23.5467 17.5067 23.84 17.6773 24.0854 17.912C24.3414 18.1467 24.544 18.4507 24.6934 18.824C24.8427 19.1867 24.9174 19.6187 24.9174 20.12V25H23.4774V20.52C23.4774 20.168 23.4294 19.8693 23.3334 19.624C23.2374 19.368 23.1094 19.1653 22.9494 19.016C22.7894 18.856 22.6027 18.744 22.3894 18.68C22.1867 18.6053 21.9734 18.568 21.7494 18.568C21.4507 18.568 21.1734 18.616 20.9174 18.712C20.6614 18.808 20.4374 18.9627 20.2454 19.176C20.0534 19.3787 19.904 19.64 19.7974 19.96C19.6907 20.28 19.6374 20.6587 19.6374 21.096V25H18.1974V12.904ZM28.256 21.208C28.256 21.592 28.3147 21.9493 28.432 22.28C28.5493 22.6 28.7147 22.8773 28.928 23.112C29.1413 23.336 29.4027 23.5173 29.712 23.656C30.0213 23.784 30.368 23.848 30.752 23.848C31.136 23.848 31.4827 23.784 31.792 23.656C32.1013 23.5173 32.3627 23.336 32.576 23.112C32.7893 22.8773 32.9547 22.6 33.072 22.28C33.1893 21.9493 33.248 21.592 33.248 21.208C33.248 20.824 33.1893 20.472 33.072 20.152C32.9547 19.8213 32.7893 19.544 32.576 19.32C32.3627 19.0853 32.1013 18.904 31.792 18.776C31.4827 18.6373 31.136 18.568 30.752 18.568C30.368 18.568 30.0213 18.6373 29.712 18.776C29.4027 18.904 29.1413 19.0853 28.928 19.32C28.7147 19.544 28.5493 19.8213 28.432 20.152C28.3147 20.472 28.256 20.824 28.256 21.208ZM26.72 21.208C26.72 20.6533 26.8213 20.136 27.024 19.656C27.2373 19.176 27.5253 18.7547 27.888 18.392C28.2507 18.0293 28.6773 17.7467 29.168 17.544C29.6587 17.3307 30.1867 17.224 30.752 17.224C31.3173 17.224 31.8453 17.3307 32.336 17.544C32.8267 17.7467 33.2533 18.0293 33.616 18.392C33.9787 18.7547 34.2613 19.176 34.464 19.656C34.6773 20.136 34.784 20.6533 34.784 21.208C34.784 21.7627 34.6773 22.2853 34.464 22.776C34.2613 23.256 33.9787 23.6773 33.616 24.04C33.2533 24.392 32.8267 24.6747 32.336 24.888C31.8453 25.0907 31.3173 25.192 30.752 25.192C30.1867 25.192 29.6587 25.0907 29.168 24.888C28.6773 24.6747 28.2507 24.392 27.888 24.04C27.5253 23.6773 27.2373 23.256 27.024 22.776C26.8213 22.2853 26.72 21.7627 26.72 21.208ZM35.676 17.416H37.292L39.004 23.08H39.036L40.844 17.416H42.364L44.284 23.08H44.316L45.948 17.416H47.468L45.02 25H43.564L41.564 19.336H41.532L39.724 25H38.172L35.676 17.416ZM53.1818 12.904H54.6218V18.584H54.6538C54.8351 18.1787 55.1498 17.8533 55.5978 17.608C56.0458 17.352 56.5631 17.224 57.1498 17.224C57.5124 17.224 57.8591 17.2827 58.1898 17.4C58.5311 17.5067 58.8244 17.6773 59.0698 17.912C59.3258 18.1467 59.5284 18.4507 59.6778 18.824C59.8271 19.1867 59.9018 19.6187 59.9018 20.12V25H58.4618V20.52C58.4618 20.168 58.4138 19.8693 58.3178 19.624C58.2218 19.368 58.0938 19.1653 57.9338 19.016C57.7738 18.856 57.5871 18.744 57.3738 18.68C57.1711 18.6053 56.9578 18.568 56.7338 18.568C56.4351 18.568 56.1578 18.616 55.9018 18.712C55.6458 18.808 55.4218 18.9627 55.2298 19.176C55.0378 19.3787 54.8884 19.64 54.7818 19.96C54.6751 20.28 54.6218 20.6587 54.6218 21.096V25H53.1818V12.904ZM62.1844 17.416H63.6244V25H62.1844V17.416ZM61.8484 14.696C61.8484 14.408 61.9497 14.1627 62.1524 13.96C62.3657 13.7467 62.6164 13.64 62.9044 13.64C63.1924 13.64 63.4377 13.7467 63.6404 13.96C63.8537 14.1627 63.9604 14.408 63.9604 14.696C63.9604 14.984 63.8537 15.2347 63.6404 15.448C63.4377 15.6507 63.1924 15.752 62.9044 15.752C62.6164 15.752 62.3657 15.6507 62.1524 15.448C61.9497 15.2347 61.8484 14.984 61.8484 14.696ZM69.9481 19.32C69.7775 19.1067 69.5641 18.9307 69.3081 18.792C69.0628 18.6427 68.7588 18.568 68.3961 18.568C68.0548 18.568 67.7561 18.6427 67.5001 18.792C67.2548 18.9307 67.1321 19.1387 67.1321 19.416C67.1321 19.64 67.2015 19.8213 67.3401 19.96C67.4895 20.0987 67.6601 20.2107 67.8521 20.296C68.0548 20.3813 68.2681 20.4453 68.4921 20.488C68.7161 20.5307 68.9081 20.568 69.0681 20.6C69.3775 20.6747 69.6655 20.7653 69.9321 20.872C70.2095 20.9787 70.4441 21.1173 70.6361 21.288C70.8388 21.4587 70.9935 21.6667 71.1001 21.912C71.2175 22.1573 71.2761 22.456 71.2761 22.808C71.2761 23.2347 71.1855 23.6027 71.0041 23.912C70.8228 24.2107 70.5881 24.456 70.3001 24.648C70.0121 24.84 69.6815 24.9787 69.3081 25.064C68.9455 25.1493 68.5775 25.192 68.2041 25.192C67.5748 25.192 67.0201 25.096 66.5401 24.904C66.0708 24.712 65.6495 24.36 65.2761 23.848L66.3641 22.952C66.5988 23.1867 66.8601 23.3947 67.1481 23.576C67.4361 23.7573 67.7881 23.848 68.2041 23.848C68.3855 23.848 68.5668 23.832 68.7481 23.8C68.9401 23.7573 69.1055 23.6987 69.2441 23.624C69.3935 23.5387 69.5108 23.4373 69.5961 23.32C69.6921 23.192 69.7401 23.048 69.7401 22.888C69.7401 22.6747 69.6708 22.4987 69.5321 22.36C69.4041 22.2213 69.2441 22.1147 69.0521 22.04C68.8708 21.9547 68.6735 21.8907 68.4601 21.848C68.2575 21.7947 68.0761 21.752 67.9161 21.72C67.6068 21.6453 67.3135 21.56 67.0361 21.464C66.7588 21.368 66.5135 21.24 66.3001 21.08C66.0868 20.92 65.9161 20.7173 65.7881 20.472C65.6601 20.2267 65.5961 19.9227 65.5961 19.56C65.5961 19.1653 65.6761 18.824 65.8361 18.536C66.0068 18.2373 66.2255 17.992 66.4921 17.8C66.7695 17.608 67.0788 17.464 67.4201 17.368C67.7721 17.272 68.1241 17.224 68.4761 17.224C68.9881 17.224 69.4788 17.32 69.9481 17.512C70.4175 17.704 70.7908 18.024 71.0681 18.472L69.9481 19.32ZM77.0895 18.664H75.0255V22.104C75.0255 22.3173 75.0308 22.5307 75.0415 22.744C75.0522 22.9467 75.0895 23.1333 75.1535 23.304C75.2282 23.464 75.3348 23.5973 75.4735 23.704C75.6228 23.8 75.8362 23.848 76.1135 23.848C76.2842 23.848 76.4602 23.832 76.6415 23.8C76.8228 23.768 76.9882 23.7093 77.1375 23.624V24.936C76.9668 25.032 76.7428 25.096 76.4655 25.128C76.1988 25.1707 75.9908 25.192 75.8415 25.192C75.2868 25.192 74.8548 25.1173 74.5455 24.968C74.2468 24.808 74.0228 24.6053 73.8735 24.36C73.7348 24.1147 73.6495 23.8427 73.6175 23.544C73.5962 23.2347 73.5855 22.9253 73.5855 22.616V18.664H71.9215V17.416H73.5855V15.288H75.0255V17.416H77.0895V18.664ZM80.1154 21.208C80.1154 21.592 80.174 21.9493 80.2914 22.28C80.4087 22.6 80.574 22.8773 80.7874 23.112C81.0007 23.336 81.262 23.5173 81.5714 23.656C81.8807 23.784 82.2274 23.848 82.6114 23.848C82.9954 23.848 83.342 23.784 83.6514 23.656C83.9607 23.5173 84.222 23.336 84.4354 23.112C84.6487 22.8773 84.814 22.6 84.9314 22.28C85.0487 21.9493 85.1074 21.592 85.1074 21.208C85.1074 20.824 85.0487 20.472 84.9314 20.152C84.814 19.8213 84.6487 19.544 84.4354 19.32C84.222 19.0853 83.9607 18.904 83.6514 18.776C83.342 18.6373 82.9954 18.568 82.6114 18.568C82.2274 18.568 81.8807 18.6373 81.5714 18.776C81.262 18.904 81.0007 19.0853 80.7874 19.32C80.574 19.544 80.4087 19.8213 80.2914 20.152C80.174 20.472 80.1154 20.824 80.1154 21.208ZM78.5794 21.208C78.5794 20.6533 78.6807 20.136 78.8834 19.656C79.0967 19.176 79.3847 18.7547 79.7474 18.392C80.11 18.0293 80.5367 17.7467 81.0274 17.544C81.518 17.3307 82.046 17.224 82.6114 17.224C83.1767 17.224 83.7047 17.3307 84.1954 17.544C84.686 17.7467 85.1127 18.0293 85.4754 18.392C85.838 18.7547 86.1207 19.176 86.3234 19.656C86.5367 20.136 86.6434 20.6533 86.6434 21.208C86.6434 21.7627 86.5367 22.2853 86.3234 22.776C86.1207 23.256 85.838 23.6773 85.4754 24.04C85.1127 24.392 84.686 24.6747 84.1954 24.888C83.7047 25.0907 83.1767 25.192 82.6114 25.192C82.046 25.192 81.518 25.0907 81.0274 24.888C80.5367 24.6747 80.11 24.392 79.7474 24.04C79.3847 23.6773 79.0967 23.256 78.8834 22.776C78.6807 22.2853 78.5794 21.7627 78.5794 21.208ZM88.4474 17.416H89.8874V18.584H89.9194C90.0154 18.3813 90.1434 18.2 90.3034 18.04C90.4634 17.8693 90.6394 17.7253 90.8314 17.608C91.034 17.4907 91.2527 17.4 91.4874 17.336C91.722 17.2613 91.9567 17.224 92.1914 17.224C92.426 17.224 92.6394 17.256 92.8314 17.32L92.7674 18.872C92.65 18.84 92.5327 18.8133 92.4154 18.792C92.298 18.7707 92.1807 18.76 92.0634 18.76C91.3594 18.76 90.8207 18.9573 90.4474 19.352C90.074 19.7467 89.8874 20.36 89.8874 21.192V25H88.4474V17.416ZM93.4573 17.416H95.1213L97.3773 23.336H97.4093L99.5533 17.416H101.105L97.5052 26.632C97.3773 26.9627 97.2439 27.2613 97.1053 27.528C96.9666 27.8053 96.8013 28.04 96.6093 28.232C96.4173 28.424 96.1826 28.5733 95.9053 28.68C95.6386 28.7867 95.3079 28.84 94.9133 28.84C94.6999 28.84 94.4813 28.824 94.2573 28.792C94.0439 28.7707 93.8359 28.7173 93.6333 28.632L93.8092 27.32C94.0973 27.4373 94.3853 27.496 94.6733 27.496C94.8973 27.496 95.0839 27.464 95.2333 27.4C95.3933 27.3467 95.5266 27.2613 95.6332 27.144C95.7506 27.0373 95.8466 26.9093 95.9213 26.76C95.9959 26.6107 96.0706 26.44 96.1453 26.248L96.6093 25.048L93.4573 17.416Z" fill="#006C4D"/>
<path d="M112 15L122 25L132 15" stroke="#326B1F" stroke-width="3" stroke-linecap="round"/>
</g>
<defs>
<filter id="filter0_d_167_16523" x="0" y="0" width="148" height="44" filterUnits="userSpaceOnUse" color-interpolation-filters="sRGB">
<feFlood flood-opacity="0" result="BackgroundImageFix"/>
<feColorMatrix in="SourceAlpha" type="matrix" values="0 0 0 0 0 0 0 0 0 0 0 0 0 0 0 0 0 0 127 0" result="hardAlpha"/>
<feOffset dx="4" dy="4"/>
<feComposite in2="hardAlpha" operator="out"/>
<feColorMatrix type="matrix" values="0 0 0 0 0.615686 0 0 0 0 0.788235 0 0 0 0 0.333333 0 0 0 1 0"/>
<feBlend mode="normal" in2="BackgroundImageFix" result="effect1_dropShadow_167_16523"/>
<feBlend mode="normal" in="SourceGraphic" in2="effect1_dropShadow_167_16523" result="shape"/>
</filter>
</defs>
</svg>
