<svg width="179" height="44" viewBox="0 0 179 44" fill="none" xmlns="http://www.w3.org/2000/svg">
<g filter="url(#filter0_d_19_9481)">
<rect width="175" height="40" rx="20" fill="#CCFFB4" shape-rendering="crispEdges"/>
<path d="M16.059 23.368L20.603 18.856C20.763 18.7067 20.9176 18.5467 21.067 18.376C21.2163 18.1947 21.3496 18.008 21.467 17.816C21.5843 17.624 21.675 17.4213 21.739 17.208C21.8136 16.9947 21.851 16.7707 21.851 16.536C21.851 16.2587 21.7976 16.008 21.691 15.784C21.595 15.56 21.4563 15.3733 21.275 15.224C21.1043 15.064 20.8963 14.9413 20.651 14.856C20.4163 14.7707 20.1656 14.728 19.899 14.728C19.3443 14.728 18.8856 14.8827 18.523 15.192C18.1603 15.5013 17.931 15.928 17.835 16.472L16.171 16.328C16.2456 15.8267 16.3896 15.3947 16.603 15.032C16.827 14.6587 17.099 14.3493 17.419 14.104C17.7496 13.8587 18.123 13.6773 18.539 13.56C18.9656 13.4427 19.4243 13.384 19.915 13.384C20.4056 13.384 20.8643 13.4533 21.291 13.592C21.7283 13.72 22.107 13.9173 22.427 14.184C22.7576 14.44 23.0136 14.7653 23.195 15.16C23.387 15.544 23.483 15.9973 23.483 16.52C23.483 16.8933 23.4243 17.2453 23.307 17.576C23.2003 17.896 23.0563 18.2 22.875 18.488C22.6936 18.776 22.4856 19.048 22.251 19.304C22.0163 19.56 21.771 19.8107 21.515 20.056L17.787 23.656H23.483V25H16.059V23.368ZM26.4376 25.096C26.1496 25.096 25.8989 24.9947 25.6856 24.792C25.4829 24.5787 25.3816 24.328 25.3816 24.04C25.3816 23.752 25.4829 23.5067 25.6856 23.304C25.8989 23.0907 26.1496 22.984 26.4376 22.984C26.7256 22.984 26.9709 23.0907 27.1736 23.304C27.3869 23.5067 27.4936 23.752 27.4936 24.04C27.4936 24.328 27.3869 24.5787 27.1736 24.792C26.9709 24.9947 26.7256 25.096 26.4376 25.096ZM33.904 13.672H35.68L39.008 22.888H39.04L42.496 13.672H44.176L39.712 25H38.272L33.904 13.672ZM44.9969 17.416H46.4369V25H44.9969V17.416ZM44.6609 14.696C44.6609 14.408 44.7622 14.1627 44.9649 13.96C45.1782 13.7467 45.4289 13.64 45.7169 13.64C46.0049 13.64 46.2502 13.7467 46.4529 13.96C46.6662 14.1627 46.7729 14.408 46.7729 14.696C46.7729 14.984 46.6662 15.2347 46.4529 15.448C46.2502 15.6507 46.0049 15.752 45.7169 15.752C45.4289 15.752 45.1782 15.6507 44.9649 15.448C44.7622 15.2347 44.6609 14.984 44.6609 14.696ZM52.7606 19.32C52.59 19.1067 52.3766 18.9307 52.1206 18.792C51.8753 18.6427 51.5713 18.568 51.2086 18.568C50.8673 18.568 50.5686 18.6427 50.3126 18.792C50.0673 18.9307 49.9446 19.1387 49.9446 19.416C49.9446 19.64 50.014 19.8213 50.1526 19.96C50.302 20.0987 50.4726 20.2107 50.6646 20.296C50.8673 20.3813 51.0806 20.4453 51.3046 20.488C51.5286 20.5307 51.7206 20.568 51.8806 20.6C52.19 20.6747 52.478 20.7653 52.7446 20.872C53.022 20.9787 53.2566 21.1173 53.4486 21.288C53.6513 21.4587 53.806 21.6667 53.9126 21.912C54.03 22.1573 54.0886 22.456 54.0886 22.808C54.0886 23.2347 53.998 23.6027 53.8166 23.912C53.6353 24.2107 53.4006 24.456 53.1126 24.648C52.8246 24.84 52.494 24.9787 52.1206 25.064C51.758 25.1493 51.39 25.192 51.0166 25.192C50.3873 25.192 49.8326 25.096 49.3526 24.904C48.8833 24.712 48.462 24.36 48.0886 23.848L49.1766 22.952C49.4113 23.1867 49.6726 23.3947 49.9606 23.576C50.2486 23.7573 50.6006 23.848 51.0166 23.848C51.198 23.848 51.3793 23.832 51.5606 23.8C51.7526 23.7573 51.918 23.6987 52.0566 23.624C52.206 23.5387 52.3233 23.4373 52.4086 23.32C52.5046 23.192 52.5526 23.048 52.5526 22.888C52.5526 22.6747 52.4833 22.4987 52.3446 22.36C52.2166 22.2213 52.0566 22.1147 51.8646 22.04C51.6833 21.9547 51.486 21.8907 51.2726 21.848C51.07 21.7947 50.8886 21.752 50.7286 21.72C50.4193 21.6453 50.126 21.56 49.8486 21.464C49.5713 21.368 49.326 21.24 49.1126 21.08C48.8993 20.92 48.7286 20.7173 48.6006 20.472C48.4726 20.2267 48.4086 19.9227 48.4086 19.56C48.4086 19.1653 48.4886 18.824 48.6486 18.536C48.8193 18.2373 49.038 17.992 49.3046 17.8C49.582 17.608 49.8913 17.464 50.2326 17.368C50.5846 17.272 50.9366 17.224 51.2886 17.224C51.8006 17.224 52.2913 17.32 52.7606 17.512C53.23 17.704 53.6033 18.024 53.8806 18.472L52.7606 19.32ZM55.95 17.416H57.39V25H55.95V17.416ZM55.614 14.696C55.614 14.408 55.7153 14.1627 55.918 13.96C56.1313 13.7467 56.382 13.64 56.67 13.64C56.958 13.64 57.2033 13.7467 57.406 13.96C57.6193 14.1627 57.726 14.408 57.726 14.696C57.726 14.984 57.6193 15.2347 57.406 15.448C57.2033 15.6507 56.958 15.752 56.67 15.752C56.382 15.752 56.1313 15.6507 55.918 15.448C55.7153 15.2347 55.614 14.984 55.614 14.696ZM63.7458 18.664H61.6818V22.104C61.6818 22.3173 61.6871 22.5307 61.6978 22.744C61.7084 22.9467 61.7458 23.1333 61.8098 23.304C61.8844 23.464 61.9911 23.5973 62.1298 23.704C62.2791 23.8 62.4924 23.848 62.7698 23.848C62.9404 23.848 63.1164 23.832 63.2977 23.8C63.4791 23.768 63.6444 23.7093 63.7938 23.624V24.936C63.6231 25.032 63.3991 25.096 63.1218 25.128C62.8551 25.1707 62.6471 25.192 62.4978 25.192C61.9431 25.192 61.5111 25.1173 61.2018 24.968C60.9031 24.808 60.6791 24.6053 60.5298 24.36C60.3911 24.1147 60.3058 23.8427 60.2738 23.544C60.2524 23.2347 60.2418 22.9253 60.2418 22.616V18.664H58.5777V17.416H60.2418V15.288H61.6818V17.416H63.7458V18.664ZM70.0888 18.344C70.4941 17.9707 70.9634 17.6933 71.4968 17.512C72.0301 17.32 72.5634 17.224 73.0968 17.224C73.6514 17.224 74.1261 17.2933 74.5208 17.432C74.9261 17.5707 75.2568 17.7573 75.5128 17.992C75.7688 18.2267 75.9554 18.4987 76.0728 18.808C76.2008 19.1067 76.2648 19.4213 76.2648 19.752V23.624C76.2648 23.8907 76.2701 24.136 76.2808 24.36C76.2914 24.584 76.3074 24.7973 76.3288 25H75.0488C75.0168 24.616 75.0008 24.232 75.0008 23.848H74.9688C74.6488 24.3387 74.2701 24.6853 73.8328 24.888C73.3954 25.0907 72.8888 25.192 72.3128 25.192C71.9608 25.192 71.6248 25.144 71.3048 25.048C70.9848 24.952 70.7021 24.808 70.4568 24.616C70.2221 24.424 70.0354 24.1893 69.8968 23.912C69.7581 23.624 69.6888 23.2933 69.6888 22.92C69.6888 22.4293 69.7954 22.0187 70.0088 21.688C70.2328 21.3573 70.5314 21.0907 70.9048 20.888C71.2888 20.6747 71.7314 20.5253 72.2328 20.44C72.7448 20.344 73.2888 20.296 73.8648 20.296H74.9208V19.976C74.9208 19.784 74.8834 19.592 74.8088 19.4C74.7341 19.208 74.6221 19.0373 74.4728 18.888C74.3234 18.728 74.1368 18.6053 73.9128 18.52C73.6888 18.424 73.4221 18.376 73.1128 18.376C72.8354 18.376 72.5901 18.4027 72.3768 18.456C72.1741 18.5093 71.9874 18.5787 71.8168 18.664C71.6461 18.7387 71.4914 18.8293 71.3528 18.936C71.2141 19.0427 71.0808 19.144 70.9528 19.24L70.0888 18.344ZM74.1528 21.352C73.8114 21.352 73.4594 21.3733 73.0968 21.416C72.7448 21.448 72.4194 21.5173 72.1208 21.624C71.8328 21.7307 71.5928 21.88 71.4008 22.072C71.2194 22.264 71.1288 22.5093 71.1288 22.808C71.1288 23.2453 71.2728 23.56 71.5608 23.752C71.8594 23.944 72.2594 24.04 72.7608 24.04C73.1554 24.04 73.4914 23.976 73.7688 23.848C74.0461 23.7093 74.2701 23.5333 74.4408 23.32C74.6114 23.1067 74.7341 22.872 74.8088 22.616C74.8834 22.3493 74.9208 22.088 74.9208 21.832V21.352H74.1528ZM83.7776 19.432C83.511 19.1547 83.2283 18.9467 82.9296 18.808C82.6416 18.6587 82.295 18.584 81.8896 18.584C81.495 18.584 81.1483 18.6587 80.8496 18.808C80.5616 18.9467 80.3163 19.144 80.1136 19.4C79.9216 19.6453 79.7723 19.9333 79.6656 20.264C79.5696 20.584 79.5216 20.92 79.5216 21.272C79.5216 21.624 79.5803 21.96 79.6976 22.28C79.815 22.5893 79.9803 22.8613 80.1936 23.096C80.407 23.3307 80.663 23.5173 80.9616 23.656C81.2603 23.784 81.5963 23.848 81.9696 23.848C82.375 23.848 82.7216 23.7787 83.0096 23.64C83.2976 23.4907 83.5643 23.2773 83.8096 23L84.8336 24.024C84.4603 24.44 84.023 24.7387 83.5216 24.92C83.031 25.1013 82.5083 25.192 81.9536 25.192C81.367 25.192 80.8283 25.096 80.3376 24.904C79.8576 24.712 79.4416 24.4453 79.0896 24.104C78.7376 23.752 78.4656 23.336 78.2736 22.856C78.0816 22.3653 77.9856 21.8267 77.9856 21.24C77.9856 20.6533 78.0816 20.1147 78.2736 19.624C78.4656 19.1333 78.7323 18.712 79.0736 18.36C79.4256 18.008 79.8416 17.736 80.3216 17.544C80.8123 17.3413 81.3563 17.24 81.9536 17.24C82.5083 17.24 83.0363 17.3413 83.5376 17.544C84.0496 17.736 84.4923 18.0347 84.8656 18.44L83.7776 19.432ZM90.1364 18.664H88.0724V22.104C88.0724 22.3173 88.0777 22.5307 88.0884 22.744C88.099 22.9467 88.1364 23.1333 88.2004 23.304C88.275 23.464 88.3817 23.5973 88.5204 23.704C88.6697 23.8 88.883 23.848 89.1604 23.848C89.331 23.848 89.507 23.832 89.6884 23.8C89.8697 23.768 90.035 23.7093 90.1844 23.624V24.936C90.0137 25.032 89.7897 25.096 89.5124 25.128C89.2457 25.1707 89.0377 25.192 88.8884 25.192C88.3337 25.192 87.9017 25.1173 87.5924 24.968C87.2937 24.808 87.0697 24.6053 86.9204 24.36C86.7817 24.1147 86.6964 23.8427 86.6644 23.544C86.643 23.2347 86.6324 22.9253 86.6324 22.616V18.664H84.9684V17.416H86.6324V15.288H88.0724V17.416H90.1364V18.664ZM96.4474 17.416H97.8874V18.504H97.9194C98.1967 18.0987 98.5754 17.784 99.0554 17.56C99.546 17.336 100.047 17.224 100.559 17.224C101.146 17.224 101.674 17.3253 102.143 17.528C102.623 17.7307 103.029 18.0133 103.359 18.376C103.701 18.7387 103.962 19.1653 104.143 19.656C104.325 20.136 104.415 20.6533 104.415 21.208C104.415 21.7733 104.325 22.3013 104.143 22.792C103.962 23.272 103.701 23.6933 103.359 24.056C103.029 24.408 102.623 24.6853 102.143 24.888C101.674 25.0907 101.146 25.192 100.559 25.192C100.015 25.192 99.5034 25.08 99.0234 24.856C98.5434 24.6213 98.1754 24.3067 97.9194 23.912H97.8874V29.512H96.4474V17.416ZM100.383 18.568C99.9994 18.568 99.6527 18.6373 99.3434 18.776C99.034 18.904 98.7727 19.0853 98.5594 19.32C98.346 19.544 98.1807 19.8213 98.0634 20.152C97.946 20.472 97.8874 20.824 97.8874 21.208C97.8874 21.592 97.946 21.9493 98.0634 22.28C98.1807 22.6 98.346 22.8773 98.5594 23.112C98.7727 23.336 99.034 23.5173 99.3434 23.656C99.6527 23.784 99.9994 23.848 100.383 23.848C100.767 23.848 101.114 23.784 101.423 23.656C101.733 23.5173 101.994 23.336 102.207 23.112C102.421 22.8773 102.586 22.6 102.703 22.28C102.821 21.9493 102.879 21.592 102.879 21.208C102.879 20.824 102.821 20.472 102.703 20.152C102.586 19.8213 102.421 19.544 102.207 19.32C101.994 19.0853 101.733 18.904 101.423 18.776C101.114 18.6373 100.767 18.568 100.383 18.568ZM106.261 18.344C106.666 17.9707 107.135 17.6933 107.669 17.512C108.202 17.32 108.735 17.224 109.269 17.224C109.823 17.224 110.298 17.2933 110.693 17.432C111.098 17.5707 111.429 17.7573 111.685 17.992C111.941 18.2267 112.127 18.4987 112.245 18.808C112.373 19.1067 112.437 19.4213 112.437 19.752V23.624C112.437 23.8907 112.442 24.136 112.453 24.36C112.463 24.584 112.479 24.7973 112.501 25H111.221C111.189 24.616 111.173 24.232 111.173 23.848H111.141C110.821 24.3387 110.442 24.6853 110.005 24.888C109.567 25.0907 109.061 25.192 108.485 25.192C108.133 25.192 107.797 25.144 107.477 25.048C107.157 24.952 106.874 24.808 106.629 24.616C106.394 24.424 106.207 24.1893 106.069 23.912C105.93 23.624 105.861 23.2933 105.861 22.92C105.861 22.4293 105.967 22.0187 106.181 21.688C106.405 21.3573 106.703 21.0907 107.077 20.888C107.461 20.6747 107.903 20.5253 108.405 20.44C108.917 20.344 109.461 20.296 110.037 20.296H111.093V19.976C111.093 19.784 111.055 19.592 110.981 19.4C110.906 19.208 110.794 19.0373 110.645 18.888C110.495 18.728 110.309 18.6053 110.085 18.52C109.861 18.424 109.594 18.376 109.285 18.376C109.007 18.376 108.762 18.4027 108.549 18.456C108.346 18.5093 108.159 18.5787 107.989 18.664C107.818 18.7387 107.663 18.8293 107.525 18.936C107.386 19.0427 107.253 19.144 107.125 19.24L106.261 18.344ZM110.325 21.352C109.983 21.352 109.631 21.3733 109.269 21.416C108.917 21.448 108.591 21.5173 108.293 21.624C108.005 21.7307 107.765 21.88 107.573 22.072C107.391 22.264 107.301 22.5093 107.301 22.808C107.301 23.2453 107.445 23.56 107.733 23.752C108.031 23.944 108.431 24.04 108.933 24.04C109.327 24.04 109.663 23.976 109.941 23.848C110.218 23.7093 110.442 23.5333 110.613 23.32C110.783 23.1067 110.906 22.872 110.981 22.616C111.055 22.3493 111.093 22.088 111.093 21.832V21.352H110.325ZM122.126 24.936C122.126 25.512 122.024 26.0347 121.822 26.504C121.63 26.984 121.352 27.3947 120.99 27.736C120.627 28.088 120.19 28.36 119.678 28.552C119.166 28.744 118.6 28.84 117.982 28.84C117.256 28.84 116.59 28.7387 115.982 28.536C115.384 28.3333 114.814 27.9813 114.27 27.48L115.246 26.264C115.619 26.6693 116.024 26.9733 116.462 27.176C116.899 27.3893 117.395 27.496 117.95 27.496C118.483 27.496 118.926 27.416 119.278 27.256C119.63 27.1067 119.907 26.9093 120.11 26.664C120.323 26.4187 120.472 26.136 120.558 25.816C120.643 25.5067 120.686 25.192 120.686 24.872V23.752H120.638C120.36 24.2107 119.982 24.552 119.502 24.776C119.032 24.9893 118.536 25.096 118.014 25.096C117.459 25.096 116.942 25 116.462 24.808C115.992 24.6053 115.587 24.3333 115.246 23.992C114.904 23.64 114.638 23.2293 114.446 22.76C114.254 22.28 114.158 21.7627 114.158 21.208C114.158 20.6533 114.248 20.136 114.43 19.656C114.611 19.1653 114.867 18.7387 115.198 18.376C115.539 18.0133 115.944 17.7307 116.414 17.528C116.894 17.3253 117.427 17.224 118.014 17.224C118.526 17.224 119.022 17.336 119.502 17.56C119.992 17.784 120.376 18.0987 120.654 18.504H120.686V17.416H122.126V24.936ZM118.19 18.568C117.806 18.568 117.459 18.6373 117.15 18.776C116.84 18.904 116.579 19.0853 116.366 19.32C116.152 19.544 115.987 19.8213 115.87 20.152C115.752 20.472 115.694 20.824 115.694 21.208C115.694 21.976 115.918 22.5947 116.366 23.064C116.814 23.5227 117.422 23.752 118.19 23.752C118.958 23.752 119.566 23.5227 120.014 23.064C120.462 22.5947 120.686 21.976 120.686 21.208C120.686 20.824 120.627 20.472 120.51 20.152C120.392 19.8213 120.227 19.544 120.014 19.32C119.8 19.0853 119.539 18.904 119.23 18.776C118.92 18.6373 118.574 18.568 118.19 18.568ZM125.395 21.736C125.395 22.0667 125.464 22.3707 125.603 22.648C125.752 22.9147 125.944 23.144 126.179 23.336C126.413 23.528 126.685 23.6773 126.995 23.784C127.304 23.8907 127.624 23.944 127.955 23.944C128.403 23.944 128.792 23.8427 129.123 23.64C129.453 23.4267 129.757 23.1493 130.035 22.808L131.123 23.64C130.323 24.6747 129.203 25.192 127.763 25.192C127.165 25.192 126.621 25.0907 126.131 24.888C125.651 24.6853 125.24 24.408 124.899 24.056C124.568 23.6933 124.312 23.272 124.131 22.792C123.949 22.3013 123.859 21.7733 123.859 21.208C123.859 20.6427 123.955 20.12 124.147 19.64C124.349 19.1493 124.621 18.728 124.963 18.376C125.315 18.0133 125.731 17.7307 126.211 17.528C126.691 17.3253 127.213 17.224 127.779 17.224C128.451 17.224 129.016 17.3413 129.475 17.576C129.944 17.8107 130.328 18.12 130.627 18.504C130.925 18.8773 131.139 19.304 131.267 19.784C131.405 20.2533 131.475 20.7333 131.475 21.224V21.736H125.395ZM129.939 20.584C129.928 20.264 129.875 19.9707 129.779 19.704C129.693 19.4373 129.56 19.208 129.379 19.016C129.197 18.8133 128.968 18.6587 128.691 18.552C128.424 18.4347 128.109 18.376 127.747 18.376C127.395 18.376 127.069 18.4453 126.771 18.584C126.483 18.712 126.237 18.8827 126.035 19.096C125.832 19.3093 125.672 19.5493 125.555 19.816C125.448 20.072 125.395 20.328 125.395 20.584H129.939Z" fill="#006C4D"/>
<path d="M148 30L158 20L148 10" stroke="#326B1F" stroke-width="3" stroke-linecap="round"/>
</g>
<defs>
<filter id="filter0_d_19_9481" x="0" y="0" width="179" height="44" filterUnits="userSpaceOnUse" color-interpolation-filters="sRGB">
<feFlood flood-opacity="0" result="BackgroundImageFix"/>
<feColorMatrix in="SourceAlpha" type="matrix" values="0 0 0 0 0 0 0 0 0 0 0 0 0 0 0 0 0 0 127 0" result="hardAlpha"/>
<feOffset dx="4" dy="4"/>
<feComposite in2="hardAlpha" operator="out"/>
<feColorMatrix type="matrix" values="0 0 0 0 0.615686 0 0 0 0 0.788235 0 0 0 0 0.333333 0 0 0 1 0"/>
<feBlend mode="normal" in2="BackgroundImageFix" result="effect1_dropShadow_19_9481"/>
<feBlend mode="normal" in="SourceGraphic" in2="effect1_dropShadow_19_9481" result="shape"/>
</filter>
</defs>
</svg>
