<svg width="147" height="55" viewBox="0 0 147 55" fill="none" xmlns="http://www.w3.org/2000/svg">
<g filter="url(#filter0_d_437_1326)">
<rect width="143" height="51" rx="20" fill="#CCFFB4" shape-rendering="crispEdges"/>
<path d="M38.44 21.3C38.1867 20.98 37.84 20.7467 37.4 20.6C36.9733 20.44 36.5667 20.36 36.18 20.36C35.9533 20.36 35.72 20.3867 35.48 20.44C35.24 20.4933 35.0133 20.58 34.8 20.7C34.5867 20.8067 34.4133 20.9533 34.28 21.14C34.1467 21.3267 34.08 21.5533 34.08 21.82C34.08 22.2467 34.24 22.5733 34.56 22.8C34.88 23.0267 35.28 23.22 35.76 23.38C36.2533 23.54 36.78 23.7 37.34 23.86C37.9 24.02 38.42 24.2467 38.9 24.54C39.3933 24.8333 39.8 25.2267 40.12 25.72C40.44 26.2133 40.6 26.8733 40.6 27.7C40.6 28.4867 40.4533 29.1733 40.16 29.76C39.8667 30.3467 39.4667 30.8333 38.96 31.22C38.4667 31.6067 37.8867 31.8933 37.22 32.08C36.5667 32.2667 35.8733 32.36 35.14 32.36C34.22 32.36 33.3667 32.22 32.58 31.94C31.7933 31.66 31.06 31.2067 30.38 30.58L32.6 28.14C32.92 28.5667 33.32 28.9 33.8 29.14C34.2933 29.3667 34.8 29.48 35.32 29.48C35.5733 29.48 35.8267 29.4533 36.08 29.4C36.3467 29.3333 36.58 29.24 36.78 29.12C36.9933 29 37.16 28.8467 37.28 28.66C37.4133 28.4733 37.48 28.2533 37.48 28C37.48 27.5733 37.3133 27.24 36.98 27C36.66 26.7467 36.2533 26.5333 35.76 26.36C35.2667 26.1867 34.7333 26.0133 34.16 25.84C33.5867 25.6667 33.0533 25.4333 32.56 25.14C32.0667 24.8467 31.6533 24.46 31.32 23.98C31 23.5 30.84 22.8667 30.84 22.08C30.84 21.32 30.9867 20.6533 31.28 20.08C31.5867 19.5067 31.9867 19.0267 32.48 18.64C32.9867 18.2533 33.5667 17.9667 34.22 17.78C34.8733 17.58 35.5467 17.48 36.24 17.48C37.04 17.48 37.8133 17.5933 38.56 17.82C39.3067 18.0467 39.98 18.4267 40.58 18.96L38.44 21.3ZM42.8844 17.84H46.0044V32H42.8844V17.84ZM61.6623 31C60.7423 31.48 59.7823 31.8267 58.7823 32.04C57.7823 32.2533 56.7623 32.36 55.7223 32.36C54.6157 32.36 53.5957 32.1867 52.6623 31.84C51.729 31.4933 50.9223 31 50.2423 30.36C49.5623 29.7067 49.029 28.92 48.6423 28C48.269 27.08 48.0823 26.0533 48.0823 24.92C48.0823 23.7867 48.269 22.76 48.6423 21.84C49.029 20.92 49.5623 20.14 50.2423 19.5C50.9223 18.8467 51.729 18.3467 52.6623 18C53.5957 17.6533 54.6157 17.48 55.7223 17.48C56.8557 17.48 57.8957 17.62 58.8423 17.9C59.8023 18.1667 60.6423 18.6333 61.3623 19.3L59.1623 21.7C58.7357 21.26 58.2557 20.9267 57.7223 20.7C57.189 20.4733 56.5223 20.36 55.7223 20.36C55.0557 20.36 54.449 20.4733 53.9023 20.7C53.369 20.9267 52.909 21.2467 52.5223 21.66C52.1357 22.06 51.8357 22.54 51.6223 23.1C51.4223 23.66 51.3223 24.2667 51.3223 24.92C51.3223 25.5867 51.4223 26.2 51.6223 26.76C51.8357 27.3067 52.1357 27.7867 52.5223 28.2C52.909 28.6 53.369 28.9133 53.9023 29.14C54.449 29.3667 55.0557 29.48 55.7223 29.48C56.4023 29.48 56.989 29.4067 57.4823 29.26C57.9757 29.1 58.369 28.94 58.6623 28.78V26.48H56.1223V23.6H61.6623V31ZM64.4088 17.84H68.6488L74.6688 27.68H74.7088V17.84H77.8288V32H73.7488L67.5688 21.92H67.5288V32H64.4088V17.84ZM98.5753 26.54C98.5753 27.38 98.4486 28.1533 98.1953 28.86C97.942 29.5667 97.562 30.18 97.0553 30.7C96.562 31.22 95.942 31.6267 95.1953 31.92C94.4486 32.2133 93.5886 32.36 92.6153 32.36C91.6286 32.36 90.762 32.2133 90.0153 31.92C89.2686 31.6267 88.642 31.22 88.1353 30.7C87.642 30.18 87.2686 29.5667 87.0153 28.86C86.762 28.1533 86.6353 27.38 86.6353 26.54V17.84H89.7553V26.42C89.7553 26.86 89.822 27.2667 89.9553 27.64C90.102 28.0133 90.302 28.34 90.5553 28.62C90.8086 28.8867 91.1086 29.1 91.4553 29.26C91.8153 29.4067 92.202 29.48 92.6153 29.48C93.0286 29.48 93.4086 29.4067 93.7553 29.26C94.102 29.1 94.402 28.8867 94.6553 28.62C94.9086 28.34 95.102 28.0133 95.2353 27.64C95.382 27.2667 95.4553 26.86 95.4553 26.42V17.84H98.5753V26.54ZM101.46 17.84H106.72C107.453 17.84 108.146 17.9067 108.8 18.04C109.453 18.1733 110.02 18.4067 110.5 18.74C110.993 19.06 111.38 19.5 111.66 20.06C111.953 20.6067 112.1 21.3 112.1 22.14C112.1 22.9667 111.966 23.66 111.7 24.22C111.433 24.78 111.066 25.2267 110.6 25.56C110.133 25.8933 109.58 26.1333 108.94 26.28C108.3 26.4133 107.606 26.48 106.86 26.48H104.58V32H101.46V17.84ZM104.58 23.84H106.66C106.94 23.84 107.206 23.8133 107.46 23.76C107.726 23.7067 107.96 23.62 108.16 23.5C108.373 23.3667 108.54 23.1933 108.66 22.98C108.793 22.7533 108.86 22.4733 108.86 22.14C108.86 21.78 108.773 21.4933 108.6 21.28C108.44 21.0533 108.226 20.88 107.96 20.76C107.706 20.64 107.42 20.5667 107.1 20.54C106.78 20.5 106.473 20.48 106.18 20.48H104.58V23.84Z" fill="#0F4500"/>
</g>
<defs>
<filter id="filter0_d_437_1326" x="0" y="0" width="147" height="55" filterUnits="userSpaceOnUse" color-interpolation-filters="sRGB">
<feFlood flood-opacity="0" result="BackgroundImageFix"/>
<feColorMatrix in="SourceAlpha" type="matrix" values="0 0 0 0 0 0 0 0 0 0 0 0 0 0 0 0 0 0 127 0" result="hardAlpha"/>
<feOffset dx="4" dy="4"/>
<feComposite in2="hardAlpha" operator="out"/>
<feColorMatrix type="matrix" values="0 0 0 0 0.615686 0 0 0 0 0.788235 0 0 0 0 0.333333 0 0 0 1 0"/>
<feBlend mode="normal" in2="BackgroundImageFix" result="effect1_dropShadow_437_1326"/>
<feBlend mode="normal" in="SourceGraphic" in2="effect1_dropShadow_437_1326" result="shape"/>
</filter>
</defs>
</svg>
