<svg width="131" height="55" viewBox="0 0 131 55" fill="none" xmlns="http://www.w3.org/2000/svg">
<g filter="url(#filter0_d_397_7552)">
<rect width="127" height="51" rx="20" fill="#CCFFB4" shape-rendering="crispEdges"/>
<path d="M38.44 21.3C38.1867 20.98 37.84 20.7467 37.4 20.6C36.9733 20.44 36.5667 20.36 36.18 20.36C35.9533 20.36 35.72 20.3867 35.48 20.44C35.24 20.4933 35.0133 20.58 34.8 20.7C34.5867 20.8067 34.4133 20.9533 34.28 21.14C34.1467 21.3267 34.08 21.5533 34.08 21.82C34.08 22.2467 34.24 22.5733 34.56 22.8C34.88 23.0267 35.28 23.22 35.76 23.38C36.2533 23.54 36.78 23.7 37.34 23.86C37.9 24.02 38.42 24.2467 38.9 24.54C39.3933 24.8333 39.8 25.2267 40.12 25.72C40.44 26.2133 40.6 26.8733 40.6 27.7C40.6 28.4867 40.4533 29.1733 40.16 29.76C39.8667 30.3467 39.4667 30.8333 38.96 31.22C38.4667 31.6067 37.8867 31.8933 37.22 32.08C36.5667 32.2667 35.8733 32.36 35.14 32.36C34.22 32.36 33.3667 32.22 32.58 31.94C31.7933 31.66 31.06 31.2067 30.38 30.58L32.6 28.14C32.92 28.5667 33.32 28.9 33.8 29.14C34.2933 29.3667 34.8 29.48 35.32 29.48C35.5733 29.48 35.8267 29.4533 36.08 29.4C36.3467 29.3333 36.58 29.24 36.78 29.12C36.9933 29 37.16 28.8467 37.28 28.66C37.4133 28.4733 37.48 28.2533 37.48 28C37.48 27.5733 37.3133 27.24 36.98 27C36.66 26.7467 36.2533 26.5333 35.76 26.36C35.2667 26.1867 34.7333 26.0133 34.16 25.84C33.5867 25.6667 33.0533 25.4333 32.56 25.14C32.0667 24.8467 31.6533 24.46 31.32 23.98C31 23.5 30.84 22.8667 30.84 22.08C30.84 21.32 30.9867 20.6533 31.28 20.08C31.5867 19.5067 31.9867 19.0267 32.48 18.64C32.9867 18.2533 33.5667 17.9667 34.22 17.78C34.8733 17.58 35.5467 17.48 36.24 17.48C37.04 17.48 37.8133 17.5933 38.56 17.82C39.3067 18.0467 39.98 18.4267 40.58 18.96L38.44 21.3ZM51.9044 32H49.0244V30.68H48.9844C48.8777 30.8667 48.7377 31.0533 48.5644 31.24C48.4044 31.4267 48.2044 31.5933 47.9644 31.74C47.7244 31.8867 47.451 32.0067 47.1444 32.1C46.8377 32.1933 46.5044 32.24 46.1444 32.24C45.3844 32.24 44.7644 32.1267 44.2844 31.9C43.8177 31.66 43.451 31.3333 43.1844 30.92C42.931 30.5067 42.7577 30.02 42.6644 29.46C42.5844 28.9 42.5444 28.2933 42.5444 27.64V22.28H45.5444V27.04C45.5444 27.32 45.551 27.6133 45.5644 27.92C45.591 28.2133 45.651 28.4867 45.7444 28.74C45.851 28.9933 46.0044 29.2 46.2044 29.36C46.4177 29.52 46.7177 29.6 47.1044 29.6C47.491 29.6 47.8044 29.5333 48.0444 29.4C48.2844 29.2533 48.4644 29.0667 48.5844 28.84C48.7177 28.6 48.8044 28.3333 48.8444 28.04C48.8844 27.7467 48.9044 27.44 48.9044 27.12V22.28H51.9044V32ZM54.3088 16.88H57.3088V23.32H57.3488C57.6954 22.8533 58.1354 22.5267 58.6688 22.34C59.2154 22.14 59.8021 22.04 60.4288 22.04C61.1221 22.04 61.7421 22.1867 62.2888 22.48C62.8354 22.76 63.2954 23.14 63.6688 23.62C64.0554 24.1 64.3488 24.6533 64.5488 25.28C64.7621 25.8933 64.8688 26.54 64.8688 27.22C64.8688 27.9533 64.7554 28.6267 64.5288 29.24C64.3021 29.8533 63.9754 30.3867 63.5488 30.84C63.1354 31.28 62.6354 31.6267 62.0488 31.88C61.4621 32.12 60.8088 32.24 60.0888 32.24C59.7421 32.24 59.4154 32.1933 59.1088 32.1C58.8021 32.0067 58.5154 31.8867 58.2487 31.74C57.9954 31.5933 57.7688 31.4333 57.5688 31.26C57.3821 31.0733 57.2288 30.8933 57.1088 30.72H57.0688V32H54.3088V16.88ZM57.0688 27.14C57.0688 27.8733 57.2754 28.4667 57.6888 28.92C58.1154 29.3733 58.7088 29.6 59.4688 29.6C60.2288 29.6 60.8154 29.3733 61.2288 28.92C61.6554 28.4667 61.8688 27.8733 61.8688 27.14C61.8688 26.4067 61.6554 25.8133 61.2288 25.36C60.8154 24.9067 60.2288 24.68 59.4688 24.68C58.7088 24.68 58.1154 24.9067 57.6888 25.36C57.2754 25.8133 57.0688 26.4067 57.0688 27.14ZM66.6264 22.28H69.5064V23.6H69.5464C69.6397 23.4133 69.7731 23.2267 69.9464 23.04C70.1197 22.8533 70.3264 22.6867 70.5664 22.54C70.8064 22.3933 71.0797 22.2733 71.3864 22.18C71.6931 22.0867 72.0264 22.04 72.3864 22.04C73.0664 22.04 73.6664 22.18 74.1864 22.46C74.7197 22.74 75.1197 23.18 75.3864 23.78C75.7331 23.1533 76.1531 22.7067 76.6464 22.44C77.1397 22.1733 77.7464 22.04 78.4664 22.04C79.1197 22.04 79.6664 22.1533 80.1064 22.38C80.5597 22.5933 80.9131 22.8933 81.1664 23.28C81.4331 23.6533 81.6197 24.1 81.7264 24.62C81.8464 25.1267 81.9064 25.6733 81.9064 26.26V32H78.9064V26.34C78.9064 25.8867 78.8064 25.5 78.6064 25.18C78.4197 24.8467 78.0797 24.68 77.5864 24.68C77.2397 24.68 76.9464 24.74 76.7064 24.86C76.4797 24.9667 76.2931 25.12 76.1464 25.32C76.0131 25.52 75.9131 25.7533 75.8464 26.02C75.7931 26.2867 75.7664 26.5667 75.7664 26.86V32H72.7664V26.86C72.7664 26.6867 72.7597 26.4733 72.7464 26.22C72.7331 25.9667 72.6864 25.7267 72.6064 25.5C72.5264 25.2733 72.3931 25.08 72.2064 24.92C72.0331 24.76 71.7731 24.68 71.4264 24.68C71.0397 24.68 70.7264 24.7533 70.4864 24.9C70.2464 25.0333 70.0597 25.22 69.9264 25.46C69.8064 25.6867 69.7264 25.9467 69.6864 26.24C69.6464 26.5333 69.6264 26.84 69.6264 27.16V32H66.6264V22.28ZM84.0688 22.28H87.0688V32H84.0688V22.28ZM83.8288 19.22C83.8288 18.74 83.9954 18.3333 84.3288 18C84.6754 17.6533 85.0888 17.48 85.5688 17.48C86.0488 17.48 86.4554 17.6533 86.7888 18C87.1354 18.3333 87.3088 18.74 87.3088 19.22C87.3088 19.7 87.1354 20.1133 86.7888 20.46C86.4554 20.7933 86.0488 20.96 85.5688 20.96C85.0888 20.96 84.6754 20.7933 84.3288 20.46C83.9954 20.1133 83.8288 19.7 83.8288 19.22ZM95.8441 24.68H93.2041V27.92C93.2041 28.1867 93.2174 28.4333 93.2441 28.66C93.2707 28.8733 93.3307 29.06 93.4241 29.22C93.5174 29.38 93.6574 29.5067 93.8441 29.6C94.0441 29.68 94.3041 29.72 94.6241 29.72C94.7841 29.72 94.9907 29.7067 95.2441 29.68C95.5107 29.64 95.7107 29.56 95.8441 29.44V31.94C95.5107 32.06 95.1641 32.14 94.8041 32.18C94.4441 32.22 94.0907 32.24 93.7441 32.24C93.2374 32.24 92.7707 32.1867 92.3441 32.08C91.9174 31.9733 91.5441 31.8067 91.2241 31.58C90.9041 31.34 90.6507 31.0333 90.4641 30.66C90.2907 30.2867 90.2041 29.8333 90.2041 29.3V24.68H88.2841V22.28H90.2041V19.4H93.2041V22.28H95.8441V24.68Z" fill="#006C4D"/>
</g>
<defs>
<filter id="filter0_d_397_7552" x="0" y="0" width="131" height="55" filterUnits="userSpaceOnUse" color-interpolation-filters="sRGB">
<feFlood flood-opacity="0" result="BackgroundImageFix"/>
<feColorMatrix in="SourceAlpha" type="matrix" values="0 0 0 0 0 0 0 0 0 0 0 0 0 0 0 0 0 0 127 0" result="hardAlpha"/>
<feOffset dx="4" dy="4"/>
<feComposite in2="hardAlpha" operator="out"/>
<feColorMatrix type="matrix" values="0 0 0 0 0.615686 0 0 0 0 0.788235 0 0 0 0 0.333333 0 0 0 1 0"/>
<feBlend mode="normal" in2="BackgroundImageFix" result="effect1_dropShadow_397_7552"/>
<feBlend mode="normal" in="SourceGraphic" in2="effect1_dropShadow_397_7552" result="shape"/>
</filter>
</defs>
</svg>
