<svg width="178" height="55" viewBox="0 0 178 55" fill="none" xmlns="http://www.w3.org/2000/svg">
<g filter="url(#filter0_d_103_5939)">
<rect width="174" height="51" rx="20" fill="#CCFFB4" shape-rendering="crispEdges"/>
<path d="M37.68 24.68H35.04V27.92C35.04 28.1867 35.0533 28.4333 35.08 28.66C35.1067 28.8733 35.1667 29.06 35.26 29.22C35.3533 29.38 35.4933 29.5067 35.68 29.6C35.88 29.68 36.14 29.72 36.46 29.72C36.62 29.72 36.8267 29.7067 37.08 29.68C37.3467 29.64 37.5467 29.56 37.68 29.44V31.94C37.3467 32.06 37 32.14 36.64 32.18C36.28 32.22 35.9267 32.24 35.58 32.24C35.0733 32.24 34.6067 32.1867 34.18 32.08C33.7533 31.9733 33.38 31.8067 33.06 31.58C32.74 31.34 32.4867 31.0333 32.3 30.66C32.1267 30.2867 32.04 29.8333 32.04 29.3V24.68H30.12V22.28H32.04V19.4H35.04V22.28H37.68V24.68ZM45.3045 30.78H45.2645C44.9312 31.3 44.4845 31.6733 43.9245 31.9C43.3779 32.1267 42.7979 32.24 42.1845 32.24C41.7312 32.24 41.2912 32.1733 40.8645 32.04C40.4512 31.92 40.0845 31.7333 39.7645 31.48C39.4445 31.2267 39.1912 30.9133 39.0045 30.54C38.8179 30.1667 38.7245 29.7333 38.7245 29.24C38.7245 28.68 38.8245 28.2067 39.0245 27.82C39.2379 27.4333 39.5179 27.1133 39.8645 26.86C40.2245 26.6067 40.6312 26.4133 41.0845 26.28C41.5379 26.1333 42.0045 26.0267 42.4845 25.96C42.9779 25.8933 43.4645 25.8533 43.9445 25.84C44.4379 25.8267 44.8912 25.82 45.3045 25.82C45.3045 25.2867 45.1112 24.8667 44.7245 24.56C44.3512 24.24 43.9045 24.08 43.3845 24.08C42.8912 24.08 42.4379 24.1867 42.0245 24.4C41.6245 24.6 41.2645 24.88 40.9445 25.24L39.3445 23.6C39.9045 23.08 40.5579 22.6933 41.3045 22.44C42.0512 22.1733 42.8245 22.04 43.6245 22.04C44.5045 22.04 45.2245 22.1533 45.7845 22.38C46.3579 22.5933 46.8112 22.9133 47.1445 23.34C47.4912 23.7667 47.7312 24.2933 47.8645 24.92C47.9979 25.5333 48.0645 26.2467 48.0645 27.06V32H45.3045V30.78ZM44.5645 27.74C44.3379 27.74 44.0512 27.7533 43.7045 27.78C43.3712 27.7933 43.0445 27.8467 42.7245 27.94C42.4179 28.0333 42.1512 28.1733 41.9245 28.36C41.7112 28.5467 41.6045 28.8067 41.6045 29.14C41.6045 29.5 41.7579 29.7667 42.0645 29.94C42.3712 30.1133 42.6912 30.2 43.0245 30.2C43.3179 30.2 43.5979 30.16 43.8645 30.08C44.1445 30 44.3912 29.8867 44.6045 29.74C44.8179 29.5933 44.9845 29.4067 45.1045 29.18C45.2379 28.9533 45.3045 28.6867 45.3045 28.38V27.74H44.5645ZM49.9467 16.88H52.9467V26.12L56.2667 22.28H59.9467L56.0867 26.66L60.0467 32H56.2667L52.9867 27.08H52.9467V32H49.9467V16.88ZM70.26 30.32C69.78 30.9333 69.1733 31.4067 68.44 31.74C67.7067 32.0733 66.9467 32.24 66.16 32.24C65.4133 32.24 64.7067 32.12 64.04 31.88C63.3867 31.64 62.8133 31.3 62.32 30.86C61.84 30.4067 61.46 29.8667 61.18 29.24C60.9 28.6133 60.76 27.9133 60.76 27.14C60.76 26.3667 60.9 25.6667 61.18 25.04C61.46 24.4133 61.84 23.88 62.32 23.44C62.8133 22.9867 63.3867 22.64 64.04 22.4C64.7067 22.16 65.4133 22.04 66.16 22.04C66.8533 22.04 67.48 22.16 68.04 22.4C68.6133 22.64 69.0933 22.9867 69.48 23.44C69.88 23.88 70.1867 24.4133 70.4 25.04C70.6133 25.6667 70.72 26.3667 70.72 27.14V28.08H63.76C63.88 28.6533 64.14 29.1133 64.54 29.46C64.94 29.7933 65.4333 29.96 66.02 29.96C66.5133 29.96 66.9267 29.8533 67.26 29.64C67.6067 29.4133 67.9067 29.1267 68.16 28.78L70.26 30.32ZM67.72 26.04C67.7333 25.5333 67.5667 25.1 67.22 24.74C66.8733 24.38 66.4267 24.2 65.88 24.2C65.5467 24.2 65.2533 24.2533 65 24.36C64.7467 24.4667 64.5267 24.6067 64.34 24.78C64.1667 24.94 64.0267 25.1333 63.92 25.36C63.8267 25.5733 63.7733 25.8 63.76 26.04H67.72ZM84.5623 30.78H84.5223C84.189 31.3 83.7423 31.6733 83.1823 31.9C82.6357 32.1267 82.0557 32.24 81.4423 32.24C80.989 32.24 80.549 32.1733 80.1223 32.04C79.709 31.92 79.3423 31.7333 79.0223 31.48C78.7023 31.2267 78.449 30.9133 78.2623 30.54C78.0757 30.1667 77.9823 29.7333 77.9823 29.24C77.9823 28.68 78.0823 28.2067 78.2823 27.82C78.4957 27.4333 78.7757 27.1133 79.1223 26.86C79.4823 26.6067 79.889 26.4133 80.3423 26.28C80.7957 26.1333 81.2623 26.0267 81.7423 25.96C82.2357 25.8933 82.7223 25.8533 83.2023 25.84C83.6957 25.8267 84.149 25.82 84.5623 25.82C84.5623 25.2867 84.369 24.8667 83.9823 24.56C83.609 24.24 83.1623 24.08 82.6423 24.08C82.149 24.08 81.6957 24.1867 81.2823 24.4C80.8823 24.6 80.5223 24.88 80.2023 25.24L78.6023 23.6C79.1623 23.08 79.8157 22.6933 80.5623 22.44C81.309 22.1733 82.0823 22.04 82.8823 22.04C83.7623 22.04 84.4823 22.1533 85.0423 22.38C85.6157 22.5933 86.069 22.9133 86.4023 23.34C86.749 23.7667 86.989 24.2933 87.1223 24.92C87.2557 25.5333 87.3223 26.2467 87.3223 27.06V32H84.5623V30.78ZM83.8223 27.74C83.5957 27.74 83.309 27.7533 82.9623 27.78C82.629 27.7933 82.3023 27.8467 81.9823 27.94C81.6757 28.0333 81.409 28.1733 81.1823 28.36C80.969 28.5467 80.8623 28.8067 80.8623 29.14C80.8623 29.5 81.0157 29.7667 81.3223 29.94C81.629 30.1133 81.949 30.2 82.2823 30.2C82.5757 30.2 82.8557 30.16 83.1223 30.08C83.4023 30 83.649 29.8867 83.8623 29.74C84.0757 29.5933 84.2423 29.4067 84.3623 29.18C84.4957 28.9533 84.5623 28.6867 84.5623 28.38V27.74H83.8223ZM95.7845 25.42C95.6379 25.2067 95.4312 25.0333 95.1645 24.9C94.8979 24.7533 94.6112 24.68 94.3045 24.68C93.5445 24.68 92.9512 24.9067 92.5245 25.36C92.1112 25.8133 91.9045 26.4067 91.9045 27.14C91.9045 27.8733 92.1112 28.4667 92.5245 28.92C92.9512 29.3733 93.5445 29.6 94.3045 29.6C94.6379 29.6 94.9245 29.5267 95.1645 29.38C95.4045 29.2333 95.6112 29.06 95.7845 28.86L97.7645 30.94C97.2979 31.42 96.7445 31.76 96.1045 31.96C95.4779 32.1467 94.8779 32.24 94.3045 32.24C93.5579 32.24 92.8512 32.12 92.1845 31.88C91.5312 31.64 90.9579 31.3 90.4645 30.86C89.9845 30.4067 89.6045 29.8667 89.3245 29.24C89.0445 28.6133 88.9045 27.9133 88.9045 27.14C88.9045 26.3667 89.0445 25.6667 89.3245 25.04C89.6045 24.4133 89.9845 23.88 90.4645 23.44C90.9579 22.9867 91.5312 22.64 92.1845 22.4C92.8512 22.16 93.5579 22.04 94.3045 22.04C94.8779 22.04 95.4779 22.14 96.1045 22.34C96.7445 22.5267 97.2979 22.86 97.7645 23.34L95.7845 25.42ZM105.473 24.68H102.833V27.92C102.833 28.1867 102.846 28.4333 102.873 28.66C102.9 28.8733 102.96 29.06 103.053 29.22C103.146 29.38 103.286 29.5067 103.473 29.6C103.673 29.68 103.933 29.72 104.253 29.72C104.413 29.72 104.62 29.7067 104.873 29.68C105.14 29.64 105.34 29.56 105.473 29.44V31.94C105.14 32.06 104.793 32.14 104.433 32.18C104.073 32.22 103.72 32.24 103.373 32.24C102.866 32.24 102.4 32.1867 101.973 32.08C101.546 31.9733 101.173 31.8067 100.853 31.58C100.533 31.34 100.28 31.0333 100.093 30.66C99.9196 30.2867 99.833 29.8333 99.833 29.3V24.68H97.913V22.28H99.833V19.4H102.833V22.28H105.473V24.68ZM107.038 22.28H110.038V32H107.038V22.28ZM106.798 19.22C106.798 18.74 106.964 18.3333 107.298 18C107.644 17.6533 108.058 17.48 108.538 17.48C109.018 17.48 109.424 17.6533 109.758 18C110.104 18.3333 110.278 18.74 110.278 19.22C110.278 19.7 110.104 20.1133 109.758 20.46C109.424 20.7933 109.018 20.96 108.538 20.96C108.058 20.96 107.644 20.7933 107.298 20.46C106.964 20.1133 106.798 19.7 106.798 19.22ZM111.833 27.14C111.833 26.3667 111.973 25.6667 112.253 25.04C112.533 24.4133 112.913 23.88 113.393 23.44C113.886 22.9867 114.459 22.64 115.113 22.4C115.779 22.16 116.486 22.04 117.233 22.04C117.979 22.04 118.679 22.16 119.333 22.4C119.999 22.64 120.573 22.9867 121.053 23.44C121.546 23.88 121.933 24.4133 122.213 25.04C122.493 25.6667 122.633 26.3667 122.633 27.14C122.633 27.9133 122.493 28.6133 122.213 29.24C121.933 29.8667 121.546 30.4067 121.053 30.86C120.573 31.3 119.999 31.64 119.333 31.88C118.679 32.12 117.979 32.24 117.233 32.24C116.486 32.24 115.779 32.12 115.113 31.88C114.459 31.64 113.886 31.3 113.393 30.86C112.913 30.4067 112.533 29.8667 112.253 29.24C111.973 28.6133 111.833 27.9133 111.833 27.14ZM114.833 27.14C114.833 27.8733 115.039 28.4667 115.453 28.92C115.879 29.3733 116.473 29.6 117.233 29.6C117.993 29.6 118.579 29.3733 118.993 28.92C119.419 28.4667 119.633 27.8733 119.633 27.14C119.633 26.4067 119.419 25.8133 118.993 25.36C118.579 24.9067 117.993 24.68 117.233 24.68C116.473 24.68 115.879 24.9067 115.453 25.36C115.039 25.8133 114.833 26.4067 114.833 27.14ZM124.4 22.28H127.28V23.6H127.32C127.413 23.4133 127.547 23.2267 127.72 23.04C127.893 22.8533 128.1 22.6867 128.34 22.54C128.58 22.3933 128.853 22.2733 129.16 22.18C129.467 22.0867 129.8 22.04 130.16 22.04C130.92 22.04 131.533 22.16 132 22.4C132.467 22.6267 132.827 22.9467 133.08 23.36C133.347 23.7733 133.527 24.26 133.62 24.82C133.713 25.38 133.76 25.9867 133.76 26.64V32H130.76V27.24C130.76 26.96 130.747 26.6733 130.72 26.38C130.707 26.0733 130.647 25.7933 130.54 25.54C130.447 25.2867 130.293 25.08 130.08 24.92C129.88 24.76 129.587 24.68 129.2 24.68C128.813 24.68 128.5 24.7533 128.26 24.9C128.02 25.0333 127.833 25.22 127.7 25.46C127.58 25.6867 127.5 25.9467 127.46 26.24C127.42 26.5333 127.4 26.84 127.4 27.16V32H124.4V22.28ZM140.764 27.32H137.764V17.84H140.764V27.32ZM137.424 30.28C137.424 30.0267 137.471 29.7867 137.564 29.56C137.658 29.3333 137.784 29.14 137.944 28.98C138.118 28.8067 138.318 28.6733 138.544 28.58C138.771 28.4867 139.011 28.44 139.264 28.44C139.518 28.44 139.758 28.4867 139.984 28.58C140.211 28.6733 140.404 28.8067 140.564 28.98C140.738 29.14 140.871 29.3333 140.964 29.56C141.058 29.7867 141.104 30.0267 141.104 30.28C141.104 30.5333 141.058 30.7733 140.964 31C140.871 31.2267 140.738 31.4267 140.564 31.6C140.404 31.76 140.211 31.8867 139.984 31.98C139.758 32.0733 139.518 32.12 139.264 32.12C139.011 32.12 138.771 32.0733 138.544 31.98C138.318 31.8867 138.118 31.76 137.944 31.6C137.784 31.4267 137.658 31.2267 137.564 31C137.471 30.7733 137.424 30.5333 137.424 30.28Z" fill="#006C4D"/>
</g>
<defs>
<filter id="filter0_d_103_5939" x="0" y="0" width="178" height="55" filterUnits="userSpaceOnUse" color-interpolation-filters="sRGB">
<feFlood flood-opacity="0" result="BackgroundImageFix"/>
<feColorMatrix in="SourceAlpha" type="matrix" values="0 0 0 0 0 0 0 0 0 0 0 0 0 0 0 0 0 0 127 0" result="hardAlpha"/>
<feOffset dx="4" dy="4"/>
<feComposite in2="hardAlpha" operator="out"/>
<feColorMatrix type="matrix" values="0 0 0 0 0.615686 0 0 0 0 0.788235 0 0 0 0 0.333333 0 0 0 1 0"/>
<feBlend mode="normal" in2="BackgroundImageFix" result="effect1_dropShadow_103_5939"/>
<feBlend mode="normal" in="SourceGraphic" in2="effect1_dropShadow_103_5939" result="shape"/>
</filter>
</defs>
</svg>
