<svg width="308" height="89" viewBox="0 0 308 89" fill="none" xmlns="http://www.w3.org/2000/svg">
<mask id="path-1-outside-1_389_6695" maskUnits="userSpaceOnUse" x="0.303955" y="42.162" width="308" height="47" fill="black">
<rect fill="white" x="0.303955" y="42.162" width="308" height="47"/>
<path d="M19.4376 76.5641L31.6933 45.2785C31.823 44.9475 32.1422 44.7297 32.4978 44.7297H33.0366C33.4066 44.7297 33.7355 44.9652 33.8546 45.3156L44.5597 76.8052C44.8167 77.577 45.0477 78.2834 45.2525 78.9244C45.5273 79.7846 46.9535 79.781 47.2343 78.9228C47.4425 78.2868 47.6755 77.601 47.9334 76.8655L58.8206 44.4743C58.9388 44.1225 59.2684 43.8856 59.6395 43.8856H60.8185C61.4121 43.8856 61.8289 44.4703 61.6353 45.0314L47.2306 86.7742C47.1104 87.1226 46.7824 87.3564 46.4139 87.3564H45.9566C45.5891 87.3564 45.2618 87.1239 45.1408 86.7769L34.1976 55.4014C34.0369 54.8789 33.8562 54.3563 33.6554 53.8338C33.4947 53.3113 33.3542 52.849 33.2337 52.4471C33.1132 52.0451 32.9927 51.7035 32.8722 51.4221L32.6312 50.6986V50.6986C32.618 50.6324 32.4757 50.6206 32.4539 50.6845C31.9896 52.0492 31.4061 53.6014 30.7034 55.3411L18.3277 86.8086C18.1977 87.1391 17.8787 87.3564 17.5236 87.3564H17.0396C16.6719 87.3564 16.3444 87.1236 16.2236 86.7763L1.70324 45.0334C1.50793 44.472 1.92481 43.8856 2.51928 43.8856H3.87804C4.24807 43.8856 4.57701 44.1212 4.69609 44.4715L15.5217 76.3229C16.0438 77.7699 16.4656 79.0762 16.7869 80.2419V80.2419C16.9538 80.7804 17.8001 80.7735 17.9913 80.2432C18.3379 79.2824 18.82 78.056 19.4376 76.5641Z"/>
<path d="M71.8133 86.9947C71.3361 86.9947 70.9493 86.6078 70.9493 86.1307V44.7496C70.9493 44.2724 71.3361 43.8856 71.8133 43.8856H90.0865C90.5637 43.8856 90.9505 44.2724 90.9505 44.7496V45.5538C90.9505 46.031 90.5637 46.4178 90.0865 46.4178H74.705C74.2278 46.4178 73.841 46.8047 73.841 47.2818V61.4108C73.841 61.8879 74.2278 62.2748 74.705 62.2748H88.4599C88.9371 62.2748 89.3239 62.6616 89.3239 63.1388V63.8827C89.3239 64.3599 88.9371 64.7467 88.4599 64.7467H74.705C74.2278 64.7467 73.841 65.1336 73.841 65.6107V83.5984C73.841 84.0755 74.2278 84.4624 74.705 84.4624H90.7492C91.2264 84.4624 91.6132 84.8492 91.6132 85.3264V86.1307C91.6132 86.6078 91.2264 86.9947 90.7492 86.9947H71.8133Z"/>
<path d="M104.054 86.9947C103.576 86.9947 103.19 86.6078 103.19 86.1307V44.7496C103.19 44.2724 103.576 43.8856 104.054 43.8856H105.217C105.695 43.8856 106.081 44.2724 106.081 44.7496V83.4778C106.081 83.955 106.468 84.3418 106.945 84.3418H125.038C125.515 84.3418 125.902 84.7286 125.902 85.2058V86.1307C125.902 86.6078 125.515 86.9947 125.038 86.9947H104.054Z"/>
<path d="M152.91 87.7182C146.644 87.7182 141.263 85.5878 136.764 81.3272C132.266 77.0263 130.017 71.7407 130.017 65.4703C130.017 59.1596 131.985 53.874 135.921 49.6133C139.857 45.3125 144.897 43.162 151.042 43.162C155.594 43.162 160.199 43.8791 164.859 45.3131C165.314 45.4534 165.562 45.9413 165.415 46.395L165.16 47.1818C165.015 47.6285 164.539 47.8768 164.088 47.7482C159.56 46.4593 155.212 45.8149 151.042 45.8149C145.781 45.8149 141.483 47.7041 138.15 51.4824C134.816 55.2607 133.15 59.8832 133.15 65.3497C133.15 70.8162 135.077 75.4788 138.933 79.3375C142.829 83.156 147.488 85.0653 152.91 85.0653C157.294 85.0653 161.128 84.4462 164.412 83.2081C164.853 83.042 165.352 83.2399 165.542 83.6709L165.791 84.2366C165.969 84.6396 165.816 85.1143 165.422 85.3104C163.995 86.0196 162.214 86.581 160.079 86.9947C157.629 87.477 155.239 87.7182 152.91 87.7182Z"/>
<path d="M179.929 81.2669C175.953 76.966 173.965 71.6804 173.965 65.41C173.965 59.1395 175.953 53.874 179.929 49.6133C183.946 45.3125 189.006 43.162 195.111 43.162C201.216 43.162 206.276 45.3125 210.293 49.6133C214.309 53.874 216.317 59.1395 216.317 65.41C216.317 71.6804 214.309 76.966 210.293 81.2669C206.276 85.5677 201.216 87.7182 195.111 87.7182C189.006 87.7182 183.946 85.5677 179.929 81.2669ZM182.098 51.4824C178.764 55.2205 177.098 59.8631 177.098 65.41C177.098 70.9569 178.764 75.6195 182.098 79.3978C185.472 83.1761 189.809 85.0653 195.111 85.0653C200.453 85.0653 204.79 83.1761 208.124 79.3978C211.497 75.6195 213.184 70.9569 213.184 65.41C213.184 59.8631 211.497 55.2205 208.124 51.4824C204.79 47.7041 200.453 45.8149 195.111 45.8149C189.769 45.8149 185.432 47.7041 182.098 51.4824Z"/>
<path d="M250.276 84.2654C250.134 84.5695 249.828 84.7638 249.493 84.7638H248.994C248.644 84.7638 248.329 84.5528 248.196 84.2295L235.825 54.2559C235.675 53.9044 235.53 53.5617 235.392 53.2277C235.043 52.3844 233.718 52.5349 233.599 53.4398L233.476 54.3764L228.647 86.26C228.583 86.6824 228.22 86.9947 227.792 86.9947H226.6C226.067 86.9947 225.662 86.5171 225.748 85.9912L232.574 44.2484C232.642 43.8306 233.003 43.5238 233.427 43.5238H233.805C234.153 43.5238 234.467 43.7323 234.602 44.053L247.814 75.4788C248.031 75.952 248.234 76.417 248.423 76.8739C248.754 77.6756 250.266 77.73 250.636 76.9455C250.836 76.5227 251.06 76.054 251.308 75.5391L266.076 44.0212C266.218 43.7177 266.523 43.5238 266.858 43.5238H267.192C267.62 43.5238 267.983 43.8362 268.047 44.2588L274.352 86.0016C274.431 86.5243 274.026 86.9947 273.498 86.9947H272.239C271.809 86.9947 271.445 86.6788 271.384 86.2534L266.791 54.2559C266.533 52.6089 266.378 51.2862 266.328 50.2878C266.315 50.0391 266.109 49.9886 266.008 50.2163V50.2163C265.887 50.5378 265.646 51.1006 265.285 51.9045C264.963 52.6682 264.622 53.4721 264.261 54.3161L250.276 84.2654Z"/>
<path d="M287.2 86.9947C286.723 86.9947 286.336 86.6078 286.336 86.1307V44.7496C286.336 44.2724 286.723 43.8856 287.2 43.8856H305.473C305.95 43.8856 306.337 44.2724 306.337 44.7496V45.5538C306.337 46.031 305.95 46.4178 305.473 46.4178H290.092C289.615 46.4178 289.228 46.8047 289.228 47.2818V61.4108C289.228 61.8879 289.615 62.2748 290.092 62.2748H303.847C304.324 62.2748 304.711 62.6616 304.711 63.1388V63.8827C304.711 64.3599 304.324 64.7467 303.847 64.7467H290.092C289.615 64.7467 289.228 65.1336 289.228 65.6107V83.5984C289.228 84.0755 289.615 84.4624 290.092 84.4624H306.136C306.613 84.4624 307 84.8492 307 85.3264V86.1307C307 86.6078 306.613 86.9947 306.136 86.9947H287.2Z"/>
</mask>
<path d="M19.4376 76.5641L31.6933 45.2785C31.823 44.9475 32.1422 44.7297 32.4978 44.7297H33.0366C33.4066 44.7297 33.7355 44.9652 33.8546 45.3156L44.5597 76.8052C44.8167 77.577 45.0477 78.2834 45.2525 78.9244C45.5273 79.7846 46.9535 79.781 47.2343 78.9228C47.4425 78.2868 47.6755 77.601 47.9334 76.8655L58.8206 44.4743C58.9388 44.1225 59.2684 43.8856 59.6395 43.8856H60.8185C61.4121 43.8856 61.8289 44.4703 61.6353 45.0314L47.2306 86.7742C47.1104 87.1226 46.7824 87.3564 46.4139 87.3564H45.9566C45.5891 87.3564 45.2618 87.1239 45.1408 86.7769L34.1976 55.4014C34.0369 54.8789 33.8562 54.3563 33.6554 53.8338C33.4947 53.3113 33.3542 52.849 33.2337 52.4471C33.1132 52.0451 32.9927 51.7035 32.8722 51.4221L32.6312 50.6986V50.6986C32.618 50.6324 32.4757 50.6206 32.4539 50.6845C31.9896 52.0492 31.4061 53.6014 30.7034 55.3411L18.3277 86.8086C18.1977 87.1391 17.8787 87.3564 17.5236 87.3564H17.0396C16.6719 87.3564 16.3444 87.1236 16.2236 86.7763L1.70324 45.0334C1.50793 44.472 1.92481 43.8856 2.51928 43.8856H3.87804C4.24807 43.8856 4.57701 44.1212 4.69609 44.4715L15.5217 76.3229C16.0438 77.7699 16.4656 79.0762 16.7869 80.2419V80.2419C16.9538 80.7804 17.8001 80.7735 17.9913 80.2432C18.3379 79.2824 18.82 78.056 19.4376 76.5641Z" fill="url(#paint0_linear_389_6695)"/>
<path d="M71.8133 86.9947C71.3361 86.9947 70.9493 86.6078 70.9493 86.1307V44.7496C70.9493 44.2724 71.3361 43.8856 71.8133 43.8856H90.0865C90.5637 43.8856 90.9505 44.2724 90.9505 44.7496V45.5538C90.9505 46.031 90.5637 46.4178 90.0865 46.4178H74.705C74.2278 46.4178 73.841 46.8047 73.841 47.2818V61.4108C73.841 61.8879 74.2278 62.2748 74.705 62.2748H88.4599C88.9371 62.2748 89.3239 62.6616 89.3239 63.1388V63.8827C89.3239 64.3599 88.9371 64.7467 88.4599 64.7467H74.705C74.2278 64.7467 73.841 65.1336 73.841 65.6107V83.5984C73.841 84.0755 74.2278 84.4624 74.705 84.4624H90.7492C91.2264 84.4624 91.6132 84.8492 91.6132 85.3264V86.1307C91.6132 86.6078 91.2264 86.9947 90.7492 86.9947H71.8133Z" fill="url(#paint1_linear_389_6695)"/>
<path d="M104.054 86.9947C103.576 86.9947 103.19 86.6078 103.19 86.1307V44.7496C103.19 44.2724 103.576 43.8856 104.054 43.8856H105.217C105.695 43.8856 106.081 44.2724 106.081 44.7496V83.4778C106.081 83.955 106.468 84.3418 106.945 84.3418H125.038C125.515 84.3418 125.902 84.7286 125.902 85.2058V86.1307C125.902 86.6078 125.515 86.9947 125.038 86.9947H104.054Z" fill="url(#paint2_linear_389_6695)"/>
<path d="M152.91 87.7182C146.644 87.7182 141.263 85.5878 136.764 81.3272C132.266 77.0263 130.017 71.7407 130.017 65.4703C130.017 59.1596 131.985 53.874 135.921 49.6133C139.857 45.3125 144.897 43.162 151.042 43.162C155.594 43.162 160.199 43.8791 164.859 45.3131C165.314 45.4534 165.562 45.9413 165.415 46.395L165.16 47.1818C165.015 47.6285 164.539 47.8768 164.088 47.7482C159.56 46.4593 155.212 45.8149 151.042 45.8149C145.781 45.8149 141.483 47.7041 138.15 51.4824C134.816 55.2607 133.15 59.8832 133.15 65.3497C133.15 70.8162 135.077 75.4788 138.933 79.3375C142.829 83.156 147.488 85.0653 152.91 85.0653C157.294 85.0653 161.128 84.4462 164.412 83.2081C164.853 83.042 165.352 83.2399 165.542 83.6709L165.791 84.2366C165.969 84.6396 165.816 85.1143 165.422 85.3104C163.995 86.0196 162.214 86.581 160.079 86.9947C157.629 87.477 155.239 87.7182 152.91 87.7182Z" fill="url(#paint3_linear_389_6695)"/>
<path d="M179.929 81.2669C175.953 76.966 173.965 71.6804 173.965 65.41C173.965 59.1395 175.953 53.874 179.929 49.6133C183.946 45.3125 189.006 43.162 195.111 43.162C201.216 43.162 206.276 45.3125 210.293 49.6133C214.309 53.874 216.317 59.1395 216.317 65.41C216.317 71.6804 214.309 76.966 210.293 81.2669C206.276 85.5677 201.216 87.7182 195.111 87.7182C189.006 87.7182 183.946 85.5677 179.929 81.2669ZM182.098 51.4824C178.764 55.2205 177.098 59.8631 177.098 65.41C177.098 70.9569 178.764 75.6195 182.098 79.3978C185.472 83.1761 189.809 85.0653 195.111 85.0653C200.453 85.0653 204.79 83.1761 208.124 79.3978C211.497 75.6195 213.184 70.9569 213.184 65.41C213.184 59.8631 211.497 55.2205 208.124 51.4824C204.79 47.7041 200.453 45.8149 195.111 45.8149C189.769 45.8149 185.432 47.7041 182.098 51.4824Z" fill="url(#paint4_linear_389_6695)"/>
<path d="M250.276 84.2654C250.134 84.5695 249.828 84.7638 249.493 84.7638H248.994C248.644 84.7638 248.329 84.5528 248.196 84.2295L235.825 54.2559C235.675 53.9044 235.53 53.5617 235.392 53.2277C235.043 52.3844 233.718 52.5349 233.599 53.4398L233.476 54.3764L228.647 86.26C228.583 86.6824 228.22 86.9947 227.792 86.9947H226.6C226.067 86.9947 225.662 86.5171 225.748 85.9912L232.574 44.2484C232.642 43.8306 233.003 43.5238 233.427 43.5238H233.805C234.153 43.5238 234.467 43.7323 234.602 44.053L247.814 75.4788C248.031 75.952 248.234 76.417 248.423 76.8739C248.754 77.6756 250.266 77.73 250.636 76.9455C250.836 76.5227 251.06 76.054 251.308 75.5391L266.076 44.0212C266.218 43.7177 266.523 43.5238 266.858 43.5238H267.192C267.62 43.5238 267.983 43.8362 268.047 44.2588L274.352 86.0016C274.431 86.5243 274.026 86.9947 273.498 86.9947H272.239C271.809 86.9947 271.445 86.6788 271.384 86.2534L266.791 54.2559C266.533 52.6089 266.378 51.2862 266.328 50.2878C266.315 50.0391 266.109 49.9886 266.008 50.2163V50.2163C265.887 50.5378 265.646 51.1006 265.285 51.9045C264.963 52.6682 264.622 53.4721 264.261 54.3161L250.276 84.2654Z" fill="url(#paint5_linear_389_6695)"/>
<path d="M287.2 86.9947C286.723 86.9947 286.336 86.6078 286.336 86.1307V44.7496C286.336 44.2724 286.723 43.8856 287.2 43.8856H305.473C305.95 43.8856 306.337 44.2724 306.337 44.7496V45.5538C306.337 46.031 305.95 46.4178 305.473 46.4178H290.092C289.615 46.4178 289.228 46.8047 289.228 47.2818V61.4108C289.228 61.8879 289.615 62.2748 290.092 62.2748H303.847C304.324 62.2748 304.711 62.6616 304.711 63.1388V63.8827C304.711 64.3599 304.324 64.7467 303.847 64.7467H290.092C289.615 64.7467 289.228 65.1336 289.228 65.6107V83.5984C289.228 84.0755 289.615 84.4624 290.092 84.4624H306.136C306.613 84.4624 307 84.8492 307 85.3264V86.1307C307 86.6078 306.613 86.9947 306.136 86.9947H287.2Z" fill="url(#paint6_linear_389_6695)"/>
<path d="M19.4376 76.5641L31.6933 45.2785C31.823 44.9475 32.1422 44.7297 32.4978 44.7297H33.0366C33.4066 44.7297 33.7355 44.9652 33.8546 45.3156L44.5597 76.8052C44.8167 77.577 45.0477 78.2834 45.2525 78.9244C45.5273 79.7846 46.9535 79.781 47.2343 78.9228C47.4425 78.2868 47.6755 77.601 47.9334 76.8655L58.8206 44.4743C58.9388 44.1225 59.2684 43.8856 59.6395 43.8856H60.8185C61.4121 43.8856 61.8289 44.4703 61.6353 45.0314L47.2306 86.7742C47.1104 87.1226 46.7824 87.3564 46.4139 87.3564H45.9566C45.5891 87.3564 45.2618 87.1239 45.1408 86.7769L34.1976 55.4014C34.0369 54.8789 33.8562 54.3563 33.6554 53.8338C33.4947 53.3113 33.3542 52.849 33.2337 52.4471C33.1132 52.0451 32.9927 51.7035 32.8722 51.4221L32.6312 50.6986V50.6986C32.618 50.6324 32.4757 50.6206 32.4539 50.6845C31.9896 52.0492 31.4061 53.6014 30.7034 55.3411L18.3277 86.8086C18.1977 87.1391 17.8787 87.3564 17.5236 87.3564H17.0396C16.6719 87.3564 16.3444 87.1236 16.2236 86.7763L1.70324 45.0334C1.50793 44.472 1.92481 43.8856 2.51928 43.8856H3.87804C4.24807 43.8856 4.57701 44.1212 4.69609 44.4715L15.5217 76.3229C16.0438 77.7699 16.4656 79.0762 16.7869 80.2419V80.2419C16.9538 80.7804 17.8001 80.7735 17.9913 80.2432C18.3379 79.2824 18.82 78.056 19.4376 76.5641Z" stroke="url(#paint7_linear_389_6695)" stroke-width="1.728" mask="url(#path-1-outside-1_389_6695)"/>
<path d="M71.8133 86.9947C71.3361 86.9947 70.9493 86.6078 70.9493 86.1307V44.7496C70.9493 44.2724 71.3361 43.8856 71.8133 43.8856H90.0865C90.5637 43.8856 90.9505 44.2724 90.9505 44.7496V45.5538C90.9505 46.031 90.5637 46.4178 90.0865 46.4178H74.705C74.2278 46.4178 73.841 46.8047 73.841 47.2818V61.4108C73.841 61.8879 74.2278 62.2748 74.705 62.2748H88.4599C88.9371 62.2748 89.3239 62.6616 89.3239 63.1388V63.8827C89.3239 64.3599 88.9371 64.7467 88.4599 64.7467H74.705C74.2278 64.7467 73.841 65.1336 73.841 65.6107V83.5984C73.841 84.0755 74.2278 84.4624 74.705 84.4624H90.7492C91.2264 84.4624 91.6132 84.8492 91.6132 85.3264V86.1307C91.6132 86.6078 91.2264 86.9947 90.7492 86.9947H71.8133Z" stroke="url(#paint8_linear_389_6695)" stroke-width="1.728" mask="url(#path-1-outside-1_389_6695)"/>
<path d="M104.054 86.9947C103.576 86.9947 103.19 86.6078 103.19 86.1307V44.7496C103.19 44.2724 103.576 43.8856 104.054 43.8856H105.217C105.695 43.8856 106.081 44.2724 106.081 44.7496V83.4778C106.081 83.955 106.468 84.3418 106.945 84.3418H125.038C125.515 84.3418 125.902 84.7286 125.902 85.2058V86.1307C125.902 86.6078 125.515 86.9947 125.038 86.9947H104.054Z" stroke="url(#paint9_linear_389_6695)" stroke-width="1.728" mask="url(#path-1-outside-1_389_6695)"/>
<path d="M152.91 87.7182C146.644 87.7182 141.263 85.5878 136.764 81.3272C132.266 77.0263 130.017 71.7407 130.017 65.4703C130.017 59.1596 131.985 53.874 135.921 49.6133C139.857 45.3125 144.897 43.162 151.042 43.162C155.594 43.162 160.199 43.8791 164.859 45.3131C165.314 45.4534 165.562 45.9413 165.415 46.395L165.16 47.1818C165.015 47.6285 164.539 47.8768 164.088 47.7482C159.56 46.4593 155.212 45.8149 151.042 45.8149C145.781 45.8149 141.483 47.7041 138.15 51.4824C134.816 55.2607 133.15 59.8832 133.15 65.3497C133.15 70.8162 135.077 75.4788 138.933 79.3375C142.829 83.156 147.488 85.0653 152.91 85.0653C157.294 85.0653 161.128 84.4462 164.412 83.2081C164.853 83.042 165.352 83.2399 165.542 83.6709L165.791 84.2366C165.969 84.6396 165.816 85.1143 165.422 85.3104C163.995 86.0196 162.214 86.581 160.079 86.9947C157.629 87.477 155.239 87.7182 152.91 87.7182Z" stroke="url(#paint10_linear_389_6695)" stroke-width="1.728" mask="url(#path-1-outside-1_389_6695)"/>
<path d="M179.929 81.2669C175.953 76.966 173.965 71.6804 173.965 65.41C173.965 59.1395 175.953 53.874 179.929 49.6133C183.946 45.3125 189.006 43.162 195.111 43.162C201.216 43.162 206.276 45.3125 210.293 49.6133C214.309 53.874 216.317 59.1395 216.317 65.41C216.317 71.6804 214.309 76.966 210.293 81.2669C206.276 85.5677 201.216 87.7182 195.111 87.7182C189.006 87.7182 183.946 85.5677 179.929 81.2669ZM182.098 51.4824C178.764 55.2205 177.098 59.8631 177.098 65.41C177.098 70.9569 178.764 75.6195 182.098 79.3978C185.472 83.1761 189.809 85.0653 195.111 85.0653C200.453 85.0653 204.79 83.1761 208.124 79.3978C211.497 75.6195 213.184 70.9569 213.184 65.41C213.184 59.8631 211.497 55.2205 208.124 51.4824C204.79 47.7041 200.453 45.8149 195.111 45.8149C189.769 45.8149 185.432 47.7041 182.098 51.4824Z" stroke="url(#paint11_linear_389_6695)" stroke-width="1.728" mask="url(#path-1-outside-1_389_6695)"/>
<path d="M250.276 84.2654C250.134 84.5695 249.828 84.7638 249.493 84.7638H248.994C248.644 84.7638 248.329 84.5528 248.196 84.2295L235.825 54.2559C235.675 53.9044 235.53 53.5617 235.392 53.2277C235.043 52.3844 233.718 52.5349 233.599 53.4398L233.476 54.3764L228.647 86.26C228.583 86.6824 228.22 86.9947 227.792 86.9947H226.6C226.067 86.9947 225.662 86.5171 225.748 85.9912L232.574 44.2484C232.642 43.8306 233.003 43.5238 233.427 43.5238H233.805C234.153 43.5238 234.467 43.7323 234.602 44.053L247.814 75.4788C248.031 75.952 248.234 76.417 248.423 76.8739C248.754 77.6756 250.266 77.73 250.636 76.9455C250.836 76.5227 251.06 76.054 251.308 75.5391L266.076 44.0212C266.218 43.7177 266.523 43.5238 266.858 43.5238H267.192C267.62 43.5238 267.983 43.8362 268.047 44.2588L274.352 86.0016C274.431 86.5243 274.026 86.9947 273.498 86.9947H272.239C271.809 86.9947 271.445 86.6788 271.384 86.2534L266.791 54.2559C266.533 52.6089 266.378 51.2862 266.328 50.2878C266.315 50.0391 266.109 49.9886 266.008 50.2163V50.2163C265.887 50.5378 265.646 51.1006 265.285 51.9045C264.963 52.6682 264.622 53.4721 264.261 54.3161L250.276 84.2654Z" stroke="url(#paint12_linear_389_6695)" stroke-width="1.728" mask="url(#path-1-outside-1_389_6695)"/>
<path d="M287.2 86.9947C286.723 86.9947 286.336 86.6078 286.336 86.1307V44.7496C286.336 44.2724 286.723 43.8856 287.2 43.8856H305.473C305.95 43.8856 306.337 44.2724 306.337 44.7496V45.5538C306.337 46.031 305.95 46.4178 305.473 46.4178H290.092C289.615 46.4178 289.228 46.8047 289.228 47.2818V61.4108C289.228 61.8879 289.615 62.2748 290.092 62.2748H303.847C304.324 62.2748 304.711 62.6616 304.711 63.1388V63.8827C304.711 64.3599 304.324 64.7467 303.847 64.7467H290.092C289.615 64.7467 289.228 65.1336 289.228 65.6107V83.5984C289.228 84.0755 289.615 84.4624 290.092 84.4624H306.136C306.613 84.4624 307 84.8492 307 85.3264V86.1307C307 86.6078 306.613 86.9947 306.136 86.9947H287.2Z" stroke="url(#paint13_linear_389_6695)" stroke-width="1.728" mask="url(#path-1-outside-1_389_6695)"/>
<path d="M19.3147 77.0998L31.6951 45.4959C31.8248 45.1648 32.144 44.947 32.4996 44.947H33.0558C33.4258 44.947 33.7547 45.1826 33.8738 45.5329L44.688 77.3434C44.952 78.1362 45.1888 78.8607 45.3983 79.517C45.6729 80.3772 47.0979 80.3738 47.3784 79.5156C47.5915 78.8638 47.8305 78.16 48.0954 77.4043L59.0934 44.6832C59.2116 44.3315 59.5413 44.0945 59.9124 44.0945H61.1215C61.7151 44.0945 62.1319 44.6792 61.9382 45.2403L47.3836 87.4179C47.2634 87.7663 46.9354 88.0001 46.5669 88.0001H46.0927C45.7252 88.0001 45.3979 87.7676 45.2769 87.4206L34.2223 55.7255C34.06 55.1977 33.8775 54.67 33.6747 54.1422C33.5124 53.6145 33.3704 53.1476 33.2487 52.7416C33.127 52.3357 33.0053 51.9906 32.8836 51.7064L32.6403 50.9757V50.9757C32.6269 50.9088 32.4832 50.8968 32.4612 50.9614C31.9922 52.3398 31.4029 53.9075 30.6931 55.6646L18.1915 87.4523C18.0616 87.7828 17.7426 88.0001 17.3875 88.0001H16.8866C16.5189 88.0001 16.1914 87.7673 16.0706 87.4199L1.39904 45.2423C1.20373 44.6809 1.62061 44.0945 2.21508 44.0945H3.60577C3.97579 44.0945 4.30474 44.3301 4.42381 44.6804L15.3597 76.8562C15.887 78.3177 16.3129 79.6371 16.6375 80.8144V80.8144C16.8061 81.3582 17.6608 81.3513 17.854 80.8157C18.204 79.8453 18.691 78.6067 19.3147 77.0998Z" fill="url(#paint14_linear_389_6695)"/>
<path d="M73.1098 0.202843C80.4046 21.9028 78.4688 33.8542 56.4841 50.7146C58.7003 35.4256 66.5798 28.6045 72.56 9.07177C60.6161 32.6546 59.7641 28.1782 55.0783 47.7889C40.9824 28.8566 71.6218 15.0143 73.1098 0.202843Z" fill="url(#paint15_linear_389_6695)"/>
<defs>
<linearGradient id="paint0_linear_389_6695" x1="154.152" y1="43.162" x2="154.152" y2="87.7182" gradientUnits="userSpaceOnUse">
<stop stop-color="#538E3E"/>
<stop offset="1" stop-color="#195C44"/>
</linearGradient>
<linearGradient id="paint1_linear_389_6695" x1="154.152" y1="43.162" x2="154.152" y2="87.7182" gradientUnits="userSpaceOnUse">
<stop stop-color="#538E3E"/>
<stop offset="1" stop-color="#195C44"/>
</linearGradient>
<linearGradient id="paint2_linear_389_6695" x1="154.152" y1="43.162" x2="154.152" y2="87.7182" gradientUnits="userSpaceOnUse">
<stop stop-color="#538E3E"/>
<stop offset="1" stop-color="#195C44"/>
</linearGradient>
<linearGradient id="paint3_linear_389_6695" x1="154.152" y1="43.162" x2="154.152" y2="87.7182" gradientUnits="userSpaceOnUse">
<stop stop-color="#538E3E"/>
<stop offset="1" stop-color="#195C44"/>
</linearGradient>
<linearGradient id="paint4_linear_389_6695" x1="154.152" y1="43.162" x2="154.152" y2="87.7182" gradientUnits="userSpaceOnUse">
<stop stop-color="#538E3E"/>
<stop offset="1" stop-color="#195C44"/>
</linearGradient>
<linearGradient id="paint5_linear_389_6695" x1="154.152" y1="43.162" x2="154.152" y2="87.7182" gradientUnits="userSpaceOnUse">
<stop stop-color="#538E3E"/>
<stop offset="1" stop-color="#195C44"/>
</linearGradient>
<linearGradient id="paint6_linear_389_6695" x1="154.152" y1="43.162" x2="154.152" y2="87.7182" gradientUnits="userSpaceOnUse">
<stop stop-color="#538E3E"/>
<stop offset="1" stop-color="#195C44"/>
</linearGradient>
<linearGradient id="paint7_linear_389_6695" x1="154.152" y1="43.162" x2="154.152" y2="87.7182" gradientUnits="userSpaceOnUse">
<stop stop-color="#538E3E"/>
<stop offset="1" stop-color="#1C674C"/>
</linearGradient>
<linearGradient id="paint8_linear_389_6695" x1="154.152" y1="43.162" x2="154.152" y2="87.7182" gradientUnits="userSpaceOnUse">
<stop stop-color="#538E3E"/>
<stop offset="1" stop-color="#1C674C"/>
</linearGradient>
<linearGradient id="paint9_linear_389_6695" x1="154.152" y1="43.162" x2="154.152" y2="87.7182" gradientUnits="userSpaceOnUse">
<stop stop-color="#538E3E"/>
<stop offset="1" stop-color="#1C674C"/>
</linearGradient>
<linearGradient id="paint10_linear_389_6695" x1="154.152" y1="43.162" x2="154.152" y2="87.7182" gradientUnits="userSpaceOnUse">
<stop stop-color="#538E3E"/>
<stop offset="1" stop-color="#1C674C"/>
</linearGradient>
<linearGradient id="paint11_linear_389_6695" x1="154.152" y1="43.162" x2="154.152" y2="87.7182" gradientUnits="userSpaceOnUse">
<stop stop-color="#538E3E"/>
<stop offset="1" stop-color="#1C674C"/>
</linearGradient>
<linearGradient id="paint12_linear_389_6695" x1="154.152" y1="43.162" x2="154.152" y2="87.7182" gradientUnits="userSpaceOnUse">
<stop stop-color="#538E3E"/>
<stop offset="1" stop-color="#1C674C"/>
</linearGradient>
<linearGradient id="paint13_linear_389_6695" x1="154.152" y1="43.162" x2="154.152" y2="87.7182" gradientUnits="userSpaceOnUse">
<stop stop-color="#538E3E"/>
<stop offset="1" stop-color="#1C674C"/>
</linearGradient>
<linearGradient id="paint14_linear_389_6695" x1="31.6667" y1="44.0945" x2="31.6667" y2="88.0001" gradientUnits="userSpaceOnUse">
<stop stop-color="#538E3E"/>
<stop offset="1" stop-color="#195C44"/>
</linearGradient>
<linearGradient id="paint15_linear_389_6695" x1="59.9146" y1="2.24428" x2="67.1224" y2="48.8333" gradientUnits="userSpaceOnUse">
<stop stop-color="#9DC955"/>
<stop offset="0.765625" stop-color="#538E3E"/>
</linearGradient>
</defs>
</svg>
